solid Zuberi Delta - parts
facet normal -3.8428952426576e-030 1.21680907495158e-030 -1.0
outer loop
vertex -2.02137807257679 4.19382997576796 0.0
vertex -1.95322972515493 -3.07380811443708 0.0
vertex -2.02137807257679 -2.55617002423204 0.0
endloop
endfacet
facet normal -3.8428952426576e-030 1.21680907495158e-030 -1.0
outer loop
vertex -1.95322972515493 -3.07380811443708 0.0
vertex -2.02137807257679 4.19382997576796 0.0
vertex -0.396378072576346 4.19382997576796 0.0
endloop
endfacet
facet normal -3.8428952426576e-030 1.21680907495158e-030 -1.0
outer loop
vertex -1.95322972515493 -3.07380811443708 0.0
vertex -0.396378072576346 4.19382997576796 0.0
vertex -1.75342888014567 -3.55617002423204 0.0
endloop
endfacet
facet normal -3.8428952426576e-030 1.21680907495158e-030 -1.0
outer loop
vertex -1.75342888014567 -3.55617002423204 0.0
vertex -0.396378072576346 4.19382997576796 0.0
vertex -1.43559163494989 -3.97038358660514 0.0
endloop
endfacet
facet normal -3.8428952426576e-030 1.21680907495158e-030 -1.0
outer loop
vertex -1.43559163494989 -3.97038358660514 0.0
vertex -0.396378072576346 4.19382997576796 0.0
vertex -1.02137807257679 -4.28822083180092 0.0
endloop
endfacet
facet normal -3.8428952426576e-030 1.21680907495158e-030 -1.0
outer loop
vertex -1.02137807257679 -4.28822083180092 0.0
vertex -0.396378072576346 4.19382997576796 0.0
vertex -0.771378072576793 -2.55617002423205 0.0
endloop
endfacet
facet normal -3.8428952426576e-030 1.21680907495158e-030 -1.0
outer loop
vertex -0.771378072576793 -2.55617002423205 0.0
vertex -0.396378072576346 4.19382997576796 0.0
vertex -0.745822442293597 -2.36205574040516 0.0
endloop
endfacet
facet normal -3.8428952426576e-030 1.21680907495158e-030 -1.0
outer loop
vertex -0.745822442293597 -2.36205574040516 0.0
vertex -0.396378072576346 4.19382997576796 0.0
vertex -0.670897125415127 -2.18117002423205 0.0
endloop
endfacet
facet normal -3.8428952426576e-030 1.21680907495158e-030 -1.0
outer loop
vertex -0.670897125415127 -2.18117002423205 0.0
vertex -0.396378072576346 4.19382997576796 0.0
vertex -0.551708158466711 -2.02583993834214 0.0
endloop
endfacet
facet normal -3.8428952426576e-030 1.21680907495158e-030 -1.0
outer loop
vertex -0.551708158466711 -2.02583993834214 0.0
vertex -0.396378072576346 4.19382997576796 0.0
vertex -0.521378072576792 -2.00256684489108 0.0
endloop
endfacet
facet normal -3.8428952426576e-030 1.21680907495158e-030 -1.0
outer loop
vertex -0.521378072576792 -2.00256684489108 0.0
vertex -0.396378072576346 4.19382997576796 0.0
vertex -0.396378072576802 -1.90665097139371 0.0
endloop
endfacet
facet normal -3.8428952426576e-030 1.21680907495158e-030 -1.0
outer loop
vertex 1.97862192742321 4.19382997576796 0.0
vertex 0.353621927423198 -1.9066509713937 0.0
vertex 0.353621927423198 4.19382997576796 0.0
endloop
endfacet
facet normal -3.8428952426576e-030 1.21680907495158e-030 -1.0
outer loop
vertex 0.353621927423198 -1.9066509713937 0.0
vertex 1.97862192742321 4.19382997576796 0.0
vertex 0.478621927423208 -2.00256684489108 0.0
endloop
endfacet
facet normal -3.8428952426576e-030 1.21680907495158e-030 -1.0
outer loop
vertex 0.478621927423208 -2.00256684489108 0.0
vertex 1.97862192742321 4.19382997576796 0.0
vertex 0.50895201331311 -2.02583993834212 0.0
endloop
endfacet
facet normal -3.8428952426576e-030 1.21680907495158e-030 -1.0
outer loop
vertex 0.50895201331311 -2.02583993834212 0.0
vertex 1.97862192742321 4.19382997576796 0.0
vertex 0.628140980261531 -2.18117002423203 0.0
endloop
endfacet
facet normal -3.8428952426576e-030 1.21680907495158e-030 -1.0
outer loop
vertex 0.628140980261531 -2.18117002423203 0.0
vertex 1.97862192742321 4.19382997576796 0.0
vertex 0.703066297140006 -2.36205574040514 0.0
endloop
endfacet
facet normal -3.8428952426576e-030 1.21680907495158e-030 -1.0
outer loop
vertex 0.703066297140006 -2.36205574040514 0.0
vertex 1.97862192742321 4.19382997576796 0.0
vertex 0.728621927423207 -2.55617002423203 0.0
endloop
endfacet
facet normal -3.8428952426576e-030 1.21680907495158e-030 -1.0
outer loop
vertex 0.728621927423207 -2.55617002423203 0.0
vertex 1.97862192742321 4.19382997576796 0.0
vertex 0.978621927423207 -4.28822083180092 0.0
endloop
endfacet
facet normal -3.8428952426576e-030 1.21680907495158e-030 -1.0
outer loop
vertex 0.978621927423207 -4.28822083180092 0.0
vertex 1.97862192742321 4.19382997576796 0.0
vertex 1.3928354897963 -3.97038358660514 0.0
endloop
endfacet
facet normal -3.8428952426576e-030 1.21680907495158e-030 -1.0
outer loop
vertex 1.3928354897963 -3.97038358660514 0.0
vertex 1.97862192742321 4.19382997576796 0.0
vertex 1.71067273499208 -3.55617002423204 0.0
endloop
endfacet
facet normal -3.8428952426576e-030 1.21680907495158e-030 -1.0
outer loop
vertex 1.71067273499208 -3.55617002423204 0.0
vertex 1.97862192742321 4.19382997576796 0.0
vertex 1.91047358000134 -3.07380811443708 0.0
endloop
endfacet
facet normal -3.8428952426576e-030 1.21680907495158e-030 -1.0
outer loop
vertex 1.91047358000134 -3.07380811443708 0.0
vertex 1.97862192742321 4.19382997576796 0.0
vertex 1.97862192742321 -2.55617002423204 0.0
endloop
endfacet
facet normal -3.8428952426576e-030 1.21680907495158e-030 -1.0
outer loop
vertex -0.771378072576793 -2.55617002423205 0.0
vertex -0.539016162781834 -4.48802167681017 0.0
vertex -1.02137807257679 -4.28822083180092 0.0
endloop
endfacet
facet normal -3.8428952426576e-030 1.21680907495158e-030 -1.0
outer loop
vertex -0.539016162781834 -4.48802167681017 0.0
vertex -0.771378072576793 -2.55617002423205 0.0
vertex -0.745822442293591 -2.75028430805894 0.0
endloop
endfacet
facet normal -3.8428952426576e-030 1.21680907495158e-030 -1.0
outer loop
vertex -0.539016162781834 -4.48802167681017 0.0
vertex -0.745822442293591 -2.75028430805894 0.0
vertex -0.670897125415116 -2.93117002423205 0.0
endloop
endfacet
facet normal -3.8428952426576e-030 1.21680907495158e-030 -1.0
outer loop
vertex -0.539016162781834 -4.48802167681017 0.0
vertex -0.670897125415116 -2.93117002423205 0.0
vertex -0.551708158466695 -3.08650011012196 0.0
endloop
endfacet
facet normal -3.8428952426576e-030 1.21680907495158e-030 -1.0
outer loop
vertex -0.539016162781834 -4.48802167681017 0.0
vertex -0.551708158466695 -3.08650011012196 0.0
vertex -0.396378072576783 -3.20568907707037 0.0
endloop
endfacet
facet normal -3.8428952426576e-030 1.21680907495158e-030 -1.0
outer loop
vertex -0.539016162781834 -4.48802167681017 0.0
vertex -0.396378072576783 -3.20568907707037 0.0
vertex -0.0213780725767926 -4.55617002423204 0.0
endloop
endfacet
facet normal -3.8428952426576e-030 1.21680907495158e-030 -1.0
outer loop
vertex -0.0213780725767926 -4.55617002423204 0.0
vertex -0.396378072576783 -3.20568907707037 0.0
vertex -0.215492356403672 -3.28061439394884 0.0
endloop
endfacet
facet normal -3.8428952426576e-030 1.21680907495158e-030 -1.0
outer loop
vertex -0.0213780725767926 -4.55617002423204 0.0
vertex -0.215492356403672 -3.28061439394884 0.0
vertex -0.0213780725767813 -3.30617002423204 0.0
endloop
endfacet
facet normal -3.8428952426576e-030 1.21680907495158e-030 -1.0
outer loop
vertex -0.0213780725767926 -4.55617002423204 0.0
vertex -0.0213780725767813 -3.30617002423204 0.0
vertex 0.496260017628248 -4.48802167681017 0.0
endloop
endfacet
facet normal -3.8428952426576e-030 1.21680907495158e-030 -1.0
outer loop
vertex 0.496260017628248 -4.48802167681017 0.0
vertex -0.0213780725767813 -3.30617002423204 0.0
vertex 0.172736211250109 -3.28061439394884 0.0
endloop
endfacet
facet normal -3.8428952426576e-030 1.21680907495158e-030 -1.0
outer loop
vertex 0.496260017628248 -4.48802167681017 0.0
vertex 0.172736211250109 -3.28061439394884 0.0
vertex 0.353621927423217 -3.20568907707036 0.0
endloop
endfacet
facet normal -3.8428952426576e-030 1.21680907495158e-030 -1.0
outer loop
vertex 0.496260017628248 -4.48802167681017 0.0
vertex 0.353621927423217 -3.20568907707036 0.0
vertex 0.508952013313126 -3.08650011012194 0.0
endloop
endfacet
facet normal -3.8428952426576e-030 1.21680907495158e-030 -1.0
outer loop
vertex 0.496260017628248 -4.48802167681017 0.0
vertex 0.508952013313126 -3.08650011012194 0.0
vertex 0.978621927423207 -4.28822083180092 0.0
endloop
endfacet
facet normal -3.8428952426576e-030 1.21680907495158e-030 -1.0
outer loop
vertex 0.978621927423207 -4.28822083180092 0.0
vertex 0.508952013313126 -3.08650011012194 0.0
vertex 0.628140980261542 -2.93117002423203 0.0
endloop
endfacet
facet normal -3.8428952426576e-030 1.21680907495158e-030 -1.0
outer loop
vertex 0.978621927423207 -4.28822083180092 0.0
vertex 0.628140980261542 -2.93117002423203 0.0
vertex 0.703066297140011 -2.75028430805892 0.0
endloop
endfacet
facet normal -3.8428952426576e-030 1.21680907495158e-030 -1.0
outer loop
vertex 0.978621927423207 -4.28822083180092 0.0
vertex 0.703066297140011 -2.75028430805892 0.0
vertex 0.728621927423207 -2.55617002423203 0.0
endloop
endfacet
facet normal 0.0 0.965925826289068 -0.258819045102523
outer loop
vertex 0.353621927423197 0.131311566849988 3.28470094961278
vertex 1.97862192742321 0.0938299757679616 2.99999999999999
vertex 0.353621927423197 0.0938299757679616 2.99999999999999
endloop
endfacet
facet normal 0.0 1.0 0.0
outer loop
vertex 1.97862192742321 0.0938299757679616 2.99999999999999
vertex 0.353621927423197 0.131311566849988 3.28470094961278
vertex 1.97862192742321 0.131311566849988 3.28470094961278
endloop
endfacet
facet normal 0.0 1.0 0.0
outer loop
vertex 0.353621927423197 0.0938299757679616 2.99999999999999
vertex 1.97862192742321 0.131311566849988 2.71529905038721
vertex 0.353621927423197 0.131311566849988 2.71529905038721
endloop
endfacet
facet normal 0.0 0.965925826289068 0.258819045102523
outer loop
vertex 1.97862192742321 0.131311566849988 2.71529905038721
vertex 0.353621927423197 0.0938299757679616 2.99999999999999
vertex 1.97862192742321 0.0938299757679616 2.99999999999999
endloop
endfacet
facet normal 0.0 0.965925826289068 0.258819045102523
outer loop
vertex 0.353621927423197 0.131311566849988 2.71529905038721
vertex 1.97862192742321 0.24120203160508 2.44999999999998
vertex 0.353621927423197 0.24120203160508 2.44999999999998
endloop
endfacet
facet normal 0.0 0.866025403784442 0.499999999999995
outer loop
vertex 1.97862192742321 0.24120203160508 2.44999999999998
vertex 0.353621927423197 0.131311566849988 2.71529905038721
vertex 1.97862192742321 0.131311566849988 2.71529905038721
endloop
endfacet
facet normal 0.0 0.866025403784442 0.499999999999995
outer loop
vertex 0.353621927423197 0.24120203160508 2.44999999999998
vertex 1.97862192742321 0.416012516462759 2.22218254069478
vertex 0.353621927423197 0.416012516462759 2.22218254069478
endloop
endfacet
facet normal 0.0 0.707106781186546 0.707106781186549
outer loop
vertex 1.97862192742321 0.416012516462759 2.22218254069478
vertex 0.353621927423197 0.24120203160508 2.44999999999998
vertex 1.97862192742321 0.24120203160508 2.44999999999998
endloop
endfacet
facet normal 0.0 0.707106781186546 0.707106781186549
outer loop
vertex 1.97862192742321 0.416012516462759 2.22218254069478
vertex 0.353621927423197 0.643829975767961 2.0473720558371
vertex 0.353621927423197 0.416012516462759 2.22218254069478
endloop
endfacet
facet normal 0.0 0.499999999999959 0.866025403784463
outer loop
vertex 0.353621927423197 0.643829975767961 2.0473720558371
vertex 1.97862192742321 0.416012516462759 2.22218254069478
vertex 1.97862192742321 0.643829975767961 2.0473720558371
endloop
endfacet
facet normal 0.0 -0.965925826289068 0.258819045102523
outer loop
vertex 1.97862192742321 2.25634838468593 2.71529905038721
vertex 0.353621927423197 2.14645791993084 2.44999999999998
vertex 1.97862192742321 2.14645791993084 2.44999999999998
endloop
endfacet
facet normal 0.0 -0.866025403784442 0.499999999999995
outer loop
vertex 0.353621927423197 2.14645791993084 2.44999999999998
vertex 1.97862192742321 2.25634838468593 2.71529905038721
vertex 0.353621927423197 2.25634838468593 2.71529905038721
endloop
endfacet
facet normal 0.0 -0.866025403784442 0.499999999999995
outer loop
vertex 1.97862192742321 2.14645791993084 2.44999999999998
vertex 0.353621927423197 1.97164743507316 2.22218254069478
vertex 1.97862192742321 1.97164743507316 2.22218254069478
endloop
endfacet
facet normal 0.0 -0.707106781186546 0.707106781186549
outer loop
vertex 0.353621927423197 1.97164743507316 2.22218254069478
vertex 1.97862192742321 2.14645791993084 2.44999999999998
vertex 0.353621927423197 2.14645791993084 2.44999999999998
endloop
endfacet
facet normal 0.0 -0.499999999999959 0.866025403784463
outer loop
vertex 1.97862192742321 1.74382997576796 2.0473720558371
vertex 0.353621927423197 1.97164743507316 2.22218254069478
vertex 0.353621927423197 1.74382997576796 2.0473720558371
endloop
endfacet
facet normal 0.0 -0.707106781186546 0.707106781186549
outer loop
vertex 0.353621927423197 1.97164743507316 2.22218254069478
vertex 1.97862192742321 1.74382997576796 2.0473720558371
vertex 1.97862192742321 1.97164743507316 2.22218254069478
endloop
endfacet
facet normal 0.0 -0.258819045102469 0.965925826289082
outer loop
vertex 1.97862192742321 1.47853092538073 1.93748159108203
vertex 0.353621927423197 1.74382997576796 2.0473720558371
vertex 0.353621927423197 1.47853092538073 1.93748159108203
endloop
endfacet
facet normal 0.0 -0.499999999999959 0.866025403784463
outer loop
vertex 0.353621927423197 1.74382997576796 2.0473720558371
vertex 1.97862192742321 1.47853092538073 1.93748159108203
vertex 1.97862192742321 1.74382997576796 2.0473720558371
endloop
endfacet
facet normal 0.0 0.0 1.0
outer loop
vertex 1.97862192742321 1.19382997576796 1.90000000000002
vertex 0.353621927423197 1.47853092538073 1.93748159108203
vertex 0.353621927423197 1.19382997576796 1.90000000000002
endloop
endfacet
facet normal 0.0 -0.258819045102469 0.965925826289082
outer loop
vertex 0.353621927423197 1.47853092538073 1.93748159108203
vertex 1.97862192742321 1.19382997576796 1.90000000000002
vertex 1.97862192742321 1.47853092538073 1.93748159108203
endloop
endfacet
facet normal 0.0 -0.499999999999959 -0.866025403784463
outer loop
vertex 1.97862192742321 1.74382997576796 3.95262794416288
vertex 0.353621927423197 1.47853092538073 4.06251840891795
vertex 0.353621927423197 1.74382997576796 3.95262794416288
endloop
endfacet
facet normal 0.0 -0.258819045102469 -0.965925826289082
outer loop
vertex 0.353621927423197 1.47853092538073 4.06251840891795
vertex 1.97862192742321 1.74382997576796 3.95262794416288
vertex 1.97862192742321 1.47853092538073 4.06251840891795
endloop
endfacet
facet normal 0.866025403784439 -0.5 -3.93644944169964e-030
outer loop
vertex 1.71067273499208 -3.55617002423204 0.0
vertex 1.3928354897963 -3.97038358660514 5.99999999999999
vertex 1.3928354897963 -3.97038358660514 0.0
endloop
endfacet
facet normal 0.707106781186548 -0.707106781186547 -3.5777512337803e-030
outer loop
vertex 1.3928354897963 -3.97038358660514 5.99999999999999
vertex 1.71067273499208 -3.55617002423204 0.0
vertex 1.71067273499208 -3.55617002423204 5.99999999999999
endloop
endfacet
facet normal 0.0 0.258819045102469 -0.965925826289082
outer loop
vertex -0.396378072576601 0.909129026155189 4.06251840891795
vertex -2.02137807257679 0.643829975767961 3.95262794416288
vertex -2.02137807257679 0.909129026155189 4.06251840891795
endloop
endfacet
facet normal 0.0 0.499999999999959 -0.866025403784463
outer loop
vertex -2.02137807257679 0.643829975767961 3.95262794416288
vertex -0.396378072576601 0.909129026155189 4.06251840891795
vertex -0.396378072576601 0.643829975767961 3.95262794416288
endloop
endfacet
facet normal 0.0 0.499999999999959 -0.866025403784463
outer loop
vertex -0.396378072576601 0.643829975767961 3.95262794416288
vertex -2.02137807257679 0.416012516462759 3.77781745930521
vertex -2.02137807257679 0.643829975767961 3.95262794416288
endloop
endfacet
facet normal 0.0 0.707106781186546 -0.707106781186549
outer loop
vertex -2.02137807257679 0.416012516462759 3.77781745930521
vertex -0.396378072576601 0.643829975767961 3.95262794416288
vertex -0.396378072576601 0.416012516462759 3.77781745930521
endloop
endfacet
facet normal 0.0 0.707106781186546 -0.707106781186549
outer loop
vertex -2.02137807257679 0.416012516462759 3.77781745930521
vertex -0.396378072576601 0.24120203160508 3.55
vertex -2.02137807257679 0.24120203160508 3.55
endloop
endfacet
facet normal 0.0 0.866025403784442 -0.499999999999995
outer loop
vertex -0.396378072576601 0.24120203160508 3.55
vertex -2.02137807257679 0.416012516462759 3.77781745930521
vertex -0.396378072576601 0.416012516462759 3.77781745930521
endloop
endfacet
facet normal 0.0 -1.0 0.0
outer loop
vertex 1.97862192742321 2.29382997576796 2.99999999999999
vertex 0.353621927423197 2.25634838468593 2.71529905038721
vertex 1.97862192742321 2.25634838468593 2.71529905038721
endloop
endfacet
facet normal 0.0 -0.965925826289068 0.258819045102523
outer loop
vertex 0.353621927423197 2.25634838468593 2.71529905038721
vertex 1.97862192742321 2.29382997576796 2.99999999999999
vertex 0.353621927423197 2.29382997576796 2.99999999999999
endloop
endfacet
facet normal 0.0 0.866025403784442 -0.499999999999995
outer loop
vertex -2.02137807257679 0.24120203160508 3.55
vertex -0.396378072576601 0.131311566849988 3.28470094961278
vertex -2.02137807257679 0.131311566849988 3.28470094961278
endloop
endfacet
facet normal 0.0 0.965925826289068 -0.258819045102523
outer loop
vertex -0.396378072576601 0.131311566849988 3.28470094961278
vertex -2.02137807257679 0.24120203160508 3.55
vertex -0.396378072576601 0.24120203160508 3.55
endloop
endfacet
facet normal 0.0 -0.258819045102469 -0.965925826289082
outer loop
vertex -0.396378072576601 1.47853092538073 4.06251840891795
vertex -2.02137807257679 1.19382997576796 4.09999999999997
vertex -2.02137807257679 1.47853092538073 4.06251840891795
endloop
endfacet
facet normal 0.0 0.0 -1.0
outer loop
vertex -2.02137807257679 1.19382997576796 4.09999999999997
vertex -0.396378072576601 1.47853092538073 4.06251840891795
vertex -0.396378072576601 1.19382997576796 4.09999999999997
endloop
endfacet
facet normal 0.0 -0.707106781186546 -0.707106781186549
outer loop
vertex 1.97862192742321 1.97164743507316 3.77781745930521
vertex 0.353621927423197 2.14645791993084 3.55
vertex 1.97862192742321 2.14645791993084 3.55
endloop
endfacet
facet normal 0.0 -0.866025403784442 -0.499999999999995
outer loop
vertex 0.353621927423197 2.14645791993084 3.55
vertex 1.97862192742321 1.97164743507316 3.77781745930521
vertex 0.353621927423197 1.97164743507316 3.77781745930521
endloop
endfacet
facet normal 0.0 -0.499999999999959 -0.866025403784463
outer loop
vertex -0.396378072576601 1.74382997576796 3.95262794416288
vertex -2.02137807257679 1.47853092538073 4.06251840891795
vertex -2.02137807257679 1.74382997576796 3.95262794416288
endloop
endfacet
facet normal 0.0 -0.258819045102469 -0.965925826289082
outer loop
vertex -2.02137807257679 1.47853092538073 4.06251840891795
vertex -0.396378072576601 1.74382997576796 3.95262794416288
vertex -0.396378072576601 1.47853092538073 4.06251840891795
endloop
endfacet
facet normal 0.0 -0.258819045102469 -0.965925826289082
outer loop
vertex 1.97862192742321 1.47853092538073 4.06251840891795
vertex 0.353621927423197 1.19382997576796 4.09999999999997
vertex 0.353621927423197 1.47853092538073 4.06251840891795
endloop
endfacet
facet normal 0.0 0.0 -1.0
outer loop
vertex 0.353621927423197 1.19382997576796 4.09999999999997
vertex 1.97862192742321 1.47853092538073 4.06251840891795
vertex 1.97862192742321 1.19382997576796 4.09999999999997
endloop
endfacet
facet normal 0.0 0.0 -1.0
outer loop
vertex 1.97862192742321 1.19382997576796 4.09999999999997
vertex 0.353621927423197 0.909129026155189 4.06251840891795
vertex 0.353621927423197 1.19382997576796 4.09999999999997
endloop
endfacet
facet normal 0.0 0.258819045102469 -0.965925826289082
outer loop
vertex 0.353621927423197 0.909129026155189 4.06251840891795
vertex 1.97862192742321 1.19382997576796 4.09999999999997
vertex 1.97862192742321 0.909129026155189 4.06251840891795
endloop
endfacet
facet normal 0.707106781186548 -0.707106781186547 -3.5777512337803e-030
outer loop
vertex 1.3928354897963 -3.97038358660514 5.99999999999999
vertex 0.978621927423207 -4.28822083180092 0.0
vertex 1.3928354897963 -3.97038358660514 0.0
endloop
endfacet
facet normal 0.499999999999999 -0.86602540378444 -2.9752351917923e-030
outer loop
vertex 0.978621927423207 -4.28822083180092 0.0
vertex 1.3928354897963 -3.97038358660514 5.99999999999999
vertex 0.978621927423207 -4.28822083180092 5.99999999999999
endloop
endfacet
facet normal -1.0 0.0 3.8428952426576e-030
outer loop
vertex 0.353621927423198 -1.9066509713937 5.99999999999999
vertex 0.353621927423197 0.24120203160508 3.55
vertex 0.353621927423198 -1.9066509713937 0.0
endloop
endfacet
facet normal -1.0 0.0 3.8428952426576e-030
outer loop
vertex 0.353621927423197 0.24120203160508 3.55
vertex 0.353621927423198 -1.9066509713937 5.99999999999999
vertex 0.353621927423197 0.416012516462759 3.77781745930521
endloop
endfacet
facet normal -1.0 0.0 3.8428952426576e-030
outer loop
vertex 0.353621927423197 0.416012516462759 3.77781745930521
vertex 0.353621927423198 -1.9066509713937 5.99999999999999
vertex 0.353621927423197 0.643829975767961 3.95262794416288
endloop
endfacet
facet normal -1.0 0.0 3.8428952426576e-030
outer loop
vertex 0.353621927423197 0.643829975767961 3.95262794416288
vertex 0.353621927423198 -1.9066509713937 5.99999999999999
vertex 0.353621927423198 4.19382997576796 5.99999999999999
endloop
endfacet
facet normal -1.0 0.0 3.8428952426576e-030
outer loop
vertex 0.353621927423198 -1.9066509713937 0.0
vertex 0.353621927423197 0.24120203160508 3.55
vertex 0.353621927423197 0.131311566849988 3.28470094961278
endloop
endfacet
facet normal -1.0 0.0 3.8428952426576e-030
outer loop
vertex 0.353621927423198 -1.9066509713937 0.0
vertex 0.353621927423197 0.131311566849988 3.28470094961278
vertex 0.353621927423197 0.0938299757679616 2.99999999999999
endloop
endfacet
facet normal -1.0 0.0 3.8428952426576e-030
outer loop
vertex 0.353621927423197 0.643829975767961 3.95262794416288
vertex 0.353621927423198 4.19382997576796 5.99999999999999
vertex 0.353621927423197 0.909129026155189 4.06251840891795
endloop
endfacet
facet normal -1.0 0.0 3.8428952426576e-030
outer loop
vertex 0.353621927423197 0.909129026155189 4.06251840891795
vertex 0.353621927423198 4.19382997576796 5.99999999999999
vertex 0.353621927423197 1.19382997576796 4.09999999999997
endloop
endfacet
facet normal -1.0 0.0 3.8428952426576e-030
outer loop
vertex 0.353621927423197 1.19382997576796 4.09999999999997
vertex 0.353621927423198 4.19382997576796 5.99999999999999
vertex 0.353621927423197 1.47853092538073 4.06251840891795
endloop
endfacet
facet normal -1.0 0.0 3.8428952426576e-030
outer loop
vertex 0.353621927423197 1.47853092538073 4.06251840891795
vertex 0.353621927423198 4.19382997576796 5.99999999999999
vertex 0.353621927423197 1.74382997576796 3.95262794416288
endloop
endfacet
facet normal -1.0 0.0 3.8428952426576e-030
outer loop
vertex 0.353621927423197 1.74382997576796 3.95262794416288
vertex 0.353621927423198 4.19382997576796 5.99999999999999
vertex 0.353621927423197 1.97164743507316 3.77781745930521
endloop
endfacet
facet normal -1.0 0.0 3.8428952426576e-030
outer loop
vertex 0.353621927423197 1.97164743507316 3.77781745930521
vertex 0.353621927423198 4.19382997576796 5.99999999999999
vertex 0.353621927423197 2.14645791993084 3.55
endloop
endfacet
facet normal -1.0 0.0 3.8428952426576e-030
outer loop
vertex 0.353621927423197 2.14645791993084 3.55
vertex 0.353621927423198 4.19382997576796 5.99999999999999
vertex 0.353621927423197 2.25634838468593 3.28470094961278
endloop
endfacet
facet normal -1.0 0.0 3.8428952426576e-030
outer loop
vertex 0.353621927423197 2.25634838468593 3.28470094961278
vertex 0.353621927423198 4.19382997576796 5.99999999999999
vertex 0.353621927423197 2.29382997576796 2.99999999999999
endloop
endfacet
facet normal -1.0 0.0 3.8428952426576e-030
outer loop
vertex 0.353621927423198 -1.9066509713937 0.0
vertex 0.353621927423197 0.643829975767961 2.0473720558371
vertex 0.353621927423198 4.19382997576796 0.0
endloop
endfacet
facet normal -1.0 0.0 3.8428952426576e-030
outer loop
vertex 0.353621927423197 0.643829975767961 2.0473720558371
vertex 0.353621927423198 -1.9066509713937 0.0
vertex 0.353621927423197 0.416012516462759 2.22218254069478
endloop
endfacet
facet normal -1.0 0.0 3.8428952426576e-030
outer loop
vertex 0.353621927423197 0.416012516462759 2.22218254069478
vertex 0.353621927423198 -1.9066509713937 0.0
vertex 0.353621927423197 0.24120203160508 2.44999999999998
endloop
endfacet
facet normal -1.0 0.0 3.8428952426576e-030
outer loop
vertex 0.353621927423197 0.24120203160508 2.44999999999998
vertex 0.353621927423198 -1.9066509713937 0.0
vertex 0.353621927423197 0.131311566849988 2.71529905038721
endloop
endfacet
facet normal -1.0 0.0 3.8428952426576e-030
outer loop
vertex 0.353621927423197 0.131311566849988 2.71529905038721
vertex 0.353621927423198 -1.9066509713937 0.0
vertex 0.353621927423197 0.0938299757679616 2.99999999999999
endloop
endfacet
facet normal -1.0 0.0 3.8428952426576e-030
outer loop
vertex 0.353621927423198 4.19382997576796 0.0
vertex 0.353621927423197 0.643829975767961 2.0473720558371
vertex 0.353621927423197 0.909129026155189 1.93748159108203
endloop
endfacet
facet normal -1.0 0.0 3.8428952426576e-030
outer loop
vertex 0.353621927423198 4.19382997576796 0.0
vertex 0.353621927423197 0.909129026155189 1.93748159108203
vertex 0.353621927423197 1.19382997576796 1.90000000000002
endloop
endfacet
facet normal -1.0 0.0 3.8428952426576e-030
outer loop
vertex 0.353621927423198 4.19382997576796 0.0
vertex 0.353621927423197 1.19382997576796 1.90000000000002
vertex 0.353621927423197 1.47853092538073 1.93748159108203
endloop
endfacet
facet normal -1.0 0.0 3.8428952426576e-030
outer loop
vertex 0.353621927423198 4.19382997576796 0.0
vertex 0.353621927423197 1.47853092538073 1.93748159108203
vertex 0.353621927423197 1.74382997576796 2.0473720558371
endloop
endfacet
facet normal -1.0 0.0 3.8428952426576e-030
outer loop
vertex 0.353621927423198 4.19382997576796 0.0
vertex 0.353621927423197 1.74382997576796 2.0473720558371
vertex 0.353621927423197 1.97164743507316 2.22218254069478
endloop
endfacet
facet normal -1.0 0.0 3.8428952426576e-030
outer loop
vertex 0.353621927423198 4.19382997576796 0.0
vertex 0.353621927423197 1.97164743507316 2.22218254069478
vertex 0.353621927423197 2.14645791993084 2.44999999999998
endloop
endfacet
facet normal -1.0 0.0 3.8428952426576e-030
outer loop
vertex 0.353621927423198 4.19382997576796 0.0
vertex 0.353621927423197 2.14645791993084 2.44999999999998
vertex 0.353621927423197 2.25634838468593 2.71529905038721
endloop
endfacet
facet normal -1.0 0.0 3.8428952426576e-030
outer loop
vertex 0.353621927423198 4.19382997576796 0.0
vertex 0.353621927423197 2.25634838468593 2.71529905038721
vertex 0.353621927423197 2.29382997576796 2.99999999999999
endloop
endfacet
facet normal -1.0 0.0 3.8428952426576e-030
outer loop
vertex 0.353621927423198 4.19382997576796 0.0
vertex 0.353621927423197 2.29382997576796 2.99999999999999
vertex 0.353621927423198 4.19382997576796 5.99999999999999
endloop
endfacet
facet normal 0.0 0.499999999999959 0.866025403784463
outer loop
vertex 1.97862192742321 0.643829975767961 2.0473720558371
vertex 0.353621927423197 0.909129026155189 1.93748159108203
vertex 0.353621927423197 0.643829975767961 2.0473720558371
endloop
endfacet
facet normal 0.0 0.258819045102469 0.965925826289082
outer loop
vertex 0.353621927423197 0.909129026155189 1.93748159108203
vertex 1.97862192742321 0.643829975767961 2.0473720558371
vertex 1.97862192742321 0.909129026155189 1.93748159108203
endloop
endfacet
facet normal 0.0 -0.707106781186546 -0.707106781186549
outer loop
vertex 1.97862192742321 1.97164743507316 3.77781745930521
vertex 0.353621927423197 1.74382997576796 3.95262794416288
vertex 0.353621927423197 1.97164743507316 3.77781745930521
endloop
endfacet
facet normal 0.0 -0.499999999999959 -0.866025403784463
outer loop
vertex 0.353621927423197 1.74382997576796 3.95262794416288
vertex 1.97862192742321 1.97164743507316 3.77781745930521
vertex 1.97862192742321 1.74382997576796 3.95262794416288
endloop
endfacet
facet normal 0.0 0.258819045102469 -0.965925826289082
outer loop
vertex 1.97862192742321 0.909129026155189 4.06251840891795
vertex 0.353621927423197 0.643829975767961 3.95262794416288
vertex 0.353621927423197 0.909129026155189 4.06251840891795
endloop
endfacet
facet normal 0.0 0.499999999999959 -0.866025403784463
outer loop
vertex 0.353621927423197 0.643829975767961 3.95262794416288
vertex 1.97862192742321 0.909129026155189 4.06251840891795
vertex 1.97862192742321 0.643829975767961 3.95262794416288
endloop
endfacet
facet normal 0.0 0.499999999999959 0.866025403784463
outer loop
vertex -0.396378072576601 0.643829975767961 2.0473720558371
vertex -2.02137807257679 0.909129026155189 1.93748159108203
vertex -2.02137807257679 0.643829975767961 2.0473720558371
endloop
endfacet
facet normal 0.0 0.258819045102469 0.965925826289082
outer loop
vertex -2.02137807257679 0.909129026155189 1.93748159108203
vertex -0.396378072576601 0.643829975767961 2.0473720558371
vertex -0.396378072576601 0.909129026155189 1.93748159108203
endloop
endfacet
facet normal 0.0 0.258819045102469 0.965925826289082
outer loop
vertex -0.396378072576601 0.909129026155189 1.93748159108203
vertex -2.02137807257679 1.19382997576796 1.90000000000002
vertex -2.02137807257679 0.909129026155189 1.93748159108203
endloop
endfacet
facet normal 0.0 0.0 1.0
outer loop
vertex -2.02137807257679 1.19382997576796 1.90000000000002
vertex -0.396378072576601 0.909129026155189 1.93748159108203
vertex -0.396378072576601 1.19382997576796 1.90000000000002
endloop
endfacet
facet normal 0.0 0.258819045102469 0.965925826289082
outer loop
vertex 1.97862192742321 0.909129026155189 1.93748159108203
vertex 0.353621927423197 1.19382997576796 1.90000000000002
vertex 0.353621927423197 0.909129026155189 1.93748159108203
endloop
endfacet
facet normal 0.0 0.0 1.0
outer loop
vertex 0.353621927423197 1.19382997576796 1.90000000000002
vertex 1.97862192742321 0.909129026155189 1.93748159108203
vertex 1.97862192742321 1.19382997576796 1.90000000000002
endloop
endfacet
facet normal 0.0 -0.965925826289068 -0.258819045102523
outer loop
vertex 1.97862192742321 2.25634838468593 3.28470094961278
vertex 0.353621927423197 2.29382997576796 2.99999999999999
vertex 1.97862192742321 2.29382997576796 2.99999999999999
endloop
endfacet
facet normal 0.0 -1.0 0.0
outer loop
vertex 0.353621927423197 2.29382997576796 2.99999999999999
vertex 1.97862192742321 2.25634838468593 3.28470094961278
vertex 0.353621927423197 2.25634838468593 3.28470094961278
endloop
endfacet
facet normal -1.0 -1.54518645590517e-014 3.84289524265758e-030
outer loop
vertex 0.728621927423207 -2.55617002423203 5.99999999999999
vertex 0.703066297140011 -2.75028430805892 0.0
vertex 0.703066297140011 -2.75028430805892 5.99999999999999
endloop
endfacet
facet normal -0.965925826289072 0.258819045102507 4.02688512545742e-030
outer loop
vertex 0.703066297140011 -2.75028430805892 0.0
vertex 0.728621927423207 -2.55617002423203 5.99999999999999
vertex 0.728621927423207 -2.55617002423203 0.0
endloop
endfacet
facet normal 1.0 0.0 -3.8428952426576e-030
outer loop
vertex 1.97862192742321 -2.55617002423204 0.0
vertex 1.97862192742321 0.416012516462759 2.22218254069478
vertex 1.97862192742321 -2.55617002423204 5.99999999999999
endloop
endfacet
facet normal 1.0 0.0 -3.8428952426576e-030
outer loop
vertex 1.97862192742321 0.416012516462759 2.22218254069478
vertex 1.97862192742321 -2.55617002423204 0.0
vertex 1.97862192742321 0.643829975767961 2.0473720558371
endloop
endfacet
facet normal 1.0 0.0 -3.8428952426576e-030
outer loop
vertex 1.97862192742321 0.643829975767961 2.0473720558371
vertex 1.97862192742321 -2.55617002423204 0.0
vertex 1.97862192742321 4.19382997576796 0.0
endloop
endfacet
facet normal 1.0 0.0 -3.8428952426576e-030
outer loop
vertex 1.97862192742321 -2.55617002423204 5.99999999999999
vertex 1.97862192742321 0.416012516462759 2.22218254069478
vertex 1.97862192742321 0.24120203160508 2.44999999999998
endloop
endfacet
facet normal 1.0 0.0 -3.8428952426576e-030
outer loop
vertex 1.97862192742321 -2.55617002423204 5.99999999999999
vertex 1.97862192742321 0.24120203160508 2.44999999999998
vertex 1.97862192742321 0.131311566849988 2.71529905038721
endloop
endfacet
facet normal 1.0 0.0 -3.8428952426576e-030
outer loop
vertex 1.97862192742321 -2.55617002423204 5.99999999999999
vertex 1.97862192742321 0.131311566849988 2.71529905038721
vertex 1.97862192742321 0.0938299757679616 2.99999999999999
endloop
endfacet
facet normal 1.0 0.0 -3.8428952426576e-030
outer loop
vertex 1.97862192742321 0.643829975767961 2.0473720558371
vertex 1.97862192742321 4.19382997576796 0.0
vertex 1.97862192742321 0.909129026155189 1.93748159108203
endloop
endfacet
facet normal 1.0 0.0 -3.8428952426576e-030
outer loop
vertex 1.97862192742321 0.909129026155189 1.93748159108203
vertex 1.97862192742321 4.19382997576796 0.0
vertex 1.97862192742321 1.19382997576796 1.90000000000002
endloop
endfacet
facet normal 1.0 0.0 -3.8428952426576e-030
outer loop
vertex 1.97862192742321 1.19382997576796 1.90000000000002
vertex 1.97862192742321 4.19382997576796 0.0
vertex 1.97862192742321 1.47853092538073 1.93748159108203
endloop
endfacet
facet normal 1.0 0.0 -3.8428952426576e-030
outer loop
vertex 1.97862192742321 1.47853092538073 1.93748159108203
vertex 1.97862192742321 4.19382997576796 0.0
vertex 1.97862192742321 1.74382997576796 2.0473720558371
endloop
endfacet
facet normal 1.0 0.0 -3.8428952426576e-030
outer loop
vertex 1.97862192742321 1.74382997576796 2.0473720558371
vertex 1.97862192742321 4.19382997576796 0.0
vertex 1.97862192742321 1.97164743507316 2.22218254069478
endloop
endfacet
facet normal 1.0 0.0 -3.8428952426576e-030
outer loop
vertex 1.97862192742321 1.97164743507316 2.22218254069478
vertex 1.97862192742321 4.19382997576796 0.0
vertex 1.97862192742321 2.14645791993084 2.44999999999998
endloop
endfacet
facet normal 1.0 0.0 -3.8428952426576e-030
outer loop
vertex 1.97862192742321 2.14645791993084 2.44999999999998
vertex 1.97862192742321 4.19382997576796 0.0
vertex 1.97862192742321 2.25634838468593 2.71529905038721
endloop
endfacet
facet normal 1.0 0.0 -3.8428952426576e-030
outer loop
vertex 1.97862192742321 2.25634838468593 2.71529905038721
vertex 1.97862192742321 4.19382997576796 0.0
vertex 1.97862192742321 2.29382997576796 2.99999999999999
endloop
endfacet
facet normal 1.0 0.0 -3.8428952426576e-030
outer loop
vertex 1.97862192742321 -2.55617002423204 5.99999999999999
vertex 1.97862192742321 0.643829975767961 3.95262794416288
vertex 1.97862192742321 4.19382997576796 5.99999999999999
endloop
endfacet
facet normal 1.0 0.0 -3.8428952426576e-030
outer loop
vertex 1.97862192742321 0.643829975767961 3.95262794416288
vertex 1.97862192742321 -2.55617002423204 5.99999999999999
vertex 1.97862192742321 0.416012516462759 3.77781745930521
endloop
endfacet
facet normal 1.0 0.0 -3.8428952426576e-030
outer loop
vertex 1.97862192742321 0.416012516462759 3.77781745930521
vertex 1.97862192742321 -2.55617002423204 5.99999999999999
vertex 1.97862192742321 0.24120203160508 3.55
endloop
endfacet
facet normal 1.0 0.0 -3.8428952426576e-030
outer loop
vertex 1.97862192742321 0.24120203160508 3.55
vertex 1.97862192742321 -2.55617002423204 5.99999999999999
vertex 1.97862192742321 0.131311566849988 3.28470094961278
endloop
endfacet
facet normal 1.0 0.0 -3.8428952426576e-030
outer loop
vertex 1.97862192742321 0.131311566849988 3.28470094961278
vertex 1.97862192742321 -2.55617002423204 5.99999999999999
vertex 1.97862192742321 0.0938299757679616 2.99999999999999
endloop
endfacet
facet normal 1.0 0.0 -3.8428952426576e-030
outer loop
vertex 1.97862192742321 4.19382997576796 5.99999999999999
vertex 1.97862192742321 0.643829975767961 3.95262794416288
vertex 1.97862192742321 0.909129026155189 4.06251840891795
endloop
endfacet
facet normal 1.0 0.0 -3.8428952426576e-030
outer loop
vertex 1.97862192742321 4.19382997576796 5.99999999999999
vertex 1.97862192742321 0.909129026155189 4.06251840891795
vertex 1.97862192742321 1.19382997576796 4.09999999999997
endloop
endfacet
facet normal 1.0 0.0 -3.8428952426576e-030
outer loop
vertex 1.97862192742321 4.19382997576796 5.99999999999999
vertex 1.97862192742321 1.19382997576796 4.09999999999997
vertex 1.97862192742321 1.47853092538073 4.06251840891795
endloop
endfacet
facet normal 1.0 0.0 -3.8428952426576e-030
outer loop
vertex 1.97862192742321 4.19382997576796 5.99999999999999
vertex 1.97862192742321 1.47853092538073 4.06251840891795
vertex 1.97862192742321 1.74382997576796 3.95262794416288
endloop
endfacet
facet normal 1.0 0.0 -3.8428952426576e-030
outer loop
vertex 1.97862192742321 4.19382997576796 5.99999999999999
vertex 1.97862192742321 1.74382997576796 3.95262794416288
vertex 1.97862192742321 1.97164743507316 3.77781745930521
endloop
endfacet
facet normal 1.0 0.0 -3.8428952426576e-030
outer loop
vertex 1.97862192742321 4.19382997576796 5.99999999999999
vertex 1.97862192742321 1.97164743507316 3.77781745930521
vertex 1.97862192742321 2.14645791993084 3.55
endloop
endfacet
facet normal 1.0 0.0 -3.8428952426576e-030
outer loop
vertex 1.97862192742321 4.19382997576796 5.99999999999999
vertex 1.97862192742321 2.14645791993084 3.55
vertex 1.97862192742321 2.25634838468593 3.28470094961278
endloop
endfacet
facet normal 1.0 0.0 -3.8428952426576e-030
outer loop
vertex 1.97862192742321 4.19382997576796 5.99999999999999
vertex 1.97862192742321 2.25634838468593 3.28470094961278
vertex 1.97862192742321 2.29382997576796 2.99999999999999
endloop
endfacet
facet normal 1.0 0.0 -3.8428952426576e-030
outer loop
vertex 1.97862192742321 4.19382997576796 5.99999999999999
vertex 1.97862192742321 2.29382997576796 2.99999999999999
vertex 1.97862192742321 4.19382997576796 0.0
endloop
endfacet
facet normal 0.499999999999999 -0.86602540378444 -2.9752351917923e-030
outer loop
vertex 0.978621927423207 -4.28822083180092 5.99999999999999
vertex 0.496260017628248 -4.48802167681017 0.0
vertex 0.978621927423207 -4.28822083180092 0.0
endloop
endfacet
facet normal 0.258819045102519 -0.965925826289069 -2.16996178829229e-030
outer loop
vertex 0.496260017628248 -4.48802167681017 0.0
vertex 0.978621927423207 -4.28822083180092 5.99999999999999
vertex 0.496260017628248 -4.48802167681017 5.99999999999999
endloop
endfacet
facet normal 0.0 0.0 1.0
outer loop
vertex -0.396378072576601 1.19382997576796 1.90000000000002
vertex -2.02137807257679 1.47853092538073 1.93748159108203
vertex -2.02137807257679 1.19382997576796 1.90000000000002
endloop
endfacet
facet normal 0.0 -0.258819045102469 0.965925826289082
outer loop
vertex -2.02137807257679 1.47853092538073 1.93748159108203
vertex -0.396378072576601 1.19382997576796 1.90000000000002
vertex -0.396378072576601 1.47853092538073 1.93748159108203
endloop
endfacet
facet normal 0.0 -0.258819045102469 0.965925826289082
outer loop
vertex -0.396378072576601 1.47853092538073 1.93748159108203
vertex -2.02137807257679 1.74382997576796 2.0473720558371
vertex -2.02137807257679 1.47853092538073 1.93748159108203
endloop
endfacet
facet normal 0.0 -0.499999999999959 0.866025403784463
outer loop
vertex -2.02137807257679 1.74382997576796 2.0473720558371
vertex -0.396378072576601 1.47853092538073 1.93748159108203
vertex -0.396378072576601 1.74382997576796 2.0473720558371
endloop
endfacet
facet normal 0.0 -0.499999999999959 0.866025403784463
outer loop
vertex -0.396378072576601 1.74382997576796 2.0473720558371
vertex -2.02137807257679 1.97164743507316 2.22218254069478
vertex -2.02137807257679 1.74382997576796 2.0473720558371
endloop
endfacet
facet normal 0.0 -0.707106781186546 0.707106781186549
outer loop
vertex -2.02137807257679 1.97164743507316 2.22218254069478
vertex -0.396378072576601 1.74382997576796 2.0473720558371
vertex -0.396378072576601 1.97164743507316 2.22218254069478
endloop
endfacet
facet normal 0.0 -0.866025403784442 0.499999999999995
outer loop
vertex -0.396378072576601 2.14645791993084 2.44999999999998
vertex -2.02137807257679 1.97164743507316 2.22218254069478
vertex -0.396378072576601 1.97164743507316 2.22218254069478
endloop
endfacet
facet normal 0.0 -0.707106781186546 0.707106781186549
outer loop
vertex -2.02137807257679 1.97164743507316 2.22218254069478
vertex -0.396378072576601 2.14645791993084 2.44999999999998
vertex -2.02137807257679 2.14645791993084 2.44999999999998
endloop
endfacet
facet normal 0.0 -0.965925826289068 0.258819045102523
outer loop
vertex -0.396378072576601 2.25634838468593 2.71529905038721
vertex -2.02137807257679 2.14645791993084 2.44999999999998
vertex -0.396378072576601 2.14645791993084 2.44999999999998
endloop
endfacet
facet normal 0.0 -0.866025403784442 0.499999999999995
outer loop
vertex -2.02137807257679 2.14645791993084 2.44999999999998
vertex -0.396378072576601 2.25634838468593 2.71529905038721
vertex -2.02137807257679 2.25634838468593 2.71529905038721
endloop
endfacet
facet normal 0.0 -1.0 0.0
outer loop
vertex -0.396378072576601 2.29382997576796 2.99999999999999
vertex -2.02137807257679 2.25634838468593 2.71529905038721
vertex -0.396378072576601 2.25634838468593 2.71529905038721
endloop
endfacet
facet normal 0.0 -0.965925826289068 0.258819045102523
outer loop
vertex -2.02137807257679 2.25634838468593 2.71529905038721
vertex -0.396378072576601 2.29382997576796 2.99999999999999
vertex -2.02137807257679 2.29382997576796 2.99999999999999
endloop
endfacet
facet normal 0.0 0.499999999999959 -0.866025403784463
outer loop
vertex 1.97862192742321 0.643829975767961 3.95262794416288
vertex 0.353621927423197 0.416012516462759 3.77781745930521
vertex 0.353621927423197 0.643829975767961 3.95262794416288
endloop
endfacet
facet normal 0.0 0.707106781186546 -0.707106781186549
outer loop
vertex 0.353621927423197 0.416012516462759 3.77781745930521
vertex 1.97862192742321 0.643829975767961 3.95262794416288
vertex 1.97862192742321 0.416012516462759 3.77781745930521
endloop
endfacet
facet normal 0.0 0.707106781186546 -0.707106781186549
outer loop
vertex 0.353621927423197 0.416012516462759 3.77781745930521
vertex 1.97862192742321 0.24120203160508 3.55
vertex 0.353621927423197 0.24120203160508 3.55
endloop
endfacet
facet normal 0.0 0.866025403784442 -0.499999999999995
outer loop
vertex 1.97862192742321 0.24120203160508 3.55
vertex 0.353621927423197 0.416012516462759 3.77781745930521
vertex 1.97862192742321 0.416012516462759 3.77781745930521
endloop
endfacet
facet normal 0.0 -0.965925826289068 -0.258819045102523
outer loop
vertex -0.396378072576601 2.25634838468593 3.28470094961278
vertex -2.02137807257679 2.29382997576796 2.99999999999999
vertex -0.396378072576601 2.29382997576796 2.99999999999999
endloop
endfacet
facet normal 0.0 -1.0 0.0
outer loop
vertex -2.02137807257679 2.29382997576796 2.99999999999999
vertex -0.396378072576601 2.25634838468593 3.28470094961278
vertex -2.02137807257679 2.25634838468593 3.28470094961278
endloop
endfacet
facet normal 0.0 -0.866025403784442 -0.499999999999995
outer loop
vertex -0.396378072576601 2.14645791993084 3.55
vertex -2.02137807257679 2.25634838468593 3.28470094961278
vertex -0.396378072576601 2.25634838468593 3.28470094961278
endloop
endfacet
facet normal 0.0 -0.965925826289068 -0.258819045102523
outer loop
vertex -2.02137807257679 2.25634838468593 3.28470094961278
vertex -0.396378072576601 2.14645791993084 3.55
vertex -2.02137807257679 2.14645791993084 3.55
endloop
endfacet
facet normal 0.0 -0.707106781186546 -0.707106781186549
outer loop
vertex -0.396378072576601 1.97164743507316 3.77781745930521
vertex -2.02137807257679 2.14645791993084 3.55
vertex -0.396378072576601 2.14645791993084 3.55
endloop
endfacet
facet normal 0.0 -0.866025403784442 -0.499999999999995
outer loop
vertex -2.02137807257679 2.14645791993084 3.55
vertex -0.396378072576601 1.97164743507316 3.77781745930521
vertex -2.02137807257679 1.97164743507316 3.77781745930521
endloop
endfacet
facet normal 0.0 0.866025403784442 -0.499999999999995
outer loop
vertex 0.353621927423197 0.24120203160508 3.55
vertex 1.97862192742321 0.131311566849988 3.28470094961278
vertex 0.353621927423197 0.131311566849988 3.28470094961278
endloop
endfacet
facet normal 0.0 0.965925826289068 -0.258819045102523
outer loop
vertex 1.97862192742321 0.131311566849988 3.28470094961278
vertex 0.353621927423197 0.24120203160508 3.55
vertex 1.97862192742321 0.24120203160508 3.55
endloop
endfacet
facet normal 0.0 0.0 -1.0
outer loop
vertex -0.396378072576601 1.19382997576796 4.09999999999997
vertex -2.02137807257679 0.909129026155189 4.06251840891795
vertex -2.02137807257679 1.19382997576796 4.09999999999997
endloop
endfacet
facet normal 0.0 0.258819045102469 -0.965925826289082
outer loop
vertex -2.02137807257679 0.909129026155189 4.06251840891795
vertex -0.396378072576601 1.19382997576796 4.09999999999997
vertex -0.396378072576601 0.909129026155189 4.06251840891795
endloop
endfacet
facet normal 0.0 -0.866025403784442 -0.499999999999995
outer loop
vertex 1.97862192742321 2.14645791993084 3.55
vertex 0.353621927423197 2.25634838468593 3.28470094961278
vertex 1.97862192742321 2.25634838468593 3.28470094961278
endloop
endfacet
facet normal 0.0 -0.965925826289068 -0.258819045102523
outer loop
vertex 0.353621927423197 2.25634838468593 3.28470094961278
vertex 1.97862192742321 2.14645791993084 3.55
vertex 0.353621927423197 2.14645791993084 3.55
endloop
endfacet
facet normal 0.258819045102519 -0.965925826289069 -2.16996178829229e-030
outer loop
vertex 0.496260017628248 -4.48802167681017 5.99999999999999
vertex -0.0213780725767926 -4.55617002423204 0.0
vertex 0.496260017628248 -4.48802167681017 0.0
endloop
endfacet
facet normal 4.45555494782345e-017 -1.0 -1.21680907495158e-030
outer loop
vertex -0.0213780725767926 -4.55617002423204 0.0
vertex 0.496260017628248 -4.48802167681017 5.99999999999999
vertex -0.0213780725767926 -4.55617002423204 5.99999999999999
endloop
endfacet
facet normal 4.45555494782345e-017 -1.0 -1.21680907495158e-030
outer loop
vertex -0.0213780725767926 -4.55617002423204 5.99999999999999
vertex -0.539016162781834 -4.48802167681017 0.0
vertex -0.0213780725767926 -4.55617002423204 0.0
endloop
endfacet
facet normal -0.258819045102519 -0.965925826289069 -1.80732834024985e-031
outer loop
vertex -0.539016162781834 -4.48802167681017 0.0
vertex -0.0213780725767926 -4.55617002423204 5.99999999999999
vertex -0.539016162781834 -4.48802167681017 5.99999999999999
endloop
endfacet
facet normal -0.258819045102519 -0.965925826289069 -1.80732834024985e-031
outer loop
vertex -0.539016162781834 -4.48802167681017 5.99999999999999
vertex -1.02137807257679 -4.28822083180092 0.0
vertex -0.539016162781834 -4.48802167681017 0.0
endloop
endfacet
facet normal -0.499999999999999 -0.866025403784439 8.67660050865287e-031
outer loop
vertex -1.02137807257679 -4.28822083180092 0.0
vertex -0.539016162781834 -4.48802167681017 5.99999999999999
vertex -1.02137807257679 -4.28822083180092 5.99999999999999
endloop
endfacet
facet normal -0.965925826289065 -0.258819045102534 3.39701839975529e-030
outer loop
vertex 0.703066297140006 -2.36205574040514 5.99999999999999
vertex 0.728621927423207 -2.55617002423203 0.0
vertex 0.728621927423207 -2.55617002423203 5.99999999999999
endloop
endfacet
facet normal -1.0 -1.54518645590517e-014 3.84289524265758e-030
outer loop
vertex 0.728621927423207 -2.55617002423203 0.0
vertex 0.703066297140006 -2.36205574040514 5.99999999999999
vertex 0.703066297140006 -2.36205574040514 0.0
endloop
endfacet
facet normal 0.0 1.0 1.21680907495158e-030
outer loop
vertex 0.353621927423198 4.19382997576796 5.99999999999999
vertex 1.97862192742321 4.19382997576796 0.0
vertex 0.353621927423198 4.19382997576796 0.0
endloop
endfacet
facet normal 0.0 1.0 1.21680907495158e-030
outer loop
vertex 1.97862192742321 4.19382997576796 0.0
vertex 0.353621927423198 4.19382997576796 5.99999999999999
vertex 1.97862192742321 4.19382997576796 5.99999999999999
endloop
endfacet
facet normal -0.499999999999999 -0.866025403784439 8.67660050865287e-031
outer loop
vertex -1.02137807257679 -4.28822083180092 5.99999999999999
vertex -1.43559163494989 -3.97038358660514 0.0
vertex -1.02137807257679 -4.28822083180092 0.0
endloop
endfacet
facet normal -0.707106781186548 -0.707106781186547 1.85692333716512e-030
outer loop
vertex -1.43559163494989 -3.97038358660514 0.0
vertex -1.02137807257679 -4.28822083180092 5.99999999999999
vertex -1.43559163494989 -3.97038358660514 5.99999999999999
endloop
endfacet
facet normal -0.866025403784439 -0.5 2.71964036674806e-030
outer loop
vertex -1.75342888014567 -3.55617002423204 5.99999999999999
vertex -1.43559163494989 -3.97038358660514 0.0
vertex -1.43559163494989 -3.97038358660514 5.99999999999999
endloop
endfacet
facet normal -0.707106781186548 -0.707106781186547 1.85692333716512e-030
outer loop
vertex -1.43559163494989 -3.97038358660514 0.0
vertex -1.75342888014567 -3.55617002423204 5.99999999999999
vertex -1.75342888014567 -3.55617002423204 0.0
endloop
endfacet
facet normal -0.965925826289068 -0.258819045102521 3.39701839975532e-030
outer loop
vertex -1.95322972515493 -3.07380811443708 5.99999999999999
vertex -1.75342888014567 -3.55617002423204 0.0
vertex -1.75342888014567 -3.55617002423204 5.99999999999999
endloop
endfacet
facet normal -0.866025403784439 -0.5 2.71964036674806e-030
outer loop
vertex -1.75342888014567 -3.55617002423204 0.0
vertex -1.95322972515493 -3.07380811443708 5.99999999999999
vertex -1.95322972515493 -3.07380811443708 0.0
endloop
endfacet
facet normal -0.99144486137381 -0.130526192220051 3.65119328591851e-030
outer loop
vertex -2.02137807257679 -2.55617002423204 5.99999999999999
vertex -1.95322972515493 -3.07380811443708 0.0
vertex -1.95322972515493 -3.07380811443708 5.99999999999999
endloop
endfacet
facet normal -0.965925826289068 -0.258819045102521 3.39701839975532e-030
outer loop
vertex -1.95322972515493 -3.07380811443708 0.0
vertex -2.02137807257679 -2.55617002423204 5.99999999999999
vertex -2.02137807257679 -2.55617002423204 0.0
endloop
endfacet
facet normal -1.0 5.22216015286648e-017 3.8428952426576e-030
outer loop
vertex -2.02137807257679 -2.55617002423204 5.99999999999999
vertex -2.02137807257679 0.416012516462759 3.77781745930521
vertex -2.02137807257679 -2.55617002423204 0.0
endloop
endfacet
facet normal -1.0 5.22216015286648e-017 3.8428952426576e-030
outer loop
vertex -2.02137807257679 0.416012516462759 3.77781745930521
vertex -2.02137807257679 -2.55617002423204 5.99999999999999
vertex -2.02137807257679 0.643829975767961 3.95262794416288
endloop
endfacet
facet normal -1.0 5.22216015286648e-017 3.8428952426576e-030
outer loop
vertex -2.02137807257679 0.643829975767961 3.95262794416288
vertex -2.02137807257679 -2.55617002423204 5.99999999999999
vertex -2.02137807257679 4.19382997576796 5.99999999999999
endloop
endfacet
facet normal -1.0 5.22216015286648e-017 3.8428952426576e-030
outer loop
vertex -2.02137807257679 -2.55617002423204 0.0
vertex -2.02137807257679 0.416012516462759 3.77781745930521
vertex -2.02137807257679 0.24120203160508 3.55
endloop
endfacet
facet normal -1.0 5.22216015286648e-017 3.8428952426576e-030
outer loop
vertex -2.02137807257679 -2.55617002423204 0.0
vertex -2.02137807257679 0.24120203160508 3.55
vertex -2.02137807257679 0.131311566849988 3.28470094961278
endloop
endfacet
facet normal -1.0 5.22216015286648e-017 3.8428952426576e-030
outer loop
vertex -2.02137807257679 -2.55617002423204 0.0
vertex -2.02137807257679 0.131311566849988 3.28470094961278
vertex -2.02137807257679 0.0938299757679616 2.99999999999999
endloop
endfacet
facet normal -1.0 5.22216015286648e-017 3.8428952426576e-030
outer loop
vertex -2.02137807257679 0.643829975767961 3.95262794416288
vertex -2.02137807257679 4.19382997576796 5.99999999999999
vertex -2.02137807257679 0.909129026155189 4.06251840891795
endloop
endfacet
facet normal -1.0 5.22216015286648e-017 3.8428952426576e-030
outer loop
vertex -2.02137807257679 0.909129026155189 4.06251840891795
vertex -2.02137807257679 4.19382997576796 5.99999999999999
vertex -2.02137807257679 1.19382997576796 4.09999999999997
endloop
endfacet
facet normal -1.0 5.22216015286648e-017 3.8428952426576e-030
outer loop
vertex -2.02137807257679 1.19382997576796 4.09999999999997
vertex -2.02137807257679 4.19382997576796 5.99999999999999
vertex -2.02137807257679 1.47853092538073 4.06251840891795
endloop
endfacet
facet normal -1.0 5.22216015286648e-017 3.8428952426576e-030
outer loop
vertex -2.02137807257679 1.47853092538073 4.06251840891795
vertex -2.02137807257679 4.19382997576796 5.99999999999999
vertex -2.02137807257679 1.74382997576796 3.95262794416288
endloop
endfacet
facet normal -1.0 5.22216015286648e-017 3.8428952426576e-030
outer loop
vertex -2.02137807257679 1.74382997576796 3.95262794416288
vertex -2.02137807257679 4.19382997576796 5.99999999999999
vertex -2.02137807257679 1.97164743507316 3.77781745930521
endloop
endfacet
facet normal -1.0 5.22216015286648e-017 3.8428952426576e-030
outer loop
vertex -2.02137807257679 1.97164743507316 3.77781745930521
vertex -2.02137807257679 4.19382997576796 5.99999999999999
vertex -2.02137807257679 2.14645791993084 3.55
endloop
endfacet
facet normal -1.0 5.22216015286648e-017 3.8428952426576e-030
outer loop
vertex -2.02137807257679 2.14645791993084 3.55
vertex -2.02137807257679 4.19382997576796 5.99999999999999
vertex -2.02137807257679 2.25634838468593 3.28470094961278
endloop
endfacet
facet normal -1.0 5.22216015286648e-017 3.8428952426576e-030
outer loop
vertex -2.02137807257679 2.25634838468593 3.28470094961278
vertex -2.02137807257679 4.19382997576796 5.99999999999999
vertex -2.02137807257679 2.29382997576796 2.99999999999999
endloop
endfacet
facet normal -1.0 5.22216015286648e-017 3.8428952426576e-030
outer loop
vertex -2.02137807257679 -2.55617002423204 0.0
vertex -2.02137807257679 0.643829975767961 2.0473720558371
vertex -2.02137807257679 4.19382997576796 0.0
endloop
endfacet
facet normal -1.0 5.22216015286648e-017 3.8428952426576e-030
outer loop
vertex -2.02137807257679 0.643829975767961 2.0473720558371
vertex -2.02137807257679 -2.55617002423204 0.0
vertex -2.02137807257679 0.416012516462759 2.22218254069478
endloop
endfacet
facet normal -1.0 5.22216015286648e-017 3.8428952426576e-030
outer loop
vertex -2.02137807257679 0.416012516462759 2.22218254069478
vertex -2.02137807257679 -2.55617002423204 0.0
vertex -2.02137807257679 0.24120203160508 2.44999999999998
endloop
endfacet
facet normal -1.0 5.22216015286648e-017 3.8428952426576e-030
outer loop
vertex -2.02137807257679 0.24120203160508 2.44999999999998
vertex -2.02137807257679 -2.55617002423204 0.0
vertex -2.02137807257679 0.131311566849988 2.71529905038721
endloop
endfacet
facet normal -1.0 5.22216015286648e-017 3.8428952426576e-030
outer loop
vertex -2.02137807257679 0.131311566849988 2.71529905038721
vertex -2.02137807257679 -2.55617002423204 0.0
vertex -2.02137807257679 0.0938299757679616 2.99999999999999
endloop
endfacet
facet normal -1.0 5.22216015286648e-017 3.8428952426576e-030
outer loop
vertex -2.02137807257679 4.19382997576796 0.0
vertex -2.02137807257679 0.643829975767961 2.0473720558371
vertex -2.02137807257679 0.909129026155189 1.93748159108203
endloop
endfacet
facet normal -1.0 5.22216015286648e-017 3.8428952426576e-030
outer loop
vertex -2.02137807257679 4.19382997576796 0.0
vertex -2.02137807257679 0.909129026155189 1.93748159108203
vertex -2.02137807257679 1.19382997576796 1.90000000000002
endloop
endfacet
facet normal -1.0 5.22216015286648e-017 3.8428952426576e-030
outer loop
vertex -2.02137807257679 4.19382997576796 0.0
vertex -2.02137807257679 1.19382997576796 1.90000000000002
vertex -2.02137807257679 1.47853092538073 1.93748159108203
endloop
endfacet
facet normal -1.0 5.22216015286648e-017 3.8428952426576e-030
outer loop
vertex -2.02137807257679 4.19382997576796 0.0
vertex -2.02137807257679 1.47853092538073 1.93748159108203
vertex -2.02137807257679 1.74382997576796 2.0473720558371
endloop
endfacet
facet normal -1.0 5.22216015286648e-017 3.8428952426576e-030
outer loop
vertex -2.02137807257679 4.19382997576796 0.0
vertex -2.02137807257679 1.74382997576796 2.0473720558371
vertex -2.02137807257679 1.97164743507316 2.22218254069478
endloop
endfacet
facet normal -1.0 5.22216015286648e-017 3.8428952426576e-030
outer loop
vertex -2.02137807257679 4.19382997576796 0.0
vertex -2.02137807257679 1.97164743507316 2.22218254069478
vertex -2.02137807257679 2.14645791993084 2.44999999999998
endloop
endfacet
facet normal -1.0 5.22216015286648e-017 3.8428952426576e-030
outer loop
vertex -2.02137807257679 4.19382997576796 0.0
vertex -2.02137807257679 2.14645791993084 2.44999999999998
vertex -2.02137807257679 2.25634838468593 2.71529905038721
endloop
endfacet
facet normal -1.0 5.22216015286648e-017 3.8428952426576e-030
outer loop
vertex -2.02137807257679 4.19382997576796 0.0
vertex -2.02137807257679 2.25634838468593 2.71529905038721
vertex -2.02137807257679 2.29382997576796 2.99999999999999
endloop
endfacet
facet normal -1.0 5.22216015286648e-017 3.8428952426576e-030
outer loop
vertex -2.02137807257679 4.19382997576796 0.0
vertex -2.02137807257679 2.29382997576796 2.99999999999999
vertex -2.02137807257679 4.19382997576796 5.99999999999999
endloop
endfacet
facet normal 0.0 1.0 1.21680907495158e-030
outer loop
vertex -2.02137807257679 4.19382997576796 5.99999999999999
vertex -0.396378072576346 4.19382997576796 0.0
vertex -2.02137807257679 4.19382997576796 0.0
endloop
endfacet
facet normal 0.0 1.0 1.21680907495158e-030
outer loop
vertex -0.396378072576346 4.19382997576796 0.0
vertex -2.02137807257679 4.19382997576796 5.99999999999999
vertex -0.396378072576346 4.19382997576796 5.99999999999999
endloop
endfacet
facet normal 1.0 -7.46683277645508e-014 -3.84289524265769e-030
outer loop
vertex -0.396378072576802 -1.90665097139371 0.0
vertex -0.396378072576601 0.24120203160508 2.44999999999998
vertex -0.396378072576802 -1.90665097139371 5.99999999999999
endloop
endfacet
facet normal 1.0 -7.46683277645508e-014 -3.84289524265769e-030
outer loop
vertex -0.396378072576601 0.24120203160508 2.44999999999998
vertex -0.396378072576802 -1.90665097139371 0.0
vertex -0.396378072576601 0.416012516462759 2.22218254069478
endloop
endfacet
facet normal 1.0 -7.46683277645508e-014 -3.84289524265769e-030
outer loop
vertex -0.396378072576601 0.416012516462759 2.22218254069478
vertex -0.396378072576802 -1.90665097139371 0.0
vertex -0.396378072576601 0.643829975767961 2.0473720558371
endloop
endfacet
facet normal 1.0 -7.46683277645508e-014 -3.84289524265769e-030
outer loop
vertex -0.396378072576601 0.643829975767961 2.0473720558371
vertex -0.396378072576802 -1.90665097139371 0.0
vertex -0.396378072576346 4.19382997576796 0.0
endloop
endfacet
facet normal 1.0 -7.46683277645508e-014 -3.84289524265769e-030
outer loop
vertex -0.396378072576802 -1.90665097139371 5.99999999999999
vertex -0.396378072576601 0.24120203160508 2.44999999999998
vertex -0.396378072576601 0.131311566849988 2.71529905038721
endloop
endfacet
facet normal 1.0 -7.46683277645508e-014 -3.84289524265769e-030
outer loop
vertex -0.396378072576802 -1.90665097139371 5.99999999999999
vertex -0.396378072576601 0.131311566849988 2.71529905038721
vertex -0.396378072576601 0.0938299757679616 2.99999999999999
endloop
endfacet
facet normal 1.0 -7.46683277645508e-014 -3.84289524265769e-030
outer loop
vertex -0.396378072576601 0.643829975767961 2.0473720558371
vertex -0.396378072576346 4.19382997576796 0.0
vertex -0.396378072576601 0.909129026155189 1.93748159108203
endloop
endfacet
facet normal 1.0 -7.46683277645508e-014 -3.84289524265769e-030
outer loop
vertex -0.396378072576601 0.909129026155189 1.93748159108203
vertex -0.396378072576346 4.19382997576796 0.0
vertex -0.396378072576601 1.19382997576796 1.90000000000002
endloop
endfacet
facet normal 1.0 -7.46683277645508e-014 -3.84289524265769e-030
outer loop
vertex -0.396378072576601 1.19382997576796 1.90000000000002
vertex -0.396378072576346 4.19382997576796 0.0
vertex -0.396378072576601 1.47853092538073 1.93748159108203
endloop
endfacet
facet normal 1.0 -7.46683277645508e-014 -3.84289524265769e-030
outer loop
vertex -0.396378072576601 1.47853092538073 1.93748159108203
vertex -0.396378072576346 4.19382997576796 0.0
vertex -0.396378072576601 1.74382997576796 2.0473720558371
endloop
endfacet
facet normal 1.0 -7.46683277645508e-014 -3.84289524265769e-030
outer loop
vertex -0.396378072576601 1.74382997576796 2.0473720558371
vertex -0.396378072576346 4.19382997576796 0.0
vertex -0.396378072576601 1.97164743507316 2.22218254069478
endloop
endfacet
facet normal 1.0 -7.46683277645508e-014 -3.84289524265769e-030
outer loop
vertex -0.396378072576601 1.97164743507316 2.22218254069478
vertex -0.396378072576346 4.19382997576796 0.0
vertex -0.396378072576601 2.14645791993084 2.44999999999998
endloop
endfacet
facet normal 1.0 -7.46683277645508e-014 -3.84289524265769e-030
outer loop
vertex -0.396378072576601 2.14645791993084 2.44999999999998
vertex -0.396378072576346 4.19382997576796 0.0
vertex -0.396378072576601 2.25634838468593 2.71529905038721
endloop
endfacet
facet normal 1.0 -7.46683277645508e-014 -3.84289524265769e-030
outer loop
vertex -0.396378072576601 2.25634838468593 2.71529905038721
vertex -0.396378072576346 4.19382997576796 0.0
vertex -0.396378072576601 2.29382997576796 2.99999999999999
endloop
endfacet
facet normal 1.0 -7.46683277645508e-014 -3.84289524265769e-030
outer loop
vertex -0.396378072576802 -1.90665097139371 5.99999999999999
vertex -0.396378072576601 0.643829975767961 3.95262794416288
vertex -0.396378072576346 4.19382997576796 5.99999999999999
endloop
endfacet
facet normal 1.0 -7.46683277645508e-014 -3.84289524265769e-030
outer loop
vertex -0.396378072576601 0.643829975767961 3.95262794416288
vertex -0.396378072576802 -1.90665097139371 5.99999999999999
vertex -0.396378072576601 0.416012516462759 3.77781745930521
endloop
endfacet
facet normal 1.0 -7.46683277645508e-014 -3.84289524265769e-030
outer loop
vertex -0.396378072576601 0.416012516462759 3.77781745930521
vertex -0.396378072576802 -1.90665097139371 5.99999999999999
vertex -0.396378072576601 0.24120203160508 3.55
endloop
endfacet
facet normal 1.0 -7.46683277645508e-014 -3.84289524265769e-030
outer loop
vertex -0.396378072576601 0.24120203160508 3.55
vertex -0.396378072576802 -1.90665097139371 5.99999999999999
vertex -0.396378072576601 0.131311566849988 3.28470094961278
endloop
endfacet
facet normal 1.0 -7.46683277645508e-014 -3.84289524265769e-030
outer loop
vertex -0.396378072576601 0.131311566849988 3.28470094961278
vertex -0.396378072576802 -1.90665097139371 5.99999999999999
vertex -0.396378072576601 0.0938299757679616 2.99999999999999
endloop
endfacet
facet normal 1.0 -7.46683277645508e-014 -3.84289524265769e-030
outer loop
vertex -0.396378072576346 4.19382997576796 5.99999999999999
vertex -0.396378072576601 0.643829975767961 3.95262794416288
vertex -0.396378072576601 0.909129026155189 4.06251840891795
endloop
endfacet
facet normal 1.0 -7.46683277645508e-014 -3.84289524265769e-030
outer loop
vertex -0.396378072576346 4.19382997576796 5.99999999999999
vertex -0.396378072576601 0.909129026155189 4.06251840891795
vertex -0.396378072576601 1.19382997576796 4.09999999999997
endloop
endfacet
facet normal 1.0 -7.46683277645508e-014 -3.84289524265769e-030
outer loop
vertex -0.396378072576346 4.19382997576796 5.99999999999999
vertex -0.396378072576601 1.19382997576796 4.09999999999997
vertex -0.396378072576601 1.47853092538073 4.06251840891795
endloop
endfacet
facet normal 1.0 -7.46683277645508e-014 -3.84289524265769e-030
outer loop
vertex -0.396378072576346 4.19382997576796 5.99999999999999
vertex -0.396378072576601 1.47853092538073 4.06251840891795
vertex -0.396378072576601 1.74382997576796 3.95262794416288
endloop
endfacet
facet normal 1.0 -7.46683277645508e-014 -3.84289524265769e-030
outer loop
vertex -0.396378072576346 4.19382997576796 5.99999999999999
vertex -0.396378072576601 1.74382997576796 3.95262794416288
vertex -0.396378072576601 1.97164743507316 3.77781745930521
endloop
endfacet
facet normal 1.0 -7.46683277645508e-014 -3.84289524265769e-030
outer loop
vertex -0.396378072576346 4.19382997576796 5.99999999999999
vertex -0.396378072576601 1.97164743507316 3.77781745930521
vertex -0.396378072576601 2.14645791993084 3.55
endloop
endfacet
facet normal 1.0 -7.46683277645508e-014 -3.84289524265769e-030
outer loop
vertex -0.396378072576346 4.19382997576796 5.99999999999999
vertex -0.396378072576601 2.14645791993084 3.55
vertex -0.396378072576601 2.25634838468593 3.28470094961278
endloop
endfacet
facet normal 1.0 -7.46683277645508e-014 -3.84289524265769e-030
outer loop
vertex -0.396378072576346 4.19382997576796 5.99999999999999
vertex -0.396378072576601 2.25634838468593 3.28470094961278
vertex -0.396378072576601 2.29382997576796 2.99999999999999
endloop
endfacet
facet normal 1.0 -7.46683277645508e-014 -3.84289524265769e-030
outer loop
vertex -0.396378072576346 4.19382997576796 5.99999999999999
vertex -0.396378072576601 2.29382997576796 2.99999999999999
vertex -0.396378072576346 4.19382997576796 0.0
endloop
endfacet
facet normal -0.707106781186546 -0.707106781186549 1.85692333716511e-030
outer loop
vertex 0.50895201331311 -2.02583993834212 5.99999999999999
vertex 0.628140980261531 -2.18117002423203 0.0
vertex 0.628140980261531 -2.18117002423203 5.99999999999999
endloop
endfacet
facet normal -0.866025403784431 -0.500000000000014 2.71964036674801e-030
outer loop
vertex 0.628140980261531 -2.18117002423203 0.0
vertex 0.50895201331311 -2.02583993834212 5.99999999999999
vertex 0.50895201331311 -2.02583993834212 0.0
endloop
endfacet
facet normal 0.608761429008728 -0.793353340291229 -3.3047659435606e-030
outer loop
vertex -0.396378072576802 -1.90665097139371 5.99999999999999
vertex -0.521378072576792 -2.00256684489108 0.0
vertex -0.396378072576802 -1.90665097139371 0.0
endloop
endfacet
facet normal 0.608761429008728 -0.793353340291229 -3.3047659435606e-030
outer loop
vertex -0.521378072576792 -2.00256684489108 0.0
vertex -0.396378072576802 -1.90665097139371 5.99999999999999
vertex -0.521378072576792 -2.00256684489108 5.99999999999999
endloop
endfacet
facet normal 3.8428952426576e-030 -1.21680907495158e-030 1.0
outer loop
vertex -0.539016162781834 -4.48802167681017 5.99999999999999
vertex -0.771378072576793 -2.55617002423205 5.99999999999999
vertex -1.02137807257679 -4.28822083180092 5.99999999999999
endloop
endfacet
facet normal 3.8428952426576e-030 -1.21680907495158e-030 1.0
outer loop
vertex -0.771378072576793 -2.55617002423205 5.99999999999999
vertex -0.539016162781834 -4.48802167681017 5.99999999999999
vertex -0.745822442293591 -2.75028430805894 5.99999999999999
endloop
endfacet
facet normal 3.8428952426576e-030 -1.21680907495158e-030 1.0
outer loop
vertex -0.745822442293591 -2.75028430805894 5.99999999999999
vertex -0.539016162781834 -4.48802167681017 5.99999999999999
vertex -0.670897125415116 -2.93117002423205 5.99999999999999
endloop
endfacet
facet normal 3.8428952426576e-030 -1.21680907495158e-030 1.0
outer loop
vertex -0.670897125415116 -2.93117002423205 5.99999999999999
vertex -0.539016162781834 -4.48802167681017 5.99999999999999
vertex -0.551708158466695 -3.08650011012196 5.99999999999999
endloop
endfacet
facet normal 3.8428952426576e-030 -1.21680907495158e-030 1.0
outer loop
vertex -0.551708158466695 -3.08650011012196 5.99999999999999
vertex -0.539016162781834 -4.48802167681017 5.99999999999999
vertex -0.396378072576783 -3.20568907707037 5.99999999999999
endloop
endfacet
facet normal 3.8428952426576e-030 -1.21680907495158e-030 1.0
outer loop
vertex -0.396378072576783 -3.20568907707037 5.99999999999999
vertex -0.539016162781834 -4.48802167681017 5.99999999999999
vertex -0.0213780725767926 -4.55617002423204 5.99999999999999
endloop
endfacet
facet normal 3.8428952426576e-030 -1.21680907495158e-030 1.0
outer loop
vertex -0.396378072576783 -3.20568907707037 5.99999999999999
vertex -0.0213780725767926 -4.55617002423204 5.99999999999999
vertex -0.215492356403672 -3.28061439394884 5.99999999999999
endloop
endfacet
facet normal 3.8428952426576e-030 -1.21680907495158e-030 1.0
outer loop
vertex -0.215492356403672 -3.28061439394884 5.99999999999999
vertex -0.0213780725767926 -4.55617002423204 5.99999999999999
vertex -0.0213780725767813 -3.30617002423204 5.99999999999999
endloop
endfacet
facet normal 3.8428952426576e-030 -1.21680907495158e-030 1.0
outer loop
vertex -0.0213780725767813 -3.30617002423204 5.99999999999999
vertex -0.0213780725767926 -4.55617002423204 5.99999999999999
vertex 0.496260017628248 -4.48802167681017 5.99999999999999
endloop
endfacet
facet normal 3.8428952426576e-030 -1.21680907495158e-030 1.0
outer loop
vertex -0.0213780725767813 -3.30617002423204 5.99999999999999
vertex 0.496260017628248 -4.48802167681017 5.99999999999999
vertex 0.172736211250109 -3.28061439394884 5.99999999999999
endloop
endfacet
facet normal 3.8428952426576e-030 -1.21680907495158e-030 1.0
outer loop
vertex 0.172736211250109 -3.28061439394884 5.99999999999999
vertex 0.496260017628248 -4.48802167681017 5.99999999999999
vertex 0.353621927423217 -3.20568907707036 5.99999999999999
endloop
endfacet
facet normal 3.8428952426576e-030 -1.21680907495158e-030 1.0
outer loop
vertex 0.353621927423217 -3.20568907707036 5.99999999999999
vertex 0.496260017628248 -4.48802167681017 5.99999999999999
vertex 0.508952013313126 -3.08650011012194 5.99999999999999
endloop
endfacet
facet normal 3.8428952426576e-030 -1.21680907495158e-030 1.0
outer loop
vertex 0.508952013313126 -3.08650011012194 5.99999999999999
vertex 0.496260017628248 -4.48802167681017 5.99999999999999
vertex 0.978621927423207 -4.28822083180092 5.99999999999999
endloop
endfacet
facet normal 3.8428952426576e-030 -1.21680907495158e-030 1.0
outer loop
vertex 0.508952013313126 -3.08650011012194 5.99999999999999
vertex 0.978621927423207 -4.28822083180092 5.99999999999999
vertex 0.628140980261542 -2.93117002423203 5.99999999999999
endloop
endfacet
facet normal 3.8428952426576e-030 -1.21680907495158e-030 1.0
outer loop
vertex 0.628140980261542 -2.93117002423203 5.99999999999999
vertex 0.978621927423207 -4.28822083180092 5.99999999999999
vertex 0.703066297140011 -2.75028430805892 5.99999999999999
endloop
endfacet
facet normal 3.8428952426576e-030 -1.21680907495158e-030 1.0
outer loop
vertex 0.703066297140011 -2.75028430805892 5.99999999999999
vertex 0.978621927423207 -4.28822083180092 5.99999999999999
vertex 0.728621927423207 -2.55617002423203 5.99999999999999
endloop
endfacet
facet normal 3.8428952426576e-030 -1.21680907495158e-030 1.0
outer loop
vertex 0.478621927423208 -2.00256684489108 5.99999999999999
vertex 0.353621927423198 4.19382997576796 5.99999999999999
vertex 0.353621927423198 -1.9066509713937 5.99999999999999
endloop
endfacet
facet normal 3.8428952426576e-030 -1.21680907495158e-030 1.0
outer loop
vertex 0.353621927423198 4.19382997576796 5.99999999999999
vertex 0.478621927423208 -2.00256684489108 5.99999999999999
vertex 1.97862192742321 4.19382997576796 5.99999999999999
endloop
endfacet
facet normal 3.8428952426576e-030 -1.21680907495158e-030 1.0
outer loop
vertex 1.97862192742321 4.19382997576796 5.99999999999999
vertex 0.478621927423208 -2.00256684489108 5.99999999999999
vertex 0.50895201331311 -2.02583993834212 5.99999999999999
endloop
endfacet
facet normal 3.8428952426576e-030 -1.21680907495158e-030 1.0
outer loop
vertex 1.97862192742321 4.19382997576796 5.99999999999999
vertex 0.50895201331311 -2.02583993834212 5.99999999999999
vertex 0.628140980261531 -2.18117002423203 5.99999999999999
endloop
endfacet
facet normal 3.8428952426576e-030 -1.21680907495158e-030 1.0
outer loop
vertex 1.97862192742321 4.19382997576796 5.99999999999999
vertex 0.628140980261531 -2.18117002423203 5.99999999999999
vertex 0.703066297140006 -2.36205574040514 5.99999999999999
endloop
endfacet
facet normal 3.8428952426576e-030 -1.21680907495158e-030 1.0
outer loop
vertex 1.97862192742321 4.19382997576796 5.99999999999999
vertex 0.703066297140006 -2.36205574040514 5.99999999999999
vertex 0.728621927423207 -2.55617002423203 5.99999999999999
endloop
endfacet
facet normal 3.8428952426576e-030 -1.21680907495158e-030 1.0
outer loop
vertex 1.97862192742321 4.19382997576796 5.99999999999999
vertex 0.728621927423207 -2.55617002423203 5.99999999999999
vertex 0.978621927423207 -4.28822083180092 5.99999999999999
endloop
endfacet
facet normal 3.8428952426576e-030 -1.21680907495158e-030 1.0
outer loop
vertex 1.97862192742321 4.19382997576796 5.99999999999999
vertex 0.978621927423207 -4.28822083180092 5.99999999999999
vertex 1.3928354897963 -3.97038358660514 5.99999999999999
endloop
endfacet
facet normal 3.8428952426576e-030 -1.21680907495158e-030 1.0
outer loop
vertex 1.97862192742321 4.19382997576796 5.99999999999999
vertex 1.3928354897963 -3.97038358660514 5.99999999999999
vertex 1.71067273499208 -3.55617002423204 5.99999999999999
endloop
endfacet
facet normal 3.8428952426576e-030 -1.21680907495158e-030 1.0
outer loop
vertex 1.97862192742321 4.19382997576796 5.99999999999999
vertex 1.71067273499208 -3.55617002423204 5.99999999999999
vertex 1.91047358000134 -3.07380811443708 5.99999999999999
endloop
endfacet
facet normal 3.8428952426576e-030 -1.21680907495158e-030 1.0
outer loop
vertex 1.97862192742321 4.19382997576796 5.99999999999999
vertex 1.91047358000134 -3.07380811443708 5.99999999999999
vertex 1.97862192742321 -2.55617002423204 5.99999999999999
endloop
endfacet
facet normal 3.8428952426576e-030 -1.21680907495158e-030 1.0
outer loop
vertex -1.95322972515493 -3.07380811443708 5.99999999999999
vertex -2.02137807257679 4.19382997576796 5.99999999999999
vertex -2.02137807257679 -2.55617002423204 5.99999999999999
endloop
endfacet
facet normal 3.8428952426576e-030 -1.21680907495158e-030 1.0
outer loop
vertex -2.02137807257679 4.19382997576796 5.99999999999999
vertex -1.95322972515493 -3.07380811443708 5.99999999999999
vertex -0.396378072576346 4.19382997576796 5.99999999999999
endloop
endfacet
facet normal 3.8428952426576e-030 -1.21680907495158e-030 1.0
outer loop
vertex -0.396378072576346 4.19382997576796 5.99999999999999
vertex -1.95322972515493 -3.07380811443708 5.99999999999999
vertex -1.75342888014567 -3.55617002423204 5.99999999999999
endloop
endfacet
facet normal 3.8428952426576e-030 -1.21680907495158e-030 1.0
outer loop
vertex -0.396378072576346 4.19382997576796 5.99999999999999
vertex -1.75342888014567 -3.55617002423204 5.99999999999999
vertex -1.43559163494989 -3.97038358660514 5.99999999999999
endloop
endfacet
facet normal 3.8428952426576e-030 -1.21680907495158e-030 1.0
outer loop
vertex -0.396378072576346 4.19382997576796 5.99999999999999
vertex -1.43559163494989 -3.97038358660514 5.99999999999999
vertex -1.02137807257679 -4.28822083180092 5.99999999999999
endloop
endfacet
facet normal 3.8428952426576e-030 -1.21680907495158e-030 1.0
outer loop
vertex -0.396378072576346 4.19382997576796 5.99999999999999
vertex -1.02137807257679 -4.28822083180092 5.99999999999999
vertex -0.771378072576793 -2.55617002423205 5.99999999999999
endloop
endfacet
facet normal 3.8428952426576e-030 -1.21680907495158e-030 1.0
outer loop
vertex -0.396378072576346 4.19382997576796 5.99999999999999
vertex -0.771378072576793 -2.55617002423205 5.99999999999999
vertex -0.745822442293597 -2.36205574040516 5.99999999999999
endloop
endfacet
facet normal 3.8428952426576e-030 -1.21680907495158e-030 1.0
outer loop
vertex -0.396378072576346 4.19382997576796 5.99999999999999
vertex -0.745822442293597 -2.36205574040516 5.99999999999999
vertex -0.670897125415127 -2.18117002423205 5.99999999999999
endloop
endfacet
facet normal 3.8428952426576e-030 -1.21680907495158e-030 1.0
outer loop
vertex -0.396378072576346 4.19382997576796 5.99999999999999
vertex -0.670897125415127 -2.18117002423205 5.99999999999999
vertex -0.551708158466711 -2.02583993834214 5.99999999999999
endloop
endfacet
facet normal 3.8428952426576e-030 -1.21680907495158e-030 1.0
outer loop
vertex -0.396378072576346 4.19382997576796 5.99999999999999
vertex -0.551708158466711 -2.02583993834214 5.99999999999999
vertex -0.521378072576792 -2.00256684489108 5.99999999999999
endloop
endfacet
facet normal 3.8428952426576e-030 -1.21680907495158e-030 1.0
outer loop
vertex -0.396378072576346 4.19382997576796 5.99999999999999
vertex -0.521378072576792 -2.00256684489108 5.99999999999999
vertex -0.396378072576802 -1.90665097139371 5.99999999999999
endloop
endfacet
facet normal -0.707106781186546 -0.707106781186549 1.85692333716511e-030
outer loop
vertex 0.50895201331311 -2.02583993834212 5.99999999999999
vertex 0.478621927423208 -2.00256684489108 0.0
vertex 0.50895201331311 -2.02583993834212 0.0
endloop
endfacet
facet normal -0.608761429008733 -0.793353340291226 1.37404685534159e-030
outer loop
vertex 0.478621927423208 -2.00256684489108 0.0
vertex 0.50895201331311 -2.02583993834212 5.99999999999999
vertex 0.478621927423208 -2.00256684489108 5.99999999999999
endloop
endfacet
facet normal 0.608761429008761 -0.793353340291204 -3.30476594356069e-030
outer loop
vertex -0.521378072576792 -2.00256684489108 5.99999999999999
vertex -0.551708158466711 -2.02583993834214 0.0
vertex -0.521378072576792 -2.00256684489108 0.0
endloop
endfacet
facet normal 0.707106781186571 -0.707106781186524 -3.57775123378036e-030
outer loop
vertex -0.551708158466711 -2.02583993834214 0.0
vertex -0.521378072576792 -2.00256684489108 5.99999999999999
vertex -0.551708158466711 -2.02583993834214 5.99999999999999
endloop
endfacet
facet normal 0.707106781186571 -0.707106781186524 -3.57775123378036e-030
outer loop
vertex -0.551708158466711 -2.02583993834214 0.0
vertex -0.670897125415127 -2.18117002423205 5.99999999999999
vertex -0.670897125415127 -2.18117002423205 0.0
endloop
endfacet
facet normal 0.866025403784446 -0.499999999999987 -3.93644944169965e-030
outer loop
vertex -0.670897125415127 -2.18117002423205 5.99999999999999
vertex -0.551708158466711 -2.02583993834214 0.0
vertex -0.551708158466711 -2.02583993834214 5.99999999999999
endloop
endfacet
facet normal 0.866025403784446 -0.499999999999987 -3.93644944169965e-030
outer loop
vertex -0.670897125415127 -2.18117002423205 0.0
vertex -0.745822442293597 -2.36205574040516 5.99999999999999
vertex -0.745822442293597 -2.36205574040516 0.0
endloop
endfacet
facet normal 0.965925826289072 -0.258819045102507 -4.02688512545742e-030
outer loop
vertex -0.745822442293597 -2.36205574040516 5.99999999999999
vertex -0.670897125415127 -2.18117002423205 0.0
vertex -0.670897125415127 -2.18117002423205 5.99999999999999
endloop
endfacet
facet normal 0.965925826289072 -0.258819045102507 -4.02688512545742e-030
outer loop
vertex -0.745822442293597 -2.36205574040516 0.0
vertex -0.771378072576793 -2.55617002423205 5.99999999999999
vertex -0.771378072576793 -2.55617002423205 0.0
endloop
endfacet
facet normal 1.0 1.52290868116606e-014 -3.84289524265758e-030
outer loop
vertex -0.771378072576793 -2.55617002423205 5.99999999999999
vertex -0.745822442293597 -2.36205574040516 0.0
vertex -0.745822442293597 -2.36205574040516 5.99999999999999
endloop
endfacet
facet normal -0.866025403784431 -0.500000000000014 2.71964036674801e-030
outer loop
vertex 0.628140980261531 -2.18117002423203 5.99999999999999
vertex 0.703066297140006 -2.36205574040514 0.0
vertex 0.703066297140006 -2.36205574040514 5.99999999999999
endloop
endfacet
facet normal -0.965925826289065 -0.258819045102534 3.39701839975529e-030
outer loop
vertex 0.703066297140006 -2.36205574040514 0.0
vertex 0.628140980261531 -2.18117002423203 5.99999999999999
vertex 0.628140980261531 -2.18117002423203 0.0
endloop
endfacet
facet normal 0.99144486137381 -0.130526192220051 -3.96884419634297e-030
outer loop
vertex 1.97862192742321 -2.55617002423204 0.0
vertex 1.91047358000134 -3.07380811443708 5.99999999999999
vertex 1.91047358000134 -3.07380811443708 0.0
endloop
endfacet
facet normal 0.965925826289068 -0.258819045102521 -4.02688512545742e-030
outer loop
vertex 1.91047358000134 -3.07380811443708 5.99999999999999
vertex 1.97862192742321 -2.55617002423204 0.0
vertex 1.97862192742321 -2.55617002423204 5.99999999999999
endloop
endfacet
facet normal 1.0 1.52290868116606e-014 -3.84289524265758e-030
outer loop
vertex -0.771378072576793 -2.55617002423205 0.0
vertex -0.745822442293591 -2.75028430805894 5.99999999999999
vertex -0.745822442293591 -2.75028430805894 0.0
endloop
endfacet
facet normal 0.965925826289065 0.258819045102534 -3.39701839975529e-030
outer loop
vertex -0.745822442293591 -2.75028430805894 5.99999999999999
vertex -0.771378072576793 -2.55617002423205 0.0
vertex -0.771378072576793 -2.55617002423205 5.99999999999999
endloop
endfacet
facet normal -0.608761429008714 -0.79335334029124 1.3740468553415e-030
outer loop
vertex 0.478621927423208 -2.00256684489108 5.99999999999999
vertex 0.353621927423198 -1.9066509713937 0.0
vertex 0.478621927423208 -2.00256684489108 0.0
endloop
endfacet
facet normal -0.608761429008714 -0.79335334029124 1.3740468553415e-030
outer loop
vertex 0.353621927423198 -1.9066509713937 0.0
vertex 0.478621927423208 -2.00256684489108 5.99999999999999
vertex 0.353621927423198 -1.9066509713937 5.99999999999999
endloop
endfacet
facet normal 0.965925826289068 -0.258819045102521 -4.02688512545742e-030
outer loop
vertex 1.91047358000134 -3.07380811443708 0.0
vertex 1.71067273499208 -3.55617002423204 5.99999999999999
vertex 1.71067273499208 -3.55617002423204 0.0
endloop
endfacet
facet normal 0.866025403784439 -0.5 -3.93644944169964e-030
outer loop
vertex 1.71067273499208 -3.55617002423204 5.99999999999999
vertex 1.91047358000134 -3.07380811443708 0.0
vertex 1.91047358000134 -3.07380811443708 5.99999999999999
endloop
endfacet
facet normal 0.965925826289065 0.258819045102534 -3.39701839975529e-030
outer loop
vertex -0.745822442293591 -2.75028430805894 0.0
vertex -0.670897125415116 -2.93117002423205 5.99999999999999
vertex -0.670897125415116 -2.93117002423205 0.0
endloop
endfacet
facet normal 0.86602540378443 0.500000000000014 -2.71964036674801e-030
outer loop
vertex -0.670897125415116 -2.93117002423205 5.99999999999999
vertex -0.745822442293591 -2.75028430805894 0.0
vertex -0.745822442293591 -2.75028430805894 5.99999999999999
endloop
endfacet
facet normal 0.86602540378443 0.500000000000014 -2.71964036674801e-030
outer loop
vertex -0.670897125415116 -2.93117002423205 0.0
vertex -0.551708158466695 -3.08650011012196 5.99999999999999
vertex -0.551708158466695 -3.08650011012196 0.0
endloop
endfacet
facet normal 0.707106781186535 0.70710678118656 -1.85692333716506e-030
outer loop
vertex -0.551708158466695 -3.08650011012196 5.99999999999999
vertex -0.670897125415116 -2.93117002423205 0.0
vertex -0.670897125415116 -2.93117002423205 5.99999999999999
endloop
endfacet
facet normal 0.707106781186535 0.70710678118656 -1.85692333716506e-030
outer loop
vertex -0.551708158466695 -3.08650011012196 5.99999999999999
vertex -0.396378072576783 -3.20568907707037 0.0
vertex -0.551708158466695 -3.08650011012196 0.0
endloop
endfacet
facet normal 0.499999999999989 0.866025403784445 -8.67660050865242e-031
outer loop
vertex -0.396378072576783 -3.20568907707037 0.0
vertex -0.551708158466695 -3.08650011012196 5.99999999999999
vertex -0.396378072576783 -3.20568907707037 5.99999999999999
endloop
endfacet
facet normal 0.499999999999989 0.866025403784445 -8.67660050865242e-031
outer loop
vertex -0.396378072576783 -3.20568907707037 5.99999999999999
vertex -0.215492356403672 -3.28061439394884 0.0
vertex -0.396378072576783 -3.20568907707037 0.0
endloop
endfacet
facet normal 0.258819045102505 0.965925826289073 1.80732834025043e-031
outer loop
vertex -0.215492356403672 -3.28061439394884 0.0
vertex -0.396378072576783 -3.20568907707037 5.99999999999999
vertex -0.215492356403672 -3.28061439394884 5.99999999999999
endloop
endfacet
facet normal 0.258819045102505 0.965925826289073 1.80732834025043e-031
outer loop
vertex -0.215492356403672 -3.28061439394884 5.99999999999999
vertex -0.0213780725767813 -3.30617002423204 0.0
vertex -0.215492356403672 -3.28061439394884 0.0
endloop
endfacet
facet normal -1.4587486899174e-014 1.0 1.21680907495163e-030
outer loop
vertex -0.0213780725767813 -3.30617002423204 0.0
vertex -0.215492356403672 -3.28061439394884 5.99999999999999
vertex -0.0213780725767813 -3.30617002423204 5.99999999999999
endloop
endfacet
facet normal -1.4587486899174e-014 1.0 1.21680907495163e-030
outer loop
vertex -0.0213780725767813 -3.30617002423204 5.99999999999999
vertex 0.172736211250109 -3.28061439394884 0.0
vertex -0.0213780725767813 -3.30617002423204 0.0
endloop
endfacet
facet normal -0.258819045102534 0.965925826289065 2.16996178829235e-030
outer loop
vertex 0.172736211250109 -3.28061439394884 0.0
vertex -0.0213780725767813 -3.30617002423204 5.99999999999999
vertex 0.172736211250109 -3.28061439394884 5.99999999999999
endloop
endfacet
facet normal -0.258819045102534 0.965925826289065 2.16996178829235e-030
outer loop
vertex 0.172736211250109 -3.28061439394884 5.99999999999999
vertex 0.353621927423217 -3.20568907707036 0.0
vertex 0.172736211250109 -3.28061439394884 0.0
endloop
endfacet
facet normal -0.500000000000012 0.866025403784432 2.97523519179235e-030
outer loop
vertex 0.353621927423217 -3.20568907707036 0.0
vertex 0.172736211250109 -3.28061439394884 5.99999999999999
vertex 0.353621927423217 -3.20568907707036 5.99999999999999
endloop
endfacet
facet normal -0.500000000000012 0.866025403784432 2.97523519179235e-030
outer loop
vertex 0.353621927423217 -3.20568907707036 5.99999999999999
vertex 0.508952013313126 -3.08650011012194 0.0
vertex 0.353621927423217 -3.20568907707036 0.0
endloop
endfacet
facet normal -0.707106781186556 0.707106781186539 3.57775123378032e-030
outer loop
vertex 0.508952013313126 -3.08650011012194 0.0
vertex 0.353621927423217 -3.20568907707036 5.99999999999999
vertex 0.508952013313126 -3.08650011012194 5.99999999999999
endloop
endfacet
facet normal -0.866025403784446 0.499999999999987 3.93644944169965e-030
outer loop
vertex 0.628140980261542 -2.93117002423203 5.99999999999999
vertex 0.508952013313126 -3.08650011012194 0.0
vertex 0.508952013313126 -3.08650011012194 5.99999999999999
endloop
endfacet
facet normal -0.707106781186556 0.707106781186539 3.57775123378032e-030
outer loop
vertex 0.508952013313126 -3.08650011012194 0.0
vertex 0.628140980261542 -2.93117002423203 5.99999999999999
vertex 0.628140980261542 -2.93117002423203 0.0
endloop
endfacet
facet normal -0.965925826289072 0.258819045102507 4.02688512545742e-030
outer loop
vertex 0.703066297140011 -2.75028430805892 5.99999999999999
vertex 0.628140980261542 -2.93117002423203 0.0
vertex 0.628140980261542 -2.93117002423203 5.99999999999999
endloop
endfacet
facet normal -0.866025403784446 0.499999999999987 3.93644944169965e-030
outer loop
vertex 0.628140980261542 -2.93117002423203 0.0
vertex 0.703066297140011 -2.75028430805892 5.99999999999999
vertex 0.703066297140011 -2.75028430805892 0.0
endloop
endfacet
facet normal 0.0 -0.707106781186546 -0.707106781186549
outer loop
vertex -0.396378072576601 1.97164743507316 3.77781745930521
vertex -2.02137807257679 1.74382997576796 3.95262794416288
vertex -2.02137807257679 1.97164743507316 3.77781745930521
endloop
endfacet
facet normal 0.0 -0.499999999999959 -0.866025403784463
outer loop
vertex -2.02137807257679 1.74382997576796 3.95262794416288
vertex -0.396378072576601 1.97164743507316 3.77781745930521
vertex -0.396378072576601 1.74382997576796 3.95262794416288
endloop
endfacet
facet normal 0.0 1.0 0.0
outer loop
vertex -2.02137807257679 0.0938299757679616 2.99999999999999
vertex -0.396378072576601 0.131311566849988 2.71529905038721
vertex -2.02137807257679 0.131311566849988 2.71529905038721
endloop
endfacet
facet normal 0.0 0.965925826289068 0.258819045102523
outer loop
vertex -0.396378072576601 0.131311566849988 2.71529905038721
vertex -2.02137807257679 0.0938299757679616 2.99999999999999
vertex -0.396378072576601 0.0938299757679616 2.99999999999999
endloop
endfacet
facet normal 0.0 0.965925826289068 -0.258819045102523
outer loop
vertex -2.02137807257679 0.131311566849988 3.28470094961278
vertex -0.396378072576601 0.0938299757679616 2.99999999999999
vertex -2.02137807257679 0.0938299757679616 2.99999999999999
endloop
endfacet
facet normal 0.0 1.0 0.0
outer loop
vertex -0.396378072576601 0.0938299757679616 2.99999999999999
vertex -2.02137807257679 0.131311566849988 3.28470094961278
vertex -0.396378072576601 0.131311566849988 3.28470094961278
endloop
endfacet
facet normal 0.0 0.965925826289068 0.258819045102523
outer loop
vertex -2.02137807257679 0.131311566849988 2.71529905038721
vertex -0.396378072576601 0.24120203160508 2.44999999999998
vertex -2.02137807257679 0.24120203160508 2.44999999999998
endloop
endfacet
facet normal 0.0 0.866025403784442 0.499999999999995
outer loop
vertex -0.396378072576601 0.24120203160508 2.44999999999998
vertex -2.02137807257679 0.131311566849988 2.71529905038721
vertex -0.396378072576601 0.131311566849988 2.71529905038721
endloop
endfacet
facet normal 0.0 0.866025403784442 0.499999999999995
outer loop
vertex -2.02137807257679 0.24120203160508 2.44999999999998
vertex -0.396378072576601 0.416012516462759 2.22218254069478
vertex -2.02137807257679 0.416012516462759 2.22218254069478
endloop
endfacet
facet normal 0.0 0.707106781186546 0.707106781186549
outer loop
vertex -0.396378072576601 0.416012516462759 2.22218254069478
vertex -2.02137807257679 0.24120203160508 2.44999999999998
vertex -0.396378072576601 0.24120203160508 2.44999999999998
endloop
endfacet
facet normal 0.0 0.707106781186546 0.707106781186549
outer loop
vertex -0.396378072576601 0.416012516462759 2.22218254069478
vertex -2.02137807257679 0.643829975767961 2.0473720558371
vertex -2.02137807257679 0.416012516462759 2.22218254069478
endloop
endfacet
facet normal 0.0 0.499999999999959 0.866025403784463
outer loop
vertex -2.02137807257679 0.643829975767961 2.0473720558371
vertex -0.396378072576601 0.416012516462759 2.22218254069478
vertex -0.396378072576601 0.643829975767961 2.0473720558371
endloop
endfacet
endsolid Zuberi Delta - parts
