solid Zuberi Delta - aluminum square rail
facet normal -2.78796262377323e-018 0.554700196225224 -0.832050294337847
outer loop
vertex 0.197478746381115 1.50000000000004 2.43999958038282
vertex 7.64562344551088 1.69197908272986e-014 1.43999958038278
vertex 0.0 1.69197988952874e-014 1.43999958038278
endloop
endfacet
facet normal -2.78796262377323e-018 0.554700196225224 -0.832050294337847
outer loop
vertex 7.64562344551088 1.69197908272986e-014 1.43999958038278
vertex 0.197478746381115 1.50000000000004 2.43999958038282
vertex 7.84310219189209 1.50000000000004 2.43999958038282
endloop
endfacet
facet normal 5.97524202588732e-024 1.0 1.65436122510606e-024
outer loop
vertex 0.197478746381205 1.50000000000004 4.43999958038282
vertex 7.84310219189209 1.50000000000004 2.43999958038282
vertex 0.197478746381115 1.50000000000004 2.43999958038282
endloop
endfacet
facet normal 5.97524202588732e-024 1.0 1.65436122510606e-024
outer loop
vertex 7.84310219189209 1.50000000000004 2.43999958038282
vertex 0.197478746381205 1.50000000000004 4.43999958038282
vertex 5.84472248455549 1.50000000000004 4.36655855178806
endloop
endfacet
facet normal 5.97524202588732e-024 1.0 1.65436122510606e-024
outer loop
vertex 5.84472248455549 1.50000000000004 4.36655855178806
vertex 0.197478746381205 1.50000000000004 4.43999958038282
vertex 5.84472248455558 1.50000000000003 4.43999958038264
endloop
endfacet
facet normal 5.97524202588732e-024 1.0 1.65436122510606e-024
outer loop
vertex 7.843102191892 1.50000000000004 4.36655855178824
vertex 7.84310219189209 1.50000000000004 2.43999958038282
vertex 5.84472248455549 1.50000000000004 4.36655855178806
endloop
endfacet
facet normal 5.97524202588732e-024 1.0 1.65436122510606e-024
outer loop
vertex 20.1568978081081 1.50000000000004 4.36655855178815
vertex 27.8025212536189 1.50000000000004 2.43999958038282
vertex 20.1568978081081 1.50000000000004 2.43999958038282
endloop
endfacet
facet normal 5.97524202588732e-024 1.0 1.65436122510606e-024
outer loop
vertex 27.8025212536189 1.50000000000004 2.43999958038282
vertex 20.1568978081081 1.50000000000004 4.36655855178815
vertex 22.1552775154445 1.50000000000004 4.36655855178815
endloop
endfacet
facet normal 5.97524202588732e-024 1.0 1.65436122510606e-024
outer loop
vertex 27.8025212536189 1.50000000000004 2.43999958038282
vertex 22.1552775154445 1.50000000000004 4.36655855178815
vertex 27.802521253619 1.50000000000004 4.43999958038282
endloop
endfacet
facet normal 5.97524202588732e-024 1.0 1.65436122510606e-024
outer loop
vertex 27.802521253619 1.50000000000004 4.43999958038282
vertex 22.1552775154445 1.50000000000004 4.36655855178815
vertex 22.1552775154446 1.50000000000004 4.43999958038273
endloop
endfacet
facet normal 6.13350784613375e-018 0.554700196225224 -0.832050294337847
outer loop
vertex 27.8025212536189 1.50000000000004 2.43999958038282
vertex 20.3543765544891 2.25597237923944e-014 1.43999958038278
vertex 20.1568978081081 1.50000000000004 2.43999958038282
endloop
endfacet
facet normal 6.13350784613375e-018 0.554700196225224 -0.832050294337847
outer loop
vertex 20.3543765544891 2.25597237923944e-014 1.43999958038278
vertex 27.8025212536189 1.50000000000004 2.43999958038282
vertex 28.0 1.69197935166282e-014 1.43999958038278
endloop
endfacet
facet normal 0.96592582628907 0.258819045102516 -1.92107817584483e-014
outer loop
vertex 22.0681429939951 2.16185239965979 4.36655855178806
vertex 22.1552775154446 1.50000000000004 4.43999958038273
vertex 22.1552775154445 1.50000000000004 4.36655855178815
endloop
endfacet
facet normal 0.991444861373811 0.130526192220046 -8.06594142319533e-015
outer loop
vertex 22.3527562618256 3.94795253770113e-014 5.43999958038277
vertex 22.0681429939951 2.16185239965981 6.87999916076609
vertex 22.3527562618256 2.8199664825479e-014 6.87999916076618
endloop
endfacet
facet normal 0.96592582628907 0.258819045102515 -1.92107817584482e-014
outer loop
vertex 22.0681429939951 2.16185239965981 6.87999916076609
vertex 22.3527562618256 3.94795253770113e-014 5.43999958038277
vertex 22.1552775154446 1.50000000000004 4.43999958038273
endloop
endfacet
facet normal 0.96592582628907 0.258819045102515 -1.92107817584482e-014
outer loop
vertex 22.0681429939951 2.16185239965981 6.87999916076609
vertex 22.1552775154446 1.50000000000004 4.43999958038273
vertex 22.0681429939951 2.16185239965979 4.36655855178806
endloop
endfacet
facet normal -0.991444861373809 -0.130526192220061 1.51844144149817e-014
outer loop
vertex 28.0000000000001 7.33191258569157e-014 6.87999916076555
vertex 27.802521253619 1.50000000000004 4.43999958038282
vertex 28.0 5.07593966858622e-014 5.43999958038277
endloop
endfacet
facet normal -0.991444861373809 -0.130526192220061 1.51844144149817e-014
outer loop
vertex 27.802521253619 1.50000000000004 4.43999958038282
vertex 28.0000000000001 7.33191258569157e-014 6.87999916076555
vertex 27.522961568047 3.62346663143532 6.87999916076555
endloop
endfacet
facet normal -0.991444861373809 -0.130526192220061 1.51844144149817e-014
outer loop
vertex 27.802521253619 1.50000000000004 4.43999958038282
vertex 27.522961568047 3.62346663143532 6.87999916076555
vertex 27.8025212536189 1.50000000000004 2.43999958038282
endloop
endfacet
facet normal -0.991444861373809 -0.130526192220061 1.51844144149817e-014
outer loop
vertex 27.8025212536189 1.50000000000004 2.43999958038282
vertex 27.522961568047 3.62346663143532 6.87999916076555
vertex 27.5229615680469 3.62346663143526 0.0
endloop
endfacet
facet normal -0.991444861373809 -0.130526192220061 1.51844144149817e-014
outer loop
vertex 28.0 1.69197935166282e-014 1.43999958038278
vertex 27.5229615680469 3.62346663143526 0.0
vertex 28.0 -5.37865921506481e-021 0.0
endloop
endfacet
facet normal -0.96592582628907 -0.258819045102514 2.28007307649254e-014
outer loop
vertex 27.5229615680469 3.62346663143526 0.0
vertex 28.0 1.69197935166282e-014 1.43999958038278
vertex 27.8025212536189 1.50000000000004 2.43999958038282
endloop
endfacet
facet normal 7.81862919679644e-016 0.554700196225232 0.832050294337842
outer loop
vertex 5.64724373817438 3.94795307556706e-014 5.43999958038277
vertex 0.197478746381205 1.50000000000004 4.43999958038282
vertex 9.58788604066285e-014 5.6399329650958e-014 5.43999958038277
endloop
endfacet
facet normal 7.81862919679644e-016 0.554700196225232 0.832050294337842
outer loop
vertex 0.197478746381205 1.50000000000004 4.43999958038282
vertex 5.64724373817438 3.94795307556706e-014 5.43999958038277
vertex 5.84472248455558 1.50000000000003 4.43999958038264
endloop
endfacet
facet normal -7.7879676463534e-016 0.554700196225232 0.832050294337842
outer loop
vertex 22.3527562618256 3.94795253770113e-014 5.43999958038277
vertex 27.802521253619 1.50000000000004 4.43999958038282
vertex 22.1552775154446 1.50000000000004 4.43999958038273
endloop
endfacet
facet normal -7.7879676463534e-016 0.554700196225232 0.832050294337842
outer loop
vertex 27.802521253619 1.50000000000004 4.43999958038282
vertex 22.3527562618256 3.94795253770113e-014 5.43999958038277
vertex 28.0 5.07593966858622e-014 5.43999958038277
endloop
endfacet
facet normal -3.55796194556514e-014 1.85525217842974e-014 -1.0
outer loop
vertex 5.93185700600488 2.16185239965981 4.36655855178806
vertex 7.843102191892 1.50000000000004 4.36655855178824
vertex 5.84472248455549 1.50000000000004 4.36655855178806
endloop
endfacet
facet normal -3.55796194556514e-014 1.85525217842974e-014 -1.0
outer loop
vertex 7.843102191892 1.50000000000004 4.36655855178824
vertex 5.93185700600488 2.16185239965981 4.36655855178806
vertex 6.76630088563943 4.17637813091281 4.36655855178806
endloop
endfacet
facet normal -3.55796194556514e-014 1.85525217842974e-014 -1.0
outer loop
vertex 7.843102191892 1.50000000000004 4.36655855178824
vertex 6.76630088563943 4.17637813091281 4.36655855178806
vertex 8.09370940566472 5.90629059433529 4.36655855178824
endloop
endfacet
facet normal -3.55796194556514e-014 1.85525217842974e-014 -1.0
outer loop
vertex 7.843102191892 1.50000000000004 4.36655855178824
vertex 8.09370940566472 5.90629059433529 4.36655855178824
vertex 7.86214357605328 1.64463367205477 4.3665585517886
endloop
endfacet
facet normal -3.55796194556514e-014 1.85525217842974e-014 -1.0
outer loop
vertex 7.86214357605328 1.64463367205477 4.3665585517886
vertex 8.09370940566472 5.90629059433529 4.36655855178824
vertex 8.49694847860028 3.1771882772446 4.3665585517886
endloop
endfacet
facet normal -3.55796194556514e-014 1.85525217842974e-014 -1.0
outer loop
vertex 8.49694847860028 3.1771882772446 4.3665585517886
vertex 8.09370940566472 5.90629059433529 4.36655855178824
vertex 9.82362186908718 7.23369911436052 4.36655855178824
endloop
endfacet
facet normal -3.55796194556514e-014 1.85525217842974e-014 -1.0
outer loop
vertex 8.49694847860028 3.1771882772446 4.3665585517886
vertex 9.82362186908718 7.23369911436052 4.36655855178824
vertex 9.50677724810805 4.49322275189211 4.3665585517886
endloop
endfacet
facet normal -3.55796194556514e-014 1.85525217842974e-014 -1.0
outer loop
vertex 9.50677724810805 4.49322275189211 4.3665585517886
vertex 9.82362186908718 7.23369911436052 4.36655855178824
vertex 10.8228117227555 5.50305152139985 4.36655855178869
endloop
endfacet
facet normal -3.55796194556514e-014 1.85525217842974e-014 -1.0
outer loop
vertex 10.8228117227555 5.50305152139985 4.36655855178869
vertex 9.82362186908718 7.23369911436052 4.36655855178824
vertex 11.8381476003401 8.06814299399509 4.36655855178806
endloop
endfacet
facet normal -3.55796194556514e-014 1.85525217842974e-014 -1.0
outer loop
vertex 10.8228117227555 5.50305152139985 4.36655855178869
vertex 11.8381476003401 8.06814299399509 4.36655855178806
vertex 12.3553663279454 6.13785642394682 4.3665585517886
endloop
endfacet
facet normal -3.55796194556514e-014 1.85525217842974e-014 -1.0
outer loop
vertex 12.3553663279454 6.13785642394682 4.3665585517886
vertex 11.8381476003401 8.06814299399509 4.36655855178806
vertex 14.0 8.3527562618256 4.36655855178824
endloop
endfacet
facet normal -3.55796194556514e-014 1.85525217842974e-014 -1.0
outer loop
vertex 12.3553663279454 6.13785642394682 4.3665585517886
vertex 14.0 8.3527562618256 4.36655855178824
vertex 14.0 6.35437655448916 4.36655855178851
endloop
endfacet
facet normal -3.55796194556514e-014 1.85525217842974e-014 -1.0
outer loop
vertex 14.0 6.35437655448916 4.36655855178851
vertex 14.0 8.3527562618256 4.36655855178824
vertex 16.1618523996598 8.06814299399508 4.36655855178806
endloop
endfacet
facet normal -3.55796194556514e-014 1.85525217842974e-014 -1.0
outer loop
vertex 14.0 6.35437655448916 4.36655855178851
vertex 16.1618523996598 8.06814299399508 4.36655855178806
vertex 15.6446336720548 6.13785642394682 4.36655855178851
endloop
endfacet
facet normal -3.55796194556514e-014 1.85525217842974e-014 -1.0
outer loop
vertex 15.6446336720548 6.13785642394682 4.36655855178851
vertex 16.1618523996598 8.06814299399508 4.36655855178806
vertex 17.1771882772446 5.50305152139984 4.36655855178742
endloop
endfacet
facet normal -3.55796194556514e-014 1.85525217842974e-014 -1.0
outer loop
vertex 17.1771882772446 5.50305152139984 4.36655855178742
vertex 16.1618523996598 8.06814299399508 4.36655855178806
vertex 18.1763781309128 7.23369911436052 4.36655855178815
endloop
endfacet
facet normal -3.55796194556514e-014 1.85525217842974e-014 -1.0
outer loop
vertex 17.1771882772446 5.50305152139984 4.36655855178742
vertex 18.1763781309128 7.23369911436052 4.36655855178815
vertex 18.4932227518921 4.4932227518921 4.36655855178751
endloop
endfacet
facet normal -3.55796194556514e-014 1.85525217842974e-014 -1.0
outer loop
vertex 18.4932227518921 4.4932227518921 4.36655855178751
vertex 18.1763781309128 7.23369911436052 4.36655855178815
vertex 19.9062905943352 5.90629059433528 4.36655855178806
endloop
endfacet
facet normal -3.55796194556514e-014 1.85525217842974e-014 -1.0
outer loop
vertex 18.4932227518921 4.4932227518921 4.36655855178751
vertex 19.9062905943352 5.90629059433528 4.36655855178806
vertex 19.5030515213999 3.1771882772446 4.36655855178742
endloop
endfacet
facet normal -3.55796194556514e-014 1.85525217842974e-014 -1.0
outer loop
vertex 19.5030515213999 3.1771882772446 4.36655855178742
vertex 19.9062905943352 5.90629059433528 4.36655855178806
vertex 20.1378564239469 1.64463367205476 4.36655855178751
endloop
endfacet
facet normal -3.55796194556514e-014 1.85525217842974e-014 -1.0
outer loop
vertex 20.1378564239469 1.64463367205476 4.36655855178751
vertex 19.9062905943352 5.90629059433528 4.36655855178806
vertex 21.2336991143605 4.1763781309128 4.36655855178815
endloop
endfacet
facet normal -3.55796194556514e-014 1.85525217842974e-014 -1.0
outer loop
vertex 20.1378564239469 1.64463367205476 4.36655855178751
vertex 21.2336991143605 4.1763781309128 4.36655855178815
vertex 20.1568978081081 1.50000000000004 4.36655855178815
endloop
endfacet
facet normal -3.55796194556514e-014 1.85525217842974e-014 -1.0
outer loop
vertex 20.1568978081081 1.50000000000004 4.36655855178815
vertex 21.2336991143605 4.1763781309128 4.36655855178815
vertex 22.1552775154445 1.50000000000004 4.36655855178815
endloop
endfacet
facet normal -3.55796194556514e-014 1.85525217842974e-014 -1.0
outer loop
vertex 22.1552775154445 1.50000000000004 4.36655855178815
vertex 21.2336991143605 4.1763781309128 4.36655855178815
vertex 22.0681429939951 2.16185239965979 4.36655855178806
endloop
endfacet
facet normal 0.96592582628907 0.258819045102515 -2.80230640200807e-014
outer loop
vertex 20.1378564239468 1.64463367205471 0.0
vertex 20.3543765544891 2.25597237923944e-014 1.43999958038278
vertex 20.3543765544891 -2.6893296075324e-021 0.0
endloop
endfacet
facet normal 0.991444861373814 0.130526192220025 -2.55397253537378e-014
outer loop
vertex 20.3543765544891 2.25597237923944e-014 1.43999958038278
vertex 20.1378564239468 1.64463367205471 0.0
vertex 20.1568978081081 1.50000000000004 2.43999958038282
endloop
endfacet
facet normal 0.991444861373814 0.130526192220025 -2.55397253537378e-014
outer loop
vertex 20.1568978081081 1.50000000000004 2.43999958038282
vertex 20.1378564239469 1.64463367205476 4.36655855178751
vertex 20.1568978081081 1.50000000000004 4.36655855178815
endloop
endfacet
facet normal 0.965925826289117 0.258819045102339 -2.80230640200776e-014
outer loop
vertex 20.1378564239469 1.64463367205476 4.36655855178751
vertex 20.1568978081081 1.50000000000004 2.43999958038282
vertex 20.1378564239468 1.64463367205471 0.0
endloop
endfacet
facet normal 0.965925826289073 -0.258819045102505 -1.66817497094068e-014
outer loop
vertex 0.477038431953084 3.62346663143528 1.17310605673993e-012
vertex 0.0 1.69197988952874e-014 1.43999958038278
vertex 0.0 0.0 0.0
endloop
endfacet
facet normal 0.991444861373809 -0.130526192220062 -1.25276136693216e-014
outer loop
vertex 0.0 1.69197988952874e-014 1.43999958038278
vertex 0.477038431953084 3.62346663143528 1.17310605673993e-012
vertex 0.197478746381115 1.50000000000004 2.43999958038282
endloop
endfacet
facet normal 0.991444861373809 -0.130526192220062 -1.25276136693216e-014
outer loop
vertex 0.197478746381115 1.50000000000004 2.43999958038282
vertex 0.477038431953084 3.62346663143528 1.17310605673993e-012
vertex 0.197478746381205 1.50000000000004 4.43999958038282
endloop
endfacet
facet normal 0.991444861373809 -0.130526192220062 -1.25276136693216e-014
outer loop
vertex 0.197478746381205 1.50000000000004 4.43999958038282
vertex 9.58788604066285e-014 6.76791955811495e-014 6.87999916076555
vertex 9.58788604066285e-014 5.6399329650958e-014 5.43999958038277
endloop
endfacet
facet normal 0.991444861373809 -0.130526192220062 -1.25276136693216e-014
outer loop
vertex 9.58788604066285e-014 6.76791955811495e-014 6.87999916076555
vertex 0.197478746381205 1.50000000000004 4.43999958038282
vertex 0.477038431953174 3.62346663143535 6.87999916076672
endloop
endfacet
facet normal 0.965925826289066 -0.25881904510253 -1.66817497094076e-014
outer loop
vertex 0.477038431953174 3.62346663143535 6.87999916076672
vertex 0.197478746381205 1.50000000000004 4.43999958038282
vertex 0.477038431953084 3.62346663143528 1.17310605673993e-012
endloop
endfacet
facet normal -0.965925826289038 0.258819045102634 1.62154437397725e-014
outer loop
vertex 7.86214357605328 1.64463367205477 4.3665585517886
vertex 7.84310219189209 1.50000000000004 2.43999958038282
vertex 7.843102191892 1.50000000000004 4.36655855178824
endloop
endfacet
facet normal -0.99144486137381 0.130526192220058 1.16029803536427e-014
outer loop
vertex 7.84310219189209 1.50000000000004 2.43999958038282
vertex 7.86214357605328 1.64463367205477 4.3665585517886
vertex 7.86214357605319 1.64463367205472 1.17310605673993e-012
endloop
endfacet
facet normal -0.99144486137381 0.130526192220058 1.16029803536427e-014
outer loop
vertex 7.64562344551088 1.69197908272986e-014 1.43999958038278
vertex 7.86214357605319 1.64463367205472 1.17310605673993e-012
vertex 7.64562344551088 5.63992489710697e-015 1.26334498418146e-012
endloop
endfacet
facet normal -0.965925826289064 0.258819045102536 1.6215443739769e-014
outer loop
vertex 7.86214357605319 1.64463367205472 1.17310605673993e-012
vertex 7.64562344551088 1.69197908272986e-014 1.43999958038278
vertex 7.84310219189209 1.50000000000004 2.43999958038282
endloop
endfacet
facet normal -0.965925826289071 0.258819045102511 6.07946276393951e-015
outer loop
vertex 5.93185700600488 2.16185239965983 6.87999916076618
vertex 5.64724373817438 3.94795307556706e-014 5.43999958038277
vertex 5.64724373817438 2.8199664825479e-014 6.87999916076636
endloop
endfacet
facet normal -0.991444861373811 0.130526192220045 -8.49555215329418e-015
outer loop
vertex 5.64724373817438 3.94795307556706e-014 5.43999958038277
vertex 5.93185700600488 2.16185239965983 6.87999916076618
vertex 5.84472248455558 1.50000000000003 4.43999958038264
endloop
endfacet
facet normal -0.991444861373811 0.130526192220045 -8.49555215329418e-015
outer loop
vertex 5.84472248455558 1.50000000000003 4.43999958038264
vertex 5.93185700600488 2.16185239965983 6.87999916076618
vertex 5.84472248455549 1.50000000000004 4.36655855178806
endloop
endfacet
facet normal -0.991444861373811 0.130526192220045 -8.49555215329418e-015
outer loop
vertex 5.84472248455549 1.50000000000004 4.36655855178806
vertex 5.93185700600488 2.16185239965983 6.87999916076618
vertex 5.93185700600488 2.16185239965981 4.36655855178806
endloop
endfacet
facet normal -2.10757062861987e-014 -1.76145144147787e-014 -1.0
outer loop
vertex 0.477038431953174 3.62346663143535 6.87999916076672
vertex 5.64724373817438 2.8199664825479e-014 6.87999916076636
vertex 9.58788604066285e-014 6.76791955811495e-014 6.87999916076555
endloop
endfacet
facet normal -2.10757062861987e-014 -1.76145144147787e-014 -1.0
outer loop
vertex 5.64724373817438 2.8199664825479e-014 6.87999916076636
vertex 0.477038431953174 3.62346663143535 6.87999916076672
vertex 1.87564434701791 7.00000000000006 6.87999916076663
endloop
endfacet
facet normal -2.10757062861987e-014 -1.76145144147787e-014 -1.0
outer loop
vertex 5.64724373817438 2.8199664825479e-014 6.87999916076636
vertex 1.87564434701791 7.00000000000006 6.87999916076663
vertex 4.10050506338838 9.89949493661172 6.87999916076672
endloop
endfacet
facet normal -2.10757062861987e-014 -1.76145144147787e-014 -1.0
outer loop
vertex 5.64724373817438 2.8199664825479e-014 6.87999916076636
vertex 4.10050506338838 9.89949493661172 6.87999916076672
vertex 7.00000000000013 12.1243556529822 6.87999916076555
endloop
endfacet
facet normal -2.10757062861987e-014 -1.76145144147787e-014 -1.0
outer loop
vertex 5.64724373817438 2.8199664825479e-014 6.87999916076636
vertex 7.00000000000013 12.1243556529822 6.87999916076555
vertex 5.93185700600488 2.16185239965983 6.87999916076618
endloop
endfacet
facet normal -2.10757062861987e-014 -1.76145144147787e-014 -1.0
outer loop
vertex 5.93185700600488 2.16185239965983 6.87999916076618
vertex 7.00000000000013 12.1243556529822 6.87999916076555
vertex 6.76630088563943 4.17637813091283 6.87999916076618
endloop
endfacet
facet normal -2.10757062861987e-014 -1.76145144147787e-014 -1.0
outer loop
vertex 6.76630088563943 4.17637813091283 6.87999916076618
vertex 7.00000000000013 12.1243556529822 6.87999916076555
vertex 8.09370940566472 5.90629059433531 6.87999916076636
endloop
endfacet
facet normal -2.10757062861987e-014 -1.76145144147787e-014 -1.0
outer loop
vertex 8.09370940566472 5.90629059433531 6.87999916076636
vertex 7.00000000000013 12.1243556529822 6.87999916076555
vertex 8.99998859993044 25.0000335576842 6.87999916076555
endloop
endfacet
facet normal -2.10757062861987e-014 -1.76145144147787e-014 -1.0
outer loop
vertex 8.99998859993044 25.0000335576842 6.87999916076555
vertex 7.00000000000013 12.1243556529822 6.87999916076555
vertex 9.17042145448401 26.294123976319 6.87999916076681
endloop
endfacet
facet normal -2.10757062861987e-014 -1.76145144147787e-014 -1.0
outer loop
vertex 21.0000000000001 12.1243556529822 6.87999916076564
vertex 18.9999885999305 25.0000335576842 6.87999916076545
vertex 18.8295616464872 26.2941019530757 6.87999916076681
endloop
endfacet
facet normal -2.10757062861987e-014 -1.76145144147787e-014 -1.0
outer loop
vertex 18.9999885999305 25.0000335576842 6.87999916076545
vertex 21.0000000000001 12.1243556529822 6.87999916076564
vertex 19.9062905943352 5.9062905943353 6.87999916076609
endloop
endfacet
facet normal -2.10757062861987e-014 -1.76145144147787e-014 -1.0
outer loop
vertex 19.9062905943352 5.9062905943353 6.87999916076609
vertex 21.0000000000001 12.1243556529822 6.87999916076564
vertex 21.2336991143605 4.17637813091283 6.87999916076627
endloop
endfacet
facet normal -2.10757062861987e-014 -1.76145144147787e-014 -1.0
outer loop
vertex 21.2336991143605 4.17637813091283 6.87999916076627
vertex 21.0000000000001 12.1243556529822 6.87999916076564
vertex 23.8994949366118 9.89949493661172 6.87999916076555
endloop
endfacet
facet normal -2.10757062861987e-014 -1.76145144147787e-014 -1.0
outer loop
vertex 21.2336991143605 4.17637813091283 6.87999916076627
vertex 23.8994949366118 9.89949493661172 6.87999916076555
vertex 22.0681429939951 2.16185239965981 6.87999916076609
endloop
endfacet
facet normal -2.10757062861987e-014 -1.76145144147787e-014 -1.0
outer loop
vertex 22.0681429939951 2.16185239965981 6.87999916076609
vertex 23.8994949366118 9.89949493661172 6.87999916076555
vertex 22.3527562618256 2.8199664825479e-014 6.87999916076618
endloop
endfacet
facet normal -2.10757062861987e-014 -1.76145144147787e-014 -1.0
outer loop
vertex 22.3527562618256 2.8199664825479e-014 6.87999916076618
vertex 23.8994949366118 9.89949493661172 6.87999916076555
vertex 28.0000000000001 7.33191258569157e-014 6.87999916076555
endloop
endfacet
facet normal -2.10757062861987e-014 -1.76145144147787e-014 -1.0
outer loop
vertex 28.0000000000001 7.33191258569157e-014 6.87999916076555
vertex 23.8994949366118 9.89949493661172 6.87999916076555
vertex 26.1243556529822 7.00000000000007 6.87999916076555
endloop
endfacet
facet normal -2.10757062861987e-014 -1.76145144147787e-014 -1.0
outer loop
vertex 28.0000000000001 7.33191258569157e-014 6.87999916076555
vertex 26.1243556529822 7.00000000000007 6.87999916076555
vertex 27.522961568047 3.62346663143532 6.87999916076555
endloop
endfacet
facet normal -2.10757062861987e-014 -1.76145144147787e-014 -1.0
outer loop
vertex 8.99998859993044 25.0000335576842 6.87999916076555
vertex 9.82362186908718 7.23369911436054 6.87999916076627
vertex 8.09370940566472 5.90629059433531 6.87999916076636
endloop
endfacet
facet normal -2.10757062861987e-014 -1.76145144147787e-014 -1.0
outer loop
vertex 9.82362186908718 7.23369911436054 6.87999916076627
vertex 8.99998859993044 25.0000335576842 6.87999916076555
vertex 9.1703594684851 23.7059383321716 6.87999916076555
endloop
endfacet
facet normal -2.10757062861987e-014 -1.76145144147787e-014 -1.0
outer loop
vertex 9.82362186908718 7.23369911436054 6.87999916076627
vertex 9.1703594684851 23.7059383321716 6.87999916076555
vertex 9.66986158100826 22.5000335576842 6.87999916076555
endloop
endfacet
facet normal -2.10757062861987e-014 -1.76145144147787e-014 -1.0
outer loop
vertex 9.82362186908718 7.23369911436054 6.87999916076627
vertex 9.66986158100826 22.5000335576842 6.87999916076555
vertex 10.4644546939978 21.4644996517515 6.87999916076564
endloop
endfacet
facet normal -2.10757062861987e-014 -1.76145144147787e-014 -1.0
outer loop
vertex 9.82362186908718 7.23369911436054 6.87999916076627
vertex 10.4644546939978 21.4644996517515 6.87999916076564
vertex 11.8381476003401 8.0681429939951 6.87999916076618
endloop
endfacet
facet normal -2.10757062861987e-014 -1.76145144147787e-014 -1.0
outer loop
vertex 11.8381476003401 8.0681429939951 6.87999916076618
vertex 10.4644546939978 21.4644996517515 6.87999916076564
vertex 11.4999885999305 20.669906538762 6.87999916076564
endloop
endfacet
facet normal -2.10757062861987e-014 -1.76145144147787e-014 -1.0
outer loop
vertex 11.8381476003401 8.0681429939951 6.87999916076618
vertex 11.4999885999305 20.669906538762 6.87999916076564
vertex 12.7058933744179 20.1704044262388 6.87999916076564
endloop
endfacet
facet normal -2.10757062861987e-014 -1.76145144147787e-014 -1.0
outer loop
vertex 11.8381476003401 8.0681429939951 6.87999916076618
vertex 12.7058933744179 20.1704044262388 6.87999916076564
vertex 14.0 8.35275626182562 6.87999916076636
endloop
endfacet
facet normal -2.10757062861987e-014 -1.76145144147787e-014 -1.0
outer loop
vertex 14.0 8.35275626182562 6.87999916076636
vertex 12.7058933744179 20.1704044262388 6.87999916076564
vertex 13.9999885999305 20.0000335576842 6.87999916076555
endloop
endfacet
facet normal -2.10757062861987e-014 -1.76145144147787e-014 -1.0
outer loop
vertex 14.0 8.35275626182562 6.87999916076636
vertex 13.9999885999305 20.0000335576842 6.87999916076555
vertex 15.2940838254431 20.1704044262389 6.87999916076555
endloop
endfacet
facet normal -2.10757062861987e-014 -1.76145144147787e-014 -1.0
outer loop
vertex 14.0 8.35275626182562 6.87999916076636
vertex 15.2940838254431 20.1704044262389 6.87999916076555
vertex 16.1618523996598 8.0681429939951 6.87999916076618
endloop
endfacet
facet normal -2.10757062861987e-014 -1.76145144147787e-014 -1.0
outer loop
vertex 16.1618523996598 8.0681429939951 6.87999916076618
vertex 15.2940838254431 20.1704044262389 6.87999916076555
vertex 16.4999885999304 20.669906538762 6.87999916076555
endloop
endfacet
facet normal -2.10757062861987e-014 -1.76145144147787e-014 -1.0
outer loop
vertex 16.1618523996598 8.0681429939951 6.87999916076618
vertex 16.4999885999304 20.669906538762 6.87999916076555
vertex 18.1763781309128 7.23369911436054 6.87999916076627
endloop
endfacet
facet normal -2.10757062861987e-014 -1.76145144147787e-014 -1.0
outer loop
vertex 18.1763781309128 7.23369911436054 6.87999916076627
vertex 16.4999885999304 20.669906538762 6.87999916076555
vertex 17.5355225058632 21.4644996517515 6.87999916076555
endloop
endfacet
facet normal -2.10757062861987e-014 -1.76145144147787e-014 -1.0
outer loop
vertex 18.1763781309128 7.23369911436054 6.87999916076627
vertex 17.5355225058632 21.4644996517515 6.87999916076555
vertex 18.3301156188527 22.5000335576842 6.87999916076555
endloop
endfacet
facet normal -2.10757062861987e-014 -1.76145144147787e-014 -1.0
outer loop
vertex 18.1763781309128 7.23369911436054 6.87999916076627
vertex 18.3301156188527 22.5000335576842 6.87999916076555
vertex 19.9062905943352 5.9062905943353 6.87999916076609
endloop
endfacet
facet normal -2.10757062861987e-014 -1.76145144147787e-014 -1.0
outer loop
vertex 19.9062905943352 5.9062905943353 6.87999916076609
vertex 18.3301156188527 22.5000335576842 6.87999916076555
vertex 18.8296177313758 23.7059383321716 6.87999916076555
endloop
endfacet
facet normal -2.10757062861987e-014 -1.76145144147787e-014 -1.0
outer loop
vertex 19.9062905943352 5.9062905943353 6.87999916076609
vertex 18.8296177313758 23.7059383321716 6.87999916076555
vertex 18.9999885999305 25.0000335576842 6.87999916076545
endloop
endfacet
facet normal 5.49287984576408e-015 1.0 -1.95831062219738e-015
outer loop
vertex 9.58788604066285e-014 6.76791955811495e-014 6.87999916076555
vertex 5.64724373817438 3.94795307556706e-014 5.43999958038277
vertex 9.58788604066285e-014 5.6399329650958e-014 5.43999958038277
endloop
endfacet
facet normal 5.49287984576408e-015 1.0 -1.95831062219738e-015
outer loop
vertex 5.64724373817438 3.94795307556706e-014 5.43999958038277
vertex 9.58788604066285e-014 6.76791955811495e-014 6.87999916076555
vertex 5.64724373817438 2.8199664825479e-014 6.87999916076636
endloop
endfacet
facet normal -5.49287984314188e-015 1.0 -1.95831062716046e-015
outer loop
vertex 22.3527562618256 2.8199664825479e-014 6.87999916076618
vertex 28.0 5.07593966858622e-014 5.43999958038277
vertex 22.3527562618256 3.94795253770113e-014 5.43999958038277
endloop
endfacet
facet normal -5.49287984314188e-015 1.0 -1.95831062716046e-015
outer loop
vertex 28.0 5.07593966858622e-014 5.43999958038277
vertex 22.3527562618256 2.8199664825479e-014 6.87999916076618
vertex 28.0000000000001 7.33191258569157e-014 6.87999916076555
endloop
endfacet
facet normal -3.68834072144743e-016 1.0 -9.79155313911103e-015
outer loop
vertex 0.0 1.69197988952874e-014 1.43999958038278
vertex 7.64562344551088 5.63992489710697e-015 1.26334498418146e-012
vertex 0.0 0.0 0.0
endloop
endfacet
facet normal -3.68834072144743e-016 1.0 -9.79155313911103e-015
outer loop
vertex 7.64562344551088 5.63992489710697e-015 1.26334498418146e-012
vertex 0.0 1.69197988952874e-014 1.43999958038278
vertex 7.64562344551088 1.69197908272986e-014 1.43999958038278
endloop
endfacet
facet normal 4.19916885406438e-014 1.49481789277696e-014 1.0
outer loop
vertex 7.64562344551088 5.63992489710697e-015 1.26334498418146e-012
vertex 0.477038431953084 3.62346663143528 1.17310605673993e-012
vertex 0.0 0.0 0.0
endloop
endfacet
facet normal 4.19916885406438e-014 1.49481789277696e-014 1.0
outer loop
vertex 0.477038431953084 3.62346663143528 1.17310605673993e-012
vertex 7.64562344551088 5.63992489710697e-015 1.26334498418146e-012
vertex 1.87564434701782 6.99999999999998 9.9262820185686e-013
endloop
endfacet
facet normal 4.19916885406438e-014 1.49481789277696e-014 1.0
outer loop
vertex 1.87564434701782 6.99999999999998 9.9262820185686e-013
vertex 7.64562344551088 5.63992489710697e-015 1.26334498418146e-012
vertex 4.10050506338829 9.89949493661164 1.17310605673993e-012
endloop
endfacet
facet normal 4.19916885406438e-014 1.49481789277696e-014 1.0
outer loop
vertex 4.10050506338829 9.89949493661164 1.17310605673993e-012
vertex 7.64562344551088 5.63992489710697e-015 1.26334498418146e-012
vertex 7.00000000000004 12.1243556529821 0.0
endloop
endfacet
facet normal 4.19916885406438e-014 1.49481789277696e-014 1.0
outer loop
vertex 7.00000000000004 12.1243556529821 0.0
vertex 7.64562344551088 5.63992489710697e-015 1.26334498418146e-012
vertex 9.17042145448392 26.2941239763189 1.26334498418146e-012
endloop
endfacet
facet normal 4.19916885406438e-014 1.49481789277696e-014 1.0
outer loop
vertex 9.17042145448392 26.2941239763189 1.26334498418146e-012
vertex 7.64562344551088 5.63992489710697e-015 1.26334498418146e-012
vertex 7.86214357605319 1.64463367205472 1.17310605673993e-012
endloop
endfacet
facet normal 4.19916885406438e-014 1.49481789277696e-014 1.0
outer loop
vertex 9.17042145448392 26.2941239763189 1.26334498418146e-012
vertex 7.86214357605319 1.64463367205472 1.17310605673993e-012
vertex 8.49694847860019 3.17718827724455 1.08286712929839e-012
endloop
endfacet
facet normal 4.19916885406438e-014 1.49481789277696e-014 1.0
outer loop
vertex 9.17042145448392 26.2941239763189 1.26334498418146e-012
vertex 8.49694847860019 3.17718827724455 1.08286712929839e-012
vertex 9.50677724810796 4.49322275189206 1.08286712929839e-012
endloop
endfacet
facet normal 4.19916885406438e-014 1.49481789277696e-014 1.0
outer loop
vertex 9.17042145448392 26.2941239763189 1.26334498418146e-012
vertex 9.50677724810796 4.49322275189206 1.08286712929839e-012
vertex 9.66986158100817 27.5000335576841 0.0
endloop
endfacet
facet normal 4.19916885406438e-014 1.49481789277696e-014 1.0
outer loop
vertex 9.66986158100817 27.5000335576841 0.0
vertex 9.50677724810796 4.49322275189206 1.08286712929839e-012
vertex 10.8228117227554 5.5030515213998 1.17310605673993e-012
endloop
endfacet
facet normal 4.19916885406438e-014 1.49481789277696e-014 1.0
outer loop
vertex 9.66986158100817 27.5000335576841 0.0
vertex 10.8228117227554 5.5030515213998 1.17310605673993e-012
vertex 10.4644546939977 28.5355674636168 -9.02389274415327e-014
endloop
endfacet
facet normal 4.19916885406438e-014 1.49481789277696e-014 1.0
outer loop
vertex 10.4644546939977 28.5355674636168 -9.02389274415327e-014
vertex 10.8228117227554 5.5030515213998 1.17310605673993e-012
vertex 11.4999885999304 29.3301605766063 -1.80477854883065e-013
endloop
endfacet
facet normal 4.19916885406438e-014 1.49481789277696e-014 1.0
outer loop
vertex 11.4999885999304 29.3301605766063 -1.80477854883065e-013
vertex 10.8228117227554 5.5030515213998 1.17310605673993e-012
vertex 12.3553663279453 6.13785642394677 1.17310605673993e-012
endloop
endfacet
facet normal 4.19916885406438e-014 1.49481789277696e-014 1.0
outer loop
vertex 11.4999885999304 29.3301605766063 -1.80477854883065e-013
vertex 12.3553663279453 6.13785642394677 1.17310605673993e-012
vertex 11.8000074425162 25.0000147044433 0.0
endloop
endfacet
facet normal 4.19916885406438e-014 1.49481789277696e-014 1.0
outer loop
vertex 11.8000074425162 25.0000147044433 0.0
vertex 12.3553663279453 6.13785642394677 1.17310605673993e-012
vertex 11.8749748622125 24.4306183244464 0.0
endloop
endfacet
facet normal 4.19916885406438e-014 1.49481789277696e-014 1.0
outer loop
vertex 11.8749748622125 24.4306183244464 0.0
vertex 12.3553663279453 6.13785642394677 1.17310605673993e-012
vertex 12.0947584563831 23.9000266515915 0.0
endloop
endfacet
facet normal 4.19916885406438e-014 1.49481789277696e-014 1.0
outer loop
vertex 12.0947584563831 23.9000266515915 0.0
vertex 12.3553663279453 6.13785642394677 1.17310605673993e-012
vertex 12.4443803362947 23.4443986315394 -9.02389274415327e-014
endloop
endfacet
facet normal 4.19916885406438e-014 1.49481789277696e-014 1.0
outer loop
vertex 12.4443803362947 23.4443986315394 -9.02389274415327e-014
vertex 12.3553663279453 6.13785642394677 1.17310605673993e-012
vertex 14.0000000000001 6.35437655448911 1.08286712929839e-012
endloop
endfacet
facet normal 4.19916885406438e-014 1.49481789277696e-014 1.0
outer loop
vertex 12.4443803362947 23.4443986315394 -9.02389274415327e-014
vertex 14.0000000000001 6.35437655448911 1.08286712929839e-012
vertex 12.9000143486088 23.0947845608959 0.0
endloop
endfacet
facet normal 4.19916885406438e-014 1.49481789277696e-014 1.0
outer loop
vertex 12.9000143486088 23.0947845608959 0.0
vertex 14.0000000000001 6.35437655448911 1.08286712929839e-012
vertex 13.4306097883571 22.8750100608106 0.0
endloop
endfacet
facet normal 4.19916885406438e-014 1.49481789277696e-014 1.0
outer loop
vertex 13.4306097883571 22.8750100608106 0.0
vertex 14.0000000000001 6.35437655448911 1.08286712929839e-012
vertex 14.0000074531712 22.80005240027 -1.80477854883065e-013
endloop
endfacet
facet normal 4.19916885406438e-014 1.49481789277696e-014 1.0
outer loop
vertex 14.0000074531712 22.80005240027 -1.80477854883065e-013
vertex 14.0000000000001 6.35437655448911 1.08286712929839e-012
vertex 15.6446336720547 6.13785642394677 1.08286712929839e-012
endloop
endfacet
facet normal 4.19916885406438e-014 1.49481789277696e-014 1.0
outer loop
vertex 14.0000074531712 22.80005240027 -1.80477854883065e-013
vertex 15.6446336720547 6.13785642394677 1.08286712929839e-012
vertex 14.569403833168 22.8750198199662 0.0
endloop
endfacet
facet normal 4.19916885406438e-014 1.49481789277696e-014 1.0
outer loop
vertex 14.569403833168 22.8750198199662 0.0
vertex 15.6446336720547 6.13785642394677 1.08286712929839e-012
vertex 15.099995506023 23.0948034141368 0.0
endloop
endfacet
facet normal 4.19916885406438e-014 1.49481789277696e-014 1.0
outer loop
vertex 15.099995506023 23.0948034141368 0.0
vertex 15.6446336720547 6.13785642394677 1.08286712929839e-012
vertex 15.555623526075 23.4444252940484 0.0
endloop
endfacet
facet normal 4.19916885406438e-014 1.49481789277696e-014 1.0
outer loop
vertex 15.555623526075 23.4444252940484 0.0
vertex 15.6446336720547 6.13785642394677 1.08286712929839e-012
vertex 15.9052375967186 23.9000593063626 0.0
endloop
endfacet
facet normal 4.19916885406438e-014 1.49481789277696e-014 1.0
outer loop
vertex 15.9052375967186 23.9000593063626 0.0
vertex 15.6446336720547 6.13785642394677 1.08286712929839e-012
vertex 17.1771882772445 5.50305152139979 0.0
endloop
endfacet
facet normal 4.19916885406438e-014 1.49481789277696e-014 1.0
outer loop
vertex 15.9052375967186 23.9000593063626 0.0
vertex 17.1771882772445 5.50305152139979 0.0
vertex 16.1250120968038 24.4306547461109 0.0
endloop
endfacet
facet normal 4.19916885406438e-014 1.49481789277696e-014 1.0
outer loop
vertex 16.1250120968038 24.4306547461109 0.0
vertex 17.1771882772445 5.50305152139979 0.0
vertex 16.1999697573446 25.000052410925 0.0
endloop
endfacet
facet normal 4.19916885406438e-014 1.49481789277696e-014 1.0
outer loop
vertex 16.1999697573446 25.000052410925 0.0
vertex 17.1771882772445 5.50305152139979 0.0
vertex 16.4999885999304 29.3301605766063 0.0
endloop
endfacet
facet normal 4.19916885406438e-014 1.49481789277696e-014 1.0
outer loop
vertex 16.4999885999304 29.3301605766063 0.0
vertex 17.1771882772445 5.50305152139979 0.0
vertex 17.5355225058631 28.5355674636169 0.0
endloop
endfacet
facet normal 4.19916885406438e-014 1.49481789277696e-014 1.0
outer loop
vertex 17.5355225058631 28.5355674636169 0.0
vertex 17.1771882772445 5.50305152139979 0.0
vertex 18.493222751892 4.49322275189205 0.0
endloop
endfacet
facet normal 4.19916885406438e-014 1.49481789277696e-014 1.0
outer loop
vertex 17.5355225058631 28.5355674636169 0.0
vertex 18.493222751892 4.49322275189205 0.0
vertex 18.3301156188526 27.5000335576841 -1.80477854883065e-013
endloop
endfacet
facet normal 4.19916885406438e-014 1.49481789277696e-014 1.0
outer loop
vertex 18.3301156188526 27.5000335576841 -1.80477854883065e-013
vertex 18.493222751892 4.49322275189205 0.0
vertex 18.8295616464872 26.2941019530756 1.26334498418146e-012
endloop
endfacet
facet normal 4.19916885406438e-014 1.49481789277696e-014 1.0
outer loop
vertex 18.8295616464872 26.2941019530756 1.26334498418146e-012
vertex 18.493222751892 4.49322275189205 0.0
vertex 19.5030515213998 3.17718827724455 0.0
endloop
endfacet
facet normal 4.19916885406438e-014 1.49481789277696e-014 1.0
outer loop
vertex 18.8295616464872 26.2941019530756 1.26334498418146e-012
vertex 19.5030515213998 3.17718827724455 0.0
vertex 21.0 12.1243556529821 0.0
endloop
endfacet
facet normal 4.19916885406438e-014 1.49481789277696e-014 1.0
outer loop
vertex 21.0 12.1243556529821 0.0
vertex 19.5030515213998 3.17718827724455 0.0
vertex 20.1378564239468 1.64463367205471 0.0
endloop
endfacet
facet normal 4.19916885406438e-014 1.49481789277696e-014 1.0
outer loop
vertex 21.0 12.1243556529821 0.0
vertex 20.1378564239468 1.64463367205471 0.0
vertex 20.3543765544891 -2.6893296075324e-021 0.0
endloop
endfacet
facet normal 4.19916885406438e-014 1.49481789277696e-014 1.0
outer loop
vertex 21.0 12.1243556529821 0.0
vertex 20.3543765544891 -2.6893296075324e-021 0.0
vertex 28.0 -5.37865921506481e-021 0.0
endloop
endfacet
facet normal 4.19916885406438e-014 1.49481789277696e-014 1.0
outer loop
vertex 21.0 12.1243556529821 0.0
vertex 28.0 -5.37865921506481e-021 0.0
vertex 23.8994949366117 9.89949493661164 0.0
endloop
endfacet
facet normal 4.19916885406438e-014 1.49481789277696e-014 1.0
outer loop
vertex 23.8994949366117 9.89949493661164 0.0
vertex 28.0 -5.37865921506481e-021 0.0
vertex 26.1243556529821 7.0 0.0
endloop
endfacet
facet normal 4.19916885406438e-014 1.49481789277696e-014 1.0
outer loop
vertex 26.1243556529821 7.0 0.0
vertex 28.0 -5.37865921506481e-021 0.0
vertex 27.5229615680469 3.62346663143526 0.0
endloop
endfacet
facet normal 4.19916885406438e-014 1.49481789277696e-014 1.0
outer loop
vertex 11.4999885999304 29.3301605766063 -1.80477854883065e-013
vertex 11.8749651030569 25.5694123692574 0.0
vertex 12.7058933744178 29.8296626891295 0.0
endloop
endfacet
facet normal 4.19916885406438e-014 1.49481789277696e-014 1.0
outer loop
vertex 11.8749651030569 25.5694123692574 0.0
vertex 11.4999885999304 29.3301605766063 -1.80477854883065e-013
vertex 11.8000074425162 25.0000147044433 0.0
endloop
endfacet
facet normal 4.19916885406438e-014 1.49481789277696e-014 1.0
outer loop
vertex 12.7058933744178 29.8296626891295 0.0
vertex 11.8749651030569 25.5694123692574 0.0
vertex 12.0947396031422 26.1000078090057 0.0
endloop
endfacet
facet normal 4.19916885406438e-014 1.49481789277696e-014 1.0
outer loop
vertex 12.7058933744178 29.8296626891295 0.0
vertex 12.0947396031422 26.1000078090057 0.0
vertex 12.4443536737857 26.5556418213198 0.0
endloop
endfacet
facet normal 4.19916885406438e-014 1.49481789277696e-014 1.0
outer loop
vertex 12.7058933744178 29.8296626891295 0.0
vertex 12.4443536737857 26.5556418213198 0.0
vertex 12.8999816938378 26.9052637012315 0.0
endloop
endfacet
facet normal 4.19916885406438e-014 1.49481789277696e-014 1.0
outer loop
vertex 12.7058933744178 29.8296626891295 0.0
vertex 12.8999816938378 26.9052637012315 0.0
vertex 13.9999885999304 30.0000335576841 -1.80477854883065e-013
endloop
endfacet
facet normal 4.19916885406438e-014 1.49481789277696e-014 1.0
outer loop
vertex 13.9999885999304 30.0000335576841 -1.80477854883065e-013
vertex 12.8999816938378 26.9052637012315 0.0
vertex 13.4305733666926 27.125047295402 -1.80477854883065e-013
endloop
endfacet
facet normal 4.19916885406438e-014 1.49481789277696e-014 1.0
outer loop
vertex 13.9999885999304 30.0000335576841 -1.80477854883065e-013
vertex 13.4305733666926 27.125047295402 -1.80477854883065e-013
vertex 13.9999697466895 27.2000147150983 -9.02389274415327e-014
endloop
endfacet
facet normal 4.19916885406438e-014 1.49481789277696e-014 1.0
outer loop
vertex 13.9999885999304 30.0000335576841 -1.80477854883065e-013
vertex 13.9999697466895 27.2000147150983 -9.02389274415327e-014
vertex 14.5693674115036 27.1250570545576 0.0
endloop
endfacet
facet normal 4.19916885406438e-014 1.49481789277696e-014 1.0
outer loop
vertex 13.9999885999304 30.0000335576841 -1.80477854883065e-013
vertex 14.5693674115036 27.1250570545576 0.0
vertex 15.294083825443 29.8296626891294 0.0
endloop
endfacet
facet normal 4.19916885406438e-014 1.49481789277696e-014 1.0
outer loop
vertex 15.294083825443 29.8296626891294 0.0
vertex 14.5693674115036 27.1250570545576 0.0
vertex 15.0999628512519 26.9052825544723 0.0
endloop
endfacet
facet normal 4.19916885406438e-014 1.49481789277696e-014 1.0
outer loop
vertex 15.294083825443 29.8296626891294 0.0
vertex 15.0999628512519 26.9052825544723 0.0
vertex 15.5555968635661 26.5556684838288 -1.80477854883065e-013
endloop
endfacet
facet normal 4.19916885406438e-014 1.49481789277696e-014 1.0
outer loop
vertex 15.294083825443 29.8296626891294 0.0
vertex 15.5555968635661 26.5556684838288 -1.80477854883065e-013
vertex 16.4999885999304 29.3301605766063 0.0
endloop
endfacet
facet normal 4.19916885406438e-014 1.49481789277696e-014 1.0
outer loop
vertex 16.4999885999304 29.3301605766063 0.0
vertex 15.5555968635661 26.5556684838288 -1.80477854883065e-013
vertex 15.9052187434776 26.1000404637767 0.0
endloop
endfacet
facet normal 4.19916885406438e-014 1.49481789277696e-014 1.0
outer loop
vertex 16.4999885999304 29.3301605766063 0.0
vertex 15.9052187434776 26.1000404637767 0.0
vertex 16.1250023376483 25.5694487909218 0.0
endloop
endfacet
facet normal 4.19916885406438e-014 1.49481789277696e-014 1.0
outer loop
vertex 16.4999885999304 29.3301605766063 0.0
vertex 16.1250023376483 25.5694487909218 0.0
vertex 16.1999697573446 25.000052410925 0.0
endloop
endfacet
facet normal 1.15144706454381e-024 1.0 -1.17498637662715e-014
outer loop
vertex 20.3543765544891 2.25597237923944e-014 1.43999958038278
vertex 28.0 -5.37865921506481e-021 0.0
vertex 20.3543765544891 -2.6893296075324e-021 0.0
endloop
endfacet
facet normal 1.15144706454381e-024 1.0 -1.17498637662715e-014
outer loop
vertex 28.0 -5.37865921506481e-021 0.0
vertex 20.3543765544891 2.25597237923944e-014 1.43999958038278
vertex 28.0 1.69197935166282e-014 1.43999958038278
endloop
endfacet
facet normal 0.866025403784436 0.500000000000004 -2.98958873738339e-014
outer loop
vertex 21.2336991143605 4.1763781309128 4.36655855178815
vertex 22.0681429939951 2.16185239965981 6.87999916076609
vertex 22.0681429939951 2.16185239965979 4.36655855178806
endloop
endfacet
facet normal 0.96592582628907 0.258819045102515 -1.92107817584482e-014
outer loop
vertex 22.0681429939951 2.16185239965981 6.87999916076609
vertex 21.2336991143605 4.1763781309128 4.36655855178815
vertex 21.2336991143605 4.17637813091283 6.87999916076627
endloop
endfacet
facet normal -0.965925826289071 0.258819045102511 6.07946276393951e-015
outer loop
vertex 5.93185700600488 2.16185239965983 6.87999916076618
vertex 6.76630088563943 4.17637813091281 4.36655855178806
vertex 5.93185700600488 2.16185239965981 4.36655855178806
endloop
endfacet
facet normal -0.866025403784437 0.500000000000002 1.75142905972295e-014
outer loop
vertex 6.76630088563943 4.17637813091281 4.36655855178806
vertex 5.93185700600488 2.16185239965983 6.87999916076618
vertex 6.76630088563943 4.17637813091283 6.87999916076618
endloop
endfacet
facet normal -0.500000000000002 0.866025403784437 2.96336216371146e-015
outer loop
vertex 9.82362186908718 7.23369911436052 4.36655855178824
vertex 11.8381476003401 8.0681429939951 6.87999916076618
vertex 11.8381476003401 8.06814299399509 4.36655855178806
endloop
endfacet
facet normal -0.258819045102521 0.965925826289068 -4.87523697748976e-015
outer loop
vertex 11.8381476003401 8.0681429939951 6.87999916076618
vertex 9.82362186908718 7.23369911436052 4.36655855178824
vertex 9.82362186908718 7.23369911436054 6.87999916076627
endloop
endfacet
facet normal 0.500000000000005 0.866025403784436 -2.44089168538239e-014
outer loop
vertex 18.1763781309128 7.23369911436052 4.36655855178815
vertex 19.9062905943352 5.9062905943353 6.87999916076609
vertex 19.9062905943352 5.90629059433528 4.36655855178806
endloop
endfacet
facet normal 0.707106781186541 0.707106781186554 -2.81102351501379e-014
outer loop
vertex 19.9062905943352 5.9062905943353 6.87999916076609
vertex 18.1763781309128 7.23369911436052 4.36655855178815
vertex 18.1763781309128 7.23369911436054 6.87999916076627
endloop
endfacet
facet normal -0.258819045102521 0.965925826289068 -4.87523697748976e-015
outer loop
vertex 11.8381476003401 8.0681429939951 6.87999916076618
vertex 14.0 8.3527562618256 4.36655855178824
vertex 11.8381476003401 8.06814299399509 4.36655855178806
endloop
endfacet
facet normal 1.30102204476438e-015 1.0 -1.23815967763959e-014
outer loop
vertex 14.0 8.3527562618256 4.36655855178824
vertex 11.8381476003401 8.0681429939951 6.87999916076618
vertex 14.0 8.35275626182562 6.87999916076636
endloop
endfacet
facet normal 0.707106781186542 0.707106781186553 -2.81102351501379e-014
outer loop
vertex 19.9062905943352 5.90629059433528 4.36655855178806
vertex 21.2336991143605 4.17637813091283 6.87999916076627
vertex 21.2336991143605 4.1763781309128 4.36655855178815
endloop
endfacet
facet normal 0.866025403784435 0.500000000000005 -2.98958873738339e-014
outer loop
vertex 21.2336991143605 4.17637813091283 6.87999916076627
vertex 19.9062905943352 5.90629059433528 4.36655855178806
vertex 19.9062905943352 5.9062905943353 6.87999916076609
endloop
endfacet
facet normal 0.258819045102521 0.965925826289068 -1.90441712129874e-014
outer loop
vertex 16.1618523996598 8.0681429939951 6.87999916076618
vertex 18.1763781309128 7.23369911436052 4.36655855178815
vertex 16.1618523996598 8.06814299399508 4.36655855178806
endloop
endfacet
facet normal 0.500000000000005 0.866025403784436 -2.44089168538239e-014
outer loop
vertex 18.1763781309128 7.23369911436052 4.36655855178815
vertex 16.1618523996598 8.0681429939951 6.87999916076618
vertex 18.1763781309128 7.23369911436054 6.87999916076627
endloop
endfacet
facet normal 1.30102204476438e-015 1.0 -1.23815967763959e-014
outer loop
vertex 14.0 8.3527562618256 4.36655855178824
vertex 16.1618523996598 8.0681429939951 6.87999916076618
vertex 16.1618523996598 8.06814299399508 4.36655855178806
endloop
endfacet
facet normal 0.258819045102521 0.965925826289068 -1.90441712129874e-014
outer loop
vertex 16.1618523996598 8.0681429939951 6.87999916076618
vertex 14.0 8.3527562618256 4.36655855178824
vertex 14.0 8.35275626182562 6.87999916076636
endloop
endfacet
facet normal -0.707106781186539 0.707106781186556 1.06000130661558e-014
outer loop
vertex 8.09370940566472 5.90629059433531 6.87999916076636
vertex 9.82362186908718 7.23369911436052 4.36655855178824
vertex 8.09370940566472 5.90629059433529 4.36655855178824
endloop
endfacet
facet normal -0.500000000000002 0.866025403784437 2.96336216371146e-015
outer loop
vertex 9.82362186908718 7.23369911436052 4.36655855178824
vertex 8.09370940566472 5.90629059433531 6.87999916076636
vertex 9.82362186908718 7.23369911436054 6.87999916076627
endloop
endfacet
facet normal -0.866025403784433 0.500000000000009 1.75142905972293e-014
outer loop
vertex 6.76630088563943 4.17637813091283 6.87999916076618
vertex 8.09370940566472 5.90629059433529 4.36655855178824
vertex 6.76630088563943 4.17637813091281 4.36655855178806
endloop
endfacet
facet normal -0.707106781186544 0.707106781186551 1.0600013066156e-014
outer loop
vertex 8.09370940566472 5.90629059433529 4.36655855178824
vertex 6.76630088563943 4.17637813091283 6.87999916076618
vertex 8.09370940566472 5.90629059433531 6.87999916076636
endloop
endfacet
facet normal 0.965925826289067 0.258819045102526 1.24977193887924e-014
outer loop
vertex 9.1703594684851 23.7059383321716 6.87999916076555
vertex 8.99998859993044 25.0000335576839 19.6999999999959
vertex 9.1703594684851 23.7059383321713 19.6999999999959
endloop
endfacet
facet normal 0.999999999717213 -2.37818036316148e-005 6.91860495806592e-015
outer loop
vertex 8.99998859993044 25.0000335576839 19.6999999999959
vertex 9.1703594684851 23.7059383321716 6.87999916076555
vertex 8.99998859993044 25.0000335576842 6.87999916076555
endloop
endfacet
facet normal 0.500007421584133 -0.866021118888441 -9.42833685596151e-015
outer loop
vertex 15.099995506023 23.0948034141366 19.699999999996
vertex 14.569403833168 22.8750198199662 0.0
vertex 15.099995506023 23.0948034141368 0.0
endloop
endfacet
facet normal 0.258827322814889 -0.965923608244709 -1.05159790837431e-014
outer loop
vertex 14.569403833168 22.8750198199662 0.0
vertex 15.099995506023 23.0948034141366 19.699999999996
vertex 14.5694038331681 22.875019819966 19.6999999999959
endloop
endfacet
facet normal 0.707112840873588 -0.707100721447577 -7.69816905184135e-015
outer loop
vertex 15.5556235260751 23.4444252940482 19.6999999999959
vertex 15.099995506023 23.0948034141368 0.0
vertex 15.555623526075 23.4444252940484 0.0
endloop
endfacet
facet normal 0.500007421584134 -0.866021118888441 -9.42833685596151e-015
outer loop
vertex 15.099995506023 23.0948034141368 0.0
vertex 15.5556235260751 23.4444252940482 19.6999999999959
vertex 15.099995506023 23.0948034141366 19.699999999996
endloop
endfacet
facet normal 0.866029688616802 -0.499992578379204 -5.4433837489743e-015
outer loop
vertex 15.9052375967186 23.9000593063626 0.0
vertex 16.1250120968039 24.4306547461107 19.699999999996
vertex 15.9052375967186 23.9000593063624 19.699999999996
endloop
endfacet
facet normal 0.965928044262501 -0.258810767371103 -2.81764083840323e-015
outer loop
vertex 16.1250120968039 24.4306547461107 19.699999999996
vertex 15.9052375967186 23.9000593063626 0.0
vertex 16.1250120968038 24.4306547461109 0.0
endloop
endfacet
facet normal 0.99999999996328 8.5697283037449e-006 1.19639161511232e-019
outer loop
vertex 16.1999697573446 25.000052410925 0.0
vertex 16.1250023376482 25.5694487909216 19.6999999999959
vertex 16.1999697573446 25.0000524109247 19.699999999996
endloop
endfacet
facet normal 0.965923608244683 0.258827322814984 2.81787196063885e-015
outer loop
vertex 16.1250023376482 25.5694487909216 19.6999999999959
vertex 16.1999697573446 25.000052410925 0.0
vertex 16.1250023376483 25.5694487909218 0.0
endloop
endfacet
facet normal 0.965928044262502 -0.258810767371102 -2.81764083840321e-015
outer loop
vertex 16.1250120968038 24.4306547461109 0.0
vertex 16.1999697573446 25.0000524109247 19.699999999996
vertex 16.1250120968039 24.4306547461107 19.699999999996
endloop
endfacet
facet normal 0.99999999996328 8.56972829516394e-006 1.19639161417782e-019
outer loop
vertex 16.1999697573446 25.0000524109247 19.699999999996
vertex 16.1250120968038 24.4306547461109 0.0
vertex 16.1999697573446 25.000052410925 0.0
endloop
endfacet
facet normal 0.258827322814889 -0.965923608244709 -1.05159790837431e-014
outer loop
vertex 14.569403833168 22.8750198199662 0.0
vertex 14.0000074531712 22.8000524002698 19.6999999999958
vertex 14.0000074531712 22.80005240027 -1.80477854883065e-013
endloop
endfacet
facet normal 8.56972832786577e-006 -0.99999999996328 -1.08869747150868e-014
outer loop
vertex 14.0000074531712 22.8000524002698 19.6999999999958
vertex 14.569403833168 22.8750198199662 0.0
vertex 14.5694038331681 22.875019819966 19.6999999999959
endloop
endfacet
facet normal 0.707112840873589 -0.707100721447576 -7.69816905184135e-015
outer loop
vertex 15.555623526075 23.4444252940484 0.0
vertex 15.9052375967186 23.9000593063624 19.699999999996
vertex 15.5556235260751 23.4444252940482 19.6999999999959
endloop
endfacet
facet normal 0.866029688616805 -0.4999925783792 -5.44338374897426e-015
outer loop
vertex 15.9052375967186 23.9000593063624 19.699999999996
vertex 15.555623526075 23.4444252940484 0.0
vertex 15.9052375967186 23.9000593063626 0.0
endloop
endfacet
facet normal 0.965923608244681 0.258827322814992 2.81787196063894e-015
outer loop
vertex 16.1250023376483 25.5694487909218 0.0
vertex 15.9052187434777 26.1000404637765 19.6999999999959
vertex 16.1250023376482 25.5694487909216 19.6999999999959
endloop
endfacet
facet normal 0.86602111888849 0.500007421584049 5.44359096486123e-015
outer loop
vertex 15.9052187434777 26.1000404637765 19.6999999999959
vertex 16.1250023376483 25.5694487909218 0.0
vertex 15.9052187434776 26.1000404637767 0.0
endloop
endfacet
facet normal 0.866021118888482 0.500007421584062 5.44359096486137e-015
outer loop
vertex 15.9052187434776 26.1000404637767 0.0
vertex 15.5555968635661 26.5556684838285 19.6999999999959
vertex 15.9052187434777 26.1000404637765 19.6999999999959
endloop
endfacet
facet normal 0.707100721447605 0.70711284087356 7.69833824095959e-015
outer loop
vertex 15.5555968635661 26.5556684838285 19.6999999999959
vertex 15.9052187434776 26.1000404637767 0.0
vertex 15.5555968635661 26.5556684838288 -1.80477854883065e-013
endloop
endfacet
facet normal 0.499992578379185 0.866029688616813 9.42845649095136e-015
outer loop
vertex 15.0999628512519 26.9052825544723 0.0
vertex 15.5555968635661 26.5556684838285 19.6999999999959
vertex 15.5555968635661 26.5556684838288 -1.80477854883065e-013
endloop
endfacet
facet normal 0.707100721447605 0.70711284087356 7.69833824095959e-015
outer loop
vertex 15.5555968635661 26.5556684838285 19.6999999999959
vertex 15.0999628512519 26.9052825544723 0.0
vertex 15.0999628512519 26.9052825544721 19.699999999996
endloop
endfacet
facet normal 0.258810767371053 0.965928044262515 1.05160410143576e-014
outer loop
vertex 14.5693674115035 27.1250570545573 19.6999999999959
vertex 15.0999628512519 26.9052825544723 0.0
vertex 14.5693674115036 27.1250570545576 0.0
endloop
endfacet
facet normal 0.499992578379185 0.866029688616813 9.42845649095136e-015
outer loop
vertex 15.0999628512519 26.9052825544723 0.0
vertex 14.5693674115035 27.1250570545573 19.6999999999959
vertex 15.0999628512519 26.9052825544721 19.699999999996
endloop
endfacet
facet normal -8.56972828894378e-006 0.99999999996328 1.08869747167555e-014
outer loop
vertex 13.9999697466895 27.200014715098 19.6999999999959
vertex 14.5693674115036 27.1250570545576 0.0
vertex 13.9999697466895 27.2000147150983 -9.02389274415327e-014
endloop
endfacet
facet normal 0.258810767371041 0.965928044262518 1.05160410143576e-014
outer loop
vertex 14.5693674115036 27.1250570545576 0.0
vertex 13.9999697466895 27.200014715098 19.6999999999959
vertex 14.5693674115035 27.1250570545573 19.6999999999959
endloop
endfacet
facet normal -0.258827322814922 0.9659236082447 1.05159790837431e-014
outer loop
vertex 13.4305733666926 27.1250472954018 19.6999999999958
vertex 13.9999697466895 27.2000147150983 -9.02389274415327e-014
vertex 13.4305733666926 27.125047295402 -1.80477854883065e-013
endloop
endfacet
facet normal -8.56972830870821e-006 0.99999999996328 1.08869747167555e-014
outer loop
vertex 13.9999697466895 27.2000147150983 -9.02389274415327e-014
vertex 13.4305733666926 27.1250472954018 19.6999999999958
vertex 13.9999697466895 27.200014715098 19.6999999999959
endloop
endfacet
facet normal -0.500007421584112 0.866021118888453 9.42833685637867e-015
outer loop
vertex 12.8999816938378 26.9052637012315 0.0
vertex 13.4305733666926 27.1250472954018 19.6999999999958
vertex 13.4305733666926 27.125047295402 -1.80477854883065e-013
endloop
endfacet
facet normal -0.258827322814922 0.9659236082447 1.05159790837431e-014
outer loop
vertex 13.4305733666926 27.1250472954018 19.6999999999958
vertex 12.8999816938378 26.9052637012315 0.0
vertex 12.8999816938379 26.9052637012312 19.6999999999959
endloop
endfacet
facet normal -0.707112840873602 0.707100721447564 7.69816905121569e-015
outer loop
vertex 12.4443536737858 26.5556418213196 19.699999999996
vertex 12.8999816938378 26.9052637012315 0.0
vertex 12.4443536737857 26.5556418213198 0.0
endloop
endfacet
facet normal -0.500007421584112 0.866021118888453 9.42833685637867e-015
outer loop
vertex 12.8999816938378 26.9052637012315 0.0
vertex 12.4443536737858 26.5556418213196 19.699999999996
vertex 12.8999816938379 26.9052637012312 19.6999999999959
endloop
endfacet
facet normal -0.707112840873602 0.707100721447564 7.69816905121569e-015
outer loop
vertex 12.4443536737858 26.5556418213196 19.699999999996
vertex 12.0947396031422 26.1000078090057 0.0
vertex 12.0947396031423 26.1000078090055 19.6999999999959
endloop
endfacet
facet normal -0.866029688616793 0.499992578379221 5.44338374793134e-015
outer loop
vertex 12.0947396031422 26.1000078090057 0.0
vertex 12.4443536737858 26.5556418213196 19.699999999996
vertex 12.4443536737857 26.5556418213198 0.0
endloop
endfacet
facet normal 0.999999999717213 -2.37818035547709e-005 6.91860495806778e-015
outer loop
vertex 8.99998859993044 25.0000335576842 6.87999916076555
vertex 9.17042145448401 26.2941239763187 19.6999999999971
vertex 8.99998859993044 25.0000335576839 19.6999999999959
endloop
endfacet
facet normal 0.991438651955806 -0.130573348766333 3.68954084248266e-015
outer loop
vertex 9.17042145448401 26.2941239763187 19.6999999999971
vertex 8.99998859993044 25.0000335576842 6.87999916076555
vertex 9.17042145448401 26.294123976319 6.87999916076681
endloop
endfacet
facet normal 0.866036724658244 -0.499980391158714 -5.60226309669405e-015
outer loop
vertex 9.66986158100817 27.5000335576841 0.0
vertex 9.17042145448401 26.294123976319 6.87999916076681
vertex 9.17042145448392 26.2941239763189 1.26334498418146e-012
endloop
endfacet
facet normal 0.923896861147237 -0.382641594657826 -4.48108741546018e-015
outer loop
vertex 9.17042145448401 26.294123976319 6.87999916076681
vertex 9.66986158100817 27.5000335576841 0.0
vertex 9.66986158100826 27.5000335576839 19.6999999999959
endloop
endfacet
facet normal 0.866036724658289 -0.499980391158637 -5.60226309669332e-015
outer loop
vertex 9.66986158100826 27.5000335576839 19.6999999999959
vertex 9.17042145448401 26.2941239763187 19.6999999999971
vertex 9.17042145448401 26.294123976319 6.87999916076681
endloop
endfacet
facet normal 0.866036724658244 -0.499980391158714 -5.60226309669405e-015
outer loop
vertex 9.66986158100817 27.5000335576841 0.0
vertex 10.4644546939977 28.5355674636166 19.6999999999958
vertex 9.66986158100826 27.5000335576839 19.6999999999959
endloop
endfacet
facet normal 0.707106781186535 -0.707106781186561 -7.69823502243405e-015
outer loop
vertex 10.4644546939977 28.5355674636166 19.6999999999958
vertex 9.66986158100817 27.5000335576841 0.0
vertex 10.4644546939977 28.5355674636168 -9.02389274415327e-014
endloop
endfacet
facet normal 0.5 -0.866025403784439 -9.42838350645326e-015
outer loop
vertex 11.4999885999305 29.3301605766061 19.699999999996
vertex 10.4644546939977 28.5355674636168 -9.02389274415327e-014
vertex 11.4999885999304 29.3301605766063 -1.80477854883065e-013
endloop
endfacet
facet normal 0.707106781186531 -0.707106781186564 -7.69823502243408e-015
outer loop
vertex 10.4644546939977 28.5355674636168 -9.02389274415327e-014
vertex 11.4999885999305 29.3301605766061 19.699999999996
vertex 10.4644546939977 28.5355674636166 19.6999999999958
endloop
endfacet
facet normal 0.25881904510252 -0.965925826289068 -1.05160032305838e-014
outer loop
vertex 12.7058933744178 29.8296626891295 0.0
vertex 11.4999885999305 29.3301605766061 19.699999999996
vertex 11.4999885999304 29.3301605766063 -1.80477854883065e-013
endloop
endfacet
facet normal 0.5 -0.866025403784439 -9.42838350645326e-015
outer loop
vertex 11.4999885999305 29.3301605766061 19.699999999996
vertex 12.7058933744178 29.8296626891295 0.0
vertex 12.7058933744179 29.8296626891292 19.699999999996
endloop
endfacet
facet normal 2.51293299057248e-015 -1.0 -1.08869747142526e-014
outer loop
vertex 13.9999885999305 30.0000335576839 19.699999999996
vertex 12.7058933744178 29.8296626891295 0.0
vertex 13.9999885999304 30.0000335576841 -1.80477854883065e-013
endloop
endfacet
facet normal 0.25881904510252 -0.965925826289068 -1.05160032305838e-014
outer loop
vertex 12.7058933744178 29.8296626891295 0.0
vertex 13.9999885999305 30.0000335576839 19.699999999996
vertex 12.7058933744179 29.8296626891292 19.699999999996
endloop
endfacet
facet normal -0.258819045102514 -0.96592582628907 -1.05160168650139e-014
outer loop
vertex 15.294083825443 29.8296626891294 0.0
vertex 13.9999885999305 30.0000335576839 19.699999999996
vertex 13.9999885999304 30.0000335576841 -1.80477854883065e-013
endloop
endfacet
facet normal 2.51293299057248e-015 -1.0 -1.08869747142526e-014
outer loop
vertex 13.9999885999305 30.0000335576839 19.699999999996
vertex 15.294083825443 29.8296626891294 0.0
vertex 15.2940838254431 29.8296626891292 19.6999999999959
endloop
endfacet
facet normal -0.5 -0.866025403784439 -9.42840984337967e-015
outer loop
vertex 16.4999885999304 29.3301605766061 19.6999999999959
vertex 15.294083825443 29.8296626891294 0.0
vertex 16.4999885999304 29.3301605766063 0.0
endloop
endfacet
facet normal -0.258819045102514 -0.96592582628907 -1.05160168650139e-014
outer loop
vertex 15.294083825443 29.8296626891294 0.0
vertex 16.4999885999304 29.3301605766061 19.6999999999959
vertex 15.2940838254431 29.8296626891292 19.6999999999959
endloop
endfacet
facet normal -0.707106781186537 -0.707106781186558 -7.69827227391275e-015
outer loop
vertex 17.5355225058631 28.5355674636166 19.6999999999959
vertex 16.4999885999304 29.3301605766063 0.0
vertex 17.5355225058631 28.5355674636169 0.0
endloop
endfacet
facet normal -0.499999999999998 -0.86602540378444 -9.42840984337968e-015
outer loop
vertex 16.4999885999304 29.3301605766063 0.0
vertex 17.5355225058631 28.5355674636166 19.6999999999959
vertex 16.4999885999304 29.3301605766061 19.6999999999959
endloop
endfacet
facet normal -0.707106781186537 -0.707106781186558 -7.69827227391275e-015
outer loop
vertex 17.5355225058631 28.5355674636166 19.6999999999959
vertex 18.3301156188526 27.5000335576841 -1.80477854883065e-013
vertex 18.3301156188526 27.5000335576839 19.699999999996
endloop
endfacet
facet normal -0.866037294441297 -0.499979404212612 -6.02451413140551e-015
outer loop
vertex 18.3301156188526 27.5000335576841 -1.80477854883065e-013
vertex 17.5355225058631 28.5355674636166 19.6999999999959
vertex 17.5355225058631 28.5355674636169 0.0
endloop
endfacet
facet normal -0.86602968861679 0.499992578379226 5.44338374793138e-015
outer loop
vertex 12.0947396031423 26.1000078090055 19.6999999999959
vertex 11.8749651030569 25.5694123692574 0.0
vertex 11.8749651030569 25.5694123692571 19.6999999999959
endloop
endfacet
facet normal -0.965928044262504 0.258810767371093 2.81764083798613e-015
outer loop
vertex 11.8749651030569 25.5694123692574 0.0
vertex 12.0947396031423 26.1000078090055 19.6999999999959
vertex 12.0947396031422 26.1000078090057 0.0
endloop
endfacet
facet normal -0.965928044262504 0.258810767371091 2.81764083798611e-015
outer loop
vertex 11.8749651030569 25.5694123692571 19.6999999999959
vertex 11.8000074425162 25.0000147044433 0.0
vertex 11.8000074425162 25.000014704443 19.6999999999959
endloop
endfacet
facet normal -0.99999999996328 -8.56972830050108e-006 -1.19639578648779e-019
outer loop
vertex 11.8000074425162 25.0000147044433 0.0
vertex 11.8749651030569 25.5694123692571 19.6999999999959
vertex 11.8749651030569 25.5694123692574 0.0
endloop
endfacet
facet normal -0.99999999996328 -8.56972830905532e-006 -1.19639578741976e-019
outer loop
vertex 11.8000074425162 25.000014704443 19.6999999999959
vertex 11.8749748622125 24.4306183244464 0.0
vertex 11.8749748622126 24.4306183244462 19.699999999996
endloop
endfacet
facet normal -0.965923608244698 -0.258827322814927 -2.81787196063896e-015
outer loop
vertex 11.8749748622125 24.4306183244464 0.0
vertex 11.8000074425162 25.000014704443 19.6999999999959
vertex 11.8000074425162 25.0000147044433 0.0
endloop
endfacet
facet normal 2.63349491618507e-020 1.08869747129692e-014 -1.0
outer loop
vertex 9.17042145448401 26.2941239763187 19.6999999999971
vertex 9.1703594684851 23.7059383321713 19.6999999999959
vertex 8.99998859993044 25.0000335576839 19.6999999999959
endloop
endfacet
facet normal 2.63349491618507e-020 1.08869747129692e-014 -1.0
outer loop
vertex 9.1703594684851 23.7059383321713 19.6999999999959
vertex 9.17042145448401 26.2941239763187 19.6999999999971
vertex 9.66986158100817 22.5000335576839 19.6999999999959
endloop
endfacet
facet normal 2.63349491618507e-020 1.08869747129692e-014 -1.0
outer loop
vertex 9.66986158100817 22.5000335576839 19.6999999999959
vertex 9.17042145448401 26.2941239763187 19.6999999999971
vertex 9.66986158100826 27.5000335576839 19.6999999999959
endloop
endfacet
facet normal 2.63349491618507e-020 1.08869747129692e-014 -1.0
outer loop
vertex 9.66986158100817 22.5000335576839 19.6999999999959
vertex 9.66986158100826 27.5000335576839 19.6999999999959
vertex 10.4644546939977 21.4644996517512 19.699999999996
endloop
endfacet
facet normal 2.63349491618507e-020 1.08869747129692e-014 -1.0
outer loop
vertex 10.4644546939977 21.4644996517512 19.699999999996
vertex 9.66986158100826 27.5000335576839 19.6999999999959
vertex 10.4644546939977 28.5355674636166 19.6999999999958
endloop
endfacet
facet normal 2.63349491618507e-020 1.08869747129692e-014 -1.0
outer loop
vertex 10.4644546939977 21.4644996517512 19.699999999996
vertex 10.4644546939977 28.5355674636166 19.6999999999958
vertex 11.4999885999305 20.6699065387617 19.699999999996
endloop
endfacet
facet normal 2.63349491618507e-020 1.08869747129692e-014 -1.0
outer loop
vertex 11.4999885999305 20.6699065387617 19.699999999996
vertex 10.4644546939977 28.5355674636166 19.6999999999958
vertex 11.4999885999305 29.3301605766061 19.699999999996
endloop
endfacet
facet normal 2.63349491618507e-020 1.08869747129692e-014 -1.0
outer loop
vertex 11.4999885999305 20.6699065387617 19.699999999996
vertex 11.4999885999305 29.3301605766061 19.699999999996
vertex 11.8000074425162 25.000014704443 19.6999999999959
endloop
endfacet
facet normal 2.63349491618507e-020 1.08869747129692e-014 -1.0
outer loop
vertex 11.8000074425162 25.000014704443 19.6999999999959
vertex 11.4999885999305 29.3301605766061 19.699999999996
vertex 11.8749651030569 25.5694123692571 19.6999999999959
endloop
endfacet
facet normal 2.63349491618507e-020 1.08869747129692e-014 -1.0
outer loop
vertex 11.8749651030569 25.5694123692571 19.6999999999959
vertex 11.4999885999305 29.3301605766061 19.699999999996
vertex 12.7058933744179 29.8296626891292 19.699999999996
endloop
endfacet
facet normal 2.63349491618507e-020 1.08869747129692e-014 -1.0
outer loop
vertex 11.8749651030569 25.5694123692571 19.6999999999959
vertex 12.7058933744179 29.8296626891292 19.699999999996
vertex 12.0947396031423 26.1000078090055 19.6999999999959
endloop
endfacet
facet normal 2.63349491618507e-020 1.08869747129692e-014 -1.0
outer loop
vertex 12.0947396031423 26.1000078090055 19.6999999999959
vertex 12.7058933744179 29.8296626891292 19.699999999996
vertex 12.4443536737858 26.5556418213196 19.699999999996
endloop
endfacet
facet normal 2.63349491618507e-020 1.08869747129692e-014 -1.0
outer loop
vertex 12.4443536737858 26.5556418213196 19.699999999996
vertex 12.7058933744179 29.8296626891292 19.699999999996
vertex 12.8999816938379 26.9052637012312 19.6999999999959
endloop
endfacet
facet normal 2.63349491618507e-020 1.08869747129692e-014 -1.0
outer loop
vertex 12.8999816938379 26.9052637012312 19.6999999999959
vertex 12.7058933744179 29.8296626891292 19.699999999996
vertex 13.9999885999305 30.0000335576839 19.699999999996
endloop
endfacet
facet normal 2.63349491618507e-020 1.08869747129692e-014 -1.0
outer loop
vertex 12.8999816938379 26.9052637012312 19.6999999999959
vertex 13.9999885999305 30.0000335576839 19.699999999996
vertex 13.4305733666926 27.1250472954018 19.6999999999958
endloop
endfacet
facet normal 2.63349491618507e-020 1.08869747129692e-014 -1.0
outer loop
vertex 13.4305733666926 27.1250472954018 19.6999999999958
vertex 13.9999885999305 30.0000335576839 19.699999999996
vertex 13.9999697466895 27.200014715098 19.6999999999959
endloop
endfacet
facet normal 2.63349491618507e-020 1.08869747129692e-014 -1.0
outer loop
vertex 13.9999697466895 27.200014715098 19.6999999999959
vertex 13.9999885999305 30.0000335576839 19.699999999996
vertex 14.5693674115035 27.1250570545573 19.6999999999959
endloop
endfacet
facet normal 2.63349491618507e-020 1.08869747129692e-014 -1.0
outer loop
vertex 14.5693674115035 27.1250570545573 19.6999999999959
vertex 13.9999885999305 30.0000335576839 19.699999999996
vertex 15.2940838254431 29.8296626891292 19.6999999999959
endloop
endfacet
facet normal 2.63349491618507e-020 1.08869747129692e-014 -1.0
outer loop
vertex 14.5693674115035 27.1250570545573 19.6999999999959
vertex 15.2940838254431 29.8296626891292 19.6999999999959
vertex 15.0999628512519 26.9052825544721 19.699999999996
endloop
endfacet
facet normal 2.63349491618507e-020 1.08869747129692e-014 -1.0
outer loop
vertex 15.0999628512519 26.9052825544721 19.699999999996
vertex 15.2940838254431 29.8296626891292 19.6999999999959
vertex 15.5555968635661 26.5556684838285 19.6999999999959
endloop
endfacet
facet normal 2.63349491618507e-020 1.08869747129692e-014 -1.0
outer loop
vertex 15.5555968635661 26.5556684838285 19.6999999999959
vertex 15.2940838254431 29.8296626891292 19.6999999999959
vertex 16.4999885999304 29.3301605766061 19.6999999999959
endloop
endfacet
facet normal 2.63349491618507e-020 1.08869747129692e-014 -1.0
outer loop
vertex 15.5555968635661 26.5556684838285 19.6999999999959
vertex 16.4999885999304 29.3301605766061 19.6999999999959
vertex 15.9052187434777 26.1000404637765 19.6999999999959
endloop
endfacet
facet normal 2.63349491618507e-020 1.08869747129692e-014 -1.0
outer loop
vertex 15.9052187434777 26.1000404637765 19.6999999999959
vertex 16.4999885999304 29.3301605766061 19.6999999999959
vertex 16.1250023376482 25.5694487909216 19.6999999999959
endloop
endfacet
facet normal 2.63349491618507e-020 1.08869747129692e-014 -1.0
outer loop
vertex 16.1250023376482 25.5694487909216 19.6999999999959
vertex 16.4999885999304 29.3301605766061 19.6999999999959
vertex 16.1999697573446 25.0000524109247 19.699999999996
endloop
endfacet
facet normal 2.63349491618507e-020 1.08869747129692e-014 -1.0
outer loop
vertex 11.4999885999305 20.6699065387617 19.699999999996
vertex 11.8749748622126 24.4306183244462 19.699999999996
vertex 12.7058933744179 20.1704044262386 19.699999999996
endloop
endfacet
facet normal 2.63349491618507e-020 1.08869747129692e-014 -1.0
outer loop
vertex 11.8749748622126 24.4306183244462 19.699999999996
vertex 11.4999885999305 20.6699065387617 19.699999999996
vertex 11.8000074425162 25.000014704443 19.6999999999959
endloop
endfacet
facet normal 2.63349491618507e-020 1.08869747129692e-014 -1.0
outer loop
vertex 12.7058933744179 20.1704044262386 19.699999999996
vertex 11.8749748622126 24.4306183244462 19.699999999996
vertex 12.094758456383 23.9000266515913 19.699999999996
endloop
endfacet
facet normal 2.63349491618507e-020 1.08869747129692e-014 -1.0
outer loop
vertex 12.7058933744179 20.1704044262386 19.699999999996
vertex 12.094758456383 23.9000266515913 19.699999999996
vertex 12.4443803362948 23.4443986315393 19.6999999999959
endloop
endfacet
facet normal 2.63349491618507e-020 1.08869747129692e-014 -1.0
outer loop
vertex 12.7058933744179 20.1704044262386 19.699999999996
vertex 12.4443803362948 23.4443986315393 19.6999999999959
vertex 12.9000143486088 23.0947845608957 19.6999999999959
endloop
endfacet
facet normal 2.63349491618507e-020 1.08869747129692e-014 -1.0
outer loop
vertex 12.7058933744179 20.1704044262386 19.699999999996
vertex 12.9000143486088 23.0947845608957 19.6999999999959
vertex 13.9999885999305 20.0000335576839 19.6999999999959
endloop
endfacet
facet normal 2.63349491618507e-020 1.08869747129692e-014 -1.0
outer loop
vertex 13.9999885999305 20.0000335576839 19.6999999999959
vertex 12.9000143486088 23.0947845608957 19.6999999999959
vertex 13.4306097883572 22.8750100608104 19.699999999996
endloop
endfacet
facet normal 2.63349491618507e-020 1.08869747129692e-014 -1.0
outer loop
vertex 13.9999885999305 20.0000335576839 19.6999999999959
vertex 13.4306097883572 22.8750100608104 19.699999999996
vertex 14.0000074531712 22.8000524002698 19.6999999999958
endloop
endfacet
facet normal 2.63349491618507e-020 1.08869747129692e-014 -1.0
outer loop
vertex 13.9999885999305 20.0000335576839 19.6999999999959
vertex 14.0000074531712 22.8000524002698 19.6999999999958
vertex 15.2940838254431 20.1704044262386 19.6999999999959
endloop
endfacet
facet normal 2.63349491618507e-020 1.08869747129692e-014 -1.0
outer loop
vertex 15.2940838254431 20.1704044262386 19.6999999999959
vertex 14.0000074531712 22.8000524002698 19.6999999999958
vertex 14.5694038331681 22.875019819966 19.6999999999959
endloop
endfacet
facet normal 2.63349491618507e-020 1.08869747129692e-014 -1.0
outer loop
vertex 15.2940838254431 20.1704044262386 19.6999999999959
vertex 14.5694038331681 22.875019819966 19.6999999999959
vertex 15.099995506023 23.0948034141366 19.699999999996
endloop
endfacet
facet normal 2.63349491618507e-020 1.08869747129692e-014 -1.0
outer loop
vertex 15.2940838254431 20.1704044262386 19.6999999999959
vertex 15.099995506023 23.0948034141366 19.699999999996
vertex 15.5556235260751 23.4444252940482 19.6999999999959
endloop
endfacet
facet normal 2.63349491618507e-020 1.08869747129692e-014 -1.0
outer loop
vertex 15.2940838254431 20.1704044262386 19.6999999999959
vertex 15.5556235260751 23.4444252940482 19.6999999999959
vertex 16.4999885999304 20.6699065387617 19.6999999999959
endloop
endfacet
facet normal 2.63349491618507e-020 1.08869747129692e-014 -1.0
outer loop
vertex 16.4999885999304 20.6699065387617 19.6999999999959
vertex 15.5556235260751 23.4444252940482 19.6999999999959
vertex 15.9052375967186 23.9000593063624 19.699999999996
endloop
endfacet
facet normal 2.63349491618507e-020 1.08869747129692e-014 -1.0
outer loop
vertex 16.4999885999304 20.6699065387617 19.6999999999959
vertex 15.9052375967186 23.9000593063624 19.699999999996
vertex 16.1250120968039 24.4306547461107 19.699999999996
endloop
endfacet
facet normal 2.63349491618507e-020 1.08869747129692e-014 -1.0
outer loop
vertex 16.4999885999304 20.6699065387617 19.6999999999959
vertex 16.1250120968039 24.4306547461107 19.699999999996
vertex 16.1999697573446 25.0000524109247 19.699999999996
endloop
endfacet
facet normal 2.63349491618507e-020 1.08869747129692e-014 -1.0
outer loop
vertex 16.4999885999304 20.6699065387617 19.6999999999959
vertex 16.1999697573446 25.0000524109247 19.699999999996
vertex 16.4999885999304 29.3301605766061 19.6999999999959
endloop
endfacet
facet normal 2.63349491618507e-020 1.08869747129692e-014 -1.0
outer loop
vertex 16.4999885999304 20.6699065387617 19.6999999999959
vertex 16.4999885999304 29.3301605766061 19.6999999999959
vertex 17.5355225058631 28.5355674636166 19.6999999999959
endloop
endfacet
facet normal 2.63349491618507e-020 1.08869747129692e-014 -1.0
outer loop
vertex 16.4999885999304 20.6699065387617 19.6999999999959
vertex 17.5355225058631 28.5355674636166 19.6999999999959
vertex 17.5355225058631 21.4644996517512 19.6999999999959
endloop
endfacet
facet normal 2.63349491618507e-020 1.08869747129692e-014 -1.0
outer loop
vertex 17.5355225058631 21.4644996517512 19.6999999999959
vertex 17.5355225058631 28.5355674636166 19.6999999999959
vertex 18.3301156188526 27.5000335576839 19.699999999996
endloop
endfacet
facet normal 2.63349491618507e-020 1.08869747129692e-014 -1.0
outer loop
vertex 17.5355225058631 21.4644996517512 19.6999999999959
vertex 18.3301156188526 27.5000335576839 19.699999999996
vertex 18.3301156188526 22.5000335576839 19.699999999996
endloop
endfacet
facet normal 2.63349491618507e-020 1.08869747129692e-014 -1.0
outer loop
vertex 18.3301156188526 22.5000335576839 19.699999999996
vertex 18.3301156188526 27.5000335576839 19.699999999996
vertex 18.8295616464871 26.2941019530754 19.6999999999971
endloop
endfacet
facet normal 2.63349491618507e-020 1.08869747129692e-014 -1.0
outer loop
vertex 18.3301156188526 22.5000335576839 19.699999999996
vertex 18.8295616464871 26.2941019530754 19.6999999999971
vertex 18.8296177313758 23.7059383321713 19.6999999999959
endloop
endfacet
facet normal 2.63349491618507e-020 1.08869747129692e-014 -1.0
outer loop
vertex 18.8296177313758 23.7059383321713 19.6999999999959
vertex 18.8295616464871 26.2941019530754 19.6999999999971
vertex 18.9999885999305 25.0000335576839 19.699999999996
endloop
endfacet
facet normal -0.866037294441338 -0.49997940421254 -6.02451413140509e-015
outer loop
vertex 18.3301156188526 27.5000335576839 19.699999999996
vertex 18.8295616464872 26.2941019530757 6.87999916076681
vertex 18.8295616464871 26.2941019530754 19.6999999999971
endloop
endfacet
facet normal -0.923897733270677 -0.38263948888909 -5.31831856651844e-015
outer loop
vertex 18.8295616464872 26.2941019530757 6.87999916076681
vertex 18.3301156188526 27.5000335576841 -1.80477854883065e-013
vertex 18.8295616464872 26.2941019530756 1.26334498418146e-012
endloop
endfacet
facet normal -0.866037294441297 -0.499979404212612 -6.02451413140551e-015
outer loop
vertex 18.3301156188526 27.5000335576841 -1.80477854883065e-013
vertex 18.8295616464872 26.2941019530757 6.87999916076681
vertex 18.3301156188526 27.5000335576839 19.699999999996
endloop
endfacet
facet normal -0.99143894955912 -0.130571089055387 -1.02670527939891e-014
outer loop
vertex 18.8295616464871 26.2941019530754 19.6999999999971
vertex 18.9999885999305 25.0000335576842 6.87999916076545
vertex 18.9999885999305 25.0000335576839 19.699999999996
endloop
endfacet
facet normal -0.999999999743666 -2.26421916374365e-005 -7.15872426443704e-015
outer loop
vertex 18.9999885999305 25.0000335576842 6.87999916076545
vertex 18.8295616464871 26.2941019530754 19.6999999999971
vertex 18.8295616464872 26.2941019530757 6.87999916076681
endloop
endfacet
facet normal -0.999999999743666 -2.26421917144058e-005 -7.15872426443891e-015
outer loop
vertex 18.9999885999305 25.0000335576839 19.699999999996
vertex 18.8296177313758 23.7059383321716 6.87999916076555
vertex 18.8296177313758 23.7059383321713 19.6999999999959
endloop
endfacet
facet normal -0.965925826289068 0.258819045102523 -1.0991667631196e-015
outer loop
vertex 18.8296177313758 23.7059383321716 6.87999916076555
vertex 18.9999885999305 25.0000335576839 19.699999999996
vertex 18.9999885999305 25.0000335576842 6.87999916076545
endloop
endfacet
facet normal -0.965925826289066 0.258819045102529 -1.09916676311946e-015
outer loop
vertex 18.8296177313758 23.7059383321713 19.6999999999959
vertex 18.3301156188527 22.5000335576842 6.87999916076555
vertex 18.3301156188526 22.5000335576839 19.699999999996
endloop
endfacet
facet normal -0.866025403784428 0.500000000000018 4.68475089021259e-015
outer loop
vertex 18.3301156188527 22.5000335576842 6.87999916076555
vertex 18.8296177313758 23.7059383321713 19.6999999999959
vertex 18.8296177313758 23.7059383321716 6.87999916076555
endloop
endfacet
facet normal -0.866025403784427 0.500000000000021 4.68475089021267e-015
outer loop
vertex 18.3301156188526 22.5000335576839 19.699999999996
vertex 17.5355225058632 21.4644996517515 6.87999916076555
vertex 17.5355225058631 21.4644996517512 19.6999999999959
endloop
endfacet
facet normal -0.707106781186537 0.707106781186558 1.02658232897388e-014
outer loop
vertex 17.5355225058632 21.4644996517515 6.87999916076555
vertex 18.3301156188526 22.5000335576839 19.699999999996
vertex 18.3301156188527 22.5000335576842 6.87999916076555
endloop
endfacet
facet normal -0.500000000000001 0.866025403784438 1.51472967991844e-014
outer loop
vertex 16.4999885999304 20.6699065387617 19.6999999999959
vertex 17.5355225058632 21.4644996517515 6.87999916076555
vertex 16.4999885999304 20.669906538762 6.87999916076555
endloop
endfacet
facet normal -0.707106781186537 0.707106781186558 1.02658232897388e-014
outer loop
vertex 17.5355225058632 21.4644996517515 6.87999916076555
vertex 16.4999885999304 20.6699065387617 19.6999999999959
vertex 17.5355225058631 21.4644996517512 19.6999999999959
endloop
endfacet
facet normal -0.258819045102522 0.965925826289068 1.89993402192844e-014
outer loop
vertex 15.2940838254431 20.1704044262386 19.6999999999959
vertex 16.4999885999304 20.669906538762 6.87999916076555
vertex 15.2940838254431 20.1704044262389 6.87999916076555
endloop
endfacet
facet normal -0.500000000000002 0.866025403784437 1.51472967991844e-014
outer loop
vertex 16.4999885999304 20.669906538762 6.87999916076555
vertex 15.2940838254431 20.1704044262386 19.6999999999959
vertex 16.4999885999304 20.6699065387617 19.6999999999959
endloop
endfacet
facet normal 2.88719960618954e-015 1.0 2.15566390047601e-014
outer loop
vertex 13.9999885999305 20.0000335576839 19.6999999999959
vertex 15.2940838254431 20.1704044262389 6.87999916076555
vertex 13.9999885999305 20.0000335576842 6.87999916076555
endloop
endfacet
facet normal -0.258819045102523 0.965925826289068 1.89993402192844e-014
outer loop
vertex 15.2940838254431 20.1704044262389 6.87999916076555
vertex 13.9999885999305 20.0000335576839 19.6999999999959
vertex 15.2940838254431 20.1704044262386 19.6999999999959
endloop
endfacet
facet normal 0.25881904510252 0.965925826289069 2.26440952750854e-014
outer loop
vertex 12.7058933744179 20.1704044262388 6.87999916076564
vertex 13.9999885999305 20.0000335576839 19.6999999999959
vertex 13.9999885999305 20.0000335576842 6.87999916076555
endloop
endfacet
facet normal 2.88719960618954e-015 1.0 2.15566390047601e-014
outer loop
vertex 13.9999885999305 20.0000335576839 19.6999999999959
vertex 12.7058933744179 20.1704044262388 6.87999916076564
vertex 12.7058933744179 20.1704044262386 19.699999999996
endloop
endfacet
facet normal 0.500000000000001 0.866025403784438 2.21860153186652e-014
outer loop
vertex 11.4999885999305 20.6699065387617 19.699999999996
vertex 12.7058933744179 20.1704044262388 6.87999916076564
vertex 11.4999885999305 20.669906538762 6.87999916076564
endloop
endfacet
facet normal 0.25881904510252 0.965925826289069 2.26440952750854e-014
outer loop
vertex 12.7058933744179 20.1704044262388 6.87999916076564
vertex 11.4999885999305 20.6699065387617 19.699999999996
vertex 12.7058933744179 20.1704044262386 19.699999999996
endloop
endfacet
facet normal 0.707106781186534 0.707106781186561 2.02183472079451e-014
outer loop
vertex 10.4644546939977 21.4644996517512 19.699999999996
vertex 11.4999885999305 20.669906538762 6.87999916076564
vertex 10.4644546939978 21.4644996517515 6.87999916076564
endloop
endfacet
facet normal 0.500000000000003 0.866025403784437 2.21860153186652e-014
outer loop
vertex 11.4999885999305 20.669906538762 6.87999916076564
vertex 10.4644546939977 21.4644996517512 19.699999999996
vertex 11.4999885999305 20.6699065387617 19.699999999996
endloop
endfacet
facet normal 0.707106781186539 0.707106781186556 2.0218347207945e-014
outer loop
vertex 10.4644546939978 21.4644996517515 6.87999916076564
vertex 9.66986158100817 22.5000335576839 19.6999999999959
vertex 10.4644546939977 21.4644996517512 19.699999999996
endloop
endfacet
facet normal 0.866025403784426 0.500000000000022 1.68744417122169e-014
outer loop
vertex 9.66986158100817 22.5000335576839 19.6999999999959
vertex 10.4644546939978 21.4644996517515 6.87999916076564
vertex 9.66986158100826 22.5000335576842 6.87999916076555
endloop
endfacet
facet normal 0.86602540378443 0.500000000000015 1.68744417122167e-014
outer loop
vertex 9.66986158100826 22.5000335576842 6.87999916076555
vertex 9.1703594684851 23.7059383321713 19.6999999999959
vertex 9.66986158100817 22.5000335576839 19.6999999999959
endloop
endfacet
facet normal 0.965925826289066 0.258819045102529 1.24977193887925e-014
outer loop
vertex 9.1703594684851 23.7059383321713 19.6999999999959
vertex 9.66986158100826 22.5000335576842 6.87999916076555
vertex 9.1703594684851 23.7059383321716 6.87999916076555
endloop
endfacet
facet normal -0.965923608244696 -0.258827322814935 -2.81787196063905e-015
outer loop
vertex 11.8749748622126 24.4306183244462 19.699999999996
vertex 12.0947584563831 23.9000266515915 0.0
vertex 12.094758456383 23.9000266515913 19.699999999996
endloop
endfacet
facet normal -0.866021118888459 -0.500007421584101 -5.44359096319267e-015
outer loop
vertex 12.0947584563831 23.9000266515915 0.0
vertex 11.8749748622126 24.4306183244462 19.699999999996
vertex 11.8749748622125 24.4306183244464 0.0
endloop
endfacet
facet normal -0.866021118888466 -0.500007421584091 -5.44359096319256e-015
outer loop
vertex 12.094758456383 23.9000266515913 19.699999999996
vertex 12.4443803362947 23.4443986315394 -9.02389274415327e-014
vertex 12.4443803362948 23.4443986315393 19.6999999999959
endloop
endfacet
facet normal -0.707100721447566 -0.707112840873599 -7.69833824262816e-015
outer loop
vertex 12.4443803362947 23.4443986315394 -9.02389274415327e-014
vertex 12.094758456383 23.9000266515913 19.699999999996
vertex 12.0947584563831 23.9000266515915 0.0
endloop
endfacet
facet normal -0.499992578379218 -0.866029688616795 -9.42845649428855e-015
outer loop
vertex 12.9000143486088 23.0947845608959 0.0
vertex 12.4443803362948 23.4443986315393 19.6999999999959
vertex 12.4443803362947 23.4443986315394 -9.02389274415327e-014
endloop
endfacet
facet normal -0.707100721447569 -0.707112840873596 -7.69833824262812e-015
outer loop
vertex 12.4443803362948 23.4443986315393 19.6999999999959
vertex 12.9000143486088 23.0947845608959 0.0
vertex 12.9000143486088 23.0947845608957 19.6999999999959
endloop
endfacet
facet normal -0.258810767371079 -0.965928044262508 -1.05160410126891e-014
outer loop
vertex 13.4306097883572 22.8750100608104 19.699999999996
vertex 12.9000143486088 23.0947845608959 0.0
vertex 13.4306097883571 22.8750100608106 0.0
endloop
endfacet
facet normal -0.499992578379218 -0.866029688616795 -9.42845649428855e-015
outer loop
vertex 12.9000143486088 23.0947845608959 0.0
vertex 13.4306097883572 22.8750100608104 19.699999999996
vertex 12.9000143486088 23.0947845608957 19.6999999999959
endloop
endfacet
facet normal 8.56972832786577e-006 -0.99999999996328 -1.08869747150868e-014
outer loop
vertex 14.0000074531712 22.8000524002698 19.6999999999958
vertex 13.4306097883571 22.8750100608106 0.0
vertex 14.0000074531712 22.80005240027 -1.80477854883065e-013
endloop
endfacet
facet normal -0.258810767371061 -0.965928044262513 -1.05160410126891e-014
outer loop
vertex 13.4306097883571 22.8750100608106 0.0
vertex 14.0000074531712 22.8000524002698 19.6999999999958
vertex 13.4306097883572 22.8750100608104 19.699999999996
endloop
endfacet
facet normal -0.258819045102518 0.965925826289069 -4.87523697582107e-015
outer loop
vertex 12.3553663279453 6.13785642394677 1.17310605673993e-012
vertex 14.0 6.35437655448916 4.36655855178851
vertex 14.0000000000001 6.35437655448911 1.08286712929839e-012
endloop
endfacet
facet normal -3.99217723324975e-015 1.0 -1.23815967722242e-014
outer loop
vertex 14.0 6.35437655448916 4.36655855178851
vertex 12.3553663279453 6.13785642394677 1.17310605673993e-012
vertex 12.3553663279454 6.13785642394682 4.3665585517886
endloop
endfacet
facet normal -0.866025403784431 0.500000000000013 1.75142905959779e-014
outer loop
vertex 8.49694847860028 3.1771882772446 4.3665585517886
vertex 9.50677724810796 4.49322275189206 1.08286712929839e-012
vertex 8.49694847860019 3.17718827724455 1.08286712929839e-012
endloop
endfacet
facet normal -0.70710678118655 0.707106781186545 1.06000130649045e-014
outer loop
vertex 9.50677724810796 4.49322275189206 1.08286712929839e-012
vertex 8.49694847860028 3.1771882772446 4.3665585517886
vertex 9.50677724810805 4.49322275189211 4.3665585517886
endloop
endfacet
facet normal -0.499999999999998 0.86602540378444 2.9633621637115e-015
outer loop
vertex 10.8228117227555 5.50305152139985 4.36655855178869
vertex 12.3553663279453 6.13785642394677 1.17310605673993e-012
vertex 10.8228117227554 5.5030515213998 1.17310605673993e-012
endloop
endfacet
facet normal -0.258819045102518 0.965925826289069 -4.87523697582107e-015
outer loop
vertex 12.3553663279453 6.13785642394677 1.17310605673993e-012
vertex 10.8228117227555 5.50305152139985 4.36655855178869
vertex 12.3553663279454 6.13785642394682 4.3665585517886
endloop
endfacet
facet normal 0.866025403784431 0.500000000000013 -2.98958873729995e-014
outer loop
vertex 19.5030515213998 3.17718827724455 0.0
vertex 20.1378564239469 1.64463367205476 4.36655855178751
vertex 20.1378564239468 1.64463367205471 0.0
endloop
endfacet
facet normal 0.965925826289117 0.258819045102339 -2.80230640200776e-014
outer loop
vertex 20.1378564239469 1.64463367205476 4.36655855178751
vertex 19.5030515213998 3.17718827724455 0.0
vertex 19.5030515213999 3.1771882772446 4.36655855178742
endloop
endfacet
facet normal 0.499999999999981 0.86602540378445 -2.44089168546578e-014
outer loop
vertex 17.1771882772446 5.50305152139984 4.36655855178742
vertex 18.493222751892 4.49322275189205 0.0
vertex 17.1771882772445 5.50305152139979 0.0
endloop
endfacet
facet normal 0.707106781186545 0.70710678118655 -2.81102351501379e-014
outer loop
vertex 18.493222751892 4.49322275189205 0.0
vertex 17.1771882772446 5.50305152139984 4.36655855178742
vertex 18.4932227518921 4.4932227518921 4.36655855178751
endloop
endfacet
facet normal 0.988471531883688 -0.151406838205926 -1.11479046218866e-014
outer loop
vertex 9.17042145448392 26.2941239763189 1.26334498418146e-012
vertex 7.00000000000013 12.1243556529822 6.87999916076555
vertex 7.00000000000004 12.1243556529821 0.0
endloop
endfacet
facet normal 0.988471531883688 -0.151406838205926 -1.11479046218866e-014
outer loop
vertex 7.00000000000013 12.1243556529822 6.87999916076555
vertex 9.17042145448392 26.2941239763189 1.26334498418146e-012
vertex 9.17042145448401 26.294123976319 6.87999916076681
endloop
endfacet
facet normal 0.608761429008709 -0.793353340291244 -6.84020652949245e-015
outer loop
vertex 7.00000000000013 12.1243556529822 6.87999916076555
vertex 4.10050506338829 9.89949493661164 1.17310605673993e-012
vertex 7.00000000000004 12.1243556529821 0.0
endloop
endfacet
facet normal 0.707106781186535 -0.70710678118656 -1.06000130638612e-014
outer loop
vertex 4.10050506338829 9.89949493661164 1.17310605673993e-012
vertex 7.00000000000013 12.1243556529822 6.87999916076555
vertex 4.10050506338838 9.89949493661172 6.87999916076672
endloop
endfacet
facet normal 0.707106781186535 -0.70710678118656 -1.06000130638612e-014
outer loop
vertex 4.10050506338829 9.89949493661164 1.17310605673993e-012
vertex 1.87564434701791 7.00000000000006 6.87999916076663
vertex 1.87564434701782 6.99999999999998 9.9262820185686e-013
endloop
endfacet
facet normal 0.866025403784443 -0.499999999999993 -1.75142905953522e-014
outer loop
vertex 1.87564434701791 7.00000000000006 6.87999916076663
vertex 4.10050506338829 9.89949493661164 1.17310605673993e-012
vertex 4.10050506338838 9.89949493661172 6.87999916076672
endloop
endfacet
facet normal -0.965925826289038 0.258819045102634 1.62154437397725e-014
outer loop
vertex 7.86214357605328 1.64463367205477 4.3665585517886
vertex 8.49694847860019 3.17718827724455 1.08286712929839e-012
vertex 7.86214357605319 1.64463367205472 1.17310605673993e-012
endloop
endfacet
facet normal -0.866025403784431 0.500000000000012 1.75142905959779e-014
outer loop
vertex 8.49694847860019 3.17718827724455 1.08286712929839e-012
vertex 7.86214357605328 1.64463367205477 4.3665585517886
vertex 8.49694847860028 3.1771882772446 4.3665585517886
endloop
endfacet
facet normal -0.707106781186544 0.707106781186551 1.06000130649043e-014
outer loop
vertex 9.50677724810805 4.49322275189211 4.3665585517886
vertex 10.8228117227554 5.5030515213998 1.17310605673993e-012
vertex 9.50677724810796 4.49322275189206 1.08286712929839e-012
endloop
endfacet
facet normal -0.500000000000003 0.866025403784437 2.96336216371168e-015
outer loop
vertex 10.8228117227554 5.5030515213998 1.17310605673993e-012
vertex 9.50677724810805 4.49322275189211 4.3665585517886
vertex 10.8228117227555 5.50305152139985 4.36655855178869
endloop
endfacet
facet normal 0.866025403784444 -0.499999999999991 -1.75142905953522e-014
outer loop
vertex 1.87564434701782 6.99999999999998 9.9262820185686e-013
vertex 0.477038431953174 3.62346663143535 6.87999916076672
vertex 0.477038431953084 3.62346663143528 1.17310605673993e-012
endloop
endfacet
facet normal 0.965925826289066 -0.25881904510253 -1.66817497094076e-014
outer loop
vertex 0.477038431953174 3.62346663143535 6.87999916076672
vertex 1.87564434701782 6.99999999999998 9.9262820185686e-013
vertex 1.87564434701791 7.00000000000006 6.87999916076663
endloop
endfacet
facet normal 0.707106781186545 0.70710678118655 -2.81102351501379e-014
outer loop
vertex 18.493222751892 4.49322275189205 0.0
vertex 19.5030515213999 3.1771882772446 4.36655855178742
vertex 19.5030515213998 3.17718827724455 0.0
endloop
endfacet
facet normal 0.866025403784431 0.500000000000013 -2.98958873729995e-014
outer loop
vertex 19.5030515213999 3.1771882772446 4.36655855178742
vertex 18.493222751892 4.49322275189205 0.0
vertex 18.4932227518921 4.4932227518921 4.36655855178751
endloop
endfacet
facet normal 0.258819045102547 0.965925826289061 -1.9044171210485e-014
outer loop
vertex 15.6446336720547 6.13785642394677 1.08286712929839e-012
vertex 17.1771882772446 5.50305152139984 4.36655855178742
vertex 17.1771882772445 5.50305152139979 0.0
endloop
endfacet
facet normal 0.499999999999981 0.86602540378445 -2.44089168546578e-014
outer loop
vertex 17.1771882772446 5.50305152139984 4.36655855178742
vertex 15.6446336720547 6.13785642394677 1.08286712929839e-012
vertex 15.6446336720548 6.13785642394682 4.36655855178851
endloop
endfacet
facet normal -3.99217723324975e-015 1.0 -1.23815967722242e-014
outer loop
vertex 14.0 6.35437655448916 4.36655855178851
vertex 15.6446336720547 6.13785642394677 1.08286712929839e-012
vertex 14.0000000000001 6.35437655448911 1.08286712929839e-012
endloop
endfacet
facet normal 0.258819045102547 0.965925826289061 -1.9044171210485e-014
outer loop
vertex 15.6446336720547 6.13785642394677 1.08286712929839e-012
vertex 14.0 6.35437655448916 4.36655855178851
vertex 15.6446336720548 6.13785642394682 4.36655855178851
endloop
endfacet
facet normal -0.96592582628907 -0.258819045102515 2.28007307649254e-014
outer loop
vertex 27.522961568047 3.62346663143532 6.87999916076555
vertex 26.1243556529821 7.0 0.0
vertex 27.5229615680469 3.62346663143526 0.0
endloop
endfacet
facet normal -0.866025403784444 -0.49999999999999 2.98958873721653e-014
outer loop
vertex 26.1243556529821 7.0 0.0
vertex 27.522961568047 3.62346663143532 6.87999916076555
vertex 26.1243556529822 7.00000000000007 6.87999916076555
endloop
endfacet
facet normal -0.866025403784444 -0.499999999999991 2.98958873721653e-014
outer loop
vertex 26.1243556529822 7.00000000000007 6.87999916076555
vertex 23.8994949366117 9.89949493661164 0.0
vertex 26.1243556529821 7.0 0.0
endloop
endfacet
facet normal -0.707106781186548 -0.707106781186548 2.8110235147635e-014
outer loop
vertex 23.8994949366117 9.89949493661164 0.0
vertex 26.1243556529822 7.00000000000007 6.87999916076555
vertex 23.8994949366118 9.89949493661172 6.87999916076555
endloop
endfacet
facet normal -0.707106781186547 -0.707106781186548 2.8110235147635e-014
outer loop
vertex 23.8994949366118 9.89949493661172 6.87999916076555
vertex 21.0 12.1243556529821 0.0
vertex 23.8994949366117 9.89949493661164 0.0
endloop
endfacet
facet normal -0.608761429008722 -0.793353340291234 2.6486168845502e-014
outer loop
vertex 21.0 12.1243556529821 0.0
vertex 23.8994949366118 9.89949493661172 6.87999916076555
vertex 21.0000000000001 12.1243556529822 6.87999916076564
endloop
endfacet
facet normal -0.988471320233551 -0.151408219974151 1.47922849176143e-014
outer loop
vertex 21.0000000000001 12.1243556529822 6.87999916076564
vertex 18.8295616464872 26.2941019530756 1.26334498418146e-012
vertex 21.0 12.1243556529821 0.0
endloop
endfacet
facet normal -0.988471320233551 -0.151408219974151 1.47922849176143e-014
outer loop
vertex 18.8295616464872 26.2941019530756 1.26334498418146e-012
vertex 21.0000000000001 12.1243556529822 6.87999916076564
vertex 18.8295616464872 26.2941019530757 6.87999916076681
endloop
endfacet
endsolid Zuberi Delta - aluminum square rail
