solid Zuberi Delta - parts
facet normal 0.96592501896989 -0.258822058037926 1.01487576818021e-006
outer loop
vertex -6.13785642394675 1.64463367205477 1.80169421049037e-013
vertex -6.35437655448937 0.000133215474718895 1.99998444485132
vertex -6.35437655448901 0.0 4.33966404478348e-013
endloop
endfacet
facet normal 0.991444047072151 -0.130532377290638 2.01238757751533e-006
outer loop
vertex -6.35437655448937 0.000133215474718895 1.99998444485132
vertex -6.13785642394675 1.64463367205477 1.80169421049037e-013
vertex -6.13785642394693 1.6446336720545 3.64436258290433
endloop
endfacet
facet normal -2.76244406765038e-016 -1.0 1.23815967713907e-014
outer loop
vertex 0.0 6.35437655448892 4.58655908703673
vertex -1.64463367205463 6.13785642394688 1.85809354014133e-013
vertex 1.35358391162299e-013 6.35437655448901 9.55704265725998e-014
endloop
endfacet
facet normal 0.258819045102516 -0.96592582628907 4.87523697415324e-015
outer loop
vertex -1.64463367205463 6.13785642394688 1.85809354014133e-013
vertex 0.0 6.35437655448892 4.58655908703673
vertex -1.64463367205459 6.13785642394652 4.58655908703682
endloop
endfacet
facet normal 0.866025403784428 -0.500000000000019 -1.75142905961849e-014
outer loop
vertex -5.50305152139974 3.17718827724455 2.70408348490569e-013
vertex -4.49322275189247 4.49322275189175 4.58655908703682
vertex -5.50305152140015 3.17718827724446 4.58655908703703
endloop
endfacet
facet normal 0.707106781186557 -0.707106781186538 -1.06000130657391e-014
outer loop
vertex -4.49322275189247 4.49322275189175 4.58655908703682
vertex -5.50305152139974 3.17718827724455 2.70408348490569e-013
vertex -4.49322275189198 4.49322275189211 7.86506276773125e-014
endloop
endfacet
facet normal 0.258819045102524 -0.965925826289068 4.87523697415298e-015
outer loop
vertex -1.64463367205459 6.13785642394652 4.58655908703682
vertex -3.1771882772445 5.50305152139979 1.85809354014133e-013
vertex -1.64463367205463 6.13785642394688 1.85809354014133e-013
endloop
endfacet
facet normal 0.500000000000001 -0.866025403784438 -2.96336216621459e-015
outer loop
vertex -3.1771882772445 5.50305152139979 1.85809354014133e-013
vertex -1.64463367205459 6.13785642394652 4.58655908703682
vertex -3.17718827724446 5.50305152139961 4.58655908703692
endloop
endfacet
facet normal -0.866025403784435 -0.500000000000007 2.98958873713301e-014
outer loop
vertex 5.50305152139943 3.17718827724428 4.58655908703564
vertex 6.13785642394666 1.64463367205459 4.35557519651047
vertex 6.13785642394643 1.64463367205441 4.58655908703594
endloop
endfacet
facet normal -0.947195944132769 -0.320655334305282 2.20811139057752e-014
outer loop
vertex 6.13785642394666 1.64463367205459 4.35557519651047
vertex 5.50305152139943 3.17718827724428 4.58655908703564
vertex 5.99054851198889 2.00026643094862 3.9999688897076
endloop
endfacet
facet normal -0.92387953251128 -0.382683432365105 3.00269202899245e-014
outer loop
vertex 5.99054851198889 2.00026643094862 3.9999688897076
vertex 6.13785642394679 1.64463367205477 -7.72979250052153e-013
vertex 6.13785642394666 1.64463367205459 3.6443625829043
endloop
endfacet
facet normal -0.965925018969894 -0.258822058037913 1.01487570761299e-006
outer loop
vertex 6.13785642394679 1.64463367205477 -7.72979250052153e-013
vertex 5.99054851198889 2.00026643094862 3.9999688897076
vertex 5.50305152139974 3.17718827724464 -9.76016836795601e-013
endloop
endfacet
facet normal -0.866025403784427 -0.50000000000002 2.98958873713301e-014
outer loop
vertex 5.50305152139974 3.17718827724464 -9.76016836795601e-013
vertex 5.99054851198889 2.00026643094862 3.9999688897076
vertex 5.50305152139943 3.17718827724428 4.58655908703564
endloop
endfacet
facet normal -0.707106781186542 -0.707106781186553 2.81102351484691e-014
outer loop
vertex 4.49322275189207 4.49322275189211 -9.76016836795601e-013
vertex 3.17718827724473 5.50305152139943 4.58655908703565
vertex 3.17718827724468 5.50305152139979 -9.92936635690889e-013
endloop
endfacet
facet normal -0.499999999999979 -0.866025403784451 2.44089168529906e-014
outer loop
vertex 3.17718827724473 5.50305152139943 4.58655908703565
vertex 4.49322275189207 4.49322275189211 -9.76016836795601e-013
vertex 4.4932227518922 4.49322275189193 4.58655908703574
endloop
endfacet
facet normal 0.96592501896989 -0.258822058037926 1.01487576818021e-006
outer loop
vertex -6.13785642394675 1.64463367205477 1.80169421049037e-013
vertex -5.99054851198744 2.0002664309488 3.99996888970761
vertex -6.13785642394693 1.6446336720545 3.64436258290433
endloop
endfacet
facet normal 0.92387953251128 -0.382683432365107 -2.0550456388148e-014
outer loop
vertex -5.99054851198744 2.0002664309488 3.99996888970761
vertex -6.13785642394675 1.64463367205477 1.80169421049037e-013
vertex -5.50305152139974 3.17718827724455 2.70408348490569e-013
endloop
endfacet
facet normal 0.92387953251128 -0.382683432365107 -2.0550456388148e-014
outer loop
vertex -5.99054851198744 2.0002664309488 3.99996888970761
vertex -5.50305152139974 3.17718827724455 2.70408348490569e-013
vertex -5.50305152140015 3.17718827724446 4.58655908703703
endloop
endfacet
facet normal 0.947195944132799 -0.320655334305194 -8.00755495767471e-015
outer loop
vertex -6.13785642394702 1.64463367205477 4.35557519651042
vertex -5.50305152140015 3.17718827724446 4.58655908703703
vertex -6.13785642394724 1.64463367205459 4.58655908703679
endloop
endfacet
facet normal 0.866025403784434 -0.500000000000008 -1.75142905961852e-014
outer loop
vertex -5.50305152140015 3.17718827724446 4.58655908703703
vertex -6.13785642394702 1.64463367205477 4.35557519651042
vertex -5.99054851198744 2.0002664309488 3.99996888970761
endloop
endfacet
facet normal 0.500000000000001 -0.866025403784438 -2.96336216621459e-015
outer loop
vertex -3.1771882772445 5.50305152139979 1.85809354014133e-013
vertex -4.49322275189247 4.49322275189175 4.58655908703682
vertex -4.49322275189198 4.49322275189211 7.86506276773125e-014
endloop
endfacet
facet normal 0.707106781186557 -0.707106781186538 -1.06000130657391e-014
outer loop
vertex -4.49322275189247 4.49322275189175 4.58655908703682
vertex -3.1771882772445 5.50305152139979 1.85809354014133e-013
vertex -3.17718827724446 5.50305152139961 4.58655908703692
endloop
endfacet
facet normal -0.707106781186548 -0.707106781186547 2.81102351484692e-014
outer loop
vertex 4.4932227518922 4.49322275189193 4.58655908703574
vertex 5.50305152139974 3.17718827724464 -9.76016836795601e-013
vertex 5.50305152139943 3.17718827724428 4.58655908703564
endloop
endfacet
facet normal -0.866025403784427 -0.50000000000002 2.98958873713301e-014
outer loop
vertex 5.50305152139974 3.17718827724464 -9.76016836795601e-013
vertex 4.4932227518922 4.49322275189193 4.58655908703574
vertex 4.49322275189207 4.49322275189211 -9.76016836795601e-013
endloop
endfacet
facet normal -0.499999999999979 -0.866025403784451 2.44089168529906e-014
outer loop
vertex 3.17718827724473 5.50305152139943 4.58655908703565
vertex 1.64463367205472 6.13785642394688 2.87328147385857e-013
vertex 3.17718827724468 5.50305152139979 -9.92936635690889e-013
endloop
endfacet
facet normal -0.258819045102545 -0.965925826289062 1.90441712088171e-014
outer loop
vertex 1.64463367205472 6.13785642394688 2.87328147385857e-013
vertex 3.17718827724473 5.50305152139943 4.58655908703565
vertex 1.64463367205481 6.13785642394643 4.58655908703693
endloop
endfacet
facet normal -0.258819045102545 -0.965925826289062 1.90441712088171e-014
outer loop
vertex 1.64463367205472 6.13785642394688 2.87328147385857e-013
vertex 0.0 6.35437655448892 4.58655908703673
vertex 1.35358391162299e-013 6.35437655448901 9.55704265725998e-014
endloop
endfacet
facet normal -2.76244406765038e-016 -1.0 1.23815967713907e-014
outer loop
vertex 0.0 6.35437655448892 4.58655908703673
vertex 1.64463367205472 6.13785642394688 2.87328147385857e-013
vertex 1.64463367205481 6.13785642394643 4.58655908703693
endloop
endfacet
facet normal 8.90653129451466e-017 -0.99999999778167 -6.66082548231891e-005
outer loop
vertex 14.0000000000001 1.80477854883065e-013 7.99993777942017
vertex 8.09999999999987 0.000133215473906745 5.99995333456241
vertex 14.0000000000001 0.000133215473816506 5.99995333456241
endloop
endfacet
facet normal 8.90653129451466e-017 -0.99999999778167 -6.66082548231891e-005
outer loop
vertex 8.09999999999987 0.000133215473906745 5.99995333456241
vertex 14.0000000000001 1.80477854883065e-013 7.99993777942017
vertex 8.1000000000001 2.70716782324598e-013 7.99993777941819
endloop
endfacet
facet normal 9.91453908083172e-015 -0.99999999778167 -6.66082547317524e-005
outer loop
vertex -8.10000000000001 0.000133215473816506 5.99995333456241
vertex -14.0000000000001 0.0 7.99993777941646
vertex -14.0000000000001 0.000133215473636028 5.99995333456241
endloop
endfacet
facet normal 9.91453908083172e-015 -0.99999999778167 -6.66082547317524e-005
outer loop
vertex -14.0000000000001 0.0 7.99993777941646
vertex -8.10000000000001 0.000133215473816506 5.99995333456241
vertex -8.09999999999992 1.80477854883065e-013 7.99993777941818
endloop
endfacet
facet normal -4.20953300586358e-014 1.77665150911499e-013 -1.0
outer loop
vertex -11.2051244926823 2.23980184747279 -1.34261247952683e-012
vertex -6.35437655448901 0.0 4.33966404478348e-013
vertex -13.9999999999999 -9.02389274415327e-014 -9.87296702725793e-013
endloop
endfacet
facet normal -4.20953300586358e-014 1.77665150911499e-013 -1.0
outer loop
vertex -6.35437655448901 0.0 4.33966404478348e-013
vertex -11.2051244926823 2.23980184747279 -1.34261247952683e-012
vertex -11.1081470023269 2.97641901868086 3.60647275932102e-013
endloop
endfacet
facet normal -4.20953300586358e-014 1.77665150911499e-013 -1.0
outer loop
vertex -6.35437655448901 0.0 4.33966404478348e-013
vertex -11.1081470023269 2.97641901868086 3.60647275932102e-013
vertex -9.95929214352367 5.75000000000185 3.60647275932102e-013
endloop
endfacet
facet normal -4.20953300586358e-014 1.77665150911499e-013 -1.0
outer loop
vertex -6.35437655448901 0.0 4.33966404478348e-013
vertex -9.95929214352367 5.75000000000185 3.60647275932102e-013
vertex -8.13172798364796 8.13172798364728 3.66287208897198e-013
endloop
endfacet
facet normal -4.20953300586358e-014 1.77665150911499e-013 -1.0
outer loop
vertex -6.35437655448901 0.0 4.33966404478348e-013
vertex -8.13172798364796 8.13172798364728 3.66287208897198e-013
vertex -7.54228180599974 8.5840259437179 -9.36537306039931e-013
endloop
endfacet
facet normal -4.20953300586358e-014 1.77665150911499e-013 -1.0
outer loop
vertex -6.35437655448901 0.0 4.33966404478348e-013
vertex -7.54228180599974 8.5840259437179 -9.36537306039931e-013
vertex -6.52128069614207 15.2497100750501 1.4378744722654e-012
endloop
endfacet
facet normal -4.20953300586358e-014 1.77665150911499e-013 -1.0
outer loop
vertex -6.35437655448901 0.0 4.33966404478348e-013
vertex -6.52128069614207 15.2497100750501 1.4378744722654e-012
vertex -6.29907462791926 16.220207176312 1.18971742180118e-012
endloop
endfacet
facet normal -4.20953300586358e-014 1.77665150911499e-013 -1.0
outer loop
vertex -6.35437655448901 0.0 4.33966404478348e-013
vertex -6.29907462791926 16.220207176312 1.18971742180118e-012
vertex -6.13785642394675 1.64463367205477 1.80169421049037e-013
endloop
endfacet
facet normal -4.20953300586358e-014 1.77665150911499e-013 -1.0
outer loop
vertex -6.13785642394675 1.64463367205477 1.80169421049037e-013
vertex -6.29907462791926 16.220207176312 1.18971742180118e-012
vertex -5.6475971858753 17.1245666715226 1.0317992987785e-012
endloop
endfacet
facet normal -4.20953300586358e-014 1.77665150911499e-013 -1.0
outer loop
vertex -6.13785642394675 1.64463367205477 1.80169421049037e-013
vertex -5.6475971858753 17.1245666715226 1.0317992987785e-012
vertex -5.50305152139974 3.17718827724455 2.70408348490569e-013
endloop
endfacet
facet normal -4.20953300586358e-014 1.77665150911499e-013 -1.0
outer loop
vertex -5.50305152139974 3.17718827724455 2.70408348490569e-013
vertex -5.6475971858753 17.1245666715226 1.0317992987785e-012
vertex -4.61124548106904 17.9011579556076 9.92319768022831e-013
endloop
endfacet
facet normal -4.20953300586358e-014 1.77665150911499e-013 -1.0
outer loop
vertex -5.50305152139974 3.17718827724455 2.70408348490569e-013
vertex -4.61124548106904 17.9011579556076 9.92319768022831e-013
vertex -4.49322275189198 4.49322275189211 7.86506276773125e-014
endloop
endfacet
facet normal -4.20953300586358e-014 1.77665150911499e-013 -1.0
outer loop
vertex -4.49322275189198 4.49322275189211 7.86506276773125e-014
vertex -4.61124548106904 17.9011579556076 9.92319768022831e-013
vertex -3.26064516952996 18.497057615935 1.05999896360398e-012
endloop
endfacet
facet normal -4.20953300586358e-014 1.77665150911499e-013 -1.0
outer loop
vertex -4.49322275189198 4.49322275189211 7.86506276773125e-014
vertex -3.26064516952996 18.497057615935 1.05999896360398e-012
vertex -3.1771882772445 5.50305152139979 1.85809354014133e-013
endloop
endfacet
facet normal -4.20953300586358e-014 1.77665150911499e-013 -1.0
outer loop
vertex -3.1771882772445 5.50305152139979 1.85809354014133e-013
vertex -3.26064516952996 18.497057615935 1.05999896360398e-012
vertex -1.68783743051778 18.871656075424 1.24611675145214e-012
endloop
endfacet
facet normal -4.20953300586358e-014 1.77665150911499e-013 -1.0
outer loop
vertex -3.1771882772445 5.50305152139979 1.85809354014133e-013
vertex -1.68783743051778 18.871656075424 1.24611675145214e-012
vertex -1.64463367205463 6.13785642394688 1.85809354014133e-013
endloop
endfacet
facet normal -4.20953300586358e-014 1.77665150911499e-013 -1.0
outer loop
vertex -1.64463367205463 6.13785642394688 1.85809354014133e-013
vertex -1.68783743051778 18.871656075424 1.24611675145214e-012
vertex -1.60000245900522 15.249712534053 5.2420533191988e-013
endloop
endfacet
facet normal -4.20953300586358e-014 1.77665150911499e-013 -1.0
outer loop
vertex -1.60000245900522 15.249712534053 5.2420533191988e-013
vertex -1.68783743051778 18.871656075424 1.24611675145214e-012
vertex -1.5454837810677 15.6638230062169 4.1704660558306e-013
endloop
endfacet
facet normal -4.20953300586358e-014 1.77665150911499e-013 -1.0
outer loop
vertex -1.5454837810677 15.6638230062169 4.1704660558306e-013
vertex -1.68783743051778 18.871656075424 1.24611675145214e-012
vertex -1.38564310506026 16.049712534053 3.49367410001911e-013
endloop
endfacet
facet normal -4.20953300586358e-014 1.77665150911499e-013 -1.0
outer loop
vertex -1.38564310506026 16.049712534053 3.49367410001911e-013
vertex -1.68783743051778 18.871656075424 1.24611675145214e-012
vertex -6.51225422281243e-006 18.9994250681089 7.89282181279383e-013
endloop
endfacet
facet normal -4.20953300586358e-014 1.77665150911499e-013 -1.0
outer loop
vertex -1.38564310506026 16.049712534053 3.49367410001911e-013
vertex -6.51225422281243e-006 18.9994250681089 7.89282181279383e-013
vertex -1.13137330890374 16.3810833839515 3.15527812211336e-013
endloop
endfacet
facet normal -4.20953300586358e-014 1.77665150911499e-013 -1.0
outer loop
vertex -1.13137330890374 16.3810833839515 3.15527812211336e-013
vertex -6.51225422281243e-006 18.9994250681089 7.89282181279383e-013
vertex -0.800002459005177 16.635353180108 3.66287208897198e-013
endloop
endfacet
facet normal -4.20953300586358e-014 1.77665150911499e-013 -1.0
outer loop
vertex -0.800002459005177 16.635353180108 3.66287208897198e-013
vertex -6.51225422281243e-006 18.9994250681089 7.89282181279383e-013
vertex -0.414112931169278 16.7951938561156 4.45246270408539e-013
endloop
endfacet
facet normal -4.20953300586358e-014 1.77665150911499e-013 -1.0
outer loop
vertex -0.414112931169278 16.7951938561156 4.45246270408539e-013
vertex -6.51225422281243e-006 18.9994250681089 7.89282181279383e-013
vertex -2.45900522308773e-006 16.849712534053 5.58044929710455e-013
endloop
endfacet
facet normal -4.20953300586358e-014 1.77665150911499e-013 -1.0
outer loop
vertex -2.45900522308773e-006 16.849712534053 5.58044929710455e-013
vertex -6.51225422281243e-006 18.9994250681089 7.89282181279383e-013
vertex 1.68782469744615 18.8716573482954 1.15023789104551e-012
endloop
endfacet
facet normal -4.20953300586358e-014 1.77665150911499e-013 -1.0
outer loop
vertex -2.45900522308773e-006 16.849712534053 5.58044929710455e-013
vertex 1.68782469744615 18.8716573482954 1.15023789104551e-012
vertex 0.414108013158786 16.7951938561155 7.15963052733137e-013
endloop
endfacet
facet normal -4.20953300586358e-014 1.77665150911499e-013 -1.0
outer loop
vertex 0.414108013158786 16.7951938561155 7.15963052733137e-013
vertex 1.68782469744615 18.8716573482954 1.15023789104551e-012
vertex 0.799997540994775 16.6353531801081 8.85161041686011e-013
endloop
endfacet
facet normal -4.20953300586358e-014 1.77665150911499e-013 -1.0
outer loop
vertex 0.799997540994775 16.6353531801081 8.85161041686011e-013
vertex 1.68782469744615 18.8716573482954 1.15023789104551e-012
vertex 1.13136839089334 16.3810833839514 1.07691876249927e-012
endloop
endfacet
facet normal -4.20953300586358e-014 1.77665150911499e-013 -1.0
outer loop
vertex 1.13136839089334 16.3810833839514 1.07691876249927e-012
vertex 1.68782469744615 18.8716573482954 1.15023789104551e-012
vertex 1.38563818704986 16.0497125340531 1.25175668441724e-012
endloop
endfacet
facet normal -4.20953300586358e-014 1.77665150911499e-013 -1.0
outer loop
vertex 1.38563818704986 16.0497125340531 1.25175668441724e-012
vertex 1.68782469744615 18.8716573482954 1.15023789104551e-012
vertex 1.54547886305735 15.663823006217 1.42659460633521e-012
endloop
endfacet
facet normal -4.20953300586358e-014 1.77665150911499e-013 -1.0
outer loop
vertex 1.54547886305735 15.663823006217 1.42659460633521e-012
vertex 1.68782469744615 18.8716573482954 1.15023789104551e-012
vertex 1.59999754099486 15.2497125340528 1.5732328634277e-012
endloop
endfacet
facet normal -4.20953300586358e-014 1.77665150911499e-013 -1.0
outer loop
vertex 1.59999754099486 15.2497125340528 1.5732328634277e-012
vertex 1.68782469744615 18.8716573482954 1.15023789104551e-012
vertex 1.64463367205472 6.13785642394688 2.87328147385857e-013
endloop
endfacet
facet normal -4.20953300586358e-014 1.77665150911499e-013 -1.0
outer loop
vertex 1.64463367205472 6.13785642394688 2.87328147385857e-013
vertex 1.68782469744615 18.8716573482954 1.15023789104551e-012
vertex 3.17718827724468 5.50305152139979 -9.92936635690889e-013
endloop
endfacet
facet normal -4.20953300586358e-014 1.77665150911499e-013 -1.0
outer loop
vertex 3.17718827724468 5.50305152139979 -9.92936635690889e-013
vertex 1.68782469744615 18.8716573482954 1.15023789104551e-012
vertex 3.26063329091927 18.4970600749381 1.56195299749751e-012
endloop
endfacet
facet normal -4.20953300586358e-014 1.77665150911499e-013 -1.0
outer loop
vertex 3.17718827724468 5.50305152139979 -9.92936635690889e-013
vertex 3.26063329091927 18.4970600749381 1.56195299749751e-012
vertex 4.49322275189207 4.49322275189211 -9.76016836795601e-013
endloop
endfacet
facet normal -4.20953300586358e-014 1.77665150911499e-013 -1.0
outer loop
vertex 4.49322275189207 4.49322275189211 -9.76016836795601e-013
vertex 3.26063329091927 18.4970600749381 1.56195299749751e-012
vertex 4.6112349617085 17.9011614331654 1.99622783580988e-012
endloop
endfacet
facet normal -4.20953300586358e-014 1.77665150911499e-013 -1.0
outer loop
vertex 4.49322275189207 4.49322275189211 -9.76016836795601e-013
vertex 4.6112349617085 17.9011614331654 1.99622783580988e-012
vertex 5.50305152139974 3.17718827724464 -9.76016836795601e-013
endloop
endfacet
facet normal -4.20953300586358e-014 1.77665150911499e-013 -1.0
outer loop
vertex 5.50305152139974 3.17718827724464 -9.76016836795601e-013
vertex 4.6112349617085 17.9011614331654 1.99622783580988e-012
vertex 5.64758843792507 17.1245709306446 2.43050267412226e-012
endloop
endfacet
facet normal -4.20953300586358e-014 1.77665150911499e-013 -1.0
outer loop
vertex 5.50305152139974 3.17718827724464 -9.76016836795601e-013
vertex 5.64758843792507 17.1245709306446 2.43050267412226e-012
vertex 6.13785642394679 1.64463367205477 -7.72979250052153e-013
endloop
endfacet
facet normal -4.20953300586358e-014 1.77665150911499e-013 -1.0
outer loop
vertex 6.13785642394679 1.64463367205477 -7.72979250052153e-013
vertex 5.64758843792507 17.1245709306446 2.43050267412226e-012
vertex 6.29906794281946 16.220211926746 2.82529798167896e-012
endloop
endfacet
facet normal -4.20953300586358e-014 1.77665150911499e-013 -1.0
outer loop
vertex 6.13785642394679 1.64463367205477 -7.72979250052153e-013
vertex 6.29906794281946 16.220211926746 2.82529798167896e-012
vertex 6.35437655448919 0.0 -9.76016836795601e-013
endloop
endfacet
facet normal -4.20953300586358e-014 1.77665150911499e-013 -1.0
outer loop
vertex 6.35437655448919 0.0 -9.76016836795601e-013
vertex 6.29906794281946 16.220211926746 2.82529798167896e-012
vertex 6.52127622475327 15.2497149930616 3.16369395958471e-012
endloop
endfacet
facet normal -4.20953300586358e-014 1.77665150911499e-013 -1.0
outer loop
vertex 6.35437655448919 0.0 -9.76016836795601e-013
vertex 6.52127622475327 15.2497149930616 3.16369395958471e-012
vertex 7.54228754569982 8.58402153949786 5.07285533024593e-013
endloop
endfacet
facet normal -4.20953300586358e-014 1.77665150911499e-013 -1.0
outer loop
vertex 6.35437655448919 0.0 -9.76016836795601e-013
vertex 7.54228754569982 8.58402153949786 5.07285533024593e-013
vertex 11.2051162109512 2.23986475350314 -1.19964458505928e-011
endloop
endfacet
facet normal -4.20953300586358e-014 1.77665150911499e-013 -1.0
outer loop
vertex 6.35437655448919 0.0 -9.76016836795601e-013
vertex 11.2051162109512 2.23986475350314 -1.19964458505928e-011
vertex 14.0 9.02389274415327e-014 -8.2937857970311e-013
endloop
endfacet
facet normal -4.20953300586358e-014 1.77665150911499e-013 -1.0
outer loop
vertex 11.2051162109512 2.23986475350314 -1.19964458505928e-011
vertex 7.54228754569982 8.58402153949786 5.07285533024593e-013
vertex 8.13172798365238 8.13172798365071 1.42095467337011e-012
endloop
endfacet
facet normal -4.20953300586358e-014 1.77665150911499e-013 -1.0
outer loop
vertex 11.2051162109512 2.23986475350314 -1.19964458505928e-011
vertex 8.13172798365238 8.13172798365071 1.42095467337011e-012
vertex 9.95929214352818 5.75000000000528 1.42659460633521e-012
endloop
endfacet
facet normal -4.20953300586358e-014 1.77665150911499e-013 -1.0
outer loop
vertex 11.2051162109512 2.23986475350314 -1.19964458505928e-011
vertex 9.95929214352818 5.75000000000528 1.42659460633521e-012
vertex 11.1081470023313 2.97641901868447 1.42659460633521e-012
endloop
endfacet
facet normal -4.20953300586358e-014 1.77665150911499e-013 -1.0
outer loop
vertex -1.64463367205463 6.13785642394688 1.85809354014133e-013
vertex -1.54548378106775 14.8356020618888 6.70843589012371e-013
vertex 1.35358391162299e-013 6.35437655448901 9.55704265725998e-014
endloop
endfacet
facet normal -4.20953300586358e-014 1.77665150911499e-013 -1.0
outer loop
vertex -1.54548378106775 14.8356020618888 6.70843589012371e-013
vertex -1.64463367205463 6.13785642394688 1.85809354014133e-013
vertex -1.60000245900522 15.249712534053 5.2420533191988e-013
endloop
endfacet
facet normal -4.20953300586358e-014 1.77665150911499e-013 -1.0
outer loop
vertex 1.35358391162299e-013 6.35437655448901 9.55704265725998e-014
vertex -1.54548378106775 14.8356020618888 6.70843589012371e-013
vertex -1.38564310506035 14.4497125340531 8.34401645000149e-013
endloop
endfacet
facet normal -4.20953300586358e-014 1.77665150911499e-013 -1.0
outer loop
vertex 1.35358391162299e-013 6.35437655448901 9.55704265725998e-014
vertex -1.38564310506035 14.4497125340531 8.34401645000149e-013
vertex -1.13137330890365 14.1183416841546 1.02051943284831e-012
endloop
endfacet
facet normal -4.20953300586358e-014 1.77665150911499e-013 -1.0
outer loop
vertex 1.35358391162299e-013 6.35437655448901 9.55704265725998e-014
vertex -1.13137330890365 14.1183416841546 1.02051943284831e-012
vertex -0.800002459005312 13.864071887998 1.20663722069647e-012
endloop
endfacet
facet normal -4.20953300586358e-014 1.77665150911499e-013 -1.0
outer loop
vertex 1.35358391162299e-013 6.35437655448901 9.55704265725998e-014
vertex -0.800002459005312 13.864071887998 1.20663722069647e-012
vertex -0.414112931169323 13.7042312119906 1.38147514261444e-012
endloop
endfacet
facet normal -4.20953300586358e-014 1.77665150911499e-013 -1.0
outer loop
vertex 1.35358391162299e-013 6.35437655448901 9.55704265725998e-014
vertex -0.414112931169323 13.7042312119906 1.38147514261444e-012
vertex -2.45900522308773e-006 13.6497125340529 1.53939326563712e-012
endloop
endfacet
facet normal -4.20953300586358e-014 1.77665150911499e-013 -1.0
outer loop
vertex 1.35358391162299e-013 6.35437655448901 9.55704265725998e-014
vertex -2.45900522308773e-006 13.6497125340529 1.53939326563712e-012
vertex 0.414108013158831 13.7042312119905 1.65219192493904e-012
endloop
endfacet
facet normal -4.20953300586358e-014 1.77665150911499e-013 -1.0
outer loop
vertex 1.35358391162299e-013 6.35437655448901 9.55704265725998e-014
vertex 0.414108013158831 13.7042312119905 1.65219192493904e-012
vertex 1.64463367205472 6.13785642394688 2.87328147385857e-013
endloop
endfacet
facet normal -4.20953300586358e-014 1.77665150911499e-013 -1.0
outer loop
vertex 1.64463367205472 6.13785642394688 2.87328147385857e-013
vertex 0.414108013158831 13.7042312119905 1.65219192493904e-012
vertex 0.799997540994775 13.8640718879978 1.73115098645038e-012
endloop
endfacet
facet normal -4.20953300586358e-014 1.77665150911499e-013 -1.0
outer loop
vertex 1.64463367205472 6.13785642394688 2.87328147385857e-013
vertex 0.799997540994775 13.8640718879978 1.73115098645038e-012
vertex 1.13136839089325 14.1183416841545 1.75935065127586e-012
endloop
endfacet
facet normal -4.20953300586358e-014 1.77665150911499e-013 -1.0
outer loop
vertex 1.64463367205472 6.13785642394688 2.87328147385857e-013
vertex 1.13136839089325 14.1183416841545 1.75935065127586e-012
vertex 1.38563818704991 14.4497125340529 1.74243085238057e-012
endloop
endfacet
facet normal -4.20953300586358e-014 1.77665150911499e-013 -1.0
outer loop
vertex 1.64463367205472 6.13785642394688 2.87328147385857e-013
vertex 1.38563818704991 14.4497125340529 1.74243085238057e-012
vertex 1.54547886305735 14.8356020618888 1.68039158976452e-012
endloop
endfacet
facet normal -4.20953300586358e-014 1.77665150911499e-013 -1.0
outer loop
vertex 1.64463367205472 6.13785642394688 2.87328147385857e-013
vertex 1.54547886305735 14.8356020618888 1.68039158976452e-012
vertex 1.59999754099486 15.2497125340528 1.5732328634277e-012
endloop
endfacet
facet normal 0.991444227925267 -0.130531003643526 -1.21840357959231e-006
outer loop
vertex -8.10000000000001 0.000133215473816506 5.99995333456241
vertex -7.82399919294141 2.09643426533044 7.99993777941818
vertex -8.09999999999992 1.80477854883065e-013 7.99993777941818
endloop
endfacet
facet normal 0.965925198269093 -0.258821388892873 -6.14458365411512e-007
outer loop
vertex -7.82399919294141 2.09643426533044 7.99993777941818
vertex -8.10000000000001 0.000133215473816506 5.99995333456241
vertex -7.91389173759386 1.41363259958618 4.58655908703673
endloop
endfacet
facet normal 0.965925198269093 -0.258821388892873 -6.14458365411512e-007
outer loop
vertex -7.82399919294141 2.09643426533044 7.99993777941818
vertex -7.91389173759386 1.41363259958618 4.58655908703673
vertex -7.8239991929419 2.09643426533026 4.58655908703674
endloop
endfacet
facet normal 0.866025403784446 -0.499999999999988 1.48816654753528e-014
outer loop
vertex -7.01480577065429 4.04999999999971 4.58655908703673
vertex -7.82399919294141 2.09643426533044 7.99993777941818
vertex -7.8239991929419 2.09643426533026 4.58655908703674
endloop
endfacet
facet normal 0.965925198269093 -0.258821388892873 -6.14458365411512e-007
outer loop
vertex -7.82399919294141 2.09643426533044 7.99993777941818
vertex -7.01480577065429 4.04999999999971 4.58655908703673
vertex -7.01480577065383 4.05000000000007 7.99993777941819
endloop
endfacet
facet normal 0.707106781186552 -0.707106781186543 1.87506776717939e-014
outer loop
vertex -5.72756492761097 5.72756492761093 4.58655908703673
vertex -7.01480577065383 4.05000000000007 7.99993777941819
vertex -7.01480577065429 4.04999999999971 4.58655908703673
endloop
endfacet
facet normal 0.866025403784433 -0.50000000000001 1.48816654753533e-014
outer loop
vertex -7.01480577065383 4.05000000000007 7.99993777941819
vertex -5.72756492761097 5.72756492761093 4.58655908703673
vertex -5.72756492761093 5.72756492761111 7.99993777941818
endloop
endfacet
facet normal 0.500000000000005 -0.866025403784436 2.13418621718622e-014
outer loop
vertex -4.04999999999998 7.01480577065383 4.58655908703674
vertex -5.72756492761093 5.72756492761111 7.99993777941818
vertex -5.72756492761097 5.72756492761093 4.58655908703673
endloop
endfacet
facet normal 0.707106781186547 -0.707106781186548 1.8750677671794e-014
outer loop
vertex -5.72756492761093 5.72756492761111 7.99993777941818
vertex -4.04999999999998 7.01480577065383 4.58655908703674
vertex -4.04999999999985 7.01480577065402 7.99993777941818
endloop
endfacet
facet normal 0.258819045102519 -0.965925826289069 2.24786340340132e-014
outer loop
vertex -2.0964342653303 7.82399919294154 7.99993777941819
vertex -4.04999999999998 7.01480577065383 4.58655908703674
vertex -2.09643426533035 7.82399919294136 4.58655908703673
endloop
endfacet
facet normal 0.500000000000005 -0.866025403784436 2.13418621718622e-014
outer loop
vertex -4.04999999999998 7.01480577065383 4.58655908703674
vertex -2.0964342653303 7.82399919294154 7.99993777941819
vertex -4.04999999999985 7.01480577065402 7.99993777941818
endloop
endfacet
facet normal -1.19408872601667e-015 -1.0 2.20835241344449e-014
outer loop
vertex 1.80477854883065e-013 8.09999999999969 4.58655908703674
vertex -2.0964342653303 7.82399919294154 7.99993777941819
vertex -2.09643426533035 7.82399919294136 4.58655908703673
endloop
endfacet
facet normal 0.258819045102519 -0.965925826289069 2.24786340340132e-014
outer loop
vertex -2.0964342653303 7.82399919294154 7.99993777941819
vertex 1.80477854883065e-013 8.09999999999969 4.58655908703674
vertex 9.02389274415327e-014 8.10000000000005 7.99993777941819
endloop
endfacet
facet normal -0.258819045102514 -0.96592582628907 2.01834585598634e-014
outer loop
vertex 2.09643426533044 7.82399919294163 7.99993777941819
vertex 1.80477854883065e-013 8.09999999999969 4.58655908703674
vertex 2.09643426533062 7.82399919294127 4.58655908703673
endloop
endfacet
facet normal -1.19408872601667e-015 -1.0 2.20835241344449e-014
outer loop
vertex 1.80477854883065e-013 8.09999999999969 4.58655908703674
vertex 2.09643426533044 7.82399919294163 7.99993777941819
vertex 9.02389274415327e-014 8.10000000000005 7.99993777941819
endloop
endfacet
facet normal -0.499999999999993 -0.866025403784442 1.69079236391696e-014
outer loop
vertex 4.05000000000012 7.0148057706542 7.99993777941819
vertex 2.09643426533062 7.82399919294127 4.58655908703673
vertex 4.05000000000016 7.01480577065365 4.58655908703673
endloop
endfacet
facet normal -0.258819045102527 -0.965925826289067 2.01834585598633e-014
outer loop
vertex 2.09643426533062 7.82399919294127 4.58655908703673
vertex 4.05000000000012 7.0148057706542 7.99993777941819
vertex 2.09643426533044 7.82399919294163 7.99993777941819
endloop
endfacet
facet normal -0.707106781186546 -0.707106781186549 1.24801416641311e-014
outer loop
vertex 5.72756492761115 5.72756492761102 7.9999377794182
vertex 4.05000000000016 7.01480577065365 4.58655908703673
vertex 5.72756492761115 5.72756492761084 4.58655908703673
endloop
endfacet
facet normal -0.500000000000006 -0.866025403784435 1.69079236391694e-014
outer loop
vertex 4.05000000000016 7.01480577065365 4.58655908703673
vertex 5.72756492761115 5.72756492761102 7.9999377794182
vertex 4.05000000000012 7.0148057706542 7.99993777941819
endloop
endfacet
facet normal -0.866025403784439 -0.5 7.20185865909151e-015
outer loop
vertex 7.01480577065406 4.05000000000007 7.99993777941818
vertex 5.72756492761115 5.72756492761084 4.58655908703673
vertex 7.01480577065356 4.0499999999998 4.58655908703674
endloop
endfacet
facet normal -0.70710678118655 -0.707106781186545 1.2480141664131e-014
outer loop
vertex 5.72756492761115 5.72756492761084 4.58655908703673
vertex 7.01480577065406 4.05000000000007 7.99993777941818
vertex 5.72756492761115 5.72756492761102 7.9999377794182
endloop
endfacet
facet normal -0.965925198269088 -0.258821388892891 -6.14458272607912e-007
outer loop
vertex 7.82399919294154 2.09643426533044 7.99993777941819
vertex 7.01480577065356 4.0499999999998 4.58655908703674
vertex 7.823999192941 2.09643426533035 4.58655908703673
endloop
endfacet
facet normal -0.866025403784438 -0.5 7.20185865909152e-015
outer loop
vertex 7.01480577065356 4.0499999999998 4.58655908703674
vertex 7.82399919294154 2.09643426533044 7.99993777941819
vertex 7.01480577065406 4.05000000000007 7.99993777941818
endloop
endfacet
facet normal 0.988471328592932 0.151408165399771 5.81710913139218e-013
outer loop
vertex 7.54228754569982 8.58402153949786 5.07285533024593e-013
vertex 6.52127622475142 15.2497149930636 7.99993777941902
vertex 7.54228754569278 8.58402153949245 7.99993777941727
endloop
endfacet
facet normal 0.988471328592932 0.151408165399771 5.81710913139218e-013
outer loop
vertex 6.52127622475142 15.2497149930636 7.99993777941902
vertex 7.54228754569982 8.58402153949786 5.07285533024593e-013
vertex 6.52127622475327 15.2497149930616 3.16369395958471e-012
endloop
endfacet
facet normal 0.608761429008723 0.793353340291233 1.06429403050751e-012
outer loop
vertex 7.54228754569278 8.58402153949245 7.99993777941727
vertex 8.13172798365238 8.13172798365071 1.42095467337011e-012
vertex 7.54228754569982 8.58402153949786 5.07285533024593e-013
endloop
endfacet
facet normal 0.707106781186519 0.707106781186576 1.09498253494262e-012
outer loop
vertex 8.13172798365238 8.13172798365071 1.42095467337011e-012
vertex 7.54228754569278 8.58402153949245 7.99993777941727
vertex 8.13172798364543 8.13172798364539 7.99993777941819
endloop
endfacet
facet normal 0.866025403784432 0.500000000000012 1.09994865954076e-012
outer loop
vertex 9.95929214352818 5.75000000000528 1.42659460633521e-012
vertex 8.13172798364543 8.13172798364539 7.99993777941819
vertex 9.9592921435211 5.75000000000005 7.99993777941819
endloop
endfacet
facet normal 0.707106781186576 0.707106781186519 1.09498253494263e-012
outer loop
vertex 8.13172798364543 8.13172798364539 7.99993777941819
vertex 9.95929214352818 5.75000000000528 1.42659460633521e-012
vertex 8.13172798365238 8.13172798365071 1.42095467337011e-012
endloop
endfacet
facet normal 0.965925826289253 0.258819045101831 1.02995510074201e-012
outer loop
vertex 11.1081470023313 2.97641901868447 1.42659460633521e-012
vertex 9.9592921435211 5.75000000000005 7.99993777941819
vertex 11.1081470023243 2.97641901867914 7.99993777941819
endloop
endfacet
facet normal 0.866025403784442 0.499999999999994 1.09994865954076e-012
outer loop
vertex 9.9592921435211 5.75000000000005 7.99993777941819
vertex 11.1081470023313 2.97641901868447 1.42659460633521e-012
vertex 9.95929214352818 5.75000000000528 1.42659460633521e-012
endloop
endfacet
facet normal 0.991444861373809 0.130526192220066 9.6814607621837e-013
outer loop
vertex 11.2051162109512 2.23986475350314 -1.19964458505928e-011
vertex 11.1081470023243 2.97641901867914 7.99993777941819
vertex 11.2051162109441 2.23986475349772 7.99993777940477
endloop
endfacet
facet normal 0.965925826288879 0.258819045103227 1.02995510074259e-012
outer loop
vertex 11.1081470023243 2.97641901867914 7.99993777941819
vertex 11.2051162109512 2.23986475350314 -1.19964458505928e-011
vertex 11.1081470023313 2.97641901868447 1.42659460633521e-012
endloop
endfacet
facet normal 0.625357267241859 0.780338572869363 4.83795007835247e-013
outer loop
vertex 11.2051162109512 2.23986475350314 -1.19964458505928e-011
vertex 11.5040938080366 2.00026643094871 3.99996888970761
vertex 14.0 9.02389274415327e-014 -8.2937857970311e-013
endloop
endfacet
facet normal 0.625357267241859 0.780338572869363 4.83795007835247e-013
outer loop
vertex 11.5040938080366 2.00026643094871 3.99996888970761
vertex 11.2051162109512 2.23986475350314 -1.19964458505928e-011
vertex 11.2051162109441 2.23986475349772 7.99993777940477
endloop
endfacet
facet normal 0.625357267241859 0.780338572869363 4.83795007835247e-013
outer loop
vertex 14.0 9.02389274415327e-014 -8.2937857970311e-013
vertex 11.5040938080366 2.00026643094871 3.99996888970761
vertex 14.0000000000001 0.000133215474718895 1.99998444485132
endloop
endfacet
facet normal 0.625357267241859 0.780338572869363 4.83795007835247e-013
outer loop
vertex 11.5040938080366 2.00026643094871 3.99996888970761
vertex 11.2051162109441 2.23986475349772 7.99993777940477
vertex 14.0000000000001 0.000133215473816506 5.99995333456241
endloop
endfacet
facet normal 0.625357267241859 0.780338572869363 4.83795007835247e-013
outer loop
vertex 14.0000000000001 0.000133215473816506 5.99995333456241
vertex 11.2051162109441 2.23986475349772 7.99993777940477
vertex 14.0000000000001 1.80477854883065e-013 7.99993777942017
endloop
endfacet
facet normal -0.707106781186499 0.707106781186596 3.9669501371147e-013
outer loop
vertex -8.13172798364796 8.13172798364728 3.66287208897198e-013
vertex -7.54228180599707 8.58402594371601 7.99993777941689
vertex -7.54228180599974 8.5840259437179 -9.36537306039931e-013
endloop
endfacet
facet normal -0.608761429008721 0.793353340291235 3.84135177890174e-013
outer loop
vertex -7.54228180599707 8.58402594371601 7.99993777941689
vertex -8.13172798364796 8.13172798364728 3.66287208897198e-013
vertex -8.13172798364529 8.13172798364539 7.9999377794182
endloop
endfacet
facet normal -0.98847152352437 0.151406892780383 3.04555193176596e-013
outer loop
vertex -6.52128069614049 15.2497100750473 7.99993777941657
vertex -7.54228180599974 8.5840259437179 -9.36537306039931e-013
vertex -7.54228180599707 8.58402594371601 7.99993777941689
endloop
endfacet
facet normal -0.98847152352437 0.151406892780383 3.04555193176596e-013
outer loop
vertex -7.54228180599974 8.5840259437179 -9.36537306039931e-013
vertex -6.52128069614049 15.2497100750473 7.99993777941657
vertex -6.52128069614207 15.2497100750501 1.4378744722654e-012
endloop
endfacet
facet normal -0.965925826289045 0.258819045102607 3.78659896852133e-013
outer loop
vertex -11.1081470023243 2.97641901867914 7.99993777941819
vertex -11.2051244926823 2.23980184747279 -1.34261247952683e-012
vertex -11.2051244926796 2.23980184747108 7.99993777941649
endloop
endfacet
facet normal -0.99144486137381 0.130526192220058 3.57468900607105e-013
outer loop
vertex -11.2051244926823 2.23980184747279 -1.34261247952683e-012
vertex -11.1081470023243 2.97641901867914 7.99993777941819
vertex -11.1081470023269 2.97641901868086 3.60647275932102e-013
endloop
endfacet
facet normal -0.866025403784439 0.5 4.0135323513524e-013
outer loop
vertex -9.95929214352105 5.75000000000005 7.99993777941819
vertex -11.1081470023269 2.97641901868086 3.60647275932102e-013
vertex -11.1081470023243 2.97641901867914 7.99993777941819
endloop
endfacet
facet normal -0.96592582628909 0.258819045102442 3.78659896852109e-013
outer loop
vertex -11.1081470023269 2.97641901868086 3.60647275932102e-013
vertex -9.95929214352105 5.75000000000005 7.99993777941819
vertex -9.95929214352367 5.75000000000185 3.60647275932102e-013
endloop
endfacet
facet normal -0.707106781186595 0.7071067811865 3.9669501371148e-013
outer loop
vertex -8.13172798364529 8.13172798364539 7.9999377794182
vertex -9.95929214352367 5.75000000000185 3.60647275932102e-013
vertex -9.95929214352105 5.75000000000005 7.99993777941819
endloop
endfacet
facet normal -0.866025403784437 0.500000000000004 4.0135323513524e-013
outer loop
vertex -9.95929214352367 5.75000000000185 3.60647275932102e-013
vertex -8.13172798364529 8.13172798364539 7.9999377794182
vertex -8.13172798364796 8.13172798364728 3.66287208897198e-013
endloop
endfacet
facet normal 1.79831382882598e-015 -0.99999999778167 6.66082552777017e-005
outer loop
vertex -6.35437655448901 0.0 4.33966404478348e-013
vertex -14.0000000000003 0.000133215474809134 1.99998444485132
vertex -13.9999999999999 -9.02389274415327e-014 -9.87296702725793e-013
endloop
endfacet
facet normal 1.79831382882598e-015 -0.99999999778167 6.66082552777017e-005
outer loop
vertex -14.0000000000003 0.000133215474809134 1.99998444485132
vertex -6.35437655448901 0.0 4.33966404478348e-013
vertex -6.35437655448937 0.000133215474718895 1.99998444485132
endloop
endfacet
facet normal -2.55598766729712e-016 -0.99999999778167 6.66082552760237e-005
outer loop
vertex 14.0 9.02389274415327e-014 -8.2937857970311e-013
vertex 6.3543765544891 0.000133215474628656 1.99998444485132
vertex 6.35437655448919 0.0 -9.76016836795601e-013
endloop
endfacet
facet normal -2.55598766729712e-016 -0.99999999778167 6.66082552760237e-005
outer loop
vertex 6.3543765544891 0.000133215474628656 1.99998444485132
vertex 14.0 9.02389274415327e-014 -8.2937857970311e-013
vertex 14.0000000000001 0.000133215474718895 1.99998444485132
endloop
endfacet
facet normal -2.83475777985491e-016 -0.70708048229294 0.707133079102077
outer loop
vertex 6.13785642394666 1.64463367205459 3.6443625829043
vertex 11.5040938080366 2.00026643094871 3.99996888970761
vertex 5.99054851198889 2.00026643094862 3.9999688897076
endloop
endfacet
facet normal -2.83475777985491e-016 -0.70708048229294 0.707133079102077
outer loop
vertex 11.5040938080366 2.00026643094871 3.99996888970761
vertex 6.13785642394666 1.64463367205459 3.6443625829043
vertex 6.3543765544891 0.000133215474628656 1.99998444485132
endloop
endfacet
facet normal -2.83475777985491e-016 -0.70708048229294 0.707133079102077
outer loop
vertex 11.5040938080366 2.00026643094871 3.99996888970761
vertex 6.3543765544891 0.000133215474628656 1.99998444485132
vertex 14.0000000000001 0.000133215474718895 1.99998444485132
endloop
endfacet
facet normal -0.625347700518451 0.780346239470843 1.86633840800684e-013
outer loop
vertex -11.2051244926823 2.23980184747279 -1.34261247952683e-012
vertex -11.5040311031137 2.00026643094862 3.99996888970761
vertex -11.2051244926796 2.23980184747108 7.99993777941649
endloop
endfacet
facet normal -0.625347700518451 0.780346239470843 1.86633840800684e-013
outer loop
vertex -11.5040311031137 2.00026643094862 3.99996888970761
vertex -11.2051244926823 2.23980184747279 -1.34261247952683e-012
vertex -13.9999999999999 -9.02389274415327e-014 -9.87296702725793e-013
endloop
endfacet
facet normal -0.625347700518451 0.780346239470843 1.86633840800684e-013
outer loop
vertex -11.5040311031137 2.00026643094862 3.99996888970761
vertex -13.9999999999999 -9.02389274415327e-014 -9.87296702725793e-013
vertex -14.0000000000003 0.000133215474809134 1.99998444485132
endloop
endfacet
facet normal -0.625347700518451 0.780346239470843 1.86633840800684e-013
outer loop
vertex -11.2051244926796 2.23980184747108 7.99993777941649
vertex -11.5040311031137 2.00026643094862 3.99996888970761
vertex -14.0000000000001 0.000133215473636028 5.99995333456241
endloop
endfacet
facet normal -0.625347700518451 0.780346239470843 1.86633840800684e-013
outer loop
vertex -11.2051244926796 2.23980184747108 7.99993777941649
vertex -14.0000000000001 0.000133215473636028 5.99995333456241
vertex -14.0000000000001 0.0 7.99993777941646
endloop
endfacet
facet normal 0.947195944132799 -0.320655334305194 -8.00755495767471e-015
outer loop
vertex -6.13785642394702 1.64463367205477 4.35557519651042
vertex -6.15689780810843 1.49999999999966 4.58655908703646
vertex -6.16826829208295 1.41363259958627 4.58655908703656
endloop
endfacet
facet normal 0.991444861373822 -0.130526192219962 2.89901626164786e-014
outer loop
vertex -6.15689780810843 1.49999999999966 4.58655908703646
vertex -6.13785642394702 1.64463367205477 4.35557519651042
vertex -6.13785642394724 1.64463367205459 4.58655908703679
endloop
endfacet
facet normal -2.82514869064819e-015 -0.707080482292503 -0.707133079102513
outer loop
vertex -11.5040311031137 2.00026643094862 3.99996888970761
vertex -8.10000000000001 0.000133215473816506 5.99995333456241
vertex -14.0000000000001 0.000133215473636028 5.99995333456241
endloop
endfacet
facet normal -2.82514869064819e-015 -0.707080482292503 -0.707133079102513
outer loop
vertex -8.10000000000001 0.000133215473816506 5.99995333456241
vertex -11.5040311031137 2.00026643094862 3.99996888970761
vertex -7.91389173759386 1.41363259958618 4.58655908703673
endloop
endfacet
facet normal -2.82514869064819e-015 -0.707080482292503 -0.707133079102513
outer loop
vertex -7.91389173759386 1.41363259958618 4.58655908703673
vertex -11.5040311031137 2.00026643094862 3.99996888970761
vertex -5.99054851198744 2.0002664309488 3.99996888970761
endloop
endfacet
facet normal -2.82514869064819e-015 -0.707080482292503 -0.707133079102513
outer loop
vertex -7.91389173759386 1.41363259958618 4.58655908703673
vertex -5.99054851198744 2.0002664309488 3.99996888970761
vertex -6.13785642394702 1.64463367205477 4.35557519651042
endloop
endfacet
facet normal -2.82514869064819e-015 -0.707080482292503 -0.707133079102513
outer loop
vertex -7.91389173759386 1.41363259958618 4.58655908703673
vertex -6.13785642394702 1.64463367205477 4.35557519651042
vertex -6.16826829208295 1.41363259958627 4.58655908703656
endloop
endfacet
facet normal -7.27564987836059e-016 -0.707080482292939 0.707133079102078
outer loop
vertex -6.35437655448937 0.000133215474718895 1.99998444485132
vertex -11.5040311031137 2.00026643094862 3.99996888970761
vertex -14.0000000000003 0.000133215474809134 1.99998444485132
endloop
endfacet
facet normal -7.27564987836059e-016 -0.707080482292939 0.707133079102078
outer loop
vertex -11.5040311031137 2.00026643094862 3.99996888970761
vertex -6.35437655448937 0.000133215474718895 1.99998444485132
vertex -6.13785642394693 1.6446336720545 3.64436258290433
endloop
endfacet
facet normal -7.27564987836059e-016 -0.707080482292939 0.707133079102078
outer loop
vertex -11.5040311031137 2.00026643094862 3.99996888970761
vertex -6.13785642394693 1.6446336720545 3.64436258290433
vertex -5.99054851198744 2.0002664309488 3.99996888970761
endloop
endfacet
facet normal -0.965925198269088 -0.258821388892891 -6.14458272607912e-007
outer loop
vertex 7.82399919294154 2.09643426533044 7.99993777941819
vertex 8.09999999999987 0.000133215473906745 5.99995333456241
vertex 8.1000000000001 2.70716782324598e-013 7.99993777941819
endloop
endfacet
facet normal -0.99144422792526 -0.130531003643579 -1.21840338738002e-006
outer loop
vertex 8.09999999999987 0.000133215473906745 5.99995333456241
vertex 7.82399919294154 2.09643426533044 7.99993777941819
vertex 7.91389173759314 1.41363259958637 4.58655908703673
endloop
endfacet
facet normal -0.99144422792526 -0.130531003643579 -1.21840338738002e-006
outer loop
vertex 7.91389173759314 1.41363259958637 4.58655908703673
vertex 7.82399919294154 2.09643426533044 7.99993777941819
vertex 7.823999192941 2.09643426533035 4.58655908703673
endloop
endfacet
facet normal 2.72022084693583e-014 -3.00169056899071e-014 1.0
outer loop
vertex -6.16826829208295 1.41363259958627 4.58655908703656
vertex -7.8239991929419 2.09643426533026 4.58655908703674
vertex -7.91389173759386 1.41363259958618 4.58655908703673
endloop
endfacet
facet normal 2.72022084693583e-014 -3.00169056899071e-014 1.0
outer loop
vertex -7.8239991929419 2.09643426533026 4.58655908703674
vertex -6.16826829208295 1.41363259958627 4.58655908703656
vertex -7.01480577065429 4.04999999999971 4.58655908703673
endloop
endfacet
facet normal 2.72022084693583e-014 -3.00169056899071e-014 1.0
outer loop
vertex -7.01480577065429 4.04999999999971 4.58655908703673
vertex -6.16826829208295 1.41363259958627 4.58655908703656
vertex -5.72756492761097 5.72756492761093 4.58655908703673
endloop
endfacet
facet normal 2.72022084693583e-014 -3.00169056899071e-014 1.0
outer loop
vertex -5.72756492761097 5.72756492761093 4.58655908703673
vertex -6.16826829208295 1.41363259958627 4.58655908703656
vertex -6.15689780810843 1.49999999999966 4.58655908703646
endloop
endfacet
facet normal 2.72022084693583e-014 -3.00169056899071e-014 1.0
outer loop
vertex -5.72756492761097 5.72756492761093 4.58655908703673
vertex -6.15689780810843 1.49999999999966 4.58655908703646
vertex -6.13785642394724 1.64463367205459 4.58655908703679
endloop
endfacet
facet normal 2.72022084693583e-014 -3.00169056899071e-014 1.0
outer loop
vertex -5.72756492761097 5.72756492761093 4.58655908703673
vertex -6.13785642394724 1.64463367205459 4.58655908703679
vertex -5.50305152140015 3.17718827724446 4.58655908703703
endloop
endfacet
facet normal 2.72022084693583e-014 -3.00169056899071e-014 1.0
outer loop
vertex -5.72756492761097 5.72756492761093 4.58655908703673
vertex -5.50305152140015 3.17718827724446 4.58655908703703
vertex -4.04999999999998 7.01480577065383 4.58655908703674
endloop
endfacet
facet normal 2.72022084693583e-014 -3.00169056899071e-014 1.0
outer loop
vertex -4.04999999999998 7.01480577065383 4.58655908703674
vertex -5.50305152140015 3.17718827724446 4.58655908703703
vertex -4.49322275189247 4.49322275189175 4.58655908703682
endloop
endfacet
facet normal 2.72022084693583e-014 -3.00169056899071e-014 1.0
outer loop
vertex -4.04999999999998 7.01480577065383 4.58655908703674
vertex -4.49322275189247 4.49322275189175 4.58655908703682
vertex -3.17718827724446 5.50305152139961 4.58655908703692
endloop
endfacet
facet normal 2.72022084693583e-014 -3.00169056899071e-014 1.0
outer loop
vertex -4.04999999999998 7.01480577065383 4.58655908703674
vertex -3.17718827724446 5.50305152139961 4.58655908703692
vertex -2.09643426533035 7.82399919294136 4.58655908703673
endloop
endfacet
facet normal 2.72022084693583e-014 -3.00169056899071e-014 1.0
outer loop
vertex -2.09643426533035 7.82399919294136 4.58655908703673
vertex -3.17718827724446 5.50305152139961 4.58655908703692
vertex -1.64463367205459 6.13785642394652 4.58655908703682
endloop
endfacet
facet normal 2.72022084693583e-014 -3.00169056899071e-014 1.0
outer loop
vertex -2.09643426533035 7.82399919294136 4.58655908703673
vertex -1.64463367205459 6.13785642394652 4.58655908703682
vertex 1.80477854883065e-013 8.09999999999969 4.58655908703674
endloop
endfacet
facet normal 2.72022084693583e-014 -3.00169056899071e-014 1.0
outer loop
vertex 1.80477854883065e-013 8.09999999999969 4.58655908703674
vertex -1.64463367205459 6.13785642394652 4.58655908703682
vertex 0.0 6.35437655448892 4.58655908703673
endloop
endfacet
facet normal 2.72022084693583e-014 -3.00169056899071e-014 1.0
outer loop
vertex 1.80477854883065e-013 8.09999999999969 4.58655908703674
vertex 0.0 6.35437655448892 4.58655908703673
vertex 1.64463367205481 6.13785642394643 4.58655908703693
endloop
endfacet
facet normal 2.72022084693583e-014 -3.00169056899071e-014 1.0
outer loop
vertex 1.80477854883065e-013 8.09999999999969 4.58655908703674
vertex 1.64463367205481 6.13785642394643 4.58655908703693
vertex 2.09643426533062 7.82399919294127 4.58655908703673
endloop
endfacet
facet normal 2.72022084693583e-014 -3.00169056899071e-014 1.0
outer loop
vertex 2.09643426533062 7.82399919294127 4.58655908703673
vertex 1.64463367205481 6.13785642394643 4.58655908703693
vertex 3.17718827724473 5.50305152139943 4.58655908703565
endloop
endfacet
facet normal 2.72022084693583e-014 -3.00169056899071e-014 1.0
outer loop
vertex 2.09643426533062 7.82399919294127 4.58655908703673
vertex 3.17718827724473 5.50305152139943 4.58655908703565
vertex 4.05000000000016 7.01480577065365 4.58655908703673
endloop
endfacet
facet normal 2.72022084693583e-014 -3.00169056899071e-014 1.0
outer loop
vertex 4.05000000000016 7.01480577065365 4.58655908703673
vertex 3.17718827724473 5.50305152139943 4.58655908703565
vertex 4.4932227518922 4.49322275189193 4.58655908703574
endloop
endfacet
facet normal 2.72022084693583e-014 -3.00169056899071e-014 1.0
outer loop
vertex 4.05000000000016 7.01480577065365 4.58655908703673
vertex 4.4932227518922 4.49322275189193 4.58655908703574
vertex 5.72756492761115 5.72756492761084 4.58655908703673
endloop
endfacet
facet normal 2.72022084693583e-014 -3.00169056899071e-014 1.0
outer loop
vertex 5.72756492761115 5.72756492761084 4.58655908703673
vertex 4.4932227518922 4.49322275189193 4.58655908703574
vertex 5.50305152139943 3.17718827724428 4.58655908703564
endloop
endfacet
facet normal 2.72022084693583e-014 -3.00169056899071e-014 1.0
outer loop
vertex 5.72756492761115 5.72756492761084 4.58655908703673
vertex 5.50305152139943 3.17718827724428 4.58655908703564
vertex 6.13785642394643 1.64463367205441 4.58655908703594
endloop
endfacet
facet normal 2.72022084693583e-014 -3.00169056899071e-014 1.0
outer loop
vertex 5.72756492761115 5.72756492761084 4.58655908703673
vertex 6.13785642394643 1.64463367205441 4.58655908703594
vertex 7.01480577065356 4.0499999999998 4.58655908703674
endloop
endfacet
facet normal 2.72022084693583e-014 -3.00169056899071e-014 1.0
outer loop
vertex 7.01480577065356 4.0499999999998 4.58655908703674
vertex 6.13785642394643 1.64463367205441 4.58655908703594
vertex 6.15689780810771 1.49999999999966 4.58655908703637
endloop
endfacet
facet normal 2.72022084693583e-014 -3.00169056899071e-014 1.0
outer loop
vertex 7.01480577065356 4.0499999999998 4.58655908703674
vertex 6.15689780810771 1.49999999999966 4.58655908703637
vertex 6.16826829208227 1.41363259958637 4.58655908703661
endloop
endfacet
facet normal 2.72022084693583e-014 -3.00169056899071e-014 1.0
outer loop
vertex 7.01480577065356 4.0499999999998 4.58655908703674
vertex 6.16826829208227 1.41363259958637 4.58655908703661
vertex 7.91389173759314 1.41363259958637 4.58655908703673
endloop
endfacet
facet normal 2.72022084693583e-014 -3.00169056899071e-014 1.0
outer loop
vertex 7.01480577065356 4.0499999999998 4.58655908703674
vertex 7.91389173759314 1.41363259958637 4.58655908703673
vertex 7.823999192941 2.09643426533035 4.58655908703673
endloop
endfacet
facet normal -0.99144486137379 -0.130526192220208 -1.79019447695256e-015
outer loop
vertex 6.15689780810771 1.49999999999966 4.58655908703637
vertex 6.13785642394666 1.64463367205459 4.35557519651047
vertex 6.16826829208227 1.41363259958637 4.58655908703661
endloop
endfacet
facet normal -0.947195944132769 -0.320655334305282 2.20811139057752e-014
outer loop
vertex 6.13785642394666 1.64463367205459 4.35557519651047
vertex 6.15689780810771 1.49999999999966 4.58655908703637
vertex 6.13785642394643 1.64463367205441 4.58655908703594
endloop
endfacet
facet normal 6.0566355063369e-015 -0.707080482292535 -0.707133079102481
outer loop
vertex 11.5040938080366 2.00026643094871 3.99996888970761
vertex 6.13785642394666 1.64463367205459 4.35557519651047
vertex 5.99054851198889 2.00026643094862 3.9999688897076
endloop
endfacet
facet normal 6.0566355063369e-015 -0.707080482292535 -0.707133079102481
outer loop
vertex 6.13785642394666 1.64463367205459 4.35557519651047
vertex 11.5040938080366 2.00026643094871 3.99996888970761
vertex 6.16826829208227 1.41363259958637 4.58655908703661
endloop
endfacet
facet normal 6.0566355063369e-015 -0.707080482292535 -0.707133079102481
outer loop
vertex 6.16826829208227 1.41363259958637 4.58655908703661
vertex 11.5040938080366 2.00026643094871 3.99996888970761
vertex 7.91389173759314 1.41363259958637 4.58655908703673
endloop
endfacet
facet normal 6.0566355063369e-015 -0.707080482292535 -0.707133079102481
outer loop
vertex 7.91389173759314 1.41363259958637 4.58655908703673
vertex 11.5040938080366 2.00026643094871 3.99996888970761
vertex 8.09999999999987 0.000133215473906745 5.99995333456241
endloop
endfacet
facet normal 6.0566355063369e-015 -0.707080482292535 -0.707133079102481
outer loop
vertex 8.09999999999987 0.000133215473906745 5.99995333456241
vertex 11.5040938080366 2.00026643094871 3.99996888970761
vertex 14.0000000000001 0.000133215473816506 5.99995333456241
endloop
endfacet
facet normal -0.991444047072152 -0.130532377290628 2.01238740683967e-006
outer loop
vertex 6.3543765544891 0.000133215474628656 1.99998444485132
vertex 6.13785642394679 1.64463367205477 -7.72979250052153e-013
vertex 6.35437655448919 0.0 -9.76016836795601e-013
endloop
endfacet
facet normal -0.965925018969894 -0.258822058037913 1.01487570761299e-006
outer loop
vertex 6.13785642394679 1.64463367205477 -7.72979250052153e-013
vertex 6.3543765544891 0.000133215474628656 1.99998444485132
vertex 6.13785642394666 1.64463367205459 3.6443625829043
endloop
endfacet
facet normal 9.77320212341766e-015 1.25826177999906e-014 1.0
outer loop
vertex -8.09999999999992 1.80477854883065e-013 7.99993777941818
vertex -11.2051244926796 2.23980184747108 7.99993777941649
vertex -14.0000000000001 0.0 7.99993777941646
endloop
endfacet
facet normal 9.77320212341766e-015 1.25826177999906e-014 1.0
outer loop
vertex -11.2051244926796 2.23980184747108 7.99993777941649
vertex -8.09999999999992 1.80477854883065e-013 7.99993777941818
vertex -11.1081470023243 2.97641901867914 7.99993777941819
endloop
endfacet
facet normal 9.77320212341766e-015 1.25826177999906e-014 1.0
outer loop
vertex -11.1081470023243 2.97641901867914 7.99993777941819
vertex -8.09999999999992 1.80477854883065e-013 7.99993777941818
vertex -9.95929214352105 5.75000000000005 7.99993777941819
endloop
endfacet
facet normal 9.77320212341766e-015 1.25826177999906e-014 1.0
outer loop
vertex -9.95929214352105 5.75000000000005 7.99993777941819
vertex -8.09999999999992 1.80477854883065e-013 7.99993777941818
vertex -8.13172798364529 8.13172798364539 7.9999377794182
endloop
endfacet
facet normal 9.77320212341766e-015 1.25826177999906e-014 1.0
outer loop
vertex -8.13172798364529 8.13172798364539 7.9999377794182
vertex -8.09999999999992 1.80477854883065e-013 7.99993777941818
vertex -7.54228180599707 8.58402594371601 7.99993777941689
endloop
endfacet
facet normal 9.77320212341766e-015 1.25826177999906e-014 1.0
outer loop
vertex -7.54228180599707 8.58402594371601 7.99993777941689
vertex -8.09999999999992 1.80477854883065e-013 7.99993777941818
vertex -7.82399919294141 2.09643426533044 7.99993777941818
endloop
endfacet
facet normal 9.77320212341766e-015 1.25826177999906e-014 1.0
outer loop
vertex -7.54228180599707 8.58402594371601 7.99993777941689
vertex -7.82399919294141 2.09643426533044 7.99993777941818
vertex -7.01480577065383 4.05000000000007 7.99993777941819
endloop
endfacet
facet normal 9.77320212341766e-015 1.25826177999906e-014 1.0
outer loop
vertex -7.54228180599707 8.58402594371601 7.99993777941689
vertex -7.01480577065383 4.05000000000007 7.99993777941819
vertex -6.52128069614049 15.2497100750473 7.99993777941657
endloop
endfacet
facet normal 9.77320212341766e-015 1.25826177999906e-014 1.0
outer loop
vertex -6.52128069614049 15.2497100750473 7.99993777941657
vertex -7.01480577065383 4.05000000000007 7.99993777941819
vertex -5.72756492761093 5.72756492761111 7.99993777941818
endloop
endfacet
facet normal 9.77320212341766e-015 1.25826177999906e-014 1.0
outer loop
vertex -6.52128069614049 15.2497100750473 7.99993777941657
vertex -5.72756492761093 5.72756492761111 7.99993777941818
vertex -6.29907462791755 16.2202071763091 7.99993777941632
endloop
endfacet
facet normal 9.77320212341766e-015 1.25826177999906e-014 1.0
outer loop
vertex -6.29907462791755 16.2202071763091 7.99993777941632
vertex -5.72756492761093 5.72756492761111 7.99993777941818
vertex -5.64759718587363 17.1245666715196 7.99993777941616
endloop
endfacet
facet normal 9.77320212341766e-015 1.25826177999906e-014 1.0
outer loop
vertex -5.64759718587363 17.1245666715196 7.99993777941616
vertex -5.72756492761093 5.72756492761111 7.99993777941818
vertex -4.04999999999985 7.01480577065402 7.99993777941818
endloop
endfacet
facet normal 9.77320212341766e-015 1.25826177999906e-014 1.0
outer loop
vertex -5.64759718587363 17.1245666715196 7.99993777941616
vertex -4.04999999999985 7.01480577065402 7.99993777941818
vertex -4.61124548106746 17.9011579556048 7.99993777941612
endloop
endfacet
facet normal 9.77320212341766e-015 1.25826177999906e-014 1.0
outer loop
vertex -4.61124548106746 17.9011579556048 7.99993777941612
vertex -4.04999999999985 7.01480577065402 7.99993777941818
vertex -3.26064516952829 18.4970576159321 7.99993777941619
endloop
endfacet
facet normal 9.77320212341766e-015 1.25826177999906e-014 1.0
outer loop
vertex -3.26064516952829 18.4970576159321 7.99993777941619
vertex -4.04999999999985 7.01480577065402 7.99993777941818
vertex -2.0964342653303 7.82399919294154 7.99993777941819
endloop
endfacet
facet normal 9.77320212341766e-015 1.25826177999906e-014 1.0
outer loop
vertex -3.26064516952829 18.4970576159321 7.99993777941619
vertex -2.0964342653303 7.82399919294154 7.99993777941819
vertex -1.6878374305162 18.8716560754212 7.99993777941638
endloop
endfacet
facet normal 9.77320212341766e-015 1.25826177999906e-014 1.0
outer loop
vertex -1.6878374305162 18.8716560754212 7.99993777941638
vertex -2.0964342653303 7.82399919294154 7.99993777941819
vertex -1.60000245900806 15.2497125340556 7.99993777941727
endloop
endfacet
facet normal 9.77320212341766e-015 1.25826177999906e-014 1.0
outer loop
vertex -1.60000245900806 15.2497125340556 7.99993777941727
vertex -2.0964342653303 7.82399919294154 7.99993777941819
vertex -1.54548378107054 14.8356020618912 7.99993777941742
endloop
endfacet
facet normal 9.77320212341766e-015 1.25826177999906e-014 1.0
outer loop
vertex -1.54548378107054 14.8356020618912 7.99993777941742
vertex -2.0964342653303 7.82399919294154 7.99993777941819
vertex 9.02389274415327e-014 8.10000000000005 7.99993777941819
endloop
endfacet
facet normal 9.77320212341766e-015 1.25826177999906e-014 1.0
outer loop
vertex -1.54548378107054 14.8356020618912 7.99993777941742
vertex 9.02389274415327e-014 8.10000000000005 7.99993777941819
vertex -1.38564310506315 14.4497125340553 7.99993777941758
endloop
endfacet
facet normal 9.77320212341766e-015 1.25826177999906e-014 1.0
outer loop
vertex -1.38564310506315 14.4497125340553 7.99993777941758
vertex 9.02389274415327e-014 8.10000000000005 7.99993777941819
vertex -1.13137330890654 14.1183416841571 7.99993777941777
endloop
endfacet
facet normal 9.77320212341766e-015 1.25826177999906e-014 1.0
outer loop
vertex -1.13137330890654 14.1183416841571 7.99993777941777
vertex 9.02389274415327e-014 8.10000000000005 7.99993777941819
vertex -0.800002459008109 13.8640718880003 7.99993777941796
endloop
endfacet
facet normal 9.77320212341766e-015 1.25826177999906e-014 1.0
outer loop
vertex -0.800002459008109 13.8640718880003 7.99993777941796
vertex 9.02389274415327e-014 8.10000000000005 7.99993777941819
vertex -0.41411293117212 13.7042312119928 7.99993777941813
endloop
endfacet
facet normal 9.77320212341766e-015 1.25826177999906e-014 1.0
outer loop
vertex -0.41411293117212 13.7042312119928 7.99993777941813
vertex 9.02389274415327e-014 8.10000000000005 7.99993777941819
vertex -2.45900806561394e-006 13.6497125340554 7.9999377794183
endloop
endfacet
facet normal 9.77320212341766e-015 1.25826177999906e-014 1.0
outer loop
vertex -2.45900806561394e-006 13.6497125340554 7.9999377794183
vertex 9.02389274415327e-014 8.10000000000005 7.99993777941819
vertex 0.414108013155989 13.7042312119927 7.9999377794184
endloop
endfacet
facet normal 9.77320212341766e-015 1.25826177999906e-014 1.0
outer loop
vertex 0.414108013155989 13.7042312119927 7.9999377794184
vertex 9.02389274415327e-014 8.10000000000005 7.99993777941819
vertex 2.09643426533044 7.82399919294163 7.99993777941819
endloop
endfacet
facet normal 9.77320212341766e-015 1.25826177999906e-014 1.0
outer loop
vertex 0.414108013155989 13.7042312119927 7.9999377794184
vertex 2.09643426533044 7.82399919294163 7.99993777941819
vertex 0.799997540991888 13.8640718880006 7.99993777941849
endloop
endfacet
facet normal 9.77320212341766e-015 1.25826177999906e-014 1.0
outer loop
vertex 0.799997540991888 13.8640718880006 7.99993777941849
vertex 2.09643426533044 7.82399919294163 7.99993777941819
vertex 1.13136839089036 14.118341684157 7.99993777941852
endloop
endfacet
facet normal 9.77320212341766e-015 1.25826177999906e-014 1.0
outer loop
vertex 1.13136839089036 14.118341684157 7.99993777941852
vertex 2.09643426533044 7.82399919294163 7.99993777941819
vertex 1.38563818704711 14.4497125340553 7.9999377794185
endloop
endfacet
facet normal 9.77320212341766e-015 1.25826177999906e-014 1.0
outer loop
vertex 1.38563818704711 14.4497125340553 7.9999377794185
vertex 2.09643426533044 7.82399919294163 7.99993777941819
vertex 1.5454788630545 14.8356020618912 7.99993777941843
endloop
endfacet
facet normal 9.77320212341766e-015 1.25826177999906e-014 1.0
outer loop
vertex 1.5454788630545 14.8356020618912 7.99993777941843
vertex 2.09643426533044 7.82399919294163 7.99993777941819
vertex 1.59999754099202 15.2497125340552 7.99993777941832
endloop
endfacet
facet normal 9.77320212341766e-015 1.25826177999906e-014 1.0
outer loop
vertex 1.59999754099202 15.2497125340552 7.99993777941832
vertex 2.09643426533044 7.82399919294163 7.99993777941819
vertex 1.68782469744439 18.8716573482973 7.99993777941701
endloop
endfacet
facet normal 9.77320212341766e-015 1.25826177999906e-014 1.0
outer loop
vertex 1.68782469744439 18.8716573482973 7.99993777941701
vertex 2.09643426533044 7.82399919294163 7.99993777941819
vertex 3.26063329091742 18.4970600749402 7.99993777941743
endloop
endfacet
facet normal 9.77320212341766e-015 1.25826177999906e-014 1.0
outer loop
vertex 3.26063329091742 18.4970600749402 7.99993777941743
vertex 2.09643426533044 7.82399919294163 7.99993777941819
vertex 4.05000000000012 7.0148057706542 7.99993777941819
endloop
endfacet
facet normal 9.77320212341766e-015 1.25826177999906e-014 1.0
outer loop
vertex 3.26063329091742 18.4970600749402 7.99993777941743
vertex 4.05000000000012 7.0148057706542 7.99993777941819
vertex 4.61123496170665 17.9011614331674 7.99993777941786
endloop
endfacet
facet normal 9.77320212341766e-015 1.25826177999906e-014 1.0
outer loop
vertex 4.61123496170665 17.9011614331674 7.99993777941786
vertex 4.05000000000012 7.0148057706542 7.99993777941819
vertex 5.72756492761115 5.72756492761102 7.9999377794182
endloop
endfacet
facet normal 9.77320212341766e-015 1.25826177999906e-014 1.0
outer loop
vertex 4.61123496170665 17.9011614331674 7.99993777941786
vertex 5.72756492761115 5.72756492761102 7.9999377794182
vertex 5.64758843792331 17.1245709306463 7.99993777941829
endloop
endfacet
facet normal 9.77320212341766e-015 1.25826177999906e-014 1.0
outer loop
vertex 5.64758843792331 17.1245709306463 7.99993777941829
vertex 5.72756492761115 5.72756492761102 7.9999377794182
vertex 6.29906794281761 16.2202119267477 7.99993777941869
endloop
endfacet
facet normal 9.77320212341766e-015 1.25826177999906e-014 1.0
outer loop
vertex 6.29906794281761 16.2202119267477 7.99993777941869
vertex 5.72756492761115 5.72756492761102 7.9999377794182
vertex 7.01480577065406 4.05000000000007 7.99993777941818
endloop
endfacet
facet normal 9.77320212341766e-015 1.25826177999906e-014 1.0
outer loop
vertex 6.29906794281761 16.2202119267477 7.99993777941869
vertex 7.01480577065406 4.05000000000007 7.99993777941818
vertex 6.52127622475142 15.2497149930636 7.99993777941902
endloop
endfacet
facet normal 9.77320212341766e-015 1.25826177999906e-014 1.0
outer loop
vertex 6.52127622475142 15.2497149930636 7.99993777941902
vertex 7.01480577065406 4.05000000000007 7.99993777941818
vertex 7.54228754569278 8.58402153949245 7.99993777941727
endloop
endfacet
facet normal 9.77320212341766e-015 1.25826177999906e-014 1.0
outer loop
vertex 7.54228754569278 8.58402153949245 7.99993777941727
vertex 7.01480577065406 4.05000000000007 7.99993777941818
vertex 7.82399919294154 2.09643426533044 7.99993777941819
endloop
endfacet
facet normal 9.77320212341766e-015 1.25826177999906e-014 1.0
outer loop
vertex 7.54228754569278 8.58402153949245 7.99993777941727
vertex 7.82399919294154 2.09643426533044 7.99993777941819
vertex 8.13172798364543 8.13172798364539 7.99993777941819
endloop
endfacet
facet normal 9.77320212341766e-015 1.25826177999906e-014 1.0
outer loop
vertex 8.13172798364543 8.13172798364539 7.99993777941819
vertex 7.82399919294154 2.09643426533044 7.99993777941819
vertex 8.1000000000001 2.70716782324598e-013 7.99993777941819
endloop
endfacet
facet normal 9.77320212341766e-015 1.25826177999906e-014 1.0
outer loop
vertex 8.13172798364543 8.13172798364539 7.99993777941819
vertex 8.1000000000001 2.70716782324598e-013 7.99993777941819
vertex 11.2051162109441 2.23986475349772 7.99993777940477
endloop
endfacet
facet normal 9.77320212341766e-015 1.25826177999906e-014 1.0
outer loop
vertex 11.2051162109441 2.23986475349772 7.99993777940477
vertex 8.1000000000001 2.70716782324598e-013 7.99993777941819
vertex 14.0000000000001 1.80477854883065e-013 7.99993777942017
endloop
endfacet
facet normal 9.77320212341766e-015 1.25826177999906e-014 1.0
outer loop
vertex 8.13172798364543 8.13172798364539 7.99993777941819
vertex 11.2051162109441 2.23986475349772 7.99993777940477
vertex 9.9592921435211 5.75000000000005 7.99993777941819
endloop
endfacet
facet normal 9.77320212341766e-015 1.25826177999906e-014 1.0
outer loop
vertex 9.9592921435211 5.75000000000005 7.99993777941819
vertex 11.2051162109441 2.23986475349772 7.99993777940477
vertex 11.1081470023243 2.97641901867914 7.99993777941819
endloop
endfacet
facet normal 9.77320212341766e-015 1.25826177999906e-014 1.0
outer loop
vertex -1.6878374305162 18.8716560754212 7.99993777941638
vertex -1.38564310506306 16.0497125340554 7.99993777941711
vertex -6.51225611782991e-006 18.999425068111 7.99993777941665
endloop
endfacet
facet normal 9.77320212341766e-015 1.25826177999906e-014 1.0
outer loop
vertex -1.38564310506306 16.0497125340554 7.99993777941711
vertex -1.6878374305162 18.8716560754212 7.99993777941638
vertex -1.54548378107054 15.6638230062195 7.99993777941717
endloop
endfacet
facet normal 9.77320212341766e-015 1.25826177999906e-014 1.0
outer loop
vertex -1.54548378107054 15.6638230062195 7.99993777941717
vertex -1.6878374305162 18.8716560754212 7.99993777941638
vertex -1.60000245900806 15.2497125340556 7.99993777941727
endloop
endfacet
facet normal 9.77320212341766e-015 1.25826177999906e-014 1.0
outer loop
vertex -6.51225611782991e-006 18.999425068111 7.99993777941665
vertex -1.38564310506306 16.0497125340554 7.99993777941711
vertex -1.13137330890654 16.381083383954 7.99993777941708
endloop
endfacet
facet normal 9.77320212341766e-015 1.25826177999906e-014 1.0
outer loop
vertex -6.51225611782991e-006 18.999425068111 7.99993777941665
vertex -1.13137330890654 16.381083383954 7.99993777941708
vertex -0.800002459007974 16.6353531801105 7.99993777941712
endloop
endfacet
facet normal 9.77320212341766e-015 1.25826177999906e-014 1.0
outer loop
vertex -6.51225611782991e-006 18.999425068111 7.99993777941665
vertex -0.800002459007974 16.6353531801105 7.99993777941712
vertex -0.414112931172075 16.7951938561179 7.9999377794172
endloop
endfacet
facet normal 9.77320212341766e-015 1.25826177999906e-014 1.0
outer loop
vertex -6.51225611782991e-006 18.999425068111 7.99993777941665
vertex -0.414112931172075 16.7951938561179 7.9999377794172
vertex -2.45900811073341e-006 16.8497125340554 7.99993777941731
endloop
endfacet
facet normal 9.77320212341766e-015 1.25826177999906e-014 1.0
outer loop
vertex -6.51225611782991e-006 18.999425068111 7.99993777941665
vertex -2.45900811073341e-006 16.8497125340554 7.99993777941731
vertex 1.68782469744439 18.8716573482973 7.99993777941701
endloop
endfacet
facet normal 9.77320212341766e-015 1.25826177999906e-014 1.0
outer loop
vertex 1.68782469744439 18.8716573482973 7.99993777941701
vertex -2.45900811073341e-006 16.8497125340554 7.99993777941731
vertex 0.414108013155989 16.7951938561178 7.99993777941747
endloop
endfacet
facet normal 9.77320212341766e-015 1.25826177999906e-014 1.0
outer loop
vertex 1.68782469744439 18.8716573482973 7.99993777941701
vertex 0.414108013155989 16.7951938561178 7.99993777941747
vertex 0.799997540991933 16.6353531801105 7.99993777941764
endloop
endfacet
facet normal 9.77320212341766e-015 1.25826177999906e-014 1.0
outer loop
vertex 1.68782469744439 18.8716573482973 7.99993777941701
vertex 0.799997540991933 16.6353531801105 7.99993777941764
vertex 1.13136839089049 16.3810833839537 7.99993777941783
endloop
endfacet
facet normal 9.77320212341766e-015 1.25826177999906e-014 1.0
outer loop
vertex 1.68782469744439 18.8716573482973 7.99993777941701
vertex 1.13136839089049 16.3810833839537 7.99993777941783
vertex 1.38563818704697 16.0497125340554 7.99993777941801
endloop
endfacet
facet normal 9.77320212341766e-015 1.25826177999906e-014 1.0
outer loop
vertex 1.68782469744439 18.8716573482973 7.99993777941701
vertex 1.38563818704697 16.0497125340554 7.99993777941801
vertex 1.54547886305441 15.6638230062195 7.99993777941818
endloop
endfacet
facet normal 9.77320212341766e-015 1.25826177999906e-014 1.0
outer loop
vertex 1.68782469744439 18.8716573482973 7.99993777941701
vertex 1.54547886305441 15.6638230062195 7.99993777941818
vertex 1.59999754099202 15.2497125340552 7.99993777941832
endloop
endfacet
facet normal 0.075483380943865 0.997147059967226 -2.2574630071202e-013
outer loop
vertex -6.51225611782991e-006 18.999425068111 7.99993777941665
vertex 1.68782469744615 18.8716573482954 1.15023789104551e-012
vertex -6.51225422281243e-006 18.9994250681089 7.89282181279383e-013
endloop
endfacet
facet normal 0.154068892566915 0.988060107657021 -2.07060830416869e-013
outer loop
vertex 1.68782469744615 18.8716573482954 1.15023789104551e-012
vertex -6.51225611782991e-006 18.999425068111 7.99993777941665
vertex 1.68782469744439 18.8716573482973 7.99993777941701
endloop
endfacet
facet normal 0.154068892566913 0.988060107657022 -2.07060830416869e-013
outer loop
vertex 1.68782469744439 18.8716573482973 7.99993777941701
vertex 3.26063329091927 18.4970600749381 1.56195299749751e-012
vertex 1.68782469744615 18.8716573482954 1.15023789104551e-012
endloop
endfacet
facet normal 0.318993563738427 0.947756881427647 -1.61556148557098e-013
outer loop
vertex 3.26063329091927 18.4970600749381 1.56195299749751e-012
vertex 1.68782469744439 18.8716573482973 7.99993777941701
vertex 3.26063329091742 18.4970600749402 7.99993777941743
endloop
endfacet
facet normal 0.318993563738424 0.947756881427648 -1.61556148557099e-013
outer loop
vertex 3.26063329091742 18.4970600749402 7.99993777941743
vertex 4.6112349617085 17.9011614331654 1.99622783580988e-012
vertex 3.26063329091927 18.4970600749381 1.56195299749751e-012
endloop
endfacet
facet normal 0.504931125330934 0.863159636841318 -9.95263319354315e-014
outer loop
vertex 4.6112349617085 17.9011614331654 1.99622783580988e-012
vertex 3.26063329091742 18.4970600749402 7.99993777941743
vertex 4.61123496170665 17.9011614331674 7.99993777941786
endloop
endfacet
facet normal 0.504931125330933 0.863159636841319 -9.95263319354319e-014
outer loop
vertex 4.61123496170665 17.9011614331674 7.99993777941786
vertex 5.64758843792507 17.1245709306446 2.43050267412226e-012
vertex 4.6112349617085 17.9011614331654 1.99622783580988e-012
endloop
endfacet
facet normal 0.713726808118361 0.700424188169695 -1.3261661475698e-014
outer loop
vertex 5.64758843792507 17.1245709306446 2.43050267412226e-012
vertex 4.61123496170665 17.9011614331674 7.99993777941786
vertex 5.64758843792331 17.1245709306463 7.99993777941829
endloop
endfacet
facet normal 0.713726808118361 0.700424188169695 -1.3261661475698e-014
outer loop
vertex 5.64758843792507 17.1245709306446 2.43050267412226e-012
vertex 6.29906794281761 16.2202119267477 7.99993777941869
vertex 6.29906794281946 16.220211926746 2.82529798167896e-012
endloop
endfacet
facet normal 0.911171658164595 0.412026952222283 1.0527385116403e-013
outer loop
vertex 6.29906794281761 16.2202119267477 7.99993777941869
vertex 5.64758843792507 17.1245709306446 2.43050267412226e-012
vertex 5.64758843792331 17.1245709306463 7.99993777941829
endloop
endfacet
facet normal 0.911171658164588 0.412026952222297 1.05273851164025e-013
outer loop
vertex 6.29906794281946 16.220211926746 2.82529798167896e-012
vertex 6.52127622475142 15.2497149930636 7.99993777941902
vertex 6.52127622475327 15.2497149930616 3.16369395958471e-012
endloop
endfacet
facet normal 0.974775440677844 0.223187903460998 1.69521006832148e-013
outer loop
vertex 6.52127622475142 15.2497149930636 7.99993777941902
vertex 6.29906794281946 16.220211926746 2.82529798167896e-012
vertex 6.29906794281761 16.2202119267477 7.99993777941869
endloop
endfacet
facet normal -0.911172474864646 0.412025146136782 3.19364900260554e-013
outer loop
vertex -6.29907462791755 16.2202071763091 7.99993777941632
vertex -6.52128069614207 15.2497100750501 1.4378744722654e-012
vertex -6.52128069614049 15.2497100750473 7.99993777941657
endloop
endfacet
facet normal -0.974775932793885 0.223185754128286 2.72128643312348e-013
outer loop
vertex -6.52128069614207 15.2497100750501 1.4378744722654e-012
vertex -6.29907462791755 16.2202071763091 7.99993777941632
vertex -6.29907462791926 16.220207176312 1.18971742180118e-012
endloop
endfacet
facet normal -0.71372788066662 0.700423095249675 3.76622768153133e-013
outer loop
vertex -5.64759718587363 17.1245666715196 7.99993777941616
vertex -6.29907462791926 16.220207176312 1.18971742180118e-012
vertex -6.29907462791755 16.2202071763091 7.99993777941632
endloop
endfacet
facet normal -0.9111724748646 0.412025146136884 3.19364900260576e-013
outer loop
vertex -6.29907462791926 16.220207176312 1.18971742180118e-012
vertex -5.64759718587363 17.1245666715196 7.99993777941616
vertex -5.6475971858753 17.1245666715226 1.0317992987785e-012
endloop
endfacet
facet normal -0.713727880666592 0.700423095249703 3.76622768153137e-013
outer loop
vertex -5.6475971858753 17.1245666715226 1.0317992987785e-012
vertex -4.61124548106746 17.9011579556048 7.99993777941612
vertex -4.61124548106904 17.9011579556076 9.92319768022831e-013
endloop
endfacet
facet normal -0.504932120619942 0.863159054616383 3.95328568380637e-013
outer loop
vertex -4.61124548106746 17.9011579556048 7.99993777941612
vertex -5.6475971858753 17.1245666715226 1.0317992987785e-012
vertex -5.64759718587363 17.1245666715196 7.99993777941616
endloop
endfacet
facet normal -0.504932120619942 0.863159054616383 3.95328568380637e-013
outer loop
vertex -4.61124548106746 17.9011579556048 7.99993777941612
vertex -3.26064516952996 18.497057615935 1.05999896360398e-012
vertex -4.61124548106904 17.9011579556076 9.92319768022831e-013
endloop
endfacet
facet normal -0.318994435227655 0.947756588103607 3.90839080947371e-013
outer loop
vertex -3.26064516952996 18.497057615935 1.05999896360398e-012
vertex -4.61124548106746 17.9011579556048 7.99993777941612
vertex -3.26064516952829 18.4970576159321 7.99993777941619
endloop
endfacet
facet normal -0.318994435227637 0.947756588103613 3.90839080947369e-013
outer loop
vertex -3.26064516952829 18.4970576159321 7.99993777941619
vertex -1.68783743051778 18.871656075424 1.24611675145214e-012
vertex -3.26064516952996 18.497057615935 1.05999896360398e-012
endloop
endfacet
facet normal -0.154069682500668 0.988059984481784 2.18504079169853e-013
outer loop
vertex -1.68783743051778 18.871656075424 1.24611675145214e-012
vertex -3.26064516952829 18.4970576159321 7.99993777941619
vertex -1.6878374305162 18.8716560754212 7.99993777941638
endloop
endfacet
facet normal -0.154069682500668 0.988059984481784 2.18504079169853e-013
outer loop
vertex -1.68783743051778 18.871656075424 1.24611675145214e-012
vertex -6.51225611782991e-006 18.999425068111 7.99993777941665
vertex -6.51225422281243e-006 18.9994250681089 7.89282181279383e-013
endloop
endfacet
facet normal -0.0754841416147433 0.997147002384646 5.20588687013706e-014
outer loop
vertex -6.51225611782991e-006 18.999425068111 7.99993777941665
vertex -1.68783743051778 18.871656075424 1.24611675145214e-012
vertex -1.6878374305162 18.8716560754212 7.99993777941638
endloop
endfacet
facet normal 0.500000000000031 -0.866025403784421 4.27278854612901e-013
outer loop
vertex -0.800002459005177 16.635353180108 3.66287208897198e-013
vertex -1.13137330890654 16.381083383954 7.99993777941708
vertex -1.13137330890374 16.3810833839515 3.15527812211336e-013
endloop
endfacet
facet normal 0.707106781186591 -0.707106781186504 4.46568398237129e-013
outer loop
vertex -1.13137330890654 16.381083383954 7.99993777941708
vertex -0.800002459005177 16.635353180108 3.66287208897198e-013
vertex -0.800002459007974 16.6353531801105 7.99993777941712
endloop
endfacet
facet normal 0.70710678118659 -0.707106781186505 4.46568398237129e-013
outer loop
vertex -1.13137330890374 16.3810833839515 3.15527812211336e-013
vertex -1.38564310506306 16.0497125340554 7.99993777941711
vertex -1.38564310506026 16.049712534053 3.49367410001911e-013
endloop
endfacet
facet normal 0.866025403784479 -0.499999999999931 4.35425043510662e-013
outer loop
vertex -1.38564310506306 16.0497125340554 7.99993777941711
vertex -1.13137330890374 16.3810833839515 3.15527812211336e-013
vertex -1.13137330890654 16.381083383954 7.99993777941708
endloop
endfacet
facet normal 0.866025403784476 -0.499999999999935 4.35425043510662e-013
outer loop
vertex -1.38564310506026 16.049712534053 3.49367410001911e-013
vertex -1.54548378107054 15.6638230062195 7.99993777941717
vertex -1.5454837810677 15.6638230062169 4.1704660558306e-013
endloop
endfacet
facet normal 0.965925826289041 -0.258819045102625 3.9460819164289e-013
outer loop
vertex -1.54548378107054 15.6638230062195 7.99993777941717
vertex -1.38564310506026 16.049712534053 3.49367410001911e-013
vertex -1.38564310506306 16.0497125340554 7.99993777941711
endloop
endfacet
facet normal 0.965925826289041 -0.258819045102624 3.9460819164289e-013
outer loop
vertex -1.5454837810677 15.6638230062169 4.1704660558306e-013
vertex -1.60000245900806 15.2497125340556 7.99993777941727
vertex -1.60000245900522 15.249712534053 5.2420533191988e-013
endloop
endfacet
facet normal 1.0 -7.53434341676946e-014 3.26899443635496e-013
outer loop
vertex -1.60000245900806 15.2497125340556 7.99993777941727
vertex -1.5454837810677 15.6638230062169 4.1704660558306e-013
vertex -1.54548378107054 15.6638230062195 7.99993777941717
endloop
endfacet
facet normal 1.0 -7.19126568578707e-014 3.26899443635495e-013
outer loop
vertex -1.60000245900522 15.249712534053 5.2420533191988e-013
vertex -1.54548378107054 14.8356020618912 7.99993777941742
vertex -1.54548378106775 14.8356020618888 6.70843589012371e-013
endloop
endfacet
facet normal 0.965925826289069 0.258819045102518 2.36913038771196e-013
outer loop
vertex -1.54548378107054 14.8356020618912 7.99993777941742
vertex -1.60000245900522 15.249712534053 5.2420533191988e-013
vertex -1.60000245900806 15.2497125340556 7.99993777941727
endloop
endfacet
facet normal 0.965925826289069 0.258819045102517 2.36913038771196e-013
outer loop
vertex -1.54548378106775 14.8356020618888 6.70843589012371e-013
vertex -1.38564310506315 14.4497125340553 7.99993777941758
vertex -1.38564310506035 14.4497125340531 8.34401645000149e-013
endloop
endfacet
facet normal 0.866025403784393 0.500000000000079 1.30781401831929e-013
outer loop
vertex -1.38564310506315 14.4497125340553 7.99993777941758
vertex -1.54548378106775 14.8356020618888 6.70843589012371e-013
vertex -1.54548378107054 14.8356020618912 7.99993777941742
endloop
endfacet
facet normal 0.866025403784393 0.500000000000078 1.30781401831929e-013
outer loop
vertex -1.38564310506035 14.4497125340531 8.34401645000149e-013
vertex -1.13137330890654 14.1183416841571 7.99993777941777
vertex -1.13137330890365 14.1183416841546 1.02051943284831e-012
endloop
endfacet
facet normal 0.707106781186515 0.70710678118658 1.57372284843564e-014
outer loop
vertex -1.13137330890654 14.1183416841571 7.99993777941777
vertex -1.38564310506035 14.4497125340531 8.34401645000149e-013
vertex -1.38564310506315 14.4497125340553 7.99993777941758
endloop
endfacet
facet normal 0.707106781186515 0.70710678118658 1.57372284843564e-014
outer loop
vertex -1.13137330890654 14.1183416841571 7.99993777941777
vertex -0.800002459005312 13.864071887998 1.20663722069647e-012
vertex -1.13137330890365 14.1183416841546 1.02051943284831e-012
endloop
endfacet
facet normal 0.500000000000034 0.866025403784419 -1.00379410977407e-013
outer loop
vertex -0.800002459005312 13.864071887998 1.20663722069647e-012
vertex -1.13137330890654 14.1183416841571 7.99993777941777
vertex -0.800002459008109 13.8640718880003 7.99993777941796
endloop
endfacet
facet normal 0.500000000000035 0.866025403784418 -1.00379410977406e-013
outer loop
vertex -0.800002459008109 13.8640718880003 7.99993777941796
vertex -0.414112931169323 13.7042312119906 1.38147514261444e-012
vertex -0.800002459005312 13.864071887998 1.20663722069647e-012
endloop
endfacet
facet normal 0.258819045102649 0.965925826289034 -2.09655359465881e-013
outer loop
vertex -0.414112931169323 13.7042312119906 1.38147514261444e-012
vertex -0.800002459008109 13.8640718880003 7.99993777941796
vertex -0.41411293117212 13.7042312119928 7.99993777941813
endloop
endfacet
facet normal 0.25881904510265 0.965925826289034 -2.0965535946588e-013
outer loop
vertex -0.41411293117212 13.7042312119928 7.99993777941813
vertex -2.45900522308773e-006 13.6497125340529 1.53939326563712e-012
vertex -0.414112931169323 13.7042312119906 1.38147514261444e-012
endloop
endfacet
facet normal 7.69028783994336e-014 1.0 -3.04643641678677e-013
outer loop
vertex -2.45900522308773e-006 13.6497125340529 1.53939326563712e-012
vertex -0.41411293117212 13.7042312119928 7.99993777941813
vertex -2.45900806561394e-006 13.6497125340554 7.9999377794183
endloop
endfacet
facet normal 8.16257666441285e-014 1.0 -3.04643641678676e-013
outer loop
vertex -2.45900806561394e-006 13.6497125340554 7.9999377794183
vertex 0.414108013158831 13.7042312119905 1.65219192493904e-012
vertex -2.45900522308773e-006 13.6497125340529 1.53939326563712e-012
endloop
endfacet
facet normal -0.258819045102694 0.965925826289022 -3.78870963158532e-013
outer loop
vertex 0.414108013158831 13.7042312119905 1.65219192493904e-012
vertex -2.45900806561394e-006 13.6497125340554 7.9999377794183
vertex 0.414108013155989 13.7042312119927 7.9999377794184
endloop
endfacet
facet normal -0.258819045102687 0.965925826289024 -3.78870963158531e-013
outer loop
vertex 0.414108013155989 13.7042312119927 7.9999377794184
vertex 0.799997540994775 13.8640718879978 1.73115098645038e-012
vertex 0.414108013158831 13.7042312119905 1.65219192493904e-012
endloop
endfacet
facet normal -0.500000000000103 0.866025403784379 -4.27278854612912e-013
outer loop
vertex 0.799997540994775 13.8640718879978 1.73115098645038e-012
vertex 0.414108013155989 13.7042312119927 7.9999377794184
vertex 0.799997540991888 13.8640718880006 7.99993777941849
endloop
endfacet
facet normal -0.500000000000102 0.86602540378438 -4.27278854612912e-013
outer loop
vertex 0.799997540991888 13.8640718880006 7.99993777941849
vertex 1.13136839089325 14.1183416841545 1.75935065127586e-012
vertex 0.799997540994775 13.8640718879978 1.73115098645038e-012
endloop
endfacet
facet normal -0.707106781186458 0.707106781186637 -4.46568398237126e-013
outer loop
vertex 1.13136839089325 14.1183416841545 1.75935065127586e-012
vertex 0.799997540991888 13.8640718880006 7.99993777941849
vertex 1.13136839089036 14.118341684157 7.99993777941852
endloop
endfacet
facet normal -0.707106781186455 0.707106781186641 -4.46568398237126e-013
outer loop
vertex 1.13136839089036 14.118341684157 7.99993777941852
vertex 1.38563818704991 14.4497125340529 1.74243085238057e-012
vertex 1.13136839089325 14.1183416841545 1.75935065127586e-012
endloop
endfacet
facet normal -0.866025403784335 0.500000000000179 -4.35425043510691e-013
outer loop
vertex 1.38563818704991 14.4497125340529 1.74243085238057e-012
vertex 1.13136839089036 14.118341684157 7.99993777941852
vertex 1.38563818704711 14.4497125340553 7.9999377794185
endloop
endfacet
facet normal -0.866025403784335 0.50000000000018 -4.35425043510691e-013
outer loop
vertex 1.38563818704711 14.4497125340553 7.9999377794185
vertex 1.54547886305735 14.8356020618888 1.68039158976452e-012
vertex 1.38563818704991 14.4497125340529 1.74243085238057e-012
endloop
endfacet
facet normal -0.965925826289046 0.258819045102605 -3.94608191642885e-013
outer loop
vertex 1.54547886305735 14.8356020618888 1.68039158976452e-012
vertex 1.38563818704711 14.4497125340553 7.9999377794185
vertex 1.5454788630545 14.8356020618912 7.99993777941843
endloop
endfacet
facet normal -0.965925826289045 0.258819045102607 -3.94608191642886e-013
outer loop
vertex 1.5454788630545 14.8356020618912 7.99993777941843
vertex 1.59999754099486 15.2497125340528 1.5732328634277e-012
vertex 1.54547886305735 14.8356020618888 1.68039158976452e-012
endloop
endfacet
facet normal -1.0 -9.77192311156647e-014 -3.26899443635443e-013
outer loop
vertex 1.59999754099486 15.2497125340528 1.5732328634277e-012
vertex 1.5454788630545 14.8356020618912 7.99993777941843
vertex 1.59999754099202 15.2497125340552 7.99993777941832
endloop
endfacet
facet normal -1.0 -9.74073422693172e-014 -3.26899443635443e-013
outer loop
vertex 1.59999754099202 15.2497125340552 7.99993777941832
vertex 1.54547886305735 15.663823006217 1.42659460633521e-012
vertex 1.59999754099486 15.2497125340528 1.5732328634277e-012
endloop
endfacet
facet normal -0.965925826289049 -0.258819045102593 -2.36913038771166e-013
outer loop
vertex 1.54547886305735 15.663823006217 1.42659460633521e-012
vertex 1.59999754099202 15.2497125340552 7.99993777941832
vertex 1.54547886305441 15.6638230062195 7.99993777941818
endloop
endfacet
facet normal -0.965925826289049 -0.258819045102593 -2.36913038771166e-013
outer loop
vertex 1.54547886305441 15.6638230062195 7.99993777941818
vertex 1.38563818704986 16.0497125340531 1.25175668441724e-012
vertex 1.54547886305735 15.663823006217 1.42659460633521e-012
endloop
endfacet
facet normal -0.866025403784455 -0.499999999999972 -1.30781401831981e-013
outer loop
vertex 1.38563818704986 16.0497125340531 1.25175668441724e-012
vertex 1.54547886305441 15.6638230062195 7.99993777941818
vertex 1.38563818704697 16.0497125340554 7.99993777941801
endloop
endfacet
facet normal -0.866025403784454 -0.499999999999974 -1.3078140183198e-013
outer loop
vertex 1.38563818704697 16.0497125340554 7.99993777941801
vertex 1.13136839089334 16.3810833839514 1.07691876249927e-012
vertex 1.38563818704986 16.0497125340531 1.25175668441724e-012
endloop
endfacet
facet normal -0.707106781186545 -0.70710678118655 -1.57372284843758e-014
outer loop
vertex 1.13136839089334 16.3810833839514 1.07691876249927e-012
vertex 1.38563818704697 16.0497125340554 7.99993777941801
vertex 1.13136839089049 16.3810833839537 7.99993777941783
endloop
endfacet
facet normal -0.707106781186545 -0.70710678118655 -1.57372284843758e-014
outer loop
vertex 1.13136839089334 16.3810833839514 1.07691876249927e-012
vertex 0.799997540991933 16.6353531801105 7.99993777941764
vertex 0.799997540994775 16.6353531801081 8.85161041686011e-013
endloop
endfacet
facet normal -0.499999999999972 -0.866025403784455 1.00379410977438e-013
outer loop
vertex 0.799997540991933 16.6353531801105 7.99993777941764
vertex 1.13136839089334 16.3810833839514 1.07691876249927e-012
vertex 1.13136839089049 16.3810833839537 7.99993777941783
endloop
endfacet
facet normal -0.499999999999975 -0.866025403784453 1.00379410977436e-013
outer loop
vertex 0.799997540994775 16.6353531801081 8.85161041686011e-013
vertex 0.414108013155989 16.7951938561178 7.99993777941747
vertex 0.414108013158786 16.7951938561155 7.15963052733137e-013
endloop
endfacet
facet normal -0.258819045102579 -0.965925826289053 2.09655359465909e-013
outer loop
vertex 0.414108013155989 16.7951938561178 7.99993777941747
vertex 0.799997540994775 16.6353531801081 8.85161041686011e-013
vertex 0.799997540991933 16.6353531801105 7.99993777941764
endloop
endfacet
facet normal -0.258819045102582 -0.965925826289052 2.09655359465908e-013
outer loop
vertex 0.414108013158786 16.7951938561155 7.15963052733137e-013
vertex -2.45900811073341e-006 16.8497125340554 7.99993777941731
vertex -2.45900522308773e-006 16.849712534053 5.58044929710455e-013
endloop
endfacet
facet normal -1.10292807178422e-013 -1.0 3.04643641678666e-013
outer loop
vertex -2.45900811073341e-006 16.8497125340554 7.99993777941731
vertex 0.414108013158786 16.7951938561155 7.15963052733137e-013
vertex 0.414108013155989 16.7951938561178 7.99993777941747
endloop
endfacet
facet normal -1.15951361962159e-013 -1.0 3.04643641678665e-013
outer loop
vertex -2.45900522308773e-006 16.849712534053 5.58044929710455e-013
vertex -0.414112931172075 16.7951938561179 7.9999377794172
vertex -0.414112931169278 16.7951938561156 4.45246270408539e-013
endloop
endfacet
facet normal 0.258819045102587 -0.965925826289051 3.78870963158506e-013
outer loop
vertex -0.414112931172075 16.7951938561179 7.9999377794172
vertex -2.45900522308773e-006 16.849712534053 5.58044929710455e-013
vertex -2.45900811073341e-006 16.8497125340554 7.99993777941731
endloop
endfacet
facet normal 0.258819045102582 -0.965925826289052 3.78870963158505e-013
outer loop
vertex -0.414112931169278 16.7951938561156 4.45246270408539e-013
vertex -0.800002459007974 16.6353531801105 7.99993777941712
vertex -0.800002459005177 16.635353180108 3.66287208897198e-013
endloop
endfacet
facet normal 0.50000000000003 -0.866025403784421 4.27278854612901e-013
outer loop
vertex -0.800002459007974 16.6353531801105 7.99993777941712
vertex -0.414112931169278 16.7951938561156 4.45246270408539e-013
vertex -0.414112931172075 16.7951938561179 7.9999377794172
endloop
endfacet
endsolid Zuberi Delta - parts
