solid Zuberi Delta - aluminum square rail - parts
facet normal -2.78796262377323e-018 0.554700196225224 -0.832050294337847
outer loop
vertex 211.956901124194 184.953483074826 2.43999958038282
vertex 219.405045823324 183.453483074826 1.43999958038278
vertex 211.759422377813 183.453483074826 1.43999958038278
endloop
endfacet
facet normal -2.78796262377323e-018 0.554700196225224 -0.832050294337847
outer loop
vertex 219.405045823324 183.453483074826 1.43999958038278
vertex 211.956901124194 184.953483074826 2.43999958038282
vertex 219.602524569705 184.953483074826 2.43999958038282
endloop
endfacet
facet normal 5.97524202588732e-024 1.0 1.65436122510606e-024
outer loop
vertex 211.956901124194 184.953483074826 4.43999958038282
vertex 219.602524569705 184.953483074826 2.43999958038282
vertex 211.956901124194 184.953483074826 2.43999958038282
endloop
endfacet
facet normal 5.97524202588732e-024 1.0 1.65436122510606e-024
outer loop
vertex 219.602524569705 184.953483074826 2.43999958038282
vertex 211.956901124194 184.953483074826 4.43999958038282
vertex 217.604144862368 184.953483074826 4.36655855178806
endloop
endfacet
facet normal 5.97524202588732e-024 1.0 1.65436122510606e-024
outer loop
vertex 217.604144862368 184.953483074826 4.36655855178806
vertex 211.956901124194 184.953483074826 4.43999958038282
vertex 217.604144862369 184.953483074826 4.43999958038264
endloop
endfacet
facet normal 5.97524202588732e-024 1.0 1.65436122510606e-024
outer loop
vertex 219.602524569705 184.953483074826 4.36655855178824
vertex 219.602524569705 184.953483074826 2.43999958038282
vertex 217.604144862368 184.953483074826 4.36655855178806
endloop
endfacet
facet normal 5.97524202588732e-024 1.0 1.65436122510606e-024
outer loop
vertex 231.916320185921 184.953483074826 4.36655855178815
vertex 239.561943631432 184.953483074826 2.43999958038282
vertex 231.916320185921 184.953483074826 2.43999958038282
endloop
endfacet
facet normal 5.97524202588732e-024 1.0 1.65436122510606e-024
outer loop
vertex 239.561943631432 184.953483074826 2.43999958038282
vertex 231.916320185921 184.953483074826 4.36655855178815
vertex 233.914699893257 184.953483074826 4.36655855178815
endloop
endfacet
facet normal 5.97524202588732e-024 1.0 1.65436122510606e-024
outer loop
vertex 239.561943631432 184.953483074826 2.43999958038282
vertex 233.914699893257 184.953483074826 4.36655855178815
vertex 239.561943631432 184.953483074826 4.43999958038282
endloop
endfacet
facet normal 5.97524202588732e-024 1.0 1.65436122510606e-024
outer loop
vertex 239.561943631432 184.953483074826 4.43999958038282
vertex 233.914699893257 184.953483074826 4.36655855178815
vertex 233.914699893257 184.953483074826 4.43999958038273
endloop
endfacet
facet normal 6.13350784613375e-018 0.554700196225224 -0.832050294337847
outer loop
vertex 239.561943631432 184.953483074826 2.43999958038282
vertex 232.113798932302 183.453483074826 1.43999958038278
vertex 231.916320185921 184.953483074826 2.43999958038282
endloop
endfacet
facet normal 6.13350784613375e-018 0.554700196225224 -0.832050294337847
outer loop
vertex 232.113798932302 183.453483074826 1.43999958038278
vertex 239.561943631432 184.953483074826 2.43999958038282
vertex 239.759422377813 183.453483074826 1.43999958038278
endloop
endfacet
facet normal 0.96592582628907 0.258819045102516 -1.92107817584483e-014
outer loop
vertex 233.827565371808 185.615335474486 4.36655855178806
vertex 233.914699893257 184.953483074826 4.43999958038273
vertex 233.914699893257 184.953483074826 4.36655855178815
endloop
endfacet
facet normal 0.991444861373811 0.130526192220046 -8.06594142319533e-015
outer loop
vertex 234.112178639639 183.453483074826 5.43999958038277
vertex 233.827565371808 185.615335474486 6.87999916076609
vertex 234.112178639639 183.453483074826 6.87999916076618
endloop
endfacet
facet normal 0.96592582628907 0.258819045102515 -1.92107817584482e-014
outer loop
vertex 233.827565371808 185.615335474486 6.87999916076609
vertex 234.112178639639 183.453483074826 5.43999958038277
vertex 233.914699893257 184.953483074826 4.43999958038273
endloop
endfacet
facet normal 0.96592582628907 0.258819045102515 -1.92107817584482e-014
outer loop
vertex 233.827565371808 185.615335474486 6.87999916076609
vertex 233.914699893257 184.953483074826 4.43999958038273
vertex 233.827565371808 185.615335474486 4.36655855178806
endloop
endfacet
facet normal -0.991444861373809 -0.130526192220061 1.51844144149817e-014
outer loop
vertex 239.759422377813 183.453483074826 6.87999916076555
vertex 239.561943631432 184.953483074826 4.43999958038282
vertex 239.759422377813 183.453483074826 5.43999958038277
endloop
endfacet
facet normal -0.991444861373809 -0.130526192220061 1.51844144149817e-014
outer loop
vertex 239.561943631432 184.953483074826 4.43999958038282
vertex 239.759422377813 183.453483074826 6.87999916076555
vertex 239.28238394586 187.076949706261 6.87999916076555
endloop
endfacet
facet normal -0.991444861373809 -0.130526192220061 1.51844144149817e-014
outer loop
vertex 239.561943631432 184.953483074826 4.43999958038282
vertex 239.28238394586 187.076949706261 6.87999916076555
vertex 239.561943631432 184.953483074826 2.43999958038282
endloop
endfacet
facet normal -0.991444861373809 -0.130526192220061 1.51844144149817e-014
outer loop
vertex 239.561943631432 184.953483074826 2.43999958038282
vertex 239.28238394586 187.076949706261 6.87999916076555
vertex 239.28238394586 187.076949706261 0.0
endloop
endfacet
facet normal -0.991444861373809 -0.130526192220061 1.51844144149817e-014
outer loop
vertex 239.759422377813 183.453483074826 1.43999958038278
vertex 239.28238394586 187.076949706261 0.0
vertex 239.759422377813 183.453483074826 0.0
endloop
endfacet
facet normal -0.96592582628907 -0.258819045102514 2.28007307649254e-014
outer loop
vertex 239.28238394586 187.076949706261 0.0
vertex 239.759422377813 183.453483074826 1.43999958038278
vertex 239.561943631432 184.953483074826 2.43999958038282
endloop
endfacet
facet normal 7.81862919679644e-016 0.554700196225232 0.832050294337842
outer loop
vertex 217.406666115987 183.453483074826 5.43999958038277
vertex 211.956901124194 184.953483074826 4.43999958038282
vertex 211.759422377813 183.453483074826 5.43999958038277
endloop
endfacet
facet normal 7.81862919679644e-016 0.554700196225232 0.832050294337842
outer loop
vertex 211.956901124194 184.953483074826 4.43999958038282
vertex 217.406666115987 183.453483074826 5.43999958038277
vertex 217.604144862369 184.953483074826 4.43999958038264
endloop
endfacet
facet normal -7.7879676463534e-016 0.554700196225232 0.832050294337842
outer loop
vertex 234.112178639639 183.453483074826 5.43999958038277
vertex 239.561943631432 184.953483074826 4.43999958038282
vertex 233.914699893257 184.953483074826 4.43999958038273
endloop
endfacet
facet normal -7.7879676463534e-016 0.554700196225232 0.832050294337842
outer loop
vertex 239.561943631432 184.953483074826 4.43999958038282
vertex 234.112178639639 183.453483074826 5.43999958038277
vertex 239.759422377813 183.453483074826 5.43999958038277
endloop
endfacet
facet normal -3.55796194556514e-014 1.85525217842974e-014 -1.0
outer loop
vertex 217.691279383818 185.615335474486 4.36655855178806
vertex 219.602524569705 184.953483074826 4.36655855178824
vertex 217.604144862368 184.953483074826 4.36655855178806
endloop
endfacet
facet normal -3.55796194556514e-014 1.85525217842974e-014 -1.0
outer loop
vertex 219.602524569705 184.953483074826 4.36655855178824
vertex 217.691279383818 185.615335474486 4.36655855178806
vertex 218.525723263452 187.629861205739 4.36655855178806
endloop
endfacet
facet normal -3.55796194556514e-014 1.85525217842974e-014 -1.0
outer loop
vertex 219.602524569705 184.953483074826 4.36655855178824
vertex 218.525723263452 187.629861205739 4.36655855178806
vertex 219.853131783478 189.359773669161 4.36655855178824
endloop
endfacet
facet normal -3.55796194556514e-014 1.85525217842974e-014 -1.0
outer loop
vertex 219.602524569705 184.953483074826 4.36655855178824
vertex 219.853131783478 189.359773669161 4.36655855178824
vertex 219.621565953866 185.098116746881 4.3665585517886
endloop
endfacet
facet normal -3.55796194556514e-014 1.85525217842974e-014 -1.0
outer loop
vertex 219.621565953866 185.098116746881 4.3665585517886
vertex 219.853131783478 189.359773669161 4.36655855178824
vertex 220.256370856413 186.63067135207 4.3665585517886
endloop
endfacet
facet normal -3.55796194556514e-014 1.85525217842974e-014 -1.0
outer loop
vertex 220.256370856413 186.63067135207 4.3665585517886
vertex 219.853131783478 189.359773669161 4.36655855178824
vertex 221.5830442469 190.687182189186 4.36655855178824
endloop
endfacet
facet normal -3.55796194556514e-014 1.85525217842974e-014 -1.0
outer loop
vertex 220.256370856413 186.63067135207 4.3665585517886
vertex 221.5830442469 190.687182189186 4.36655855178824
vertex 221.266199625921 187.946705826718 4.3665585517886
endloop
endfacet
facet normal -3.55796194556514e-014 1.85525217842974e-014 -1.0
outer loop
vertex 221.266199625921 187.946705826718 4.3665585517886
vertex 221.5830442469 190.687182189186 4.36655855178824
vertex 222.582234100568 188.956534596226 4.36655855178869
endloop
endfacet
facet normal -3.55796194556514e-014 1.85525217842974e-014 -1.0
outer loop
vertex 222.582234100568 188.956534596226 4.36655855178869
vertex 221.5830442469 190.687182189186 4.36655855178824
vertex 223.597569978153 191.521626068821 4.36655855178806
endloop
endfacet
facet normal -3.55796194556514e-014 1.85525217842974e-014 -1.0
outer loop
vertex 222.582234100568 188.956534596226 4.36655855178869
vertex 223.597569978153 191.521626068821 4.36655855178806
vertex 224.114788705758 189.591339498773 4.3665585517886
endloop
endfacet
facet normal -3.55796194556514e-014 1.85525217842974e-014 -1.0
outer loop
vertex 224.114788705758 189.591339498773 4.3665585517886
vertex 223.597569978153 191.521626068821 4.36655855178806
vertex 225.759422377813 191.806239336651 4.36655855178824
endloop
endfacet
facet normal -3.55796194556514e-014 1.85525217842974e-014 -1.0
outer loop
vertex 224.114788705758 189.591339498773 4.3665585517886
vertex 225.759422377813 191.806239336651 4.36655855178824
vertex 225.759422377813 189.807859629315 4.36655855178851
endloop
endfacet
facet normal -3.55796194556514e-014 1.85525217842974e-014 -1.0
outer loop
vertex 225.759422377813 189.807859629315 4.36655855178851
vertex 225.759422377813 191.806239336651 4.36655855178824
vertex 227.921274777473 191.521626068821 4.36655855178806
endloop
endfacet
facet normal -3.55796194556514e-014 1.85525217842974e-014 -1.0
outer loop
vertex 225.759422377813 189.807859629315 4.36655855178851
vertex 227.921274777473 191.521626068821 4.36655855178806
vertex 227.404056049868 189.591339498773 4.36655855178851
endloop
endfacet
facet normal -3.55796194556514e-014 1.85525217842974e-014 -1.0
outer loop
vertex 227.404056049868 189.591339498773 4.36655855178851
vertex 227.921274777473 191.521626068821 4.36655855178806
vertex 228.936610655058 188.956534596226 4.36655855178742
endloop
endfacet
facet normal -3.55796194556514e-014 1.85525217842974e-014 -1.0
outer loop
vertex 228.936610655058 188.956534596226 4.36655855178742
vertex 227.921274777473 191.521626068821 4.36655855178806
vertex 229.935800508726 190.687182189186 4.36655855178815
endloop
endfacet
facet normal -3.55796194556514e-014 1.85525217842974e-014 -1.0
outer loop
vertex 228.936610655058 188.956534596226 4.36655855178742
vertex 229.935800508726 190.687182189186 4.36655855178815
vertex 230.252645129705 187.946705826718 4.36655855178751
endloop
endfacet
facet normal -3.55796194556514e-014 1.85525217842974e-014 -1.0
outer loop
vertex 230.252645129705 187.946705826718 4.36655855178751
vertex 229.935800508726 190.687182189186 4.36655855178815
vertex 231.665712972148 189.359773669161 4.36655855178806
endloop
endfacet
facet normal -3.55796194556514e-014 1.85525217842974e-014 -1.0
outer loop
vertex 230.252645129705 187.946705826718 4.36655855178751
vertex 231.665712972148 189.359773669161 4.36655855178806
vertex 231.262473899213 186.63067135207 4.36655855178742
endloop
endfacet
facet normal -3.55796194556514e-014 1.85525217842974e-014 -1.0
outer loop
vertex 231.262473899213 186.63067135207 4.36655855178742
vertex 231.665712972148 189.359773669161 4.36655855178806
vertex 231.89727880176 185.098116746881 4.36655855178751
endloop
endfacet
facet normal -3.55796194556514e-014 1.85525217842974e-014 -1.0
outer loop
vertex 231.89727880176 185.098116746881 4.36655855178751
vertex 231.665712972148 189.359773669161 4.36655855178806
vertex 232.993121492173 187.629861205739 4.36655855178815
endloop
endfacet
facet normal -3.55796194556514e-014 1.85525217842974e-014 -1.0
outer loop
vertex 231.89727880176 185.098116746881 4.36655855178751
vertex 232.993121492173 187.629861205739 4.36655855178815
vertex 231.916320185921 184.953483074826 4.36655855178815
endloop
endfacet
facet normal -3.55796194556514e-014 1.85525217842974e-014 -1.0
outer loop
vertex 231.916320185921 184.953483074826 4.36655855178815
vertex 232.993121492173 187.629861205739 4.36655855178815
vertex 233.914699893257 184.953483074826 4.36655855178815
endloop
endfacet
facet normal -3.55796194556514e-014 1.85525217842974e-014 -1.0
outer loop
vertex 233.914699893257 184.953483074826 4.36655855178815
vertex 232.993121492173 187.629861205739 4.36655855178815
vertex 233.827565371808 185.615335474486 4.36655855178806
endloop
endfacet
facet normal 0.96592582628907 0.258819045102515 -2.80230640200807e-014
outer loop
vertex 231.89727880176 185.09811674688 0.0
vertex 232.113798932302 183.453483074826 1.43999958038278
vertex 232.113798932302 183.453483074826 0.0
endloop
endfacet
facet normal 0.991444861373814 0.130526192220025 -2.55397253537378e-014
outer loop
vertex 232.113798932302 183.453483074826 1.43999958038278
vertex 231.89727880176 185.09811674688 0.0
vertex 231.916320185921 184.953483074826 2.43999958038282
endloop
endfacet
facet normal 0.991444861373814 0.130526192220025 -2.55397253537378e-014
outer loop
vertex 231.916320185921 184.953483074826 2.43999958038282
vertex 231.89727880176 185.098116746881 4.36655855178751
vertex 231.916320185921 184.953483074826 4.36655855178815
endloop
endfacet
facet normal 0.965925826289117 0.258819045102339 -2.80230640200776e-014
outer loop
vertex 231.89727880176 185.098116746881 4.36655855178751
vertex 231.916320185921 184.953483074826 2.43999958038282
vertex 231.89727880176 185.09811674688 0.0
endloop
endfacet
facet normal 0.965925826289073 -0.258819045102505 -1.66817497094068e-014
outer loop
vertex 212.236460809766 187.076949706261 1.17310605673993e-012
vertex 211.759422377813 183.453483074826 1.43999958038278
vertex 211.759422377813 183.453483074826 0.0
endloop
endfacet
facet normal 0.991444861373809 -0.130526192220062 -1.25276136693216e-014
outer loop
vertex 211.759422377813 183.453483074826 1.43999958038278
vertex 212.236460809766 187.076949706261 1.17310605673993e-012
vertex 211.956901124194 184.953483074826 2.43999958038282
endloop
endfacet
facet normal 0.991444861373809 -0.130526192220062 -1.25276136693216e-014
outer loop
vertex 211.956901124194 184.953483074826 2.43999958038282
vertex 212.236460809766 187.076949706261 1.17310605673993e-012
vertex 211.956901124194 184.953483074826 4.43999958038282
endloop
endfacet
facet normal 0.991444861373809 -0.130526192220062 -1.25276136693216e-014
outer loop
vertex 211.956901124194 184.953483074826 4.43999958038282
vertex 211.759422377813 183.453483074826 6.87999916076555
vertex 211.759422377813 183.453483074826 5.43999958038277
endloop
endfacet
facet normal 0.991444861373809 -0.130526192220062 -1.25276136693216e-014
outer loop
vertex 211.759422377813 183.453483074826 6.87999916076555
vertex 211.956901124194 184.953483074826 4.43999958038282
vertex 212.236460809766 187.076949706261 6.87999916076672
endloop
endfacet
facet normal 0.965925826289066 -0.25881904510253 -1.66817497094076e-014
outer loop
vertex 212.236460809766 187.076949706261 6.87999916076672
vertex 211.956901124194 184.953483074826 4.43999958038282
vertex 212.236460809766 187.076949706261 1.17310605673993e-012
endloop
endfacet
facet normal -0.965925826289038 0.258819045102634 1.62154437397725e-014
outer loop
vertex 219.621565953866 185.098116746881 4.3665585517886
vertex 219.602524569705 184.953483074826 2.43999958038282
vertex 219.602524569705 184.953483074826 4.36655855178824
endloop
endfacet
facet normal -0.99144486137381 0.130526192220058 1.16029803536427e-014
outer loop
vertex 219.602524569705 184.953483074826 2.43999958038282
vertex 219.621565953866 185.098116746881 4.3665585517886
vertex 219.621565953866 185.09811674688 1.17310605673993e-012
endloop
endfacet
facet normal -0.99144486137381 0.130526192220058 1.16029803536427e-014
outer loop
vertex 219.405045823324 183.453483074826 1.43999958038278
vertex 219.621565953866 185.09811674688 1.17310605673993e-012
vertex 219.405045823324 183.453483074826 1.26334498418146e-012
endloop
endfacet
facet normal -0.965925826289064 0.258819045102536 1.6215443739769e-014
outer loop
vertex 219.621565953866 185.09811674688 1.17310605673993e-012
vertex 219.405045823324 183.453483074826 1.43999958038278
vertex 219.602524569705 184.953483074826 2.43999958038282
endloop
endfacet
facet normal -0.965925826289071 0.258819045102511 6.07946276393951e-015
outer loop
vertex 217.691279383818 185.615335474486 6.87999916076618
vertex 217.406666115987 183.453483074826 5.43999958038277
vertex 217.406666115987 183.453483074826 6.87999916076636
endloop
endfacet
facet normal -0.991444861373811 0.130526192220045 -8.49555215329418e-015
outer loop
vertex 217.406666115987 183.453483074826 5.43999958038277
vertex 217.691279383818 185.615335474486 6.87999916076618
vertex 217.604144862369 184.953483074826 4.43999958038264
endloop
endfacet
facet normal -0.991444861373811 0.130526192220045 -8.49555215329418e-015
outer loop
vertex 217.604144862369 184.953483074826 4.43999958038264
vertex 217.691279383818 185.615335474486 6.87999916076618
vertex 217.604144862368 184.953483074826 4.36655855178806
endloop
endfacet
facet normal -0.991444861373811 0.130526192220045 -8.49555215329418e-015
outer loop
vertex 217.604144862368 184.953483074826 4.36655855178806
vertex 217.691279383818 185.615335474486 6.87999916076618
vertex 217.691279383818 185.615335474486 4.36655855178806
endloop
endfacet
facet normal -2.10757062861987e-014 -1.76145144147787e-014 -1.0
outer loop
vertex 212.236460809766 187.076949706261 6.87999916076672
vertex 217.406666115987 183.453483074826 6.87999916076636
vertex 211.759422377813 183.453483074826 6.87999916076555
endloop
endfacet
facet normal -2.10757062861987e-014 -1.76145144147787e-014 -1.0
outer loop
vertex 217.406666115987 183.453483074826 6.87999916076636
vertex 212.236460809766 187.076949706261 6.87999916076672
vertex 213.635066724831 190.453483074826 6.87999916076663
endloop
endfacet
facet normal -2.10757062861987e-014 -1.76145144147787e-014 -1.0
outer loop
vertex 217.406666115987 183.453483074826 6.87999916076636
vertex 213.635066724831 190.453483074826 6.87999916076663
vertex 215.859927441201 193.352978011437 6.87999916076672
endloop
endfacet
facet normal -2.10757062861987e-014 -1.76145144147787e-014 -1.0
outer loop
vertex 217.406666115987 183.453483074826 6.87999916076636
vertex 215.859927441201 193.352978011437 6.87999916076672
vertex 218.759422377813 195.577838727808 6.87999916076555
endloop
endfacet
facet normal -2.10757062861987e-014 -1.76145144147787e-014 -1.0
outer loop
vertex 217.406666115987 183.453483074826 6.87999916076636
vertex 218.759422377813 195.577838727808 6.87999916076555
vertex 217.691279383818 185.615335474486 6.87999916076618
endloop
endfacet
facet normal -2.10757062861987e-014 -1.76145144147787e-014 -1.0
outer loop
vertex 217.691279383818 185.615335474486 6.87999916076618
vertex 218.759422377813 195.577838727808 6.87999916076555
vertex 218.525723263452 187.629861205739 6.87999916076618
endloop
endfacet
facet normal -2.10757062861987e-014 -1.76145144147787e-014 -1.0
outer loop
vertex 218.525723263452 187.629861205739 6.87999916076618
vertex 218.759422377813 195.577838727808 6.87999916076555
vertex 219.853131783478 189.359773669161 6.87999916076636
endloop
endfacet
facet normal -2.10757062861987e-014 -1.76145144147787e-014 -1.0
outer loop
vertex 219.853131783478 189.359773669161 6.87999916076636
vertex 218.759422377813 195.577838727808 6.87999916076555
vertex 220.759410977743 208.45351663251 6.87999916076555
endloop
endfacet
facet normal -2.10757062861987e-014 -1.76145144147787e-014 -1.0
outer loop
vertex 220.759410977743 208.45351663251 6.87999916076555
vertex 218.759422377813 195.577838727808 6.87999916076555
vertex 220.929843832297 209.747607051145 6.87999916076681
endloop
endfacet
facet normal -2.10757062861987e-014 -1.76145144147787e-014 -1.0
outer loop
vertex 232.759422377813 195.577838727808 6.87999916076564
vertex 230.759410977743 208.45351663251 6.87999916076545
vertex 230.5889840243 209.747585027901 6.87999916076681
endloop
endfacet
facet normal -2.10757062861987e-014 -1.76145144147787e-014 -1.0
outer loop
vertex 230.759410977743 208.45351663251 6.87999916076545
vertex 232.759422377813 195.577838727808 6.87999916076564
vertex 231.665712972148 189.359773669161 6.87999916076609
endloop
endfacet
facet normal -2.10757062861987e-014 -1.76145144147787e-014 -1.0
outer loop
vertex 231.665712972148 189.359773669161 6.87999916076609
vertex 232.759422377813 195.577838727808 6.87999916076564
vertex 232.993121492173 187.629861205739 6.87999916076627
endloop
endfacet
facet normal -2.10757062861987e-014 -1.76145144147787e-014 -1.0
outer loop
vertex 232.993121492173 187.629861205739 6.87999916076627
vertex 232.759422377813 195.577838727808 6.87999916076564
vertex 235.658917314425 193.352978011437 6.87999916076555
endloop
endfacet
facet normal -2.10757062861987e-014 -1.76145144147787e-014 -1.0
outer loop
vertex 232.993121492173 187.629861205739 6.87999916076627
vertex 235.658917314425 193.352978011437 6.87999916076555
vertex 233.827565371808 185.615335474486 6.87999916076609
endloop
endfacet
facet normal -2.10757062861987e-014 -1.76145144147787e-014 -1.0
outer loop
vertex 233.827565371808 185.615335474486 6.87999916076609
vertex 235.658917314425 193.352978011437 6.87999916076555
vertex 234.112178639639 183.453483074826 6.87999916076618
endloop
endfacet
facet normal -2.10757062861987e-014 -1.76145144147787e-014 -1.0
outer loop
vertex 234.112178639639 183.453483074826 6.87999916076618
vertex 235.658917314425 193.352978011437 6.87999916076555
vertex 239.759422377813 183.453483074826 6.87999916076555
endloop
endfacet
facet normal -2.10757062861987e-014 -1.76145144147787e-014 -1.0
outer loop
vertex 239.759422377813 183.453483074826 6.87999916076555
vertex 235.658917314425 193.352978011437 6.87999916076555
vertex 237.883778030795 190.453483074826 6.87999916076555
endloop
endfacet
facet normal -2.10757062861987e-014 -1.76145144147787e-014 -1.0
outer loop
vertex 239.759422377813 183.453483074826 6.87999916076555
vertex 237.883778030795 190.453483074826 6.87999916076555
vertex 239.28238394586 187.076949706261 6.87999916076555
endloop
endfacet
facet normal -2.10757062861987e-014 -1.76145144147787e-014 -1.0
outer loop
vertex 220.759410977743 208.45351663251 6.87999916076555
vertex 221.5830442469 190.687182189186 6.87999916076627
vertex 219.853131783478 189.359773669161 6.87999916076636
endloop
endfacet
facet normal -2.10757062861987e-014 -1.76145144147787e-014 -1.0
outer loop
vertex 221.5830442469 190.687182189186 6.87999916076627
vertex 220.759410977743 208.45351663251 6.87999916076555
vertex 220.929781846298 207.159421406997 6.87999916076555
endloop
endfacet
facet normal -2.10757062861987e-014 -1.76145144147787e-014 -1.0
outer loop
vertex 221.5830442469 190.687182189186 6.87999916076627
vertex 220.929781846298 207.159421406997 6.87999916076555
vertex 221.429283958821 205.95351663251 6.87999916076555
endloop
endfacet
facet normal -2.10757062861987e-014 -1.76145144147787e-014 -1.0
outer loop
vertex 221.5830442469 190.687182189186 6.87999916076627
vertex 221.429283958821 205.95351663251 6.87999916076555
vertex 222.223877071811 204.917982726577 6.87999916076564
endloop
endfacet
facet normal -2.10757062861987e-014 -1.76145144147787e-014 -1.0
outer loop
vertex 221.5830442469 190.687182189186 6.87999916076627
vertex 222.223877071811 204.917982726577 6.87999916076564
vertex 223.597569978153 191.521626068821 6.87999916076618
endloop
endfacet
facet normal -2.10757062861987e-014 -1.76145144147787e-014 -1.0
outer loop
vertex 223.597569978153 191.521626068821 6.87999916076618
vertex 222.223877071811 204.917982726577 6.87999916076564
vertex 223.259410977743 204.123389613588 6.87999916076564
endloop
endfacet
facet normal -2.10757062861987e-014 -1.76145144147787e-014 -1.0
outer loop
vertex 223.597569978153 191.521626068821 6.87999916076618
vertex 223.259410977743 204.123389613588 6.87999916076564
vertex 224.465315752231 203.623887501065 6.87999916076564
endloop
endfacet
facet normal -2.10757062861987e-014 -1.76145144147787e-014 -1.0
outer loop
vertex 223.597569978153 191.521626068821 6.87999916076618
vertex 224.465315752231 203.623887501065 6.87999916076564
vertex 225.759422377813 191.806239336651 6.87999916076636
endloop
endfacet
facet normal -2.10757062861987e-014 -1.76145144147787e-014 -1.0
outer loop
vertex 225.759422377813 191.806239336651 6.87999916076636
vertex 224.465315752231 203.623887501065 6.87999916076564
vertex 225.759410977743 203.45351663251 6.87999916076555
endloop
endfacet
facet normal -2.10757062861987e-014 -1.76145144147787e-014 -1.0
outer loop
vertex 225.759422377813 191.806239336651 6.87999916076636
vertex 225.759410977743 203.45351663251 6.87999916076555
vertex 227.053506203256 203.623887501065 6.87999916076555
endloop
endfacet
facet normal -2.10757062861987e-014 -1.76145144147787e-014 -1.0
outer loop
vertex 225.759422377813 191.806239336651 6.87999916076636
vertex 227.053506203256 203.623887501065 6.87999916076555
vertex 227.921274777473 191.521626068821 6.87999916076618
endloop
endfacet
facet normal -2.10757062861987e-014 -1.76145144147787e-014 -1.0
outer loop
vertex 227.921274777473 191.521626068821 6.87999916076618
vertex 227.053506203256 203.623887501065 6.87999916076555
vertex 228.259410977743 204.123389613588 6.87999916076555
endloop
endfacet
facet normal -2.10757062861987e-014 -1.76145144147787e-014 -1.0
outer loop
vertex 227.921274777473 191.521626068821 6.87999916076618
vertex 228.259410977743 204.123389613588 6.87999916076555
vertex 229.935800508726 190.687182189186 6.87999916076627
endloop
endfacet
facet normal -2.10757062861987e-014 -1.76145144147787e-014 -1.0
outer loop
vertex 229.935800508726 190.687182189186 6.87999916076627
vertex 228.259410977743 204.123389613588 6.87999916076555
vertex 229.294944883676 204.917982726577 6.87999916076555
endloop
endfacet
facet normal -2.10757062861987e-014 -1.76145144147787e-014 -1.0
outer loop
vertex 229.935800508726 190.687182189186 6.87999916076627
vertex 229.294944883676 204.917982726577 6.87999916076555
vertex 230.089537996666 205.95351663251 6.87999916076555
endloop
endfacet
facet normal -2.10757062861987e-014 -1.76145144147787e-014 -1.0
outer loop
vertex 229.935800508726 190.687182189186 6.87999916076627
vertex 230.089537996666 205.95351663251 6.87999916076555
vertex 231.665712972148 189.359773669161 6.87999916076609
endloop
endfacet
facet normal -2.10757062861987e-014 -1.76145144147787e-014 -1.0
outer loop
vertex 231.665712972148 189.359773669161 6.87999916076609
vertex 230.089537996666 205.95351663251 6.87999916076555
vertex 230.589040109189 207.159421406997 6.87999916076555
endloop
endfacet
facet normal -2.10757062861987e-014 -1.76145144147787e-014 -1.0
outer loop
vertex 231.665712972148 189.359773669161 6.87999916076609
vertex 230.589040109189 207.159421406997 6.87999916076555
vertex 230.759410977743 208.45351663251 6.87999916076545
endloop
endfacet
facet normal 5.49287984576408e-015 1.0 -1.95831062219738e-015
outer loop
vertex 211.759422377813 183.453483074826 6.87999916076555
vertex 217.406666115987 183.453483074826 5.43999958038277
vertex 211.759422377813 183.453483074826 5.43999958038277
endloop
endfacet
facet normal 5.49287984576408e-015 1.0 -1.95831062219738e-015
outer loop
vertex 217.406666115987 183.453483074826 5.43999958038277
vertex 211.759422377813 183.453483074826 6.87999916076555
vertex 217.406666115987 183.453483074826 6.87999916076636
endloop
endfacet
facet normal -5.49287984314188e-015 1.0 -1.95831062716046e-015
outer loop
vertex 234.112178639639 183.453483074826 6.87999916076618
vertex 239.759422377813 183.453483074826 5.43999958038277
vertex 234.112178639639 183.453483074826 5.43999958038277
endloop
endfacet
facet normal -5.49287984314188e-015 1.0 -1.95831062716046e-015
outer loop
vertex 239.759422377813 183.453483074826 5.43999958038277
vertex 234.112178639639 183.453483074826 6.87999916076618
vertex 239.759422377813 183.453483074826 6.87999916076555
endloop
endfacet
facet normal -3.68834072144743e-016 1.0 -9.79155313911103e-015
outer loop
vertex 211.759422377813 183.453483074826 1.43999958038278
vertex 219.405045823324 183.453483074826 1.26334498418146e-012
vertex 211.759422377813 183.453483074826 0.0
endloop
endfacet
facet normal -3.68834072144743e-016 1.0 -9.79155313911103e-015
outer loop
vertex 219.405045823324 183.453483074826 1.26334498418146e-012
vertex 211.759422377813 183.453483074826 1.43999958038278
vertex 219.405045823324 183.453483074826 1.43999958038278
endloop
endfacet
facet normal 4.19916885406438e-014 1.49481789277696e-014 1.0
outer loop
vertex 219.405045823324 183.453483074826 1.26334498418146e-012
vertex 212.236460809766 187.076949706261 1.17310605673993e-012
vertex 211.759422377813 183.453483074826 0.0
endloop
endfacet
facet normal 4.19916885406438e-014 1.49481789277696e-014 1.0
outer loop
vertex 212.236460809766 187.076949706261 1.17310605673993e-012
vertex 219.405045823324 183.453483074826 1.26334498418146e-012
vertex 213.635066724831 190.453483074826 9.9262820185686e-013
endloop
endfacet
facet normal 4.19916885406438e-014 1.49481789277696e-014 1.0
outer loop
vertex 213.635066724831 190.453483074826 9.9262820185686e-013
vertex 219.405045823324 183.453483074826 1.26334498418146e-012
vertex 215.859927441201 193.352978011437 1.17310605673993e-012
endloop
endfacet
facet normal 4.19916885406438e-014 1.49481789277696e-014 1.0
outer loop
vertex 215.859927441201 193.352978011437 1.17310605673993e-012
vertex 219.405045823324 183.453483074826 1.26334498418146e-012
vertex 218.759422377813 195.577838727808 0.0
endloop
endfacet
facet normal 4.19916885406438e-014 1.49481789277696e-014 1.0
outer loop
vertex 218.759422377813 195.577838727808 0.0
vertex 219.405045823324 183.453483074826 1.26334498418146e-012
vertex 220.929843832297 209.747607051145 1.26334498418146e-012
endloop
endfacet
facet normal 4.19916885406438e-014 1.49481789277696e-014 1.0
outer loop
vertex 220.929843832297 209.747607051145 1.26334498418146e-012
vertex 219.405045823324 183.453483074826 1.26334498418146e-012
vertex 219.621565953866 185.09811674688 1.17310605673993e-012
endloop
endfacet
facet normal 4.19916885406438e-014 1.49481789277696e-014 1.0
outer loop
vertex 220.929843832297 209.747607051145 1.26334498418146e-012
vertex 219.621565953866 185.09811674688 1.17310605673993e-012
vertex 220.256370856413 186.63067135207 1.08286712929839e-012
endloop
endfacet
facet normal 4.19916885406438e-014 1.49481789277696e-014 1.0
outer loop
vertex 220.929843832297 209.747607051145 1.26334498418146e-012
vertex 220.256370856413 186.63067135207 1.08286712929839e-012
vertex 221.266199625921 187.946705826718 1.08286712929839e-012
endloop
endfacet
facet normal 4.19916885406438e-014 1.49481789277696e-014 1.0
outer loop
vertex 220.929843832297 209.747607051145 1.26334498418146e-012
vertex 221.266199625921 187.946705826718 1.08286712929839e-012
vertex 221.429283958821 210.95351663251 0.0
endloop
endfacet
facet normal 4.19916885406438e-014 1.49481789277696e-014 1.0
outer loop
vertex 221.429283958821 210.95351663251 0.0
vertex 221.266199625921 187.946705826718 1.08286712929839e-012
vertex 222.582234100568 188.956534596226 1.17310605673993e-012
endloop
endfacet
facet normal 4.19916885406438e-014 1.49481789277696e-014 1.0
outer loop
vertex 221.429283958821 210.95351663251 0.0
vertex 222.582234100568 188.956534596226 1.17310605673993e-012
vertex 222.223877071811 211.989050538443 -9.02389274415327e-014
endloop
endfacet
facet normal 4.19916885406438e-014 1.49481789277696e-014 1.0
outer loop
vertex 222.223877071811 211.989050538443 -9.02389274415327e-014
vertex 222.582234100568 188.956534596226 1.17310605673993e-012
vertex 223.259410977743 212.783643651432 -1.80477854883065e-013
endloop
endfacet
facet normal 4.19916885406438e-014 1.49481789277696e-014 1.0
outer loop
vertex 223.259410977743 212.783643651432 -1.80477854883065e-013
vertex 222.582234100568 188.956534596226 1.17310605673993e-012
vertex 224.114788705758 189.591339498773 1.17310605673993e-012
endloop
endfacet
facet normal 4.19916885406438e-014 1.49481789277696e-014 1.0
outer loop
vertex 223.259410977743 212.783643651432 -1.80477854883065e-013
vertex 224.114788705758 189.591339498773 1.17310605673993e-012
vertex 223.559429820329 208.453497779269 0.0
endloop
endfacet
facet normal 4.19916885406438e-014 1.49481789277696e-014 1.0
outer loop
vertex 223.559429820329 208.453497779269 0.0
vertex 224.114788705758 189.591339498773 1.17310605673993e-012
vertex 223.634397240025 207.884101399272 0.0
endloop
endfacet
facet normal 4.19916885406438e-014 1.49481789277696e-014 1.0
outer loop
vertex 223.634397240025 207.884101399272 0.0
vertex 224.114788705758 189.591339498773 1.17310605673993e-012
vertex 223.854180834196 207.353509726417 0.0
endloop
endfacet
facet normal 4.19916885406438e-014 1.49481789277696e-014 1.0
outer loop
vertex 223.854180834196 207.353509726417 0.0
vertex 224.114788705758 189.591339498773 1.17310605673993e-012
vertex 224.203802714108 206.897881706365 -9.02389274415327e-014
endloop
endfacet
facet normal 4.19916885406438e-014 1.49481789277696e-014 1.0
outer loop
vertex 224.203802714108 206.897881706365 -9.02389274415327e-014
vertex 224.114788705758 189.591339498773 1.17310605673993e-012
vertex 225.759422377813 189.807859629315 1.08286712929839e-012
endloop
endfacet
facet normal 4.19916885406438e-014 1.49481789277696e-014 1.0
outer loop
vertex 224.203802714108 206.897881706365 -9.02389274415327e-014
vertex 225.759422377813 189.807859629315 1.08286712929839e-012
vertex 224.659436726422 206.548267635722 0.0
endloop
endfacet
facet normal 4.19916885406438e-014 1.49481789277696e-014 1.0
outer loop
vertex 224.659436726422 206.548267635722 0.0
vertex 225.759422377813 189.807859629315 1.08286712929839e-012
vertex 225.19003216617 206.328493135636 0.0
endloop
endfacet
facet normal 4.19916885406438e-014 1.49481789277696e-014 1.0
outer loop
vertex 225.19003216617 206.328493135636 0.0
vertex 225.759422377813 189.807859629315 1.08286712929839e-012
vertex 225.759429830984 206.253535475096 -1.80477854883065e-013
endloop
endfacet
facet normal 4.19916885406438e-014 1.49481789277696e-014 1.0
outer loop
vertex 225.759429830984 206.253535475096 -1.80477854883065e-013
vertex 225.759422377813 189.807859629315 1.08286712929839e-012
vertex 227.404056049868 189.591339498773 1.08286712929839e-012
endloop
endfacet
facet normal 4.19916885406438e-014 1.49481789277696e-014 1.0
outer loop
vertex 225.759429830984 206.253535475096 -1.80477854883065e-013
vertex 227.404056049868 189.591339498773 1.08286712929839e-012
vertex 226.328826210981 206.328502894792 0.0
endloop
endfacet
facet normal 4.19916885406438e-014 1.49481789277696e-014 1.0
outer loop
vertex 226.328826210981 206.328502894792 0.0
vertex 227.404056049868 189.591339498773 1.08286712929839e-012
vertex 226.859417883836 206.548286488963 0.0
endloop
endfacet
facet normal 4.19916885406438e-014 1.49481789277696e-014 1.0
outer loop
vertex 226.859417883836 206.548286488963 0.0
vertex 227.404056049868 189.591339498773 1.08286712929839e-012
vertex 227.315045903888 206.897908368874 0.0
endloop
endfacet
facet normal 4.19916885406438e-014 1.49481789277696e-014 1.0
outer loop
vertex 227.315045903888 206.897908368874 0.0
vertex 227.404056049868 189.591339498773 1.08286712929839e-012
vertex 227.664659974532 207.353542381188 0.0
endloop
endfacet
facet normal 4.19916885406438e-014 1.49481789277696e-014 1.0
outer loop
vertex 227.664659974532 207.353542381188 0.0
vertex 227.404056049868 189.591339498773 1.08286712929839e-012
vertex 228.936610655057 188.956534596226 0.0
endloop
endfacet
facet normal 4.19916885406438e-014 1.49481789277696e-014 1.0
outer loop
vertex 227.664659974532 207.353542381188 0.0
vertex 228.936610655057 188.956534596226 0.0
vertex 227.884434474617 207.884137820937 0.0
endloop
endfacet
facet normal 4.19916885406438e-014 1.49481789277696e-014 1.0
outer loop
vertex 227.884434474617 207.884137820937 0.0
vertex 228.936610655057 188.956534596226 0.0
vertex 227.959392135157 208.453535485751 0.0
endloop
endfacet
facet normal 4.19916885406438e-014 1.49481789277696e-014 1.0
outer loop
vertex 227.959392135157 208.453535485751 0.0
vertex 228.936610655057 188.956534596226 0.0
vertex 228.259410977743 212.783643651432 0.0
endloop
endfacet
facet normal 4.19916885406438e-014 1.49481789277696e-014 1.0
outer loop
vertex 228.259410977743 212.783643651432 0.0
vertex 228.936610655057 188.956534596226 0.0
vertex 229.294944883676 211.989050538443 0.0
endloop
endfacet
facet normal 4.19916885406438e-014 1.49481789277696e-014 1.0
outer loop
vertex 229.294944883676 211.989050538443 0.0
vertex 228.936610655057 188.956534596226 0.0
vertex 230.252645129705 187.946705826718 0.0
endloop
endfacet
facet normal 4.19916885406438e-014 1.49481789277696e-014 1.0
outer loop
vertex 229.294944883676 211.989050538443 0.0
vertex 230.252645129705 187.946705826718 0.0
vertex 230.089537996666 210.95351663251 -1.80477854883065e-013
endloop
endfacet
facet normal 4.19916885406438e-014 1.49481789277696e-014 1.0
outer loop
vertex 230.089537996666 210.95351663251 -1.80477854883065e-013
vertex 230.252645129705 187.946705826718 0.0
vertex 230.5889840243 209.747585027901 1.26334498418146e-012
endloop
endfacet
facet normal 4.19916885406438e-014 1.49481789277696e-014 1.0
outer loop
vertex 230.5889840243 209.747585027901 1.26334498418146e-012
vertex 230.252645129705 187.946705826718 0.0
vertex 231.262473899213 186.63067135207 0.0
endloop
endfacet
facet normal 4.19916885406438e-014 1.49481789277696e-014 1.0
outer loop
vertex 230.5889840243 209.747585027901 1.26334498418146e-012
vertex 231.262473899213 186.63067135207 0.0
vertex 232.759422377813 195.577838727808 0.0
endloop
endfacet
facet normal 4.19916885406438e-014 1.49481789277696e-014 1.0
outer loop
vertex 232.759422377813 195.577838727808 0.0
vertex 231.262473899213 186.63067135207 0.0
vertex 231.89727880176 185.09811674688 0.0
endloop
endfacet
facet normal 4.19916885406438e-014 1.49481789277696e-014 1.0
outer loop
vertex 232.759422377813 195.577838727808 0.0
vertex 231.89727880176 185.09811674688 0.0
vertex 232.113798932302 183.453483074826 0.0
endloop
endfacet
facet normal 4.19916885406438e-014 1.49481789277696e-014 1.0
outer loop
vertex 232.759422377813 195.577838727808 0.0
vertex 232.113798932302 183.453483074826 0.0
vertex 239.759422377813 183.453483074826 0.0
endloop
endfacet
facet normal 4.19916885406438e-014 1.49481789277696e-014 1.0
outer loop
vertex 232.759422377813 195.577838727808 0.0
vertex 239.759422377813 183.453483074826 0.0
vertex 235.658917314425 193.352978011437 0.0
endloop
endfacet
facet normal 4.19916885406438e-014 1.49481789277696e-014 1.0
outer loop
vertex 235.658917314425 193.352978011437 0.0
vertex 239.759422377813 183.453483074826 0.0
vertex 237.883778030795 190.453483074826 0.0
endloop
endfacet
facet normal 4.19916885406438e-014 1.49481789277696e-014 1.0
outer loop
vertex 237.883778030795 190.453483074826 0.0
vertex 239.759422377813 183.453483074826 0.0
vertex 239.28238394586 187.076949706261 0.0
endloop
endfacet
facet normal 4.19916885406438e-014 1.49481789277696e-014 1.0
outer loop
vertex 223.259410977743 212.783643651432 -1.80477854883065e-013
vertex 223.63438748087 209.022895444083 0.0
vertex 224.465315752231 213.283145763955 0.0
endloop
endfacet
facet normal 4.19916885406438e-014 1.49481789277696e-014 1.0
outer loop
vertex 223.63438748087 209.022895444083 0.0
vertex 223.259410977743 212.783643651432 -1.80477854883065e-013
vertex 223.559429820329 208.453497779269 0.0
endloop
endfacet
facet normal 4.19916885406438e-014 1.49481789277696e-014 1.0
outer loop
vertex 224.465315752231 213.283145763955 0.0
vertex 223.63438748087 209.022895444083 0.0
vertex 223.854161980955 209.553490883831 0.0
endloop
endfacet
facet normal 4.19916885406438e-014 1.49481789277696e-014 1.0
outer loop
vertex 224.465315752231 213.283145763955 0.0
vertex 223.854161980955 209.553490883831 0.0
vertex 224.203776051599 210.009124896146 0.0
endloop
endfacet
facet normal 4.19916885406438e-014 1.49481789277696e-014 1.0
outer loop
vertex 224.465315752231 213.283145763955 0.0
vertex 224.203776051599 210.009124896146 0.0
vertex 224.659404071651 210.358746776057 0.0
endloop
endfacet
facet normal 4.19916885406438e-014 1.49481789277696e-014 1.0
outer loop
vertex 224.465315752231 213.283145763955 0.0
vertex 224.659404071651 210.358746776057 0.0
vertex 225.759410977743 213.45351663251 -1.80477854883065e-013
endloop
endfacet
facet normal 4.19916885406438e-014 1.49481789277696e-014 1.0
outer loop
vertex 225.759410977743 213.45351663251 -1.80477854883065e-013
vertex 224.659404071651 210.358746776057 0.0
vertex 225.189995744506 210.578530370228 -1.80477854883065e-013
endloop
endfacet
facet normal 4.19916885406438e-014 1.49481789277696e-014 1.0
outer loop
vertex 225.759410977743 213.45351663251 -1.80477854883065e-013
vertex 225.189995744506 210.578530370228 -1.80477854883065e-013
vertex 225.759392124502 210.653497789924 -9.02389274415327e-014
endloop
endfacet
facet normal 4.19916885406438e-014 1.49481789277696e-014 1.0
outer loop
vertex 225.759410977743 213.45351663251 -1.80477854883065e-013
vertex 225.759392124502 210.653497789924 -9.02389274415327e-014
vertex 226.328789789317 210.578540129383 0.0
endloop
endfacet
facet normal 4.19916885406438e-014 1.49481789277696e-014 1.0
outer loop
vertex 225.759410977743 213.45351663251 -1.80477854883065e-013
vertex 226.328789789317 210.578540129383 0.0
vertex 227.053506203256 213.283145763955 0.0
endloop
endfacet
facet normal 4.19916885406438e-014 1.49481789277696e-014 1.0
outer loop
vertex 227.053506203256 213.283145763955 0.0
vertex 226.328789789317 210.578540129383 0.0
vertex 226.859385229065 210.358765629298 0.0
endloop
endfacet
facet normal 4.19916885406438e-014 1.49481789277696e-014 1.0
outer loop
vertex 227.053506203256 213.283145763955 0.0
vertex 226.859385229065 210.358765629298 0.0
vertex 227.315019241379 210.009151558655 -1.80477854883065e-013
endloop
endfacet
facet normal 4.19916885406438e-014 1.49481789277696e-014 1.0
outer loop
vertex 227.053506203256 213.283145763955 0.0
vertex 227.315019241379 210.009151558655 -1.80477854883065e-013
vertex 228.259410977743 212.783643651432 0.0
endloop
endfacet
facet normal 4.19916885406438e-014 1.49481789277696e-014 1.0
outer loop
vertex 228.259410977743 212.783643651432 0.0
vertex 227.315019241379 210.009151558655 -1.80477854883065e-013
vertex 227.664641121291 209.553523538602 0.0
endloop
endfacet
facet normal 4.19916885406438e-014 1.49481789277696e-014 1.0
outer loop
vertex 228.259410977743 212.783643651432 0.0
vertex 227.664641121291 209.553523538602 0.0
vertex 227.884424715461 209.022931865748 0.0
endloop
endfacet
facet normal 4.19916885406438e-014 1.49481789277696e-014 1.0
outer loop
vertex 228.259410977743 212.783643651432 0.0
vertex 227.884424715461 209.022931865748 0.0
vertex 227.959392135157 208.453535485751 0.0
endloop
endfacet
facet normal 1.15144706454381e-024 1.0 -1.17498637662715e-014
outer loop
vertex 232.113798932302 183.453483074826 1.43999958038278
vertex 239.759422377813 183.453483074826 0.0
vertex 232.113798932302 183.453483074826 0.0
endloop
endfacet
facet normal 1.15144706454381e-024 1.0 -1.17498637662715e-014
outer loop
vertex 239.759422377813 183.453483074826 0.0
vertex 232.113798932302 183.453483074826 1.43999958038278
vertex 239.759422377813 183.453483074826 1.43999958038278
endloop
endfacet
facet normal 0.866025403784436 0.500000000000004 -2.98958873738339e-014
outer loop
vertex 232.993121492173 187.629861205739 4.36655855178815
vertex 233.827565371808 185.615335474486 6.87999916076609
vertex 233.827565371808 185.615335474486 4.36655855178806
endloop
endfacet
facet normal 0.96592582628907 0.258819045102515 -1.92107817584482e-014
outer loop
vertex 233.827565371808 185.615335474486 6.87999916076609
vertex 232.993121492173 187.629861205739 4.36655855178815
vertex 232.993121492173 187.629861205739 6.87999916076627
endloop
endfacet
facet normal -0.965925826289071 0.258819045102511 6.07946276393951e-015
outer loop
vertex 217.691279383818 185.615335474486 6.87999916076618
vertex 218.525723263452 187.629861205739 4.36655855178806
vertex 217.691279383818 185.615335474486 4.36655855178806
endloop
endfacet
facet normal -0.866025403784437 0.500000000000002 1.75142905972295e-014
outer loop
vertex 218.525723263452 187.629861205739 4.36655855178806
vertex 217.691279383818 185.615335474486 6.87999916076618
vertex 218.525723263452 187.629861205739 6.87999916076618
endloop
endfacet
facet normal -0.500000000000002 0.866025403784437 2.96336216371146e-015
outer loop
vertex 221.5830442469 190.687182189186 4.36655855178824
vertex 223.597569978153 191.521626068821 6.87999916076618
vertex 223.597569978153 191.521626068821 4.36655855178806
endloop
endfacet
facet normal -0.258819045102521 0.965925826289068 -4.87523697748976e-015
outer loop
vertex 223.597569978153 191.521626068821 6.87999916076618
vertex 221.5830442469 190.687182189186 4.36655855178824
vertex 221.5830442469 190.687182189186 6.87999916076627
endloop
endfacet
facet normal 0.500000000000005 0.866025403784436 -2.44089168538239e-014
outer loop
vertex 229.935800508726 190.687182189186 4.36655855178815
vertex 231.665712972148 189.359773669161 6.87999916076609
vertex 231.665712972148 189.359773669161 4.36655855178806
endloop
endfacet
facet normal 0.707106781186541 0.707106781186554 -2.81102351501379e-014
outer loop
vertex 231.665712972148 189.359773669161 6.87999916076609
vertex 229.935800508726 190.687182189186 4.36655855178815
vertex 229.935800508726 190.687182189186 6.87999916076627
endloop
endfacet
facet normal -0.258819045102521 0.965925826289068 -4.87523697748976e-015
outer loop
vertex 223.597569978153 191.521626068821 6.87999916076618
vertex 225.759422377813 191.806239336651 4.36655855178824
vertex 223.597569978153 191.521626068821 4.36655855178806
endloop
endfacet
facet normal 1.30102204476438e-015 1.0 -1.23815967763959e-014
outer loop
vertex 225.759422377813 191.806239336651 4.36655855178824
vertex 223.597569978153 191.521626068821 6.87999916076618
vertex 225.759422377813 191.806239336651 6.87999916076636
endloop
endfacet
facet normal 0.707106781186542 0.707106781186553 -2.81102351501379e-014
outer loop
vertex 231.665712972148 189.359773669161 4.36655855178806
vertex 232.993121492173 187.629861205739 6.87999916076627
vertex 232.993121492173 187.629861205739 4.36655855178815
endloop
endfacet
facet normal 0.866025403784435 0.500000000000005 -2.98958873738339e-014
outer loop
vertex 232.993121492173 187.629861205739 6.87999916076627
vertex 231.665712972148 189.359773669161 4.36655855178806
vertex 231.665712972148 189.359773669161 6.87999916076609
endloop
endfacet
facet normal 0.258819045102521 0.965925826289068 -1.90441712129874e-014
outer loop
vertex 227.921274777473 191.521626068821 6.87999916076618
vertex 229.935800508726 190.687182189186 4.36655855178815
vertex 227.921274777473 191.521626068821 4.36655855178806
endloop
endfacet
facet normal 0.500000000000005 0.866025403784436 -2.44089168538239e-014
outer loop
vertex 229.935800508726 190.687182189186 4.36655855178815
vertex 227.921274777473 191.521626068821 6.87999916076618
vertex 229.935800508726 190.687182189186 6.87999916076627
endloop
endfacet
facet normal 1.30102204476438e-015 1.0 -1.23815967763959e-014
outer loop
vertex 225.759422377813 191.806239336651 4.36655855178824
vertex 227.921274777473 191.521626068821 6.87999916076618
vertex 227.921274777473 191.521626068821 4.36655855178806
endloop
endfacet
facet normal 0.258819045102521 0.965925826289068 -1.90441712129874e-014
outer loop
vertex 227.921274777473 191.521626068821 6.87999916076618
vertex 225.759422377813 191.806239336651 4.36655855178824
vertex 225.759422377813 191.806239336651 6.87999916076636
endloop
endfacet
facet normal -0.707106781186539 0.707106781186556 1.06000130661558e-014
outer loop
vertex 219.853131783478 189.359773669161 6.87999916076636
vertex 221.5830442469 190.687182189186 4.36655855178824
vertex 219.853131783478 189.359773669161 4.36655855178824
endloop
endfacet
facet normal -0.500000000000002 0.866025403784437 2.96336216371146e-015
outer loop
vertex 221.5830442469 190.687182189186 4.36655855178824
vertex 219.853131783478 189.359773669161 6.87999916076636
vertex 221.5830442469 190.687182189186 6.87999916076627
endloop
endfacet
facet normal -0.866025403784433 0.500000000000009 1.75142905972293e-014
outer loop
vertex 218.525723263452 187.629861205739 6.87999916076618
vertex 219.853131783478 189.359773669161 4.36655855178824
vertex 218.525723263452 187.629861205739 4.36655855178806
endloop
endfacet
facet normal -0.707106781186544 0.707106781186551 1.0600013066156e-014
outer loop
vertex 219.853131783478 189.359773669161 4.36655855178824
vertex 218.525723263452 187.629861205739 6.87999916076618
vertex 219.853131783478 189.359773669161 6.87999916076636
endloop
endfacet
facet normal 0.965925826289067 0.258819045102526 1.24977193887924e-014
outer loop
vertex 220.929781846298 207.159421406997 6.87999916076555
vertex 220.759410977743 208.45351663251 19.6999999999959
vertex 220.929781846298 207.159421406997 19.6999999999959
endloop
endfacet
facet normal 0.999999999717213 -2.37818036316148e-005 6.91860495806592e-015
outer loop
vertex 220.759410977743 208.45351663251 19.6999999999959
vertex 220.929781846298 207.159421406997 6.87999916076555
vertex 220.759410977743 208.45351663251 6.87999916076555
endloop
endfacet
facet normal 0.500007421584133 -0.866021118888441 -9.42833685596151e-015
outer loop
vertex 226.859417883836 206.548286488962 19.699999999996
vertex 226.328826210981 206.328502894792 0.0
vertex 226.859417883836 206.548286488963 0.0
endloop
endfacet
facet normal 0.258827322814889 -0.965923608244709 -1.05159790837431e-014
outer loop
vertex 226.328826210981 206.328502894792 0.0
vertex 226.859417883836 206.548286488962 19.699999999996
vertex 226.328826210981 206.328502894792 19.6999999999959
endloop
endfacet
facet normal 0.707112840873588 -0.707100721447577 -7.69816905184135e-015
outer loop
vertex 227.315045903888 206.897908368874 19.6999999999959
vertex 226.859417883836 206.548286488963 0.0
vertex 227.315045903888 206.897908368874 0.0
endloop
endfacet
facet normal 0.500007421584134 -0.866021118888441 -9.42833685596151e-015
outer loop
vertex 226.859417883836 206.548286488963 0.0
vertex 227.315045903888 206.897908368874 19.6999999999959
vertex 226.859417883836 206.548286488962 19.699999999996
endloop
endfacet
facet normal 0.866029688616802 -0.499992578379204 -5.4433837489743e-015
outer loop
vertex 227.664659974532 207.353542381188 0.0
vertex 227.884434474617 207.884137820936 19.699999999996
vertex 227.664659974532 207.353542381188 19.699999999996
endloop
endfacet
facet normal 0.965928044262501 -0.258810767371103 -2.81764083840323e-015
outer loop
vertex 227.884434474617 207.884137820936 19.699999999996
vertex 227.664659974532 207.353542381188 0.0
vertex 227.884434474617 207.884137820937 0.0
endloop
endfacet
facet normal 0.99999999996328 8.5697283037449e-006 1.19639161511232e-019
outer loop
vertex 227.959392135157 208.453535485751 0.0
vertex 227.884424715461 209.022931865747 19.6999999999959
vertex 227.959392135158 208.453535485751 19.699999999996
endloop
endfacet
facet normal 0.965923608244683 0.258827322814984 2.81787196063885e-015
outer loop
vertex 227.884424715461 209.022931865747 19.6999999999959
vertex 227.959392135157 208.453535485751 0.0
vertex 227.884424715461 209.022931865748 0.0
endloop
endfacet
facet normal 0.965928044262502 -0.258810767371102 -2.81764083840321e-015
outer loop
vertex 227.884434474617 207.884137820937 0.0
vertex 227.959392135158 208.453535485751 19.699999999996
vertex 227.884434474617 207.884137820936 19.699999999996
endloop
endfacet
facet normal 0.99999999996328 8.56972829516394e-006 1.19639161417782e-019
outer loop
vertex 227.959392135158 208.453535485751 19.699999999996
vertex 227.884434474617 207.884137820937 0.0
vertex 227.959392135157 208.453535485751 0.0
endloop
endfacet
facet normal 0.258827322814889 -0.965923608244709 -1.05159790837431e-014
outer loop
vertex 226.328826210981 206.328502894792 0.0
vertex 225.759429830984 206.253535475096 19.6999999999958
vertex 225.759429830984 206.253535475096 -1.80477854883065e-013
endloop
endfacet
facet normal 8.56972832786577e-006 -0.99999999996328 -1.08869747150868e-014
outer loop
vertex 225.759429830984 206.253535475096 19.6999999999958
vertex 226.328826210981 206.328502894792 0.0
vertex 226.328826210981 206.328502894792 19.6999999999959
endloop
endfacet
facet normal 0.707112840873589 -0.707100721447576 -7.69816905184135e-015
outer loop
vertex 227.315045903888 206.897908368874 0.0
vertex 227.664659974532 207.353542381188 19.699999999996
vertex 227.315045903888 206.897908368874 19.6999999999959
endloop
endfacet
facet normal 0.866029688616805 -0.4999925783792 -5.44338374897426e-015
outer loop
vertex 227.664659974532 207.353542381188 19.699999999996
vertex 227.315045903888 206.897908368874 0.0
vertex 227.664659974532 207.353542381188 0.0
endloop
endfacet
facet normal 0.965923608244681 0.258827322814992 2.81787196063894e-015
outer loop
vertex 227.884424715461 209.022931865748 0.0
vertex 227.664641121291 209.553523538602 19.6999999999959
vertex 227.884424715461 209.022931865747 19.6999999999959
endloop
endfacet
facet normal 0.86602111888849 0.500007421584049 5.44359096486123e-015
outer loop
vertex 227.664641121291 209.553523538602 19.6999999999959
vertex 227.884424715461 209.022931865748 0.0
vertex 227.664641121291 209.553523538602 0.0
endloop
endfacet
facet normal 0.866021118888482 0.500007421584062 5.44359096486137e-015
outer loop
vertex 227.664641121291 209.553523538602 0.0
vertex 227.315019241379 210.009151558654 19.6999999999959
vertex 227.664641121291 209.553523538602 19.6999999999959
endloop
endfacet
facet normal 0.707100721447605 0.70711284087356 7.69833824095959e-015
outer loop
vertex 227.315019241379 210.009151558654 19.6999999999959
vertex 227.664641121291 209.553523538602 0.0
vertex 227.315019241379 210.009151558655 -1.80477854883065e-013
endloop
endfacet
facet normal 0.499992578379185 0.866029688616813 9.42845649095136e-015
outer loop
vertex 226.859385229065 210.358765629298 0.0
vertex 227.315019241379 210.009151558654 19.6999999999959
vertex 227.315019241379 210.009151558655 -1.80477854883065e-013
endloop
endfacet
facet normal 0.707100721447605 0.70711284087356 7.69833824095959e-015
outer loop
vertex 227.315019241379 210.009151558654 19.6999999999959
vertex 226.859385229065 210.358765629298 0.0
vertex 226.859385229065 210.358765629298 19.699999999996
endloop
endfacet
facet normal 0.258810767371053 0.965928044262515 1.05160410143576e-014
outer loop
vertex 226.328789789316 210.578540129383 19.6999999999959
vertex 226.859385229065 210.358765629298 0.0
vertex 226.328789789317 210.578540129383 0.0
endloop
endfacet
facet normal 0.499992578379185 0.866029688616813 9.42845649095136e-015
outer loop
vertex 226.859385229065 210.358765629298 0.0
vertex 226.328789789316 210.578540129383 19.6999999999959
vertex 226.859385229065 210.358765629298 19.699999999996
endloop
endfacet
facet normal -8.56972828894378e-006 0.99999999996328 1.08869747167555e-014
outer loop
vertex 225.759392124502 210.653497789924 19.6999999999959
vertex 226.328789789317 210.578540129383 0.0
vertex 225.759392124502 210.653497789924 -9.02389274415327e-014
endloop
endfacet
facet normal 0.258810767371041 0.965928044262518 1.05160410143576e-014
outer loop
vertex 226.328789789317 210.578540129383 0.0
vertex 225.759392124502 210.653497789924 19.6999999999959
vertex 226.328789789316 210.578540129383 19.6999999999959
endloop
endfacet
facet normal -0.258827322814922 0.9659236082447 1.05159790837431e-014
outer loop
vertex 225.189995744506 210.578530370228 19.6999999999958
vertex 225.759392124502 210.653497789924 -9.02389274415327e-014
vertex 225.189995744506 210.578530370228 -1.80477854883065e-013
endloop
endfacet
facet normal -8.56972830870821e-006 0.99999999996328 1.08869747167555e-014
outer loop
vertex 225.759392124502 210.653497789924 -9.02389274415327e-014
vertex 225.189995744506 210.578530370228 19.6999999999958
vertex 225.759392124502 210.653497789924 19.6999999999959
endloop
endfacet
facet normal -0.500007421584112 0.866021118888453 9.42833685637867e-015
outer loop
vertex 224.659404071651 210.358746776057 0.0
vertex 225.189995744506 210.578530370228 19.6999999999958
vertex 225.189995744506 210.578530370228 -1.80477854883065e-013
endloop
endfacet
facet normal -0.258827322814922 0.9659236082447 1.05159790837431e-014
outer loop
vertex 225.189995744506 210.578530370228 19.6999999999958
vertex 224.659404071651 210.358746776057 0.0
vertex 224.659404071651 210.358746776057 19.6999999999959
endloop
endfacet
facet normal -0.707112840873602 0.707100721447564 7.69816905121569e-015
outer loop
vertex 224.203776051599 210.009124896145 19.699999999996
vertex 224.659404071651 210.358746776057 0.0
vertex 224.203776051599 210.009124896146 0.0
endloop
endfacet
facet normal -0.500007421584112 0.866021118888453 9.42833685637867e-015
outer loop
vertex 224.659404071651 210.358746776057 0.0
vertex 224.203776051599 210.009124896145 19.699999999996
vertex 224.659404071651 210.358746776057 19.6999999999959
endloop
endfacet
facet normal -0.707112840873602 0.707100721447564 7.69816905121569e-015
outer loop
vertex 224.203776051599 210.009124896145 19.699999999996
vertex 223.854161980955 209.553490883831 0.0
vertex 223.854161980955 209.553490883831 19.6999999999959
endloop
endfacet
facet normal -0.866029688616793 0.499992578379221 5.44338374793134e-015
outer loop
vertex 223.854161980955 209.553490883831 0.0
vertex 224.203776051599 210.009124896145 19.699999999996
vertex 224.203776051599 210.009124896146 0.0
endloop
endfacet
facet normal 0.999999999717213 -2.37818035547709e-005 6.91860495806778e-015
outer loop
vertex 220.759410977743 208.45351663251 6.87999916076555
vertex 220.929843832297 209.747607051144 19.6999999999971
vertex 220.759410977743 208.45351663251 19.6999999999959
endloop
endfacet
facet normal 0.991438651955806 -0.130573348766333 3.68954084248266e-015
outer loop
vertex 220.929843832297 209.747607051144 19.6999999999971
vertex 220.759410977743 208.45351663251 6.87999916076555
vertex 220.929843832297 209.747607051145 6.87999916076681
endloop
endfacet
facet normal 0.866036724658244 -0.499980391158714 -5.60226309669405e-015
outer loop
vertex 221.429283958821 210.95351663251 0.0
vertex 220.929843832297 209.747607051145 6.87999916076681
vertex 220.929843832297 209.747607051145 1.26334498418146e-012
endloop
endfacet
facet normal 0.923896861147237 -0.382641594657826 -4.48108741546018e-015
outer loop
vertex 220.929843832297 209.747607051145 6.87999916076681
vertex 221.429283958821 210.95351663251 0.0
vertex 221.429283958821 210.95351663251 19.6999999999959
endloop
endfacet
facet normal 0.866036724658289 -0.499980391158637 -5.60226309669332e-015
outer loop
vertex 221.429283958821 210.95351663251 19.6999999999959
vertex 220.929843832297 209.747607051144 19.6999999999971
vertex 220.929843832297 209.747607051145 6.87999916076681
endloop
endfacet
facet normal 0.866036724658244 -0.499980391158714 -5.60226309669405e-015
outer loop
vertex 221.429283958821 210.95351663251 0.0
vertex 222.223877071811 211.989050538442 19.6999999999958
vertex 221.429283958821 210.95351663251 19.6999999999959
endloop
endfacet
facet normal 0.707106781186535 -0.707106781186561 -7.69823502243405e-015
outer loop
vertex 222.223877071811 211.989050538442 19.6999999999958
vertex 221.429283958821 210.95351663251 0.0
vertex 222.223877071811 211.989050538443 -9.02389274415327e-014
endloop
endfacet
facet normal 0.5 -0.866025403784439 -9.42838350645326e-015
outer loop
vertex 223.259410977743 212.783643651432 19.699999999996
vertex 222.223877071811 211.989050538443 -9.02389274415327e-014
vertex 223.259410977743 212.783643651432 -1.80477854883065e-013
endloop
endfacet
facet normal 0.707106781186531 -0.707106781186564 -7.69823502243408e-015
outer loop
vertex 222.223877071811 211.989050538443 -9.02389274415327e-014
vertex 223.259410977743 212.783643651432 19.699999999996
vertex 222.223877071811 211.989050538442 19.6999999999958
endloop
endfacet
facet normal 0.25881904510252 -0.965925826289068 -1.05160032305838e-014
outer loop
vertex 224.465315752231 213.283145763955 0.0
vertex 223.259410977743 212.783643651432 19.699999999996
vertex 223.259410977743 212.783643651432 -1.80477854883065e-013
endloop
endfacet
facet normal 0.5 -0.866025403784439 -9.42838350645326e-015
outer loop
vertex 223.259410977743 212.783643651432 19.699999999996
vertex 224.465315752231 213.283145763955 0.0
vertex 224.465315752231 213.283145763955 19.699999999996
endloop
endfacet
facet normal 2.51293299057248e-015 -1.0 -1.08869747142526e-014
outer loop
vertex 225.759410977743 213.45351663251 19.699999999996
vertex 224.465315752231 213.283145763955 0.0
vertex 225.759410977743 213.45351663251 -1.80477854883065e-013
endloop
endfacet
facet normal 0.25881904510252 -0.965925826289068 -1.05160032305838e-014
outer loop
vertex 224.465315752231 213.283145763955 0.0
vertex 225.759410977743 213.45351663251 19.699999999996
vertex 224.465315752231 213.283145763955 19.699999999996
endloop
endfacet
facet normal -0.258819045102514 -0.96592582628907 -1.05160168650139e-014
outer loop
vertex 227.053506203256 213.283145763955 0.0
vertex 225.759410977743 213.45351663251 19.699999999996
vertex 225.759410977743 213.45351663251 -1.80477854883065e-013
endloop
endfacet
facet normal 2.51293299057248e-015 -1.0 -1.08869747142526e-014
outer loop
vertex 225.759410977743 213.45351663251 19.699999999996
vertex 227.053506203256 213.283145763955 0.0
vertex 227.053506203256 213.283145763955 19.6999999999959
endloop
endfacet
facet normal -0.5 -0.866025403784439 -9.42840984337967e-015
outer loop
vertex 228.259410977743 212.783643651432 19.6999999999959
vertex 227.053506203256 213.283145763955 0.0
vertex 228.259410977743 212.783643651432 0.0
endloop
endfacet
facet normal -0.258819045102514 -0.96592582628907 -1.05160168650139e-014
outer loop
vertex 227.053506203256 213.283145763955 0.0
vertex 228.259410977743 212.783643651432 19.6999999999959
vertex 227.053506203256 213.283145763955 19.6999999999959
endloop
endfacet
facet normal -0.707106781186537 -0.707106781186558 -7.69827227391275e-015
outer loop
vertex 229.294944883676 211.989050538442 19.6999999999959
vertex 228.259410977743 212.783643651432 0.0
vertex 229.294944883676 211.989050538443 0.0
endloop
endfacet
facet normal -0.499999999999998 -0.86602540378444 -9.42840984337968e-015
outer loop
vertex 228.259410977743 212.783643651432 0.0
vertex 229.294944883676 211.989050538442 19.6999999999959
vertex 228.259410977743 212.783643651432 19.6999999999959
endloop
endfacet
facet normal -0.707106781186537 -0.707106781186558 -7.69827227391275e-015
outer loop
vertex 229.294944883676 211.989050538442 19.6999999999959
vertex 230.089537996666 210.95351663251 -1.80477854883065e-013
vertex 230.089537996666 210.95351663251 19.699999999996
endloop
endfacet
facet normal -0.866037294441297 -0.499979404212612 -6.02451413140551e-015
outer loop
vertex 230.089537996666 210.95351663251 -1.80477854883065e-013
vertex 229.294944883676 211.989050538442 19.6999999999959
vertex 229.294944883676 211.989050538443 0.0
endloop
endfacet
facet normal -0.86602968861679 0.499992578379226 5.44338374793138e-015
outer loop
vertex 223.854161980955 209.553490883831 19.6999999999959
vertex 223.63438748087 209.022895444083 0.0
vertex 223.63438748087 209.022895444083 19.6999999999959
endloop
endfacet
facet normal -0.965928044262504 0.258810767371093 2.81764083798613e-015
outer loop
vertex 223.63438748087 209.022895444083 0.0
vertex 223.854161980955 209.553490883831 19.6999999999959
vertex 223.854161980955 209.553490883831 0.0
endloop
endfacet
facet normal -0.965928044262504 0.258810767371091 2.81764083798611e-015
outer loop
vertex 223.63438748087 209.022895444083 19.6999999999959
vertex 223.559429820329 208.453497779269 0.0
vertex 223.559429820329 208.453497779269 19.6999999999959
endloop
endfacet
facet normal -0.99999999996328 -8.56972830050108e-006 -1.19639578648779e-019
outer loop
vertex 223.559429820329 208.453497779269 0.0
vertex 223.63438748087 209.022895444083 19.6999999999959
vertex 223.63438748087 209.022895444083 0.0
endloop
endfacet
facet normal -0.99999999996328 -8.56972830905532e-006 -1.19639578741976e-019
outer loop
vertex 223.559429820329 208.453497779269 19.6999999999959
vertex 223.634397240025 207.884101399272 0.0
vertex 223.634397240025 207.884101399272 19.699999999996
endloop
endfacet
facet normal -0.965923608244698 -0.258827322814927 -2.81787196063896e-015
outer loop
vertex 223.634397240025 207.884101399272 0.0
vertex 223.559429820329 208.453497779269 19.6999999999959
vertex 223.559429820329 208.453497779269 0.0
endloop
endfacet
facet normal 2.63349491618507e-020 1.08869747129692e-014 -1.0
outer loop
vertex 220.929843832297 209.747607051144 19.6999999999971
vertex 220.929781846298 207.159421406997 19.6999999999959
vertex 220.759410977743 208.45351663251 19.6999999999959
endloop
endfacet
facet normal 2.63349491618507e-020 1.08869747129692e-014 -1.0
outer loop
vertex 220.929781846298 207.159421406997 19.6999999999959
vertex 220.929843832297 209.747607051144 19.6999999999971
vertex 221.429283958821 205.95351663251 19.6999999999959
endloop
endfacet
facet normal 2.63349491618507e-020 1.08869747129692e-014 -1.0
outer loop
vertex 221.429283958821 205.95351663251 19.6999999999959
vertex 220.929843832297 209.747607051144 19.6999999999971
vertex 221.429283958821 210.95351663251 19.6999999999959
endloop
endfacet
facet normal 2.63349491618507e-020 1.08869747129692e-014 -1.0
outer loop
vertex 221.429283958821 205.95351663251 19.6999999999959
vertex 221.429283958821 210.95351663251 19.6999999999959
vertex 222.223877071811 204.917982726577 19.699999999996
endloop
endfacet
facet normal 2.63349491618507e-020 1.08869747129692e-014 -1.0
outer loop
vertex 222.223877071811 204.917982726577 19.699999999996
vertex 221.429283958821 210.95351663251 19.6999999999959
vertex 222.223877071811 211.989050538442 19.6999999999958
endloop
endfacet
facet normal 2.63349491618507e-020 1.08869747129692e-014 -1.0
outer loop
vertex 222.223877071811 204.917982726577 19.699999999996
vertex 222.223877071811 211.989050538442 19.6999999999958
vertex 223.259410977743 204.123389613587 19.699999999996
endloop
endfacet
facet normal 2.63349491618507e-020 1.08869747129692e-014 -1.0
outer loop
vertex 223.259410977743 204.123389613587 19.699999999996
vertex 222.223877071811 211.989050538442 19.6999999999958
vertex 223.259410977743 212.783643651432 19.699999999996
endloop
endfacet
facet normal 2.63349491618507e-020 1.08869747129692e-014 -1.0
outer loop
vertex 223.259410977743 204.123389613587 19.699999999996
vertex 223.259410977743 212.783643651432 19.699999999996
vertex 223.559429820329 208.453497779269 19.6999999999959
endloop
endfacet
facet normal 2.63349491618507e-020 1.08869747129692e-014 -1.0
outer loop
vertex 223.559429820329 208.453497779269 19.6999999999959
vertex 223.259410977743 212.783643651432 19.699999999996
vertex 223.63438748087 209.022895444083 19.6999999999959
endloop
endfacet
facet normal 2.63349491618507e-020 1.08869747129692e-014 -1.0
outer loop
vertex 223.63438748087 209.022895444083 19.6999999999959
vertex 223.259410977743 212.783643651432 19.699999999996
vertex 224.465315752231 213.283145763955 19.699999999996
endloop
endfacet
facet normal 2.63349491618507e-020 1.08869747129692e-014 -1.0
outer loop
vertex 223.63438748087 209.022895444083 19.6999999999959
vertex 224.465315752231 213.283145763955 19.699999999996
vertex 223.854161980955 209.553490883831 19.6999999999959
endloop
endfacet
facet normal 2.63349491618507e-020 1.08869747129692e-014 -1.0
outer loop
vertex 223.854161980955 209.553490883831 19.6999999999959
vertex 224.465315752231 213.283145763955 19.699999999996
vertex 224.203776051599 210.009124896145 19.699999999996
endloop
endfacet
facet normal 2.63349491618507e-020 1.08869747129692e-014 -1.0
outer loop
vertex 224.203776051599 210.009124896145 19.699999999996
vertex 224.465315752231 213.283145763955 19.699999999996
vertex 224.659404071651 210.358746776057 19.6999999999959
endloop
endfacet
facet normal 2.63349491618507e-020 1.08869747129692e-014 -1.0
outer loop
vertex 224.659404071651 210.358746776057 19.6999999999959
vertex 224.465315752231 213.283145763955 19.699999999996
vertex 225.759410977743 213.45351663251 19.699999999996
endloop
endfacet
facet normal 2.63349491618507e-020 1.08869747129692e-014 -1.0
outer loop
vertex 224.659404071651 210.358746776057 19.6999999999959
vertex 225.759410977743 213.45351663251 19.699999999996
vertex 225.189995744506 210.578530370228 19.6999999999958
endloop
endfacet
facet normal 2.63349491618507e-020 1.08869747129692e-014 -1.0
outer loop
vertex 225.189995744506 210.578530370228 19.6999999999958
vertex 225.759410977743 213.45351663251 19.699999999996
vertex 225.759392124502 210.653497789924 19.6999999999959
endloop
endfacet
facet normal 2.63349491618507e-020 1.08869747129692e-014 -1.0
outer loop
vertex 225.759392124502 210.653497789924 19.6999999999959
vertex 225.759410977743 213.45351663251 19.699999999996
vertex 226.328789789316 210.578540129383 19.6999999999959
endloop
endfacet
facet normal 2.63349491618507e-020 1.08869747129692e-014 -1.0
outer loop
vertex 226.328789789316 210.578540129383 19.6999999999959
vertex 225.759410977743 213.45351663251 19.699999999996
vertex 227.053506203256 213.283145763955 19.6999999999959
endloop
endfacet
facet normal 2.63349491618507e-020 1.08869747129692e-014 -1.0
outer loop
vertex 226.328789789316 210.578540129383 19.6999999999959
vertex 227.053506203256 213.283145763955 19.6999999999959
vertex 226.859385229065 210.358765629298 19.699999999996
endloop
endfacet
facet normal 2.63349491618507e-020 1.08869747129692e-014 -1.0
outer loop
vertex 226.859385229065 210.358765629298 19.699999999996
vertex 227.053506203256 213.283145763955 19.6999999999959
vertex 227.315019241379 210.009151558654 19.6999999999959
endloop
endfacet
facet normal 2.63349491618507e-020 1.08869747129692e-014 -1.0
outer loop
vertex 227.315019241379 210.009151558654 19.6999999999959
vertex 227.053506203256 213.283145763955 19.6999999999959
vertex 228.259410977743 212.783643651432 19.6999999999959
endloop
endfacet
facet normal 2.63349491618507e-020 1.08869747129692e-014 -1.0
outer loop
vertex 227.315019241379 210.009151558654 19.6999999999959
vertex 228.259410977743 212.783643651432 19.6999999999959
vertex 227.664641121291 209.553523538602 19.6999999999959
endloop
endfacet
facet normal 2.63349491618507e-020 1.08869747129692e-014 -1.0
outer loop
vertex 227.664641121291 209.553523538602 19.6999999999959
vertex 228.259410977743 212.783643651432 19.6999999999959
vertex 227.884424715461 209.022931865747 19.6999999999959
endloop
endfacet
facet normal 2.63349491618507e-020 1.08869747129692e-014 -1.0
outer loop
vertex 227.884424715461 209.022931865747 19.6999999999959
vertex 228.259410977743 212.783643651432 19.6999999999959
vertex 227.959392135158 208.453535485751 19.699999999996
endloop
endfacet
facet normal 2.63349491618507e-020 1.08869747129692e-014 -1.0
outer loop
vertex 223.259410977743 204.123389613587 19.699999999996
vertex 223.634397240025 207.884101399272 19.699999999996
vertex 224.465315752231 203.623887501064 19.699999999996
endloop
endfacet
facet normal 2.63349491618507e-020 1.08869747129692e-014 -1.0
outer loop
vertex 223.634397240025 207.884101399272 19.699999999996
vertex 223.259410977743 204.123389613587 19.699999999996
vertex 223.559429820329 208.453497779269 19.6999999999959
endloop
endfacet
facet normal 2.63349491618507e-020 1.08869747129692e-014 -1.0
outer loop
vertex 224.465315752231 203.623887501064 19.699999999996
vertex 223.634397240025 207.884101399272 19.699999999996
vertex 223.854180834196 207.353509726417 19.699999999996
endloop
endfacet
facet normal 2.63349491618507e-020 1.08869747129692e-014 -1.0
outer loop
vertex 224.465315752231 203.623887501064 19.699999999996
vertex 223.854180834196 207.353509726417 19.699999999996
vertex 224.203802714108 206.897881706365 19.6999999999959
endloop
endfacet
facet normal 2.63349491618507e-020 1.08869747129692e-014 -1.0
outer loop
vertex 224.465315752231 203.623887501064 19.699999999996
vertex 224.203802714108 206.897881706365 19.6999999999959
vertex 224.659436726422 206.548267635721 19.6999999999959
endloop
endfacet
facet normal 2.63349491618507e-020 1.08869747129692e-014 -1.0
outer loop
vertex 224.465315752231 203.623887501064 19.699999999996
vertex 224.659436726422 206.548267635721 19.6999999999959
vertex 225.759410977743 203.45351663251 19.6999999999959
endloop
endfacet
facet normal 2.63349491618507e-020 1.08869747129692e-014 -1.0
outer loop
vertex 225.759410977743 203.45351663251 19.6999999999959
vertex 224.659436726422 206.548267635721 19.6999999999959
vertex 225.19003216617 206.328493135636 19.699999999996
endloop
endfacet
facet normal 2.63349491618507e-020 1.08869747129692e-014 -1.0
outer loop
vertex 225.759410977743 203.45351663251 19.6999999999959
vertex 225.19003216617 206.328493135636 19.699999999996
vertex 225.759429830984 206.253535475096 19.6999999999958
endloop
endfacet
facet normal 2.63349491618507e-020 1.08869747129692e-014 -1.0
outer loop
vertex 225.759410977743 203.45351663251 19.6999999999959
vertex 225.759429830984 206.253535475096 19.6999999999958
vertex 227.053506203256 203.623887501064 19.6999999999959
endloop
endfacet
facet normal 2.63349491618507e-020 1.08869747129692e-014 -1.0
outer loop
vertex 227.053506203256 203.623887501064 19.6999999999959
vertex 225.759429830984 206.253535475096 19.6999999999958
vertex 226.328826210981 206.328502894792 19.6999999999959
endloop
endfacet
facet normal 2.63349491618507e-020 1.08869747129692e-014 -1.0
outer loop
vertex 227.053506203256 203.623887501064 19.6999999999959
vertex 226.328826210981 206.328502894792 19.6999999999959
vertex 226.859417883836 206.548286488962 19.699999999996
endloop
endfacet
facet normal 2.63349491618507e-020 1.08869747129692e-014 -1.0
outer loop
vertex 227.053506203256 203.623887501064 19.6999999999959
vertex 226.859417883836 206.548286488962 19.699999999996
vertex 227.315045903888 206.897908368874 19.6999999999959
endloop
endfacet
facet normal 2.63349491618507e-020 1.08869747129692e-014 -1.0
outer loop
vertex 227.053506203256 203.623887501064 19.6999999999959
vertex 227.315045903888 206.897908368874 19.6999999999959
vertex 228.259410977743 204.123389613587 19.6999999999959
endloop
endfacet
facet normal 2.63349491618507e-020 1.08869747129692e-014 -1.0
outer loop
vertex 228.259410977743 204.123389613587 19.6999999999959
vertex 227.315045903888 206.897908368874 19.6999999999959
vertex 227.664659974532 207.353542381188 19.699999999996
endloop
endfacet
facet normal 2.63349491618507e-020 1.08869747129692e-014 -1.0
outer loop
vertex 228.259410977743 204.123389613587 19.6999999999959
vertex 227.664659974532 207.353542381188 19.699999999996
vertex 227.884434474617 207.884137820936 19.699999999996
endloop
endfacet
facet normal 2.63349491618507e-020 1.08869747129692e-014 -1.0
outer loop
vertex 228.259410977743 204.123389613587 19.6999999999959
vertex 227.884434474617 207.884137820936 19.699999999996
vertex 227.959392135158 208.453535485751 19.699999999996
endloop
endfacet
facet normal 2.63349491618507e-020 1.08869747129692e-014 -1.0
outer loop
vertex 228.259410977743 204.123389613587 19.6999999999959
vertex 227.959392135158 208.453535485751 19.699999999996
vertex 228.259410977743 212.783643651432 19.6999999999959
endloop
endfacet
facet normal 2.63349491618507e-020 1.08869747129692e-014 -1.0
outer loop
vertex 228.259410977743 204.123389613587 19.6999999999959
vertex 228.259410977743 212.783643651432 19.6999999999959
vertex 229.294944883676 211.989050538442 19.6999999999959
endloop
endfacet
facet normal 2.63349491618507e-020 1.08869747129692e-014 -1.0
outer loop
vertex 228.259410977743 204.123389613587 19.6999999999959
vertex 229.294944883676 211.989050538442 19.6999999999959
vertex 229.294944883676 204.917982726577 19.6999999999959
endloop
endfacet
facet normal 2.63349491618507e-020 1.08869747129692e-014 -1.0
outer loop
vertex 229.294944883676 204.917982726577 19.6999999999959
vertex 229.294944883676 211.989050538442 19.6999999999959
vertex 230.089537996666 210.95351663251 19.699999999996
endloop
endfacet
facet normal 2.63349491618507e-020 1.08869747129692e-014 -1.0
outer loop
vertex 229.294944883676 204.917982726577 19.6999999999959
vertex 230.089537996666 210.95351663251 19.699999999996
vertex 230.089537996666 205.95351663251 19.699999999996
endloop
endfacet
facet normal 2.63349491618507e-020 1.08869747129692e-014 -1.0
outer loop
vertex 230.089537996666 205.95351663251 19.699999999996
vertex 230.089537996666 210.95351663251 19.699999999996
vertex 230.5889840243 209.747585027901 19.6999999999971
endloop
endfacet
facet normal 2.63349491618507e-020 1.08869747129692e-014 -1.0
outer loop
vertex 230.089537996666 205.95351663251 19.699999999996
vertex 230.5889840243 209.747585027901 19.6999999999971
vertex 230.589040109189 207.159421406997 19.6999999999959
endloop
endfacet
facet normal 2.63349491618507e-020 1.08869747129692e-014 -1.0
outer loop
vertex 230.589040109189 207.159421406997 19.6999999999959
vertex 230.5889840243 209.747585027901 19.6999999999971
vertex 230.759410977743 208.45351663251 19.699999999996
endloop
endfacet
facet normal -0.866037294441338 -0.49997940421254 -6.02451413140509e-015
outer loop
vertex 230.089537996666 210.95351663251 19.699999999996
vertex 230.5889840243 209.747585027901 6.87999916076681
vertex 230.5889840243 209.747585027901 19.6999999999971
endloop
endfacet
facet normal -0.923897733270677 -0.38263948888909 -5.31831856651844e-015
outer loop
vertex 230.5889840243 209.747585027901 6.87999916076681
vertex 230.089537996666 210.95351663251 -1.80477854883065e-013
vertex 230.5889840243 209.747585027901 1.26334498418146e-012
endloop
endfacet
facet normal -0.866037294441297 -0.499979404212612 -6.02451413140551e-015
outer loop
vertex 230.089537996666 210.95351663251 -1.80477854883065e-013
vertex 230.5889840243 209.747585027901 6.87999916076681
vertex 230.089537996666 210.95351663251 19.699999999996
endloop
endfacet
facet normal -0.99143894955912 -0.130571089055387 -1.02670527939891e-014
outer loop
vertex 230.5889840243 209.747585027901 19.6999999999971
vertex 230.759410977743 208.45351663251 6.87999916076545
vertex 230.759410977743 208.45351663251 19.699999999996
endloop
endfacet
facet normal -0.999999999743666 -2.26421916374365e-005 -7.15872426443704e-015
outer loop
vertex 230.759410977743 208.45351663251 6.87999916076545
vertex 230.5889840243 209.747585027901 19.6999999999971
vertex 230.5889840243 209.747585027901 6.87999916076681
endloop
endfacet
facet normal -0.999999999743666 -2.26421917144058e-005 -7.15872426443891e-015
outer loop
vertex 230.759410977743 208.45351663251 19.699999999996
vertex 230.589040109189 207.159421406997 6.87999916076555
vertex 230.589040109189 207.159421406997 19.6999999999959
endloop
endfacet
facet normal -0.965925826289068 0.258819045102523 -1.0991667631196e-015
outer loop
vertex 230.589040109189 207.159421406997 6.87999916076555
vertex 230.759410977743 208.45351663251 19.699999999996
vertex 230.759410977743 208.45351663251 6.87999916076545
endloop
endfacet
facet normal -0.965925826289066 0.258819045102529 -1.09916676311946e-015
outer loop
vertex 230.589040109189 207.159421406997 19.6999999999959
vertex 230.089537996666 205.95351663251 6.87999916076555
vertex 230.089537996666 205.95351663251 19.699999999996
endloop
endfacet
facet normal -0.866025403784428 0.500000000000018 4.68475089021259e-015
outer loop
vertex 230.089537996666 205.95351663251 6.87999916076555
vertex 230.589040109189 207.159421406997 19.6999999999959
vertex 230.589040109189 207.159421406997 6.87999916076555
endloop
endfacet
facet normal -0.866025403784427 0.500000000000021 4.68475089021267e-015
outer loop
vertex 230.089537996666 205.95351663251 19.699999999996
vertex 229.294944883676 204.917982726577 6.87999916076555
vertex 229.294944883676 204.917982726577 19.6999999999959
endloop
endfacet
facet normal -0.707106781186537 0.707106781186558 1.02658232897388e-014
outer loop
vertex 229.294944883676 204.917982726577 6.87999916076555
vertex 230.089537996666 205.95351663251 19.699999999996
vertex 230.089537996666 205.95351663251 6.87999916076555
endloop
endfacet
facet normal -0.500000000000001 0.866025403784438 1.51472967991844e-014
outer loop
vertex 228.259410977743 204.123389613587 19.6999999999959
vertex 229.294944883676 204.917982726577 6.87999916076555
vertex 228.259410977743 204.123389613588 6.87999916076555
endloop
endfacet
facet normal -0.707106781186537 0.707106781186558 1.02658232897388e-014
outer loop
vertex 229.294944883676 204.917982726577 6.87999916076555
vertex 228.259410977743 204.123389613587 19.6999999999959
vertex 229.294944883676 204.917982726577 19.6999999999959
endloop
endfacet
facet normal -0.258819045102522 0.965925826289068 1.89993402192844e-014
outer loop
vertex 227.053506203256 203.623887501064 19.6999999999959
vertex 228.259410977743 204.123389613588 6.87999916076555
vertex 227.053506203256 203.623887501065 6.87999916076555
endloop
endfacet
facet normal -0.500000000000002 0.866025403784437 1.51472967991844e-014
outer loop
vertex 228.259410977743 204.123389613588 6.87999916076555
vertex 227.053506203256 203.623887501064 19.6999999999959
vertex 228.259410977743 204.123389613587 19.6999999999959
endloop
endfacet
facet normal 2.88719960618954e-015 1.0 2.15566390047601e-014
outer loop
vertex 225.759410977743 203.45351663251 19.6999999999959
vertex 227.053506203256 203.623887501065 6.87999916076555
vertex 225.759410977743 203.45351663251 6.87999916076555
endloop
endfacet
facet normal -0.258819045102523 0.965925826289068 1.89993402192844e-014
outer loop
vertex 227.053506203256 203.623887501065 6.87999916076555
vertex 225.759410977743 203.45351663251 19.6999999999959
vertex 227.053506203256 203.623887501064 19.6999999999959
endloop
endfacet
facet normal 0.25881904510252 0.965925826289069 2.26440952750854e-014
outer loop
vertex 224.465315752231 203.623887501065 6.87999916076564
vertex 225.759410977743 203.45351663251 19.6999999999959
vertex 225.759410977743 203.45351663251 6.87999916076555
endloop
endfacet
facet normal 2.88719960618954e-015 1.0 2.15566390047601e-014
outer loop
vertex 225.759410977743 203.45351663251 19.6999999999959
vertex 224.465315752231 203.623887501065 6.87999916076564
vertex 224.465315752231 203.623887501064 19.699999999996
endloop
endfacet
facet normal 0.500000000000001 0.866025403784438 2.21860153186652e-014
outer loop
vertex 223.259410977743 204.123389613587 19.699999999996
vertex 224.465315752231 203.623887501065 6.87999916076564
vertex 223.259410977743 204.123389613588 6.87999916076564
endloop
endfacet
facet normal 0.25881904510252 0.965925826289069 2.26440952750854e-014
outer loop
vertex 224.465315752231 203.623887501065 6.87999916076564
vertex 223.259410977743 204.123389613587 19.699999999996
vertex 224.465315752231 203.623887501064 19.699999999996
endloop
endfacet
facet normal 0.707106781186534 0.707106781186561 2.02183472079451e-014
outer loop
vertex 222.223877071811 204.917982726577 19.699999999996
vertex 223.259410977743 204.123389613588 6.87999916076564
vertex 222.223877071811 204.917982726577 6.87999916076564
endloop
endfacet
facet normal 0.500000000000003 0.866025403784437 2.21860153186652e-014
outer loop
vertex 223.259410977743 204.123389613588 6.87999916076564
vertex 222.223877071811 204.917982726577 19.699999999996
vertex 223.259410977743 204.123389613587 19.699999999996
endloop
endfacet
facet normal 0.707106781186539 0.707106781186556 2.0218347207945e-014
outer loop
vertex 222.223877071811 204.917982726577 6.87999916076564
vertex 221.429283958821 205.95351663251 19.6999999999959
vertex 222.223877071811 204.917982726577 19.699999999996
endloop
endfacet
facet normal 0.866025403784426 0.500000000000022 1.68744417122169e-014
outer loop
vertex 221.429283958821 205.95351663251 19.6999999999959
vertex 222.223877071811 204.917982726577 6.87999916076564
vertex 221.429283958821 205.95351663251 6.87999916076555
endloop
endfacet
facet normal 0.86602540378443 0.500000000000015 1.68744417122167e-014
outer loop
vertex 221.429283958821 205.95351663251 6.87999916076555
vertex 220.929781846298 207.159421406997 19.6999999999959
vertex 221.429283958821 205.95351663251 19.6999999999959
endloop
endfacet
facet normal 0.965925826289066 0.258819045102529 1.24977193887925e-014
outer loop
vertex 220.929781846298 207.159421406997 19.6999999999959
vertex 221.429283958821 205.95351663251 6.87999916076555
vertex 220.929781846298 207.159421406997 6.87999916076555
endloop
endfacet
facet normal -0.965923608244696 -0.258827322814935 -2.81787196063905e-015
outer loop
vertex 223.634397240025 207.884101399272 19.699999999996
vertex 223.854180834196 207.353509726417 0.0
vertex 223.854180834196 207.353509726417 19.699999999996
endloop
endfacet
facet normal -0.866021118888459 -0.500007421584101 -5.44359096319267e-015
outer loop
vertex 223.854180834196 207.353509726417 0.0
vertex 223.634397240025 207.884101399272 19.699999999996
vertex 223.634397240025 207.884101399272 0.0
endloop
endfacet
facet normal -0.866021118888466 -0.500007421584091 -5.44359096319256e-015
outer loop
vertex 223.854180834196 207.353509726417 19.699999999996
vertex 224.203802714108 206.897881706365 -9.02389274415327e-014
vertex 224.203802714108 206.897881706365 19.6999999999959
endloop
endfacet
facet normal -0.707100721447566 -0.707112840873599 -7.69833824262816e-015
outer loop
vertex 224.203802714108 206.897881706365 -9.02389274415327e-014
vertex 223.854180834196 207.353509726417 19.699999999996
vertex 223.854180834196 207.353509726417 0.0
endloop
endfacet
facet normal -0.499992578379218 -0.866029688616795 -9.42845649428855e-015
outer loop
vertex 224.659436726422 206.548267635722 0.0
vertex 224.203802714108 206.897881706365 19.6999999999959
vertex 224.203802714108 206.897881706365 -9.02389274415327e-014
endloop
endfacet
facet normal -0.707100721447569 -0.707112840873596 -7.69833824262812e-015
outer loop
vertex 224.203802714108 206.897881706365 19.6999999999959
vertex 224.659436726422 206.548267635722 0.0
vertex 224.659436726422 206.548267635721 19.6999999999959
endloop
endfacet
facet normal -0.258810767371079 -0.965928044262508 -1.05160410126891e-014
outer loop
vertex 225.19003216617 206.328493135636 19.699999999996
vertex 224.659436726422 206.548267635722 0.0
vertex 225.19003216617 206.328493135636 0.0
endloop
endfacet
facet normal -0.499992578379218 -0.866029688616795 -9.42845649428855e-015
outer loop
vertex 224.659436726422 206.548267635722 0.0
vertex 225.19003216617 206.328493135636 19.699999999996
vertex 224.659436726422 206.548267635721 19.6999999999959
endloop
endfacet
facet normal 8.56972832786577e-006 -0.99999999996328 -1.08869747150868e-014
outer loop
vertex 225.759429830984 206.253535475096 19.6999999999958
vertex 225.19003216617 206.328493135636 0.0
vertex 225.759429830984 206.253535475096 -1.80477854883065e-013
endloop
endfacet
facet normal -0.258810767371061 -0.965928044262513 -1.05160410126891e-014
outer loop
vertex 225.19003216617 206.328493135636 0.0
vertex 225.759429830984 206.253535475096 19.6999999999958
vertex 225.19003216617 206.328493135636 19.699999999996
endloop
endfacet
facet normal -0.258819045102518 0.965925826289069 -4.87523697582107e-015
outer loop
vertex 224.114788705758 189.591339498773 1.17310605673993e-012
vertex 225.759422377813 189.807859629315 4.36655855178851
vertex 225.759422377813 189.807859629315 1.08286712929839e-012
endloop
endfacet
facet normal -3.99217723324975e-015 1.0 -1.23815967722242e-014
outer loop
vertex 225.759422377813 189.807859629315 4.36655855178851
vertex 224.114788705758 189.591339498773 1.17310605673993e-012
vertex 224.114788705758 189.591339498773 4.3665585517886
endloop
endfacet
facet normal -0.866025403784431 0.500000000000013 1.75142905959779e-014
outer loop
vertex 220.256370856413 186.63067135207 4.3665585517886
vertex 221.266199625921 187.946705826718 1.08286712929839e-012
vertex 220.256370856413 186.63067135207 1.08286712929839e-012
endloop
endfacet
facet normal -0.70710678118655 0.707106781186545 1.06000130649045e-014
outer loop
vertex 221.266199625921 187.946705826718 1.08286712929839e-012
vertex 220.256370856413 186.63067135207 4.3665585517886
vertex 221.266199625921 187.946705826718 4.3665585517886
endloop
endfacet
facet normal -0.499999999999998 0.86602540378444 2.9633621637115e-015
outer loop
vertex 222.582234100568 188.956534596226 4.36655855178869
vertex 224.114788705758 189.591339498773 1.17310605673993e-012
vertex 222.582234100568 188.956534596226 1.17310605673993e-012
endloop
endfacet
facet normal -0.258819045102518 0.965925826289069 -4.87523697582107e-015
outer loop
vertex 224.114788705758 189.591339498773 1.17310605673993e-012
vertex 222.582234100568 188.956534596226 4.36655855178869
vertex 224.114788705758 189.591339498773 4.3665585517886
endloop
endfacet
facet normal 0.866025403784431 0.500000000000013 -2.98958873729995e-014
outer loop
vertex 231.262473899213 186.63067135207 0.0
vertex 231.89727880176 185.098116746881 4.36655855178751
vertex 231.89727880176 185.09811674688 0.0
endloop
endfacet
facet normal 0.965925826289117 0.258819045102339 -2.80230640200776e-014
outer loop
vertex 231.89727880176 185.098116746881 4.36655855178751
vertex 231.262473899213 186.63067135207 0.0
vertex 231.262473899213 186.63067135207 4.36655855178742
endloop
endfacet
facet normal 0.499999999999981 0.86602540378445 -2.44089168546578e-014
outer loop
vertex 228.936610655058 188.956534596226 4.36655855178742
vertex 230.252645129705 187.946705826718 0.0
vertex 228.936610655057 188.956534596226 0.0
endloop
endfacet
facet normal 0.707106781186545 0.70710678118655 -2.81102351501379e-014
outer loop
vertex 230.252645129705 187.946705826718 0.0
vertex 228.936610655058 188.956534596226 4.36655855178742
vertex 230.252645129705 187.946705826718 4.36655855178751
endloop
endfacet
facet normal 0.988471531883688 -0.151406838205926 -1.11479046218866e-014
outer loop
vertex 220.929843832297 209.747607051145 1.26334498418146e-012
vertex 218.759422377813 195.577838727808 6.87999916076555
vertex 218.759422377813 195.577838727808 0.0
endloop
endfacet
facet normal 0.988471531883688 -0.151406838205926 -1.11479046218866e-014
outer loop
vertex 218.759422377813 195.577838727808 6.87999916076555
vertex 220.929843832297 209.747607051145 1.26334498418146e-012
vertex 220.929843832297 209.747607051145 6.87999916076681
endloop
endfacet
facet normal 0.608761429008709 -0.793353340291244 -6.84020652949245e-015
outer loop
vertex 218.759422377813 195.577838727808 6.87999916076555
vertex 215.859927441201 193.352978011437 1.17310605673993e-012
vertex 218.759422377813 195.577838727808 0.0
endloop
endfacet
facet normal 0.707106781186535 -0.70710678118656 -1.06000130638612e-014
outer loop
vertex 215.859927441201 193.352978011437 1.17310605673993e-012
vertex 218.759422377813 195.577838727808 6.87999916076555
vertex 215.859927441201 193.352978011437 6.87999916076672
endloop
endfacet
facet normal 0.707106781186535 -0.70710678118656 -1.06000130638612e-014
outer loop
vertex 215.859927441201 193.352978011437 1.17310605673993e-012
vertex 213.635066724831 190.453483074826 6.87999916076663
vertex 213.635066724831 190.453483074826 9.9262820185686e-013
endloop
endfacet
facet normal 0.866025403784443 -0.499999999999993 -1.75142905953522e-014
outer loop
vertex 213.635066724831 190.453483074826 6.87999916076663
vertex 215.859927441201 193.352978011437 1.17310605673993e-012
vertex 215.859927441201 193.352978011437 6.87999916076672
endloop
endfacet
facet normal -0.965925826289038 0.258819045102634 1.62154437397725e-014
outer loop
vertex 219.621565953866 185.098116746881 4.3665585517886
vertex 220.256370856413 186.63067135207 1.08286712929839e-012
vertex 219.621565953866 185.09811674688 1.17310605673993e-012
endloop
endfacet
facet normal -0.866025403784431 0.500000000000012 1.75142905959779e-014
outer loop
vertex 220.256370856413 186.63067135207 1.08286712929839e-012
vertex 219.621565953866 185.098116746881 4.3665585517886
vertex 220.256370856413 186.63067135207 4.3665585517886
endloop
endfacet
facet normal -0.707106781186544 0.707106781186551 1.06000130649043e-014
outer loop
vertex 221.266199625921 187.946705826718 4.3665585517886
vertex 222.582234100568 188.956534596226 1.17310605673993e-012
vertex 221.266199625921 187.946705826718 1.08286712929839e-012
endloop
endfacet
facet normal -0.500000000000003 0.866025403784437 2.96336216371168e-015
outer loop
vertex 222.582234100568 188.956534596226 1.17310605673993e-012
vertex 221.266199625921 187.946705826718 4.3665585517886
vertex 222.582234100568 188.956534596226 4.36655855178869
endloop
endfacet
facet normal 0.866025403784444 -0.499999999999991 -1.75142905953522e-014
outer loop
vertex 213.635066724831 190.453483074826 9.9262820185686e-013
vertex 212.236460809766 187.076949706261 6.87999916076672
vertex 212.236460809766 187.076949706261 1.17310605673993e-012
endloop
endfacet
facet normal 0.965925826289066 -0.25881904510253 -1.66817497094076e-014
outer loop
vertex 212.236460809766 187.076949706261 6.87999916076672
vertex 213.635066724831 190.453483074826 9.9262820185686e-013
vertex 213.635066724831 190.453483074826 6.87999916076663
endloop
endfacet
facet normal 0.707106781186545 0.70710678118655 -2.81102351501379e-014
outer loop
vertex 230.252645129705 187.946705826718 0.0
vertex 231.262473899213 186.63067135207 4.36655855178742
vertex 231.262473899213 186.63067135207 0.0
endloop
endfacet
facet normal 0.866025403784431 0.500000000000013 -2.98958873729995e-014
outer loop
vertex 231.262473899213 186.63067135207 4.36655855178742
vertex 230.252645129705 187.946705826718 0.0
vertex 230.252645129705 187.946705826718 4.36655855178751
endloop
endfacet
facet normal 0.258819045102547 0.965925826289061 -1.9044171210485e-014
outer loop
vertex 227.404056049868 189.591339498773 1.08286712929839e-012
vertex 228.936610655058 188.956534596226 4.36655855178742
vertex 228.936610655057 188.956534596226 0.0
endloop
endfacet
facet normal 0.499999999999981 0.86602540378445 -2.44089168546578e-014
outer loop
vertex 228.936610655058 188.956534596226 4.36655855178742
vertex 227.404056049868 189.591339498773 1.08286712929839e-012
vertex 227.404056049868 189.591339498773 4.36655855178851
endloop
endfacet
facet normal -3.99217723324975e-015 1.0 -1.23815967722242e-014
outer loop
vertex 225.759422377813 189.807859629315 4.36655855178851
vertex 227.404056049868 189.591339498773 1.08286712929839e-012
vertex 225.759422377813 189.807859629315 1.08286712929839e-012
endloop
endfacet
facet normal 0.258819045102547 0.965925826289061 -1.9044171210485e-014
outer loop
vertex 227.404056049868 189.591339498773 1.08286712929839e-012
vertex 225.759422377813 189.807859629315 4.36655855178851
vertex 227.404056049868 189.591339498773 4.36655855178851
endloop
endfacet
facet normal -0.96592582628907 -0.258819045102515 2.28007307649254e-014
outer loop
vertex 239.28238394586 187.076949706261 6.87999916076555
vertex 237.883778030795 190.453483074826 0.0
vertex 239.28238394586 187.076949706261 0.0
endloop
endfacet
facet normal -0.866025403784444 -0.49999999999999 2.98958873721653e-014
outer loop
vertex 237.883778030795 190.453483074826 0.0
vertex 239.28238394586 187.076949706261 6.87999916076555
vertex 237.883778030795 190.453483074826 6.87999916076555
endloop
endfacet
facet normal -0.866025403784444 -0.499999999999991 2.98958873721653e-014
outer loop
vertex 237.883778030795 190.453483074826 6.87999916076555
vertex 235.658917314425 193.352978011437 0.0
vertex 237.883778030795 190.453483074826 0.0
endloop
endfacet
facet normal -0.707106781186548 -0.707106781186548 2.8110235147635e-014
outer loop
vertex 235.658917314425 193.352978011437 0.0
vertex 237.883778030795 190.453483074826 6.87999916076555
vertex 235.658917314425 193.352978011437 6.87999916076555
endloop
endfacet
facet normal -0.707106781186547 -0.707106781186548 2.8110235147635e-014
outer loop
vertex 235.658917314425 193.352978011437 6.87999916076555
vertex 232.759422377813 195.577838727808 0.0
vertex 235.658917314425 193.352978011437 0.0
endloop
endfacet
facet normal -0.608761429008722 -0.793353340291234 2.6486168845502e-014
outer loop
vertex 232.759422377813 195.577838727808 0.0
vertex 235.658917314425 193.352978011437 6.87999916076555
vertex 232.759422377813 195.577838727808 6.87999916076564
endloop
endfacet
facet normal -0.988471320233551 -0.151408219974151 1.47922849176143e-014
outer loop
vertex 232.759422377813 195.577838727808 6.87999916076564
vertex 230.5889840243 209.747585027901 1.26334498418146e-012
vertex 232.759422377813 195.577838727808 0.0
endloop
endfacet
facet normal -0.988471320233551 -0.151408219974151 1.47922849176143e-014
outer loop
vertex 230.5889840243 209.747585027901 1.26334498418146e-012
vertex 232.759422377813 195.577838727808 6.87999916076564
vertex 230.5889840243 209.747585027901 6.87999916076681
endloop
endfacet
endsolid Zuberi Delta - aluminum square rail - parts
