solid Zuberi Delta - aluminum square rail - parts
facet normal 3.30872245021211e-024 -2.90095556327678e-015 1.0
outer loop
vertex 342.392799419528 74.4343849690343 0.0
vertex 342.392799419529 76.4014097118136 0.0
vertex 342.263317559427 75.4178973404239 0.0
endloop
endfacet
facet normal 3.30872245021211e-024 -2.90095556327678e-015 1.0
outer loop
vertex 342.392799419529 76.4014097118136 0.0
vertex 342.392799419528 74.4343849690343 0.0
vertex 342.772421025046 73.5178973404239 0.0
endloop
endfacet
facet normal 3.30872245021211e-024 -2.90095556327678e-015 1.0
outer loop
vertex 342.392799419529 76.4014097118136 0.0
vertex 342.772421025046 73.5178973404239 0.0
vertex 342.772421025046 77.3178973404239 0.0
endloop
endfacet
facet normal 3.30872245021211e-024 -2.90095556327678e-015 1.0
outer loop
vertex 342.772421025046 77.3178973404239 0.0
vertex 342.772421025046 73.5178973404239 0.0
vertex 343.376311790918 72.730891571915 0.0
endloop
endfacet
facet normal 3.30872245021211e-024 -2.90095556327678e-015 1.0
outer loop
vertex 342.772421025046 77.3178973404239 0.0
vertex 343.376311790918 72.730891571915 0.0
vertex 343.376311790918 78.1049031089329 0.0
endloop
endfacet
facet normal 3.30872245021211e-024 -2.90095556327678e-015 1.0
outer loop
vertex 343.376311790918 78.1049031089329 0.0
vertex 343.376311790918 72.730891571915 0.0
vertex 344.163317559427 72.1270008060429 0.0
endloop
endfacet
facet normal 3.30872245021211e-024 -2.90095556327678e-015 1.0
outer loop
vertex 343.376311790918 78.1049031089329 0.0
vertex 344.163317559427 72.1270008060429 0.0
vertex 344.163317559427 78.7087938748049 0.0
endloop
endfacet
facet normal 3.30872245021211e-024 -2.90095556327678e-015 1.0
outer loop
vertex 344.163317559427 78.7087938748049 0.0
vertex 344.163317559427 72.1270008060429 0.0
vertex 345.079805188037 71.7473792005253 0.0
endloop
endfacet
facet normal 3.30872245021211e-024 -2.90095556327678e-015 1.0
outer loop
vertex 344.163317559427 78.7087938748049 0.0
vertex 345.079805188037 71.7473792005253 0.0
vertex 345.079805188038 79.0884154803225 2.25597318603832e-014
endloop
endfacet
facet normal 3.30872245021211e-024 -2.90095556327678e-015 1.0
outer loop
vertex 345.079805188038 79.0884154803225 2.25597318603832e-014
vertex 345.079805188037 71.7473792005253 0.0
vertex 346.063317559427 71.6178973404239 -4.51194637207664e-014
endloop
endfacet
facet normal 3.30872245021211e-024 -2.90095556327678e-015 1.0
outer loop
vertex 345.079805188038 79.0884154803225 2.25597318603832e-014
vertex 346.063317559427 71.6178973404239 -4.51194637207664e-014
vertex 346.063317559427 79.217897340424 2.25597318603832e-014
endloop
endfacet
facet normal 3.30872245021211e-024 -2.90095556327678e-015 1.0
outer loop
vertex 346.063317559427 79.217897340424 2.25597318603832e-014
vertex 346.063317559427 71.6178973404239 -4.51194637207664e-014
vertex 347.046829930817 71.7473792005254 -2.25597318603832e-014
endloop
endfacet
facet normal 3.30872245021211e-024 -2.90095556327678e-015 1.0
outer loop
vertex 346.063317559427 79.217897340424 2.25597318603832e-014
vertex 347.046829930817 71.7473792005254 -2.25597318603832e-014
vertex 347.046829930817 79.0884154803225 2.25597318603832e-014
endloop
endfacet
facet normal 3.30872245021211e-024 -2.90095556327678e-015 1.0
outer loop
vertex 347.046829930817 79.0884154803225 2.25597318603832e-014
vertex 347.046829930817 71.7473792005254 -2.25597318603832e-014
vertex 347.963317559427 72.127000806043 0.0
endloop
endfacet
facet normal 3.30872245021211e-024 -2.90095556327678e-015 1.0
outer loop
vertex 347.046829930817 79.0884154803225 2.25597318603832e-014
vertex 347.963317559427 72.127000806043 0.0
vertex 347.963317559427 78.7087938748047 0.0
endloop
endfacet
facet normal 3.30872245021211e-024 -2.90095556327678e-015 1.0
outer loop
vertex 347.963317559427 78.7087938748047 0.0
vertex 347.963317559427 72.127000806043 0.0
vertex 348.750323327936 72.730891571915 0.0
endloop
endfacet
facet normal 3.30872245021211e-024 -2.90095556327678e-015 1.0
outer loop
vertex 347.963317559427 78.7087938748047 0.0
vertex 348.750323327936 72.730891571915 0.0
vertex 348.750323327936 78.1049031089328 0.0
endloop
endfacet
facet normal 3.30872245021211e-024 -2.90095556327678e-015 1.0
outer loop
vertex 348.750323327936 78.1049031089328 0.0
vertex 348.750323327936 72.730891571915 0.0
vertex 349.354214093808 73.5178973404238 -2.25597318603832e-014
endloop
endfacet
facet normal 3.30872245021211e-024 -2.90095556327678e-015 1.0
outer loop
vertex 348.750323327936 78.1049031089328 0.0
vertex 349.354214093808 73.5178973404238 -2.25597318603832e-014
vertex 349.354214093808 77.3178973404239 2.25597318603832e-014
endloop
endfacet
facet normal 3.30872245021211e-024 -2.90095556327678e-015 1.0
outer loop
vertex 349.354214093808 77.3178973404239 2.25597318603832e-014
vertex 349.354214093808 73.5178973404238 -2.25597318603832e-014
vertex 349.733835699326 74.4343849690345 2.25597318603832e-014
endloop
endfacet
facet normal 3.30872245021211e-024 -2.90095556327678e-015 1.0
outer loop
vertex 349.354214093808 77.3178973404239 2.25597318603832e-014
vertex 349.733835699326 74.4343849690345 2.25597318603832e-014
vertex 349.733835699326 76.4014097118135 0.0
endloop
endfacet
facet normal 3.30872245021211e-024 -2.90095556327678e-015 1.0
outer loop
vertex 349.733835699326 76.4014097118135 0.0
vertex 349.733835699326 74.4343849690345 2.25597318603832e-014
vertex 349.863317559427 75.417897340424 0.0
endloop
endfacet
facet normal -3.30872245021211e-024 2.90095556327678e-015 -1.0
outer loop
vertex 342.392799419529 76.4014097118136 16.0000000000152
vertex 342.392799419528 74.4343849690343 16.0000000000152
vertex 342.263317559427 75.4178973404239 16.0000000000152
endloop
endfacet
facet normal -3.30872245021211e-024 2.90095556327678e-015 -1.0
outer loop
vertex 342.392799419528 74.4343849690343 16.0000000000152
vertex 342.392799419529 76.4014097118136 16.0000000000152
vertex 342.772421025046 73.5178973404238 16.0000000000152
endloop
endfacet
facet normal -3.30872245021211e-024 2.90095556327678e-015 -1.0
outer loop
vertex 342.772421025046 73.5178973404238 16.0000000000152
vertex 342.392799419529 76.4014097118136 16.0000000000152
vertex 342.772421025046 77.3178973404239 16.0000000000152
endloop
endfacet
facet normal -3.30872245021211e-024 2.90095556327678e-015 -1.0
outer loop
vertex 342.772421025046 73.5178973404238 16.0000000000152
vertex 342.772421025046 77.3178973404239 16.0000000000152
vertex 343.376311790918 72.730891571915 16.0000000000152
endloop
endfacet
facet normal -3.30872245021211e-024 2.90095556327678e-015 -1.0
outer loop
vertex 343.376311790918 72.730891571915 16.0000000000152
vertex 342.772421025046 77.3178973404239 16.0000000000152
vertex 343.376311790918 78.1049031089331 16.0000000000152
endloop
endfacet
facet normal -3.30872245021211e-024 2.90095556327678e-015 -1.0
outer loop
vertex 343.376311790918 72.730891571915 16.0000000000152
vertex 343.376311790918 78.1049031089331 16.0000000000152
vertex 344.163317559427 72.1270008060431 16.0000000000152
endloop
endfacet
facet normal -3.30872245021211e-024 2.90095556327678e-015 -1.0
outer loop
vertex 344.163317559427 72.1270008060431 16.0000000000152
vertex 343.376311790918 78.1049031089331 16.0000000000152
vertex 344.163317559427 78.7087938748049 16.0000000000152
endloop
endfacet
facet normal -3.30872245021211e-024 2.90095556327678e-015 -1.0
outer loop
vertex 344.163317559427 72.1270008060431 16.0000000000152
vertex 344.163317559427 78.7087938748049 16.0000000000152
vertex 345.079805188037 71.7473792005253 16.0000000000152
endloop
endfacet
facet normal -3.30872245021211e-024 2.90095556327678e-015 -1.0
outer loop
vertex 345.079805188037 71.7473792005253 16.0000000000152
vertex 344.163317559427 78.7087938748049 16.0000000000152
vertex 345.079805188038 79.0884154803227 16.0000000000152
endloop
endfacet
facet normal -3.30872245021211e-024 2.90095556327678e-015 -1.0
outer loop
vertex 345.079805188037 71.7473792005253 16.0000000000152
vertex 345.079805188038 79.0884154803227 16.0000000000152
vertex 346.063317559427 71.6178973404239 16.0000000000152
endloop
endfacet
facet normal -3.30872245021211e-024 2.90095556327678e-015 -1.0
outer loop
vertex 346.063317559427 71.6178973404239 16.0000000000152
vertex 345.079805188038 79.0884154803227 16.0000000000152
vertex 346.063317559427 79.2178973404241 16.0000000000152
endloop
endfacet
facet normal -3.30872245021211e-024 2.90095556327678e-015 -1.0
outer loop
vertex 346.063317559427 71.6178973404239 16.0000000000152
vertex 346.063317559427 79.2178973404241 16.0000000000152
vertex 347.046829930817 71.7473792005254 16.0000000000152
endloop
endfacet
facet normal -3.30872245021211e-024 2.90095556327678e-015 -1.0
outer loop
vertex 347.046829930817 71.7473792005254 16.0000000000152
vertex 346.063317559427 79.2178973404241 16.0000000000152
vertex 347.046829930817 79.0884154803225 16.0000000000152
endloop
endfacet
facet normal -3.30872245021211e-024 2.90095556327678e-015 -1.0
outer loop
vertex 347.046829930817 71.7473792005254 16.0000000000152
vertex 347.046829930817 79.0884154803225 16.0000000000152
vertex 347.963317559427 72.127000806043 16.0000000000152
endloop
endfacet
facet normal -3.30872245021211e-024 2.90095556327678e-015 -1.0
outer loop
vertex 347.963317559427 72.127000806043 16.0000000000152
vertex 347.046829930817 79.0884154803225 16.0000000000152
vertex 347.963317559427 78.7087938748048 16.0000000000152
endloop
endfacet
facet normal -3.30872245021211e-024 2.90095556327678e-015 -1.0
outer loop
vertex 347.963317559427 72.127000806043 16.0000000000152
vertex 347.963317559427 78.7087938748048 16.0000000000152
vertex 348.750323327936 78.1049031089329 16.0000000000152
endloop
endfacet
facet normal -3.30872245021211e-024 2.90095556327678e-015 -1.0
outer loop
vertex 347.963317559427 72.127000806043 16.0000000000152
vertex 348.750323327936 78.1049031089329 16.0000000000152
vertex 348.750323327936 72.7308915719151 16.0000000000152
endloop
endfacet
facet normal -3.30872245021211e-024 2.90095556327678e-015 -1.0
outer loop
vertex 348.750323327936 72.7308915719151 16.0000000000152
vertex 348.750323327936 78.1049031089329 16.0000000000152
vertex 349.354214093808 73.5178973404238 16.0000000000152
endloop
endfacet
facet normal -3.30872245021211e-024 2.90095556327678e-015 -1.0
outer loop
vertex 349.354214093808 73.5178973404238 16.0000000000152
vertex 348.750323327936 78.1049031089329 16.0000000000152
vertex 349.354214093808 77.3178973404239 16.0000000000152
endloop
endfacet
facet normal -3.30872245021211e-024 2.90095556327678e-015 -1.0
outer loop
vertex 349.354214093808 73.5178973404238 16.0000000000152
vertex 349.354214093808 77.3178973404239 16.0000000000152
vertex 349.733835699326 76.4014097118135 16.0000000000152
endloop
endfacet
facet normal -3.30872245021211e-024 2.90095556327678e-015 -1.0
outer loop
vertex 349.354214093808 73.5178973404238 16.0000000000152
vertex 349.733835699326 76.4014097118135 16.0000000000152
vertex 349.733835699326 74.4343849690343 16.0000000000152
endloop
endfacet
facet normal -3.30872245021211e-024 2.90095556327678e-015 -1.0
outer loop
vertex 349.733835699326 74.4343849690343 16.0000000000152
vertex 349.733835699326 76.4014097118135 16.0000000000152
vertex 349.863317559427 75.4178973404238 16.0000000000152
endloop
endfacet
facet normal -0.965925826289068 0.258819045102522 7.5082254214421e-016
outer loop
vertex 349.733835699326 74.4343849690343 16.0000000000152
vertex 349.354214093808 73.5178973404238 -2.25597318603832e-014
vertex 349.354214093808 73.5178973404238 16.0000000000152
endloop
endfacet
facet normal -0.866025403784439 0.5 1.45047777332404e-015
outer loop
vertex 349.354214093808 73.5178973404238 -2.25597318603832e-014
vertex 349.733835699326 74.4343849690343 16.0000000000152
vertex 349.733835699326 74.4343849690345 2.25597318603832e-014
endloop
endfacet
facet normal -1.0 2.1119330452683e-015 -6.3317244039118e-032
outer loop
vertex 349.863317559427 75.4178973404238 16.0000000000152
vertex 349.733835699326 74.4343849690345 2.25597318603832e-014
vertex 349.733835699326 74.4343849690343 16.0000000000152
endloop
endfacet
facet normal -0.965925826289068 0.258819045102521 7.50822542144207e-016
outer loop
vertex 349.733835699326 74.4343849690345 2.25597318603832e-014
vertex 349.863317559427 75.4178973404238 16.0000000000152
vertex 349.863317559427 75.417897340424 0.0
endloop
endfacet
facet normal -0.965925826289069 -0.258819045102519 -7.50822552156027e-016
outer loop
vertex 349.733835699326 76.4014097118135 16.0000000000152
vertex 349.863317559427 75.417897340424 0.0
vertex 349.863317559427 75.4178973404238 16.0000000000152
endloop
endfacet
facet normal -1.0 2.40599967182468e-016 -5.4769416093838e-030
outer loop
vertex 349.863317559427 75.417897340424 0.0
vertex 349.733835699326 76.4014097118135 16.0000000000152
vertex 349.733835699326 76.4014097118135 0.0
endloop
endfacet
facet normal -0.866025403784439 -0.5 -1.4504777900104e-015
outer loop
vertex 349.354214093808 77.3178973404239 16.0000000000152
vertex 349.733835699326 76.4014097118135 0.0
vertex 349.733835699326 76.4014097118135 16.0000000000152
endloop
endfacet
facet normal -0.965925826289069 -0.258819045102518 -7.50822552156024e-016
outer loop
vertex 349.733835699326 76.4014097118135 0.0
vertex 349.354214093808 77.3178973404239 16.0000000000152
vertex 349.354214093808 77.3178973404239 2.25597318603832e-014
endloop
endfacet
facet normal -0.866025403784439 -0.5 -1.4504777900104e-015
outer loop
vertex 349.354214093808 77.3178973404239 16.0000000000152
vertex 348.750323327936 78.1049031089328 0.0
vertex 349.354214093808 77.3178973404239 2.25597318603832e-014
endloop
endfacet
facet normal -0.707106781186546 -0.707106781186549 -2.05128536260325e-015
outer loop
vertex 348.750323327936 78.1049031089328 0.0
vertex 349.354214093808 77.3178973404239 16.0000000000152
vertex 348.750323327936 78.1049031089329 16.0000000000152
endloop
endfacet
facet normal -0.707106781186546 -0.707106781186549 -2.05128536260325e-015
outer loop
vertex 348.750323327936 78.1049031089329 16.0000000000152
vertex 347.963317559427 78.7087938748047 0.0
vertex 348.750323327936 78.1049031089328 0.0
endloop
endfacet
facet normal -0.500000000000002 -0.866025403784438 -2.51230123013163e-015
outer loop
vertex 347.963317559427 78.7087938748047 0.0
vertex 348.750323327936 78.1049031089329 16.0000000000152
vertex 347.963317559427 78.7087938748048 16.0000000000152
endloop
endfacet
facet normal -0.500000000000001 -0.866025403784438 -2.51230123013163e-015
outer loop
vertex 347.963317559427 78.7087938748048 16.0000000000152
vertex 347.046829930817 79.0884154803225 2.25597318603832e-014
vertex 347.963317559427 78.7087938748047 0.0
endloop
endfacet
facet normal -0.258819045102524 -0.965925826289068 -2.80210791976519e-015
outer loop
vertex 347.046829930817 79.0884154803225 2.25597318603832e-014
vertex 347.963317559427 78.7087938748048 16.0000000000152
vertex 347.046829930817 79.0884154803225 16.0000000000152
endloop
endfacet
facet normal -0.258819045102523 -0.965925826289068 -2.80210791976519e-015
outer loop
vertex 347.046829930817 79.0884154803225 16.0000000000152
vertex 346.063317559427 79.217897340424 2.25597318603832e-014
vertex 347.046829930817 79.0884154803225 2.25597318603832e-014
endloop
endfacet
facet normal -8.55466549982102e-016 -1.0 -2.90095557835217e-015
outer loop
vertex 346.063317559427 79.217897340424 2.25597318603832e-014
vertex 347.046829930817 79.0884154803225 16.0000000000152
vertex 346.063317559427 79.2178973404241 16.0000000000152
endloop
endfacet
facet normal -1.78222197912937e-015 -1.0 -2.90095557835217e-015
outer loop
vertex 346.063317559427 79.2178973404241 16.0000000000152
vertex 345.079805188038 79.0884154803225 2.25597318603832e-014
vertex 346.063317559427 79.217897340424 2.25597318603832e-014
endloop
endfacet
facet normal 0.25881904510252 -0.965925826289069 -2.802107911422e-015
outer loop
vertex 345.079805188038 79.0884154803225 2.25597318603832e-014
vertex 346.063317559427 79.2178973404241 16.0000000000152
vertex 345.079805188038 79.0884154803227 16.0000000000152
endloop
endfacet
facet normal 0.25881904510252 -0.965925826289069 -2.802107911422e-015
outer loop
vertex 345.079805188038 79.0884154803225 2.25597318603832e-014
vertex 344.163317559427 78.7087938748049 16.0000000000152
vertex 344.163317559427 78.7087938748049 0.0
endloop
endfacet
facet normal 0.499999999999996 -0.866025403784441 -2.51230122387425e-015
outer loop
vertex 344.163317559427 78.7087938748049 16.0000000000152
vertex 345.079805188038 79.0884154803225 2.25597318603832e-014
vertex 345.079805188038 79.0884154803227 16.0000000000152
endloop
endfacet
facet normal 0.499999999999996 -0.866025403784441 -2.51230122387425e-015
outer loop
vertex 344.163317559427 78.7087938748049 16.0000000000152
vertex 343.376311790918 78.1049031089329 0.0
vertex 344.163317559427 78.7087938748049 0.0
endloop
endfacet
facet normal 0.707106781186549 -0.707106781186546 -2.05128536302041e-015
outer loop
vertex 343.376311790918 78.1049031089329 0.0
vertex 344.163317559427 78.7087938748049 16.0000000000152
vertex 343.376311790918 78.1049031089331 16.0000000000152
endloop
endfacet
facet normal 0.707106781186549 -0.707106781186546 -2.05128536302041e-015
outer loop
vertex 343.376311790918 78.1049031089329 0.0
vertex 342.772421025046 77.3178973404239 16.0000000000152
vertex 342.772421025046 77.3178973404239 0.0
endloop
endfacet
facet normal 0.866025403784438 -0.500000000000002 -1.4504777900104e-015
outer loop
vertex 342.772421025046 77.3178973404239 16.0000000000152
vertex 343.376311790918 78.1049031089329 0.0
vertex 343.376311790918 78.1049031089331 16.0000000000152
endloop
endfacet
facet normal 0.866025403784438 -0.500000000000001 -1.4504777900104e-015
outer loop
vertex 342.772421025046 77.3178973404239 0.0
vertex 342.392799419529 76.4014097118136 16.0000000000152
vertex 342.392799419529 76.4014097118136 0.0
endloop
endfacet
facet normal 0.965925826289068 -0.258819045102521 -7.5082254881875e-016
outer loop
vertex 342.392799419529 76.4014097118136 16.0000000000152
vertex 342.772421025046 77.3178973404239 0.0
vertex 342.772421025046 77.3178973404239 16.0000000000152
endloop
endfacet
facet normal 0.965925826289068 -0.258819045102522 -7.50822548818755e-016
outer loop
vertex 342.392799419529 76.4014097118136 0.0
vertex 342.263317559427 75.4178973404239 16.0000000000152
vertex 342.263317559427 75.4178973404239 0.0
endloop
endfacet
facet normal 1.0 3.92088835408468e-015 3.33727467667728e-024
outer loop
vertex 342.263317559427 75.4178973404239 16.0000000000152
vertex 342.392799419529 76.4014097118136 0.0
vertex 342.392799419529 76.4014097118136 16.0000000000152
endloop
endfacet
facet normal 1.0 3.4396884197197e-015 3.33727328369788e-024
outer loop
vertex 342.263317559427 75.4178973404239 0.0
vertex 342.392799419528 74.4343849690343 16.0000000000152
vertex 342.392799419528 74.4343849690343 0.0
endloop
endfacet
facet normal 0.96592582628907 0.258819045102515 7.50822560499207e-016
outer loop
vertex 342.392799419528 74.4343849690343 16.0000000000152
vertex 342.263317559427 75.4178973404239 0.0
vertex 342.263317559427 75.4178973404239 16.0000000000152
endloop
endfacet
facet normal 0.866025403784436 0.500000000000005 1.45047780002223e-015
outer loop
vertex 342.772421025046 73.5178973404239 0.0
vertex 342.392799419528 74.4343849690343 16.0000000000152
vertex 342.772421025046 73.5178973404238 16.0000000000152
endloop
endfacet
facet normal 0.96592582628907 0.258819045102515 7.50822560499207e-016
outer loop
vertex 342.392799419528 74.4343849690343 16.0000000000152
vertex 342.772421025046 73.5178973404239 0.0
vertex 342.392799419528 74.4343849690343 0.0
endloop
endfacet
facet normal 0.866025403784436 0.500000000000005 1.45047780002223e-015
outer loop
vertex 342.772421025046 73.5178973404239 0.0
vertex 343.376311790918 72.730891571915 16.0000000000152
vertex 343.376311790918 72.730891571915 0.0
endloop
endfacet
facet normal 0.707106781186542 0.707106781186553 2.05128536260325e-015
outer loop
vertex 343.376311790918 72.730891571915 16.0000000000152
vertex 342.772421025046 73.5178973404239 0.0
vertex 342.772421025046 73.5178973404238 16.0000000000152
endloop
endfacet
facet normal 0.707106781186542 0.707106781186553 2.05128536260325e-015
outer loop
vertex 343.376311790918 72.730891571915 16.0000000000152
vertex 344.163317559427 72.1270008060429 0.0
vertex 343.376311790918 72.730891571915 0.0
endloop
endfacet
facet normal 0.500000000000002 0.866025403784438 2.51230122178845e-015
outer loop
vertex 344.163317559427 72.1270008060429 0.0
vertex 343.376311790918 72.730891571915 16.0000000000152
vertex 344.163317559427 72.1270008060431 16.0000000000152
endloop
endfacet
facet normal 0.500000000000004 0.866025403784436 2.51230122178845e-015
outer loop
vertex 344.163317559427 72.1270008060431 16.0000000000152
vertex 345.079805188037 71.7473792005253 0.0
vertex 344.163317559427 72.1270008060429 0.0
endloop
endfacet
facet normal 0.258819045102519 0.965925826289069 2.80210791809655e-015
outer loop
vertex 345.079805188037 71.7473792005253 0.0
vertex 344.163317559427 72.1270008060431 16.0000000000152
vertex 345.079805188037 71.7473792005253 16.0000000000152
endloop
endfacet
facet normal 0.258819045102519 0.965925826289069 2.80210791809655e-015
outer loop
vertex 345.079805188037 71.7473792005253 0.0
vertex 346.063317559427 71.6178973404239 16.0000000000152
vertex 346.063317559427 71.6178973404239 -4.51194637207664e-014
endloop
endfacet
facet normal 2.74462184785925e-015 1.0 2.90095557584922e-015
outer loop
vertex 346.063317559427 71.6178973404239 16.0000000000152
vertex 345.079805188037 71.7473792005253 0.0
vertex 345.079805188037 71.7473792005253 16.0000000000152
endloop
endfacet
facet normal 2.74462184785925e-015 1.0 2.90095557584922e-015
outer loop
vertex 346.063317559427 71.6178973404239 16.0000000000152
vertex 347.046829930817 71.7473792005254 -2.25597318603832e-014
vertex 346.063317559427 71.6178973404239 -4.51194637207664e-014
endloop
endfacet
facet normal -0.258819045102519 0.965925826289069 2.80210790161877e-015
outer loop
vertex 347.046829930817 71.7473792005254 -2.25597318603832e-014
vertex 346.063317559427 71.6178973404239 16.0000000000152
vertex 347.046829930817 71.7473792005254 16.0000000000152
endloop
endfacet
facet normal -0.258819045102521 0.965925826289068 2.80210790161877e-015
outer loop
vertex 347.046829930817 71.7473792005254 16.0000000000152
vertex 347.963317559427 72.127000806043 0.0
vertex 347.046829930817 71.7473792005254 -2.25597318603832e-014
endloop
endfacet
facet normal -0.500000000000001 0.866025403784438 2.51230121281953e-015
outer loop
vertex 347.963317559427 72.127000806043 0.0
vertex 347.046829930817 71.7473792005254 16.0000000000152
vertex 347.963317559427 72.127000806043 16.0000000000152
endloop
endfacet
facet normal -0.500000000000003 0.866025403784437 2.51230121281953e-015
outer loop
vertex 347.963317559427 72.127000806043 16.0000000000152
vertex 348.750323327936 72.730891571915 0.0
vertex 347.963317559427 72.127000806043 0.0
endloop
endfacet
facet normal -0.707106781186549 0.707106781186546 2.05128534758552e-015
outer loop
vertex 348.750323327936 72.730891571915 0.0
vertex 347.963317559427 72.127000806043 16.0000000000152
vertex 348.750323327936 72.7308915719151 16.0000000000152
endloop
endfacet
facet normal -0.707106781186549 0.707106781186546 2.05128534758552e-015
outer loop
vertex 348.750323327936 72.7308915719151 16.0000000000152
vertex 349.354214093808 73.5178973404238 -2.25597318603832e-014
vertex 348.750323327936 72.730891571915 0.0
endloop
endfacet
facet normal -0.866025403784439 0.5 1.45047777332404e-015
outer loop
vertex 349.354214093808 73.5178973404238 -2.25597318603832e-014
vertex 348.750323327936 72.7308915719151 16.0000000000152
vertex 349.354214093808 73.5178973404238 16.0000000000152
endloop
endfacet
endsolid Zuberi Delta - aluminum square rail - parts
