solid Zuberi Delta - aluminum square rail
facet normal 3.30872245021211e-024 -2.90095556327678e-015 1.0
outer loop
vertex 0.129481860101368 -0.983512371389629 0.0
vertex 0.129481860101639 0.983512371389629 0.0
vertex 0.0 0.0 0.0
endloop
endfacet
facet normal 3.30872245021211e-024 -2.90095556327678e-015 1.0
outer loop
vertex 0.129481860101639 0.983512371389629 0.0
vertex 0.129481860101368 -0.983512371389629 0.0
vertex 0.509103465619037 -1.90000000000002 0.0
endloop
endfacet
facet normal 3.30872245021211e-024 -2.90095556327678e-015 1.0
outer loop
vertex 0.129481860101639 0.983512371389629 0.0
vertex 0.509103465619037 -1.90000000000002 0.0
vertex 0.509103465619128 1.90000000000002 0.0
endloop
endfacet
facet normal 3.30872245021211e-024 -2.90095556327678e-015 1.0
outer loop
vertex 0.509103465619128 1.90000000000002 0.0
vertex 0.509103465619037 -1.90000000000002 0.0
vertex 1.11299423149109 -2.68700576850895 0.0
endloop
endfacet
facet normal 3.30872245021211e-024 -2.90095556327678e-015 1.0
outer loop
vertex 0.509103465619128 1.90000000000002 0.0
vertex 1.11299423149109 -2.68700576850895 0.0
vertex 1.11299423149118 2.68700576850895 0.0
endloop
endfacet
facet normal 3.30872245021211e-024 -2.90095556327678e-015 1.0
outer loop
vertex 1.11299423149118 2.68700576850895 0.0
vertex 1.11299423149109 -2.68700576850895 0.0
vertex 1.89999999999984 -3.290896534381 0.0
endloop
endfacet
facet normal 3.30872245021211e-024 -2.90095556327678e-015 1.0
outer loop
vertex 1.11299423149118 2.68700576850895 0.0
vertex 1.89999999999984 -3.290896534381 0.0
vertex 1.90000000000002 3.290896534381 0.0
endloop
endfacet
facet normal 3.30872245021211e-024 -2.90095556327678e-015 1.0
outer loop
vertex 1.90000000000002 3.290896534381 0.0
vertex 1.89999999999984 -3.290896534381 0.0
vertex 2.81648762861023 -3.67051813989858 0.0
endloop
endfacet
facet normal 3.30872245021211e-024 -2.90095556327678e-015 1.0
outer loop
vertex 1.90000000000002 3.290896534381 0.0
vertex 2.81648762861023 -3.67051813989858 0.0
vertex 2.81648762861059 3.67051813989858 2.25597318603832e-014
endloop
endfacet
facet normal 3.30872245021211e-024 -2.90095556327678e-015 1.0
outer loop
vertex 2.81648762861059 3.67051813989858 2.25597318603832e-014
vertex 2.81648762861023 -3.67051813989858 0.0
vertex 3.80000000000004 -3.80000000000004 -4.51194637207664e-014
endloop
endfacet
facet normal 3.30872245021211e-024 -2.90095556327678e-015 1.0
outer loop
vertex 2.81648762861059 3.67051813989858 2.25597318603832e-014
vertex 3.80000000000004 -3.80000000000004 -4.51194637207664e-014
vertex 3.80000000000022 3.80000000000004 2.25597318603832e-014
endloop
endfacet
facet normal 3.30872245021211e-024 -2.90095556327678e-015 1.0
outer loop
vertex 3.80000000000022 3.80000000000004 2.25597318603832e-014
vertex 3.80000000000004 -3.80000000000004 -4.51194637207664e-014
vertex 4.78351237138967 -3.67051813989849 -2.25597318603832e-014
endloop
endfacet
facet normal 3.30872245021211e-024 -2.90095556327678e-015 1.0
outer loop
vertex 3.80000000000022 3.80000000000004 2.25597318603832e-014
vertex 4.78351237138967 -3.67051813989849 -2.25597318603832e-014
vertex 4.78351237138976 3.67051813989858 2.25597318603832e-014
endloop
endfacet
facet normal 3.30872245021211e-024 -2.90095556327678e-015 1.0
outer loop
vertex 4.78351237138976 3.67051813989858 2.25597318603832e-014
vertex 4.78351237138967 -3.67051813989849 -2.25597318603832e-014
vertex 5.69999999999997 -3.29089653438091 0.0
endloop
endfacet
facet normal 3.30872245021211e-024 -2.90095556327678e-015 1.0
outer loop
vertex 4.78351237138976 3.67051813989858 2.25597318603832e-014
vertex 5.69999999999997 -3.29089653438091 0.0
vertex 5.70000000000006 3.29089653438082 0.0
endloop
endfacet
facet normal 3.30872245021211e-024 -2.90095556327678e-015 1.0
outer loop
vertex 5.70000000000006 3.29089653438082 0.0
vertex 5.69999999999997 -3.29089653438091 0.0
vertex 6.48700576850881 -2.68700576850895 0.0
endloop
endfacet
facet normal 3.30872245021211e-024 -2.90095556327678e-015 1.0
outer loop
vertex 5.70000000000006 3.29089653438082 0.0
vertex 6.48700576850881 -2.68700576850895 0.0
vertex 6.48700576850899 2.68700576850886 0.0
endloop
endfacet
facet normal 3.30872245021211e-024 -2.90095556327678e-015 1.0
outer loop
vertex 6.48700576850899 2.68700576850886 0.0
vertex 6.48700576850881 -2.68700576850895 0.0
vertex 7.09089653438086 -1.90000000000011 -2.25597318603832e-014
endloop
endfacet
facet normal 3.30872245021211e-024 -2.90095556327678e-015 1.0
outer loop
vertex 6.48700576850899 2.68700576850886 0.0
vertex 7.09089653438086 -1.90000000000011 -2.25597318603832e-014
vertex 7.09089653438086 1.89999999999993 2.25597318603832e-014
endloop
endfacet
facet normal 3.30872245021211e-024 -2.90095556327678e-015 1.0
outer loop
vertex 7.09089653438086 1.89999999999993 2.25597318603832e-014
vertex 7.09089653438086 -1.90000000000011 -2.25597318603832e-014
vertex 7.47051813989862 -0.983512371389449 2.25597318603832e-014
endloop
endfacet
facet normal 3.30872245021211e-024 -2.90095556327678e-015 1.0
outer loop
vertex 7.09089653438086 1.89999999999993 2.25597318603832e-014
vertex 7.47051813989862 -0.983512371389449 2.25597318603832e-014
vertex 7.47051813989853 0.983512371389539 0.0
endloop
endfacet
facet normal 3.30872245021211e-024 -2.90095556327678e-015 1.0
outer loop
vertex 7.47051813989853 0.983512371389539 0.0
vertex 7.47051813989862 -0.983512371389449 2.25597318603832e-014
vertex 7.60000000000026 9.02389274415327e-014 0.0
endloop
endfacet
facet normal -3.30872245021211e-024 2.90095556327678e-015 -1.0
outer loop
vertex 0.129481860101639 0.983512371389629 16.0000000000152
vertex 0.129481860101368 -0.983512371389629 16.0000000000152
vertex 0.0 0.0 16.0000000000152
endloop
endfacet
facet normal -3.30872245021211e-024 2.90095556327678e-015 -1.0
outer loop
vertex 0.129481860101368 -0.983512371389629 16.0000000000152
vertex 0.129481860101639 0.983512371389629 16.0000000000152
vertex 0.509103465619037 -1.90000000000011 16.0000000000152
endloop
endfacet
facet normal -3.30872245021211e-024 2.90095556327678e-015 -1.0
outer loop
vertex 0.509103465619037 -1.90000000000011 16.0000000000152
vertex 0.129481860101639 0.983512371389629 16.0000000000152
vertex 0.509103465619128 1.90000000000002 16.0000000000152
endloop
endfacet
facet normal -3.30872245021211e-024 2.90095556327678e-015 -1.0
outer loop
vertex 0.509103465619037 -1.90000000000011 16.0000000000152
vertex 0.509103465619128 1.90000000000002 16.0000000000152
vertex 1.112994231491 -2.68700576850895 16.0000000000152
endloop
endfacet
facet normal -3.30872245021211e-024 2.90095556327678e-015 -1.0
outer loop
vertex 1.112994231491 -2.68700576850895 16.0000000000152
vertex 0.509103465619128 1.90000000000002 16.0000000000152
vertex 1.11299423149109 2.68700576850913 16.0000000000152
endloop
endfacet
facet normal -3.30872245021211e-024 2.90095556327678e-015 -1.0
outer loop
vertex 1.112994231491 -2.68700576850895 16.0000000000152
vertex 1.11299423149109 2.68700576850913 16.0000000000152
vertex 1.89999999999984 -3.29089653438082 16.0000000000152
endloop
endfacet
facet normal -3.30872245021211e-024 2.90095556327678e-015 -1.0
outer loop
vertex 1.89999999999984 -3.29089653438082 16.0000000000152
vertex 1.11299423149109 2.68700576850913 16.0000000000152
vertex 1.90000000000002 3.290896534381 16.0000000000152
endloop
endfacet
facet normal -3.30872245021211e-024 2.90095556327678e-015 -1.0
outer loop
vertex 1.89999999999984 -3.29089653438082 16.0000000000152
vertex 1.90000000000002 3.290896534381 16.0000000000152
vertex 2.81648762861023 -3.67051813989858 16.0000000000152
endloop
endfacet
facet normal -3.30872245021211e-024 2.90095556327678e-015 -1.0
outer loop
vertex 2.81648762861023 -3.67051813989858 16.0000000000152
vertex 1.90000000000002 3.290896534381 16.0000000000152
vertex 2.8164876286105 3.67051813989876 16.0000000000152
endloop
endfacet
facet normal -3.30872245021211e-024 2.90095556327678e-015 -1.0
outer loop
vertex 2.81648762861023 -3.67051813989858 16.0000000000152
vertex 2.8164876286105 3.67051813989876 16.0000000000152
vertex 3.80000000000004 -3.80000000000004 16.0000000000152
endloop
endfacet
facet normal -3.30872245021211e-024 2.90095556327678e-015 -1.0
outer loop
vertex 3.80000000000004 -3.80000000000004 16.0000000000152
vertex 2.8164876286105 3.67051813989876 16.0000000000152
vertex 3.80000000000031 3.80000000000022 16.0000000000152
endloop
endfacet
facet normal -3.30872245021211e-024 2.90095556327678e-015 -1.0
outer loop
vertex 3.80000000000004 -3.80000000000004 16.0000000000152
vertex 3.80000000000031 3.80000000000022 16.0000000000152
vertex 4.78351237138967 -3.67051813989849 16.0000000000152
endloop
endfacet
facet normal -3.30872245021211e-024 2.90095556327678e-015 -1.0
outer loop
vertex 4.78351237138967 -3.67051813989849 16.0000000000152
vertex 3.80000000000031 3.80000000000022 16.0000000000152
vertex 4.78351237138976 3.67051813989858 16.0000000000152
endloop
endfacet
facet normal -3.30872245021211e-024 2.90095556327678e-015 -1.0
outer loop
vertex 4.78351237138967 -3.67051813989849 16.0000000000152
vertex 4.78351237138976 3.67051813989858 16.0000000000152
vertex 5.70000000000006 -3.29089653438091 16.0000000000152
endloop
endfacet
facet normal -3.30872245021211e-024 2.90095556327678e-015 -1.0
outer loop
vertex 5.70000000000006 -3.29089653438091 16.0000000000152
vertex 4.78351237138976 3.67051813989858 16.0000000000152
vertex 5.70000000000006 3.29089653438091 16.0000000000152
endloop
endfacet
facet normal -3.30872245021211e-024 2.90095556327678e-015 -1.0
outer loop
vertex 5.70000000000006 -3.29089653438091 16.0000000000152
vertex 5.70000000000006 3.29089653438091 16.0000000000152
vertex 6.48700576850899 2.68700576850895 16.0000000000152
endloop
endfacet
facet normal -3.30872245021211e-024 2.90095556327678e-015 -1.0
outer loop
vertex 5.70000000000006 -3.29089653438091 16.0000000000152
vertex 6.48700576850899 2.68700576850895 16.0000000000152
vertex 6.4870057685089 -2.68700576850886 16.0000000000152
endloop
endfacet
facet normal -3.30872245021211e-024 2.90095556327678e-015 -1.0
outer loop
vertex 6.4870057685089 -2.68700576850886 16.0000000000152
vertex 6.48700576850899 2.68700576850895 16.0000000000152
vertex 7.09089653438104 -1.90000000000011 16.0000000000152
endloop
endfacet
facet normal -3.30872245021211e-024 2.90095556327678e-015 -1.0
outer loop
vertex 7.09089653438104 -1.90000000000011 16.0000000000152
vertex 6.48700576850899 2.68700576850895 16.0000000000152
vertex 7.09089653438104 1.90000000000002 16.0000000000152
endloop
endfacet
facet normal -3.30872245021211e-024 2.90095556327678e-015 -1.0
outer loop
vertex 7.09089653438104 -1.90000000000011 16.0000000000152
vertex 7.09089653438104 1.90000000000002 16.0000000000152
vertex 7.47051813989853 0.983512371389539 16.0000000000152
endloop
endfacet
facet normal -3.30872245021211e-024 2.90095556327678e-015 -1.0
outer loop
vertex 7.09089653438104 -1.90000000000011 16.0000000000152
vertex 7.47051813989853 0.983512371389539 16.0000000000152
vertex 7.47051813989853 -0.983512371389629 16.0000000000152
endloop
endfacet
facet normal -3.30872245021211e-024 2.90095556327678e-015 -1.0
outer loop
vertex 7.47051813989853 -0.983512371389629 16.0000000000152
vertex 7.47051813989853 0.983512371389539 16.0000000000152
vertex 7.60000000000017 -9.02389274415327e-014 16.0000000000152
endloop
endfacet
facet normal -0.965925826289068 0.258819045102522 7.5082254214421e-016
outer loop
vertex 7.47051813989853 -0.983512371389629 16.0000000000152
vertex 7.09089653438086 -1.90000000000011 -2.25597318603832e-014
vertex 7.09089653438104 -1.90000000000011 16.0000000000152
endloop
endfacet
facet normal -0.866025403784439 0.5 1.45047777332404e-015
outer loop
vertex 7.09089653438086 -1.90000000000011 -2.25597318603832e-014
vertex 7.47051813989853 -0.983512371389629 16.0000000000152
vertex 7.47051813989862 -0.983512371389449 2.25597318603832e-014
endloop
endfacet
facet normal -1.0 2.1119330452683e-015 -6.3317244039118e-032
outer loop
vertex 7.60000000000017 -9.02389274415327e-014 16.0000000000152
vertex 7.47051813989862 -0.983512371389449 2.25597318603832e-014
vertex 7.47051813989853 -0.983512371389629 16.0000000000152
endloop
endfacet
facet normal -0.965925826289068 0.258819045102521 7.50822542144207e-016
outer loop
vertex 7.47051813989862 -0.983512371389449 2.25597318603832e-014
vertex 7.60000000000017 -9.02389274415327e-014 16.0000000000152
vertex 7.60000000000026 9.02389274415327e-014 0.0
endloop
endfacet
facet normal -0.965925826289069 -0.258819045102519 -7.50822552156027e-016
outer loop
vertex 7.47051813989853 0.983512371389539 16.0000000000152
vertex 7.60000000000026 9.02389274415327e-014 0.0
vertex 7.60000000000017 -9.02389274415327e-014 16.0000000000152
endloop
endfacet
facet normal -1.0 2.40599967182468e-016 -5.4769416093838e-030
outer loop
vertex 7.60000000000026 9.02389274415327e-014 0.0
vertex 7.47051813989853 0.983512371389539 16.0000000000152
vertex 7.47051813989853 0.983512371389539 0.0
endloop
endfacet
facet normal -0.866025403784439 -0.5 -1.4504777900104e-015
outer loop
vertex 7.09089653438104 1.90000000000002 16.0000000000152
vertex 7.47051813989853 0.983512371389539 0.0
vertex 7.47051813989853 0.983512371389539 16.0000000000152
endloop
endfacet
facet normal -0.965925826289069 -0.258819045102518 -7.50822552156024e-016
outer loop
vertex 7.47051813989853 0.983512371389539 0.0
vertex 7.09089653438104 1.90000000000002 16.0000000000152
vertex 7.09089653438086 1.89999999999993 2.25597318603832e-014
endloop
endfacet
facet normal -0.866025403784439 -0.5 -1.4504777900104e-015
outer loop
vertex 7.09089653438104 1.90000000000002 16.0000000000152
vertex 6.48700576850899 2.68700576850886 0.0
vertex 7.09089653438086 1.89999999999993 2.25597318603832e-014
endloop
endfacet
facet normal -0.707106781186546 -0.707106781186549 -2.05128536260325e-015
outer loop
vertex 6.48700576850899 2.68700576850886 0.0
vertex 7.09089653438104 1.90000000000002 16.0000000000152
vertex 6.48700576850899 2.68700576850895 16.0000000000152
endloop
endfacet
facet normal -0.707106781186546 -0.707106781186549 -2.05128536260325e-015
outer loop
vertex 6.48700576850899 2.68700576850895 16.0000000000152
vertex 5.70000000000006 3.29089653438082 0.0
vertex 6.48700576850899 2.68700576850886 0.0
endloop
endfacet
facet normal -0.500000000000002 -0.866025403784438 -2.51230123013163e-015
outer loop
vertex 5.70000000000006 3.29089653438082 0.0
vertex 6.48700576850899 2.68700576850895 16.0000000000152
vertex 5.70000000000006 3.29089653438091 16.0000000000152
endloop
endfacet
facet normal -0.500000000000001 -0.866025403784438 -2.51230123013163e-015
outer loop
vertex 5.70000000000006 3.29089653438091 16.0000000000152
vertex 4.78351237138976 3.67051813989858 2.25597318603832e-014
vertex 5.70000000000006 3.29089653438082 0.0
endloop
endfacet
facet normal -0.258819045102524 -0.965925826289068 -2.80210791976519e-015
outer loop
vertex 4.78351237138976 3.67051813989858 2.25597318603832e-014
vertex 5.70000000000006 3.29089653438091 16.0000000000152
vertex 4.78351237138976 3.67051813989858 16.0000000000152
endloop
endfacet
facet normal -0.258819045102523 -0.965925826289068 -2.80210791976519e-015
outer loop
vertex 4.78351237138976 3.67051813989858 16.0000000000152
vertex 3.80000000000022 3.80000000000004 2.25597318603832e-014
vertex 4.78351237138976 3.67051813989858 2.25597318603832e-014
endloop
endfacet
facet normal -8.55466549982102e-016 -1.0 -2.90095557835217e-015
outer loop
vertex 3.80000000000022 3.80000000000004 2.25597318603832e-014
vertex 4.78351237138976 3.67051813989858 16.0000000000152
vertex 3.80000000000031 3.80000000000022 16.0000000000152
endloop
endfacet
facet normal -1.78222197912937e-015 -1.0 -2.90095557835217e-015
outer loop
vertex 3.80000000000031 3.80000000000022 16.0000000000152
vertex 2.81648762861059 3.67051813989858 2.25597318603832e-014
vertex 3.80000000000022 3.80000000000004 2.25597318603832e-014
endloop
endfacet
facet normal 0.25881904510252 -0.965925826289069 -2.802107911422e-015
outer loop
vertex 2.81648762861059 3.67051813989858 2.25597318603832e-014
vertex 3.80000000000031 3.80000000000022 16.0000000000152
vertex 2.8164876286105 3.67051813989876 16.0000000000152
endloop
endfacet
facet normal 0.25881904510252 -0.965925826289069 -2.802107911422e-015
outer loop
vertex 2.81648762861059 3.67051813989858 2.25597318603832e-014
vertex 1.90000000000002 3.290896534381 16.0000000000152
vertex 1.90000000000002 3.290896534381 0.0
endloop
endfacet
facet normal 0.499999999999996 -0.866025403784441 -2.51230122387425e-015
outer loop
vertex 1.90000000000002 3.290896534381 16.0000000000152
vertex 2.81648762861059 3.67051813989858 2.25597318603832e-014
vertex 2.8164876286105 3.67051813989876 16.0000000000152
endloop
endfacet
facet normal 0.499999999999996 -0.866025403784441 -2.51230122387425e-015
outer loop
vertex 1.90000000000002 3.290896534381 16.0000000000152
vertex 1.11299423149118 2.68700576850895 0.0
vertex 1.90000000000002 3.290896534381 0.0
endloop
endfacet
facet normal 0.707106781186549 -0.707106781186546 -2.05128536302041e-015
outer loop
vertex 1.11299423149118 2.68700576850895 0.0
vertex 1.90000000000002 3.290896534381 16.0000000000152
vertex 1.11299423149109 2.68700576850913 16.0000000000152
endloop
endfacet
facet normal 0.707106781186549 -0.707106781186546 -2.05128536302041e-015
outer loop
vertex 1.11299423149118 2.68700576850895 0.0
vertex 0.509103465619128 1.90000000000002 16.0000000000152
vertex 0.509103465619128 1.90000000000002 0.0
endloop
endfacet
facet normal 0.866025403784438 -0.500000000000002 -1.4504777900104e-015
outer loop
vertex 0.509103465619128 1.90000000000002 16.0000000000152
vertex 1.11299423149118 2.68700576850895 0.0
vertex 1.11299423149109 2.68700576850913 16.0000000000152
endloop
endfacet
facet normal 0.866025403784438 -0.500000000000001 -1.4504777900104e-015
outer loop
vertex 0.509103465619128 1.90000000000002 0.0
vertex 0.129481860101639 0.983512371389629 16.0000000000152
vertex 0.129481860101639 0.983512371389629 0.0
endloop
endfacet
facet normal 0.965925826289068 -0.258819045102521 -7.5082254881875e-016
outer loop
vertex 0.129481860101639 0.983512371389629 16.0000000000152
vertex 0.509103465619128 1.90000000000002 0.0
vertex 0.509103465619128 1.90000000000002 16.0000000000152
endloop
endfacet
facet normal 0.965925826289068 -0.258819045102522 -7.50822548818755e-016
outer loop
vertex 0.129481860101639 0.983512371389629 0.0
vertex 0.0 0.0 16.0000000000152
vertex 0.0 0.0 0.0
endloop
endfacet
facet normal 1.0 3.92088835408468e-015 3.33727467667728e-024
outer loop
vertex 0.0 0.0 16.0000000000152
vertex 0.129481860101639 0.983512371389629 0.0
vertex 0.129481860101639 0.983512371389629 16.0000000000152
endloop
endfacet
facet normal 1.0 3.4396884197197e-015 3.33727328369788e-024
outer loop
vertex 0.0 0.0 0.0
vertex 0.129481860101368 -0.983512371389629 16.0000000000152
vertex 0.129481860101368 -0.983512371389629 0.0
endloop
endfacet
facet normal 0.96592582628907 0.258819045102515 7.50822560499207e-016
outer loop
vertex 0.129481860101368 -0.983512371389629 16.0000000000152
vertex 0.0 0.0 0.0
vertex 0.0 0.0 16.0000000000152
endloop
endfacet
facet normal 0.866025403784436 0.500000000000005 1.45047780002223e-015
outer loop
vertex 0.509103465619037 -1.90000000000002 0.0
vertex 0.129481860101368 -0.983512371389629 16.0000000000152
vertex 0.509103465619037 -1.90000000000011 16.0000000000152
endloop
endfacet
facet normal 0.96592582628907 0.258819045102515 7.50822560499207e-016
outer loop
vertex 0.129481860101368 -0.983512371389629 16.0000000000152
vertex 0.509103465619037 -1.90000000000002 0.0
vertex 0.129481860101368 -0.983512371389629 0.0
endloop
endfacet
facet normal 0.866025403784436 0.500000000000005 1.45047780002223e-015
outer loop
vertex 0.509103465619037 -1.90000000000002 0.0
vertex 1.112994231491 -2.68700576850895 16.0000000000152
vertex 1.11299423149109 -2.68700576850895 0.0
endloop
endfacet
facet normal 0.707106781186542 0.707106781186553 2.05128536260325e-015
outer loop
vertex 1.112994231491 -2.68700576850895 16.0000000000152
vertex 0.509103465619037 -1.90000000000002 0.0
vertex 0.509103465619037 -1.90000000000011 16.0000000000152
endloop
endfacet
facet normal 0.707106781186542 0.707106781186553 2.05128536260325e-015
outer loop
vertex 1.112994231491 -2.68700576850895 16.0000000000152
vertex 1.89999999999984 -3.290896534381 0.0
vertex 1.11299423149109 -2.68700576850895 0.0
endloop
endfacet
facet normal 0.500000000000002 0.866025403784438 2.51230122178845e-015
outer loop
vertex 1.89999999999984 -3.290896534381 0.0
vertex 1.112994231491 -2.68700576850895 16.0000000000152
vertex 1.89999999999984 -3.29089653438082 16.0000000000152
endloop
endfacet
facet normal 0.500000000000004 0.866025403784436 2.51230122178845e-015
outer loop
vertex 1.89999999999984 -3.29089653438082 16.0000000000152
vertex 2.81648762861023 -3.67051813989858 0.0
vertex 1.89999999999984 -3.290896534381 0.0
endloop
endfacet
facet normal 0.258819045102519 0.965925826289069 2.80210791809655e-015
outer loop
vertex 2.81648762861023 -3.67051813989858 0.0
vertex 1.89999999999984 -3.29089653438082 16.0000000000152
vertex 2.81648762861023 -3.67051813989858 16.0000000000152
endloop
endfacet
facet normal 0.258819045102519 0.965925826289069 2.80210791809655e-015
outer loop
vertex 2.81648762861023 -3.67051813989858 0.0
vertex 3.80000000000004 -3.80000000000004 16.0000000000152
vertex 3.80000000000004 -3.80000000000004 -4.51194637207664e-014
endloop
endfacet
facet normal 2.74462184785925e-015 1.0 2.90095557584922e-015
outer loop
vertex 3.80000000000004 -3.80000000000004 16.0000000000152
vertex 2.81648762861023 -3.67051813989858 0.0
vertex 2.81648762861023 -3.67051813989858 16.0000000000152
endloop
endfacet
facet normal 2.74462184785925e-015 1.0 2.90095557584922e-015
outer loop
vertex 3.80000000000004 -3.80000000000004 16.0000000000152
vertex 4.78351237138967 -3.67051813989849 -2.25597318603832e-014
vertex 3.80000000000004 -3.80000000000004 -4.51194637207664e-014
endloop
endfacet
facet normal -0.258819045102519 0.965925826289069 2.80210790161877e-015
outer loop
vertex 4.78351237138967 -3.67051813989849 -2.25597318603832e-014
vertex 3.80000000000004 -3.80000000000004 16.0000000000152
vertex 4.78351237138967 -3.67051813989849 16.0000000000152
endloop
endfacet
facet normal -0.258819045102521 0.965925826289068 2.80210790161877e-015
outer loop
vertex 4.78351237138967 -3.67051813989849 16.0000000000152
vertex 5.69999999999997 -3.29089653438091 0.0
vertex 4.78351237138967 -3.67051813989849 -2.25597318603832e-014
endloop
endfacet
facet normal -0.500000000000001 0.866025403784438 2.51230121281953e-015
outer loop
vertex 5.69999999999997 -3.29089653438091 0.0
vertex 4.78351237138967 -3.67051813989849 16.0000000000152
vertex 5.70000000000006 -3.29089653438091 16.0000000000152
endloop
endfacet
facet normal -0.500000000000003 0.866025403784437 2.51230121281953e-015
outer loop
vertex 5.70000000000006 -3.29089653438091 16.0000000000152
vertex 6.48700576850881 -2.68700576850895 0.0
vertex 5.69999999999997 -3.29089653438091 0.0
endloop
endfacet
facet normal -0.707106781186549 0.707106781186546 2.05128534758552e-015
outer loop
vertex 6.48700576850881 -2.68700576850895 0.0
vertex 5.70000000000006 -3.29089653438091 16.0000000000152
vertex 6.4870057685089 -2.68700576850886 16.0000000000152
endloop
endfacet
facet normal -0.707106781186549 0.707106781186546 2.05128534758552e-015
outer loop
vertex 6.4870057685089 -2.68700576850886 16.0000000000152
vertex 7.09089653438086 -1.90000000000011 -2.25597318603832e-014
vertex 6.48700576850881 -2.68700576850895 0.0
endloop
endfacet
facet normal -0.866025403784439 0.5 1.45047777332404e-015
outer loop
vertex 7.09089653438086 -1.90000000000011 -2.25597318603832e-014
vertex 6.4870057685089 -2.68700576850886 16.0000000000152
vertex 7.09089653438104 -1.90000000000011 16.0000000000152
endloop
endfacet
endsolid Zuberi Delta - aluminum square rail
